<svg width="31" height="30" viewBox="0 0 31 30" fill="none" xmlns="http://www.w3.org/2000/svg">
<path d="M15.5 2.68298C19.4096 2.68298 19.9428 2.68298 21.5422 2.68298C22.9639 2.68298 23.6747 3.03238 24.2078 3.20708C24.9187 3.55648 25.4518 3.73118 25.9849 4.25527C26.5181 4.77937 26.8735 5.30347 27.0512 6.00226C27.2289 6.52636 27.4066 7.22515 27.5843 8.62274C27.5843 10.195 27.5843 10.5444 27.5843 14.5625C27.5843 18.5806 27.5843 18.93 27.5843 20.5023C27.5843 21.8999 27.2289 22.5986 27.0512 23.1227C26.6958 23.8215 26.5181 24.3456 25.9849 24.8697C25.4518 25.3938 24.9187 25.7432 24.2078 25.9179C23.6747 26.0926 22.9639 26.2673 21.5422 26.442C19.9428 26.442 19.5874 26.442 15.5 26.442C11.4127 26.442 11.0572 26.442 9.45783 26.442C8.03615 26.442 7.3253 26.0926 6.79217 25.9179C6.08133 25.5685 5.54819 25.3938 5.01506 24.8697C4.48193 24.3456 4.12651 23.8215 3.9488 23.1227C3.77108 22.5986 3.59337 21.8999 3.41566 20.5023C3.41566 18.93 3.41566 18.5806 3.41566 14.5625C3.41566 10.5444 3.41566 10.195 3.41566 8.62274C3.41566 7.22515 3.77108 6.52636 3.9488 6.00226C4.30422 5.30347 4.48193 4.77937 5.01506 4.25527C5.54819 3.73118 6.08133 3.38178 6.79217 3.20708C7.3253 3.03238 8.03615 2.85768 9.45783 2.68298C11.0572 2.68298 11.5904 2.68298 15.5 2.68298ZM15.5 0.0625C11.4127 0.0625 11.0572 0.0625 9.45783 0.0625C7.85844 0.0625 6.79217 0.411899 5.90362 0.761296C5.01506 1.11069 4.12651 1.63479 3.23795 2.50828C2.3494 3.38178 1.99398 4.08057 1.46084 5.12877C1.10542 6.00226 0.927711 7.05045 0.75 8.62274C0.75 10.195 0.75 10.7191 0.75 14.5625C0.75 18.5806 0.75 18.93 0.75 20.5023C0.75 22.0745 1.10542 23.1227 1.46084 23.9962C1.81627 24.8697 2.3494 25.7432 3.23795 26.6167C4.12651 27.4902 4.83735 27.8396 5.90362 28.3637C6.79217 28.7131 7.85844 28.8878 9.45783 29.0625C11.0572 29.0625 11.5904 29.0625 15.5 29.0625C19.4096 29.0625 19.9428 29.0625 21.5422 29.0625C23.1416 29.0625 24.2078 28.7131 25.0964 28.3637C25.9849 28.0143 26.8735 27.4902 27.762 26.6167C28.6506 25.7432 29.006 25.0444 29.5392 23.9962C29.8946 23.1227 30.0723 22.0745 30.25 20.5023C30.25 18.93 30.25 18.4059 30.25 14.5625C30.25 10.7191 30.25 10.195 30.25 8.62274C30.25 7.05045 29.8946 6.00226 29.5392 5.12877C29.1837 4.25527 28.6506 3.38178 27.762 2.50828C26.8735 1.63479 26.1627 1.28539 25.0964 0.761296C24.2078 0.411899 23.1416 0.237199 21.5422 0.0625C19.9428 0.0625 19.5874 0.0625 15.5 0.0625Z" fill="url(#paint0_linear_381_55)"/>
<path d="M15.5 7.05045C11.2349 7.05045 7.85843 10.3697 7.85843 14.5625C7.85843 18.7553 11.2349 22.0745 15.5 22.0745C19.7651 22.0745 23.1416 18.7553 23.1416 14.5625C23.1416 10.3697 19.7651 7.05045 15.5 7.05045ZM15.5 19.4541C12.8343 19.4541 10.5241 17.3577 10.5241 14.5625C10.5241 11.942 12.6566 9.67093 15.5 9.67093C18.1657 9.67093 20.4759 11.7673 20.4759 14.5625C20.4759 17.183 18.1657 19.4541 15.5 19.4541Z" fill="url(#paint1_linear_381_55)"/>
<path d="M23.3193 8.62274C24.3007 8.62274 25.0964 7.84059 25.0964 6.87575C25.0964 5.91092 24.3007 5.12877 23.3193 5.12877C22.3378 5.12877 21.5422 5.91092 21.5422 6.87575C21.5422 7.84059 22.3378 8.62274 23.3193 8.62274Z" fill="url(#paint2_linear_381_55)"/>
<defs>
<linearGradient id="paint0_linear_381_55" x1="0.750036" y1="14.5549" x2="30.2108" y2="14.5549" gradientUnits="userSpaceOnUse">
<stop stop-color="#EDE0D3"/>
<stop offset="0.18" stop-color="#D5BC9C"/>
<stop offset="0.67" stop-color="#E7DBC6"/>
<stop offset="1" stop-color="#D6B690"/>
</linearGradient>
<linearGradient id="paint1_linear_381_55" x1="0.750036" y1="14.5549" x2="30.2108" y2="14.5549" gradientUnits="userSpaceOnUse">
<stop stop-color="#EDE0D3"/>
<stop offset="0.18" stop-color="#D5BC9C"/>
<stop offset="0.67" stop-color="#E7DBC6"/>
<stop offset="1" stop-color="#D6B690"/>
</linearGradient>
<linearGradient id="paint2_linear_381_55" x1="0.750036" y1="14.5549" x2="30.2108" y2="14.5549" gradientUnits="userSpaceOnUse">
<stop stop-color="#EDE0D3"/>
<stop offset="0.18" stop-color="#D5BC9C"/>
<stop offset="0.67" stop-color="#E7DBC6"/>
<stop offset="1" stop-color="#D6B690"/>
</linearGradient>
</defs>
</svg>
