<svg width="1920" height="1550" viewBox="0 0 1920 1550" fill="none" xmlns="http://www.w3.org/2000/svg">
<g filter="url(#filter0_f_125_600)">
<ellipse cx="1346.5" cy="681.735" rx="742.5" ry="381" fill="url(#paint0_radial_125_600)" fill-opacity="0.5"/>
</g>
<g filter="url(#filter1_df_125_600)">
<path d="M937.871 626.361C679.174 692.493 645.392 659.312 438.479 689.082C312.776 707.167 164.175 785.443 107.218 805.492C-14.0263 832.272 -90.3328 1046.45 -180.143 1110.94C-275.83 1179.66 -362.206 1076.79 -391.234 1101.65C-420.262 1126.5 -330.556 1038.81 -343.584 1067.73C-356.613 1096.64 -360.67 1126.09 -355.501 1154.19C-333.003 1281.76 -265.906 1408.19 -89.2332 1409.36C87.4396 1410.53 288.427 1383.86 460.264 1377.56C606.089 1372 513.7 1348.83 817 1345.23C974.267 1343.37 797.345 1254.77 937.871 1256.23C1097.11 1252.42 1199.02 1242.14 1369.5 1154.19C1769.5 1093.71 1962.38 1152.63 2046.53 1084.54C2142.52 998.802 2298.69 1037.2 2190.85 1007.25C2060.88 971.601 2140.66 717.055 2046.13 645.713C1967.34 586.639 1657.15 664.489 1597.69 598.164C1529.86 521.472 1357.02 506.188 1221.11 542.318C1131.8 573.527 1043.79 599.285 937.871 626.361Z" fill="black"/>
</g>
<defs>
<filter id="filter0_f_125_600" x="304" y="0.734863" width="2085" height="1362" filterUnits="userSpaceOnUse" color-interpolation-filters="sRGB">
<feFlood flood-opacity="0" result="BackgroundImageFix"/>
<feBlend mode="normal" in="SourceGraphic" in2="BackgroundImageFix" result="shape"/>
<feGaussianBlur stdDeviation="150" result="effect1_foregroundBlur_125_600"/>
</filter>
<filter id="filter1_df_125_600" x="-497.053" y="423.689" width="2824.41" height="1085.71" filterUnits="userSpaceOnUse" color-interpolation-filters="sRGB">
<feFlood flood-opacity="0" result="BackgroundImageFix"/>
<feColorMatrix in="SourceAlpha" type="matrix" values="0 0 0 0 0 0 0 0 0 0 0 0 0 0 0 0 0 0 127 0" result="hardAlpha"/>
<feOffset/>
<feGaussianBlur stdDeviation="48.5"/>
<feComposite in2="hardAlpha" operator="out"/>
<feColorMatrix type="matrix" values="0 0 0 0 0 0 0 0 0 0 0 0 0 0 0 0 0 0 0.8 0"/>
<feBlend mode="normal" in2="BackgroundImageFix" result="effect1_dropShadow_125_600"/>
<feBlend mode="normal" in="SourceGraphic" in2="effect1_dropShadow_125_600" result="shape"/>
<feGaussianBlur stdDeviation="50" result="effect2_foregroundBlur_125_600"/>
</filter>
<radialGradient id="paint0_radial_125_600" cx="0" cy="0" r="1" gradientUnits="userSpaceOnUse" gradientTransform="translate(1346.5 681.735) rotate(90) scale(381 742.5)">
<stop stop-color="#32AB92"/>
<stop offset="1" stop-color="#2A907B"/>
</radialGradient>
</defs>
</svg>
