<svg width="370" height="92" viewBox="0 0 370 92" fill="none" xmlns="http://www.w3.org/2000/svg">
<g clip-path="url(#clip0_76_836)">
<path d="M356.73 75.2401C357.709 73.5912 359.074 72.7554 360.804 72.7554C362.534 72.7554 363.9 73.5912 364.879 75.2401C365.607 76.5276 365.971 78.3346 365.971 80.6611C365.971 82.9877 365.607 84.8399 364.879 86.0822C363.832 87.7085 362.489 88.5217 360.804 88.5217C359.12 88.5217 357.777 87.7085 356.73 86.0822C356.001 84.8625 355.637 83.0554 355.637 80.6611C355.637 78.2668 356.001 76.5502 356.73 75.2401ZM354.021 88.725C355.774 90.8934 358.027 91.9776 360.804 91.9776C363.581 91.9776 365.835 90.8934 367.587 88.725C369.204 86.6921 370.023 84.0041 370.023 80.6611C370.023 77.3181 369.226 74.6302 367.587 72.5973C365.835 70.4289 363.581 69.3447 360.804 69.3447C358.027 69.3447 355.774 70.4289 354.021 72.5973C352.405 74.6302 351.586 77.3181 351.586 80.6611C351.586 84.0041 352.405 86.6921 354.021 88.725ZM332.352 91.4355H336.221V81.8131H344.643V91.4355H348.513V69.9094H344.643V78.425H336.221V69.9094H332.352V91.4355ZM312.275 91.4355H316.145V85.4498L324.567 79.2381V91.4355H328.436V69.9094H324.567V75.2853L316.145 81.4969V69.9094H312.275V91.4355ZM293.838 91.4355H297.708V81.7453H300.712L305.31 91.4355H309.885L303.831 80.0061L309.817 69.9319H305.515L300.689 78.5153H297.685V69.9319H293.815V91.4581L293.838 91.4355ZM267.275 91.4355H271.144V85.4498L279.566 79.2381V91.4355H283.436V69.9094H279.566V75.2853L271.144 81.4969V69.9094H267.275V91.4355ZM242.555 80.6837H243.351C243.351 80.6837 243.556 80.6837 243.761 80.6837C243.966 80.6837 244.125 80.7063 244.239 80.7515C244.353 80.7741 244.512 80.8193 244.672 80.8644C244.831 80.9096 244.99 80.9548 245.127 81.0451C245.264 81.1129 245.377 81.2032 245.514 81.3162C246.311 81.9712 246.72 82.9877 246.72 84.3881C246.72 85.7886 246.311 86.805 245.514 87.4601C245.377 87.573 245.264 87.6408 245.127 87.7311C244.99 87.7989 244.854 87.8666 244.672 87.8892C244.512 87.9344 244.353 87.957 244.239 88.0022C244.125 88.0248 243.966 88.0473 243.761 88.0699C243.556 88.0699 243.42 88.0699 243.351 88.0699H239.573V80.6837H242.555ZM235.703 91.4355H242.509C243.351 91.4355 243.989 91.4355 244.421 91.4129C244.877 91.4129 245.468 91.2774 246.197 91.0967C246.948 90.8934 247.585 90.5998 248.132 90.2158C248.905 89.6511 249.543 88.8605 250.021 87.8441C250.499 86.8502 250.749 85.6982 250.749 84.4333C250.749 83.1684 250.499 82.0164 250.021 81.0225C249.543 80.0287 248.905 79.2381 248.132 78.6508C247.585 78.2668 246.948 77.9732 246.197 77.7699C245.446 77.5666 244.854 77.4763 244.421 77.4537C243.966 77.4537 243.329 77.4311 242.509 77.4311H239.573V69.9319H235.703V91.4581V91.4355ZM252.98 91.4355H256.872V69.9094H252.98V91.4355ZM224.8 73.1168C226.166 73.1168 227.145 73.3653 227.759 73.8622C228.579 74.4947 228.989 75.5111 228.989 76.9342C228.989 78.3572 228.579 79.3736 227.759 80.0061C227.145 80.503 226.166 80.7515 224.8 80.7515H222.023V73.1394H224.8V73.1168ZM218.131 91.4355H222.001V84.0041H224.618C227.236 84.0041 229.171 83.5298 230.423 82.5811C232.084 81.3614 232.904 79.4866 232.904 76.9567C232.904 74.585 232.084 72.7102 230.423 71.3324C229.171 70.3837 227.236 69.9094 224.618 69.9094H218.131V91.4355ZM203.95 83.9364C204.109 84.3655 204.269 84.7043 204.405 84.9302C204.542 85.1787 204.77 85.4046 205.065 85.6079C205.361 85.8112 205.771 85.9241 206.204 85.9241H206.978L206.818 86.5114C206.636 87.1438 206.363 87.6633 206.022 88.0473C205.68 88.4313 205.179 88.6346 204.496 88.6346H204.041V91.9324H204.292C205.839 91.9324 206.978 91.6162 207.751 90.9838C208.002 90.7805 208.229 90.532 208.457 90.2384C208.685 89.9447 208.867 89.6962 209.003 89.4478C209.14 89.1993 209.322 88.8605 209.504 88.3862C209.686 87.9344 209.823 87.5956 209.891 87.3697C209.959 87.1438 210.096 86.7598 210.278 86.1951C210.46 85.6304 210.597 85.2465 210.642 85.0883L215.741 69.9319H211.553L207.797 82.8747H207.182L203.199 69.9319H199.011L203.927 83.959L203.95 83.9364ZM183.146 73.2298H188.699V91.4355H192.592V73.2298H198.191V69.9094H183.146V73.2298ZM173.426 80.6611H174.223C174.223 80.6611 174.428 80.6611 174.632 80.6611C174.837 80.6611 174.997 80.6837 175.11 80.7289C175.224 80.7515 175.384 80.7967 175.543 80.8418C175.702 80.887 175.862 80.9322 175.998 81.0225C176.135 81.0903 176.249 81.1807 176.385 81.2936C177.182 81.9486 177.592 82.9651 177.592 84.3655C177.592 85.766 177.182 86.7824 176.385 87.4375C176.249 87.5504 176.135 87.6182 175.998 87.7085C175.862 87.7763 175.725 87.8441 175.543 87.8666C175.384 87.9118 175.224 87.9344 175.11 87.9796C174.997 88.0022 174.837 88.0248 174.632 88.0473C174.428 88.0473 174.291 88.0473 174.223 88.0473H170.444V80.6611H173.426ZM166.575 91.4129H173.381C174.223 91.4129 174.86 91.4129 175.315 91.3903C175.771 91.3903 176.362 91.2548 177.091 91.0741C177.842 90.8708 178.479 90.5772 179.003 90.1932C179.777 89.6285 180.414 88.8379 180.892 87.8215C181.37 86.8276 181.62 85.6756 181.62 84.4107C181.62 83.1458 181.37 81.9938 180.892 81C180.414 80.0061 179.777 79.2155 179.003 78.6282C178.457 78.2443 177.819 77.9506 177.091 77.7473C176.34 77.544 175.748 77.4537 175.315 77.4311C174.86 77.4311 174.223 77.4085 173.381 77.4085H170.444V69.9094H166.575V91.4355V91.4129ZM145.315 91.4129H149.503L154.511 73.0942H155.011L160.019 91.4129H164.207L157.675 69.8868H151.825L145.292 91.4129H145.315ZM132.659 83.9138C132.818 84.343 132.978 84.6818 133.114 84.9076C133.251 85.1561 133.478 85.382 133.774 85.5853C134.07 85.7886 134.48 85.9015 134.912 85.9015H135.686L135.527 86.4888C135.345 87.1212 135.072 87.6408 134.73 88.0248C134.389 88.4088 133.888 88.612 133.205 88.612H132.75V91.9098H133C134.548 91.9098 135.686 91.5936 136.46 90.9612C136.711 90.7579 136.938 90.5094 137.166 90.2158C137.394 89.9221 137.576 89.6737 137.712 89.4252C137.872 89.1767 138.031 88.8379 138.213 88.3636C138.395 87.9118 138.532 87.573 138.6 87.3471C138.668 87.1212 138.805 86.7373 138.987 86.1726C139.169 85.6079 139.283 85.2239 139.351 85.0658L144.45 69.9094H140.262L136.506 82.8522H135.891L131.908 69.9094H127.72L132.636 83.9364L132.659 83.9138ZM110.853 91.4129H114.722V81.7228H117.727L122.325 91.4129H126.9L120.845 79.9835L126.832 69.9094H122.53L117.704 78.4927H114.7V69.9094H110.83V91.4355L110.853 91.4129Z" fill="white"/>
<path d="M317.259 33.9269C318.374 34.9433 319.786 35.4628 321.493 35.4628C323.2 35.4628 324.611 34.9433 325.727 33.9269C326.501 33.1589 327.047 32.2328 327.32 31.1034H323.974C323.86 31.5326 323.678 31.8714 323.382 32.1424C322.95 32.6168 322.312 32.8426 321.493 32.8426C320.673 32.8426 320.013 32.6168 319.604 32.1424C319.331 31.8714 319.126 31.5326 319.012 31.1034H315.666C315.939 32.2328 316.485 33.1815 317.259 33.9269ZM313.412 57.2374H317.282V51.2516L325.704 45.04V57.2374H329.573V35.7113H325.704V41.0872L317.282 47.2988V35.7113H313.412V57.2374ZM297.069 41.042C298.048 39.3931 299.414 38.5573 301.143 38.5573C302.873 38.5573 304.239 39.3931 305.218 41.042C305.946 42.3295 306.311 44.1365 306.311 46.463C306.311 48.7896 305.946 50.6418 305.218 51.8841C304.171 53.5104 302.828 54.3236 301.143 54.3236C299.459 54.3236 298.116 53.5104 297.069 51.8841C296.341 50.6644 295.976 48.8573 295.976 46.463C295.976 44.0687 296.341 42.3521 297.069 41.042ZM294.36 54.5269C296.113 56.6953 298.367 57.7795 301.143 57.7795C303.92 57.7795 306.174 56.6953 307.927 54.5269C309.543 52.494 310.362 49.806 310.362 46.463C310.362 43.1201 309.543 40.4321 307.927 38.3992C306.174 36.2308 303.92 35.1466 301.143 35.1466C298.367 35.1466 296.113 36.2308 294.36 38.3992C292.744 40.4321 291.925 43.1201 291.925 46.463C291.925 49.806 292.721 52.494 294.36 54.5269ZM274.352 57.2374H278.222V47.5473H281.227L285.824 57.2374H290.4L284.345 45.808L290.331 35.7339H286.029L281.204 44.3172H278.199V35.7339H274.33V57.26L274.352 57.2374ZM266.044 52.878C265.179 53.8266 264.109 54.301 262.789 54.301C260.968 54.301 259.602 53.4426 258.715 51.7486C258.055 50.4611 257.713 48.6766 257.713 46.4405C257.713 44.2043 258.055 42.465 258.715 41.1323C259.602 39.4608 260.968 38.6025 262.789 38.5799C264.132 38.5348 265.202 39.0091 265.999 40.003C266.773 40.9968 267.159 42.2166 267.137 43.6848H271.143C271.097 41.3356 270.323 39.3253 268.821 37.699C267.182 36.0501 265.179 35.2144 262.766 35.2144C259.898 35.2144 257.622 36.3437 255.915 38.6025C254.413 40.5902 253.661 43.233 253.661 46.5308C253.661 49.8286 254.413 52.4714 255.915 54.4591C257.577 56.7179 259.853 57.8473 262.766 57.8473C265.225 57.8473 267.228 57.0115 268.821 55.3626C270.323 53.7589 271.143 51.726 271.279 49.2413H267.228C267.228 50.7095 266.841 51.9519 266.021 52.9231M234.405 57.2826H238.274V47.6602H246.696V57.2826H250.566V35.7565H246.696V44.272H238.274V35.7565H234.405V57.2826ZM222.546 38.9639L225.163 48.3152H219.427L222.045 38.9639H222.546ZM212.712 57.2826H216.9L218.494 51.6808H226.142L227.735 57.2826H231.924L225.14 35.7565H219.518L212.735 57.2826H212.712ZM195.686 57.2826H199.556V47.5924H202.56L207.158 57.2826H211.733L205.679 45.8532L211.665 35.7791H207.363L202.538 44.3624H199.533V35.7791H195.663V57.3052L195.686 57.2826ZM175.61 57.2826H179.479V51.2968L187.901 45.0852V57.2826H191.771V35.7565H187.901V41.1323L179.479 47.344V35.7565H175.61V57.2826ZM164.707 38.9639C166.072 38.9639 167.051 39.2124 167.666 39.7093C168.485 40.3418 168.895 41.3582 168.895 42.7812C168.895 44.2043 168.485 45.2207 167.666 45.8532C167.051 46.3501 166.072 46.5986 164.707 46.5986H161.93V38.9865H164.707V38.9639ZM158.037 57.2826H161.907V49.8512H164.525C167.142 49.8512 169.077 49.3769 170.329 48.4282C171.991 47.2084 172.81 45.3337 172.81 42.8038C172.81 40.4321 171.991 38.5573 170.329 37.1795C169.077 36.2308 167.142 35.7565 164.525 35.7565H158.037V57.2826ZM131.224 51.613C131.861 53.0361 132.658 54.1655 133.568 54.9786C134.797 56.108 136.14 56.8534 137.62 57.1922C139.099 57.531 140.761 57.7117 142.605 57.7117C144.448 57.7117 146.11 57.5536 147.544 57.2148C148.978 56.876 150.298 56.1984 151.459 55.1593C153.781 53.0587 154.942 50.19 154.942 46.5308C154.942 42.8716 153.781 39.9804 151.459 37.9023C150.298 36.8633 148.978 36.163 147.544 35.8468C146.11 35.508 144.448 35.3499 142.605 35.3499C141.489 35.3499 140.51 35.3951 139.691 35.4628C138.872 35.5532 137.87 35.7791 136.709 36.1856C135.548 36.5922 134.547 37.1569 133.75 37.9023C131.428 40.003 130.267 42.8716 130.267 46.5308C130.267 48.4959 130.586 50.19 131.224 51.613ZM149.411 52.2229C148.136 53.8944 146.497 54.7527 144.448 54.7527V38.2185C146.497 38.2185 148.136 39.0543 149.411 40.7484C150.435 42.194 150.936 44.0913 150.936 46.4856C150.936 48.8799 150.435 50.8451 149.411 52.2229ZM135.799 40.658C137.005 39.0091 138.667 38.1959 140.761 38.1959V54.7301C138.667 54.8205 136.982 53.9396 135.708 52.11C134.752 50.6644 134.251 48.7896 134.251 46.463C134.251 43.9558 134.752 42.0358 135.776 40.658M119.228 38.9639L121.845 48.3152H116.109L118.727 38.9639H119.228ZM109.395 57.2826H113.583L115.176 51.6808H122.824L124.418 57.2826H128.606L121.823 35.7565H116.2L109.417 57.2826H109.395Z" fill="white"/>
<path d="M118.001 4.67567H118.501L123.213 19.561H113.289L118.001 4.67567ZM115.428 1.4682L109.328 19.5384V22.9718H127.174V19.5384L121.073 1.4682H115.451H115.428ZM141.833 1.4682V9.9838H133.411V1.4682H129.541V22.9944H133.411V13.372H141.833V22.9944H145.702V1.4682H141.833ZM161.909 1.4682V6.84409L153.487 13.0557V1.4682H149.617V22.9944H153.487V17.0086L161.909 10.797V22.9944H165.778V1.4682H161.909Z" fill="white"/>
<path d="M16.8948 82.4905C13.1618 77.86 11.8188 71.8291 10.5669 66.024C9.33772 60.2642 8.0858 54.5043 6.85663 48.7444C6.31034 46.1468 5.74128 43.5266 4.64869 41.0872C3.87477 39.3253 2.82771 37.699 1.9855 35.9823C1.18882 34.3786 0.574241 32.7071 -0.0175781 31.013V51.4098C0.232807 52.11 0.505955 52.8328 0.801864 53.6008C2.64561 58.5023 4.9446 63.3135 5.74128 68.5087C6.151 71.2418 6.151 74.0427 6.85663 76.7081C7.88094 80.7061 10.3848 84.1394 12.8431 87.4598C13.9585 88.9506 15.0511 90.464 16.1892 91.9548H23.769C23.6097 91.6838 23.4503 91.4127 23.291 91.1416C21.4245 87.9568 19.2166 85.3818 16.8948 82.4905ZM34.1031 89.2443C33.4657 87.6405 32.8284 86.0368 32.2821 84.3879C31.4627 81.9258 30.8708 79.4186 29.9604 77.0017C29.2547 75.1043 28.3898 73.2747 27.5248 71.4677C26.5915 69.5252 25.681 67.5826 24.6112 65.7078C23.3593 63.5168 22.3805 61.4613 21.6066 59.067C20.4457 55.34 19.3531 51.5679 18.3288 47.7957C17.8053 45.808 17.2818 43.7977 16.9859 41.7648C16.2119 36.5696 16.8265 31.2615 16.394 26.0211C16.2119 23.7623 15.825 21.5036 15.438 19.2674C14.9828 16.6698 14.5275 14.0496 13.5715 11.5875C12.3879 8.56076 10.7035 6.39234 8.83695 3.70439C8.83695 3.68181 8.79143 3.65922 8.79143 3.63663H8.83695C7.94922 2.34913 6.90216 1.15198 5.78681 0H0.00518416V11.1584C0.278332 11.7682 0.505955 12.4007 0.710815 13.0783C1.23435 14.8628 1.37092 16.7149 1.78064 18.522C2.21313 20.4871 2.94152 22.4071 3.66991 24.2819C4.23897 25.7726 4.80803 27.2634 5.39985 28.7542C5.58194 29.206 5.76404 29.6803 6.08272 30.0417C6.24205 30.2224 6.56072 30.0869 6.5152 29.8384C5.99167 25.5242 4.83079 15.9921 4.99013 12.491C4.99013 12.2652 5.14946 12.0393 5.37708 11.9715C5.76404 11.8812 5.99167 12.3329 6.08272 12.6943C7.92646 20.0805 8.65485 33.8365 10.6807 41.1775C12.4106 47.5021 15.8477 53.4201 16.1436 59.9705C16.2802 62.7036 16.7355 65.3464 17.0086 68.0795C17.2135 69.9769 17.4183 71.9195 17.9646 73.7491C19.5808 79.0572 23.9739 83.1004 26.1818 88.2052C26.6143 89.2217 26.9785 90.2833 27.5476 91.232C27.7069 91.5031 27.889 91.7515 28.0711 91.9774H35.9696C35.1274 91.2772 34.5128 90.2833 34.1031 89.2669M37.2671 2.30395C37.6768 2.73312 38.041 3.18488 38.4052 3.63663C40.1123 5.80506 41.2732 7.99607 43.2308 9.62239C43.7998 10.0967 44.3689 10.5485 44.9152 11.0454C45.5525 11.6101 46.1443 12.22 46.7134 12.8524C47.1914 13.372 47.6239 13.9367 48.1702 14.3884C49.3538 15.3597 50.9017 15.8114 52.2219 16.6246C53.7242 17.5507 55.0216 18.9963 56.7971 19.2674C57.002 18.8608 56.615 18.4316 56.2736 18.1154C55.181 17.0989 54.3843 15.7437 54.0201 14.2755C53.9063 13.7785 53.838 13.2816 53.6559 12.7847C53.4283 12.1296 53.0186 11.5423 52.6771 10.9099C51.4024 8.62853 50.674 6.0987 49.3538 3.83992C49.3083 3.77216 49.2855 3.70439 49.24 3.63663C48.5344 2.43948 47.8743 1.21974 47.2369 0H43.9819C44.642 1.12939 45.2566 2.30395 45.6891 3.63663C45.6891 3.68181 45.7346 3.74957 45.7346 3.79474C45.9395 4.4272 46.2126 5.24036 46.2354 5.918C46.2354 6.07611 46.2354 6.25681 46.0988 6.34716C45.9167 6.48269 45.6663 6.34716 45.4842 6.21164C44.3916 5.39848 43.3673 4.54014 42.3658 3.63663C41.296 2.68794 40.2489 1.69408 39.2246 0.700221C38.9515 0.451755 38.7238 0.225878 38.4962 0H35.4461C35.8558 0.564694 36.2655 1.12939 36.698 1.64891C36.8801 1.87478 37.085 2.10066 37.2671 2.30395ZM84.9313 0C85.6369 1.15198 86.2287 2.34913 86.5929 3.63663C87.0482 5.21777 87.3213 6.16646 87.7766 7.7476C89.0968 12.3781 90.4398 17.0764 92.6932 21.3229V0L84.9313 0ZM2.66837 73.7491C2.25865 72.0776 2.14484 70.3383 1.89445 68.6216C1.59854 66.6339 1.1433 64.6688 0.597004 62.7262C0.414905 62.0486 0.210045 61.3936 -0.0175781 60.7385V79.2605C1.48473 82.3324 4.78526 84.2524 6.26481 87.3469C6.97044 88.7925 7.22083 90.4188 7.69884 91.9548H9.70192C8.29066 87.8212 6.6973 83.7329 4.92184 79.7122C4.05687 77.7697 3.16914 75.8046 2.66837 73.7265M0.00518416 83.891V91.9322H4.23897C4.05687 91.3223 3.87477 90.7125 3.62439 90.1252C2.73666 87.9568 1.37092 85.9239 0.00518416 83.891ZM49.8546 88.4989C49.6725 88.2956 49.4676 88.1149 49.2628 87.9116C48.6254 87.3017 47.897 86.7596 47.2142 86.2175C46.9865 86.0368 46.7589 85.8561 46.5313 85.6528C44.8697 84.2524 43.4584 82.6035 42.0471 80.9771C41.5008 80.3447 40.9545 79.6897 40.4082 79.0572C39.7026 78.244 39.1108 77.5664 38.519 76.8662C38.2231 76.5274 37.9272 76.166 37.6312 75.8046C37.4719 75.6239 37.3353 75.4206 37.176 75.2399C37.0167 75.0366 36.8573 74.8333 36.698 74.63C34.1941 71.3096 32.2821 67.5148 30.3928 63.7879C29.5506 62.1164 28.6629 60.3093 27.1151 59.3155C26.933 59.2025 26.6826 59.3832 26.7509 59.5865C27.4565 62.3648 28.2077 65.1431 29.6644 67.6052C30.3018 68.6894 31.0757 69.7059 31.6675 70.8352C32.5325 72.5293 32.9422 74.4267 33.534 76.2337C34.1486 78.0407 35.355 79.6897 36.698 81.0449C37.9954 82.3776 38.2686 83.9361 39.3157 85.4721C40.0668 86.5789 41.0911 87.4824 42.0699 88.4085C43.3218 89.6057 44.5737 90.7802 45.8257 91.9774H53.3372C52.7226 91.4579 52.1308 90.9158 51.5618 90.3511C50.9927 89.7638 50.4464 89.1313 49.8774 88.5441M87.7083 19.1318C88.1635 23.1073 90.8267 26.3825 92.6932 29.9514V25.9308C90.804 23.1525 88.7326 20.4645 87.9814 17.2571C87.5262 17.5959 87.64 18.5897 87.7083 19.1544M90.0073 77.86C89.0057 75.7368 88.0042 73.591 86.7295 71.6032C85.8873 70.2931 84.954 69.0734 84.2712 67.673C83.2241 65.5497 82.8372 63.1102 81.6308 61.0773C80.4243 59.0218 78.1254 57.7795 76.8507 55.7692C74.5972 52.2229 72.5714 49.7609 70.8869 46.463C70.6593 46.0339 69.9765 46.3049 70.1586 46.7567C70.1586 46.7793 70.1813 46.8244 70.2041 46.847C72.9356 51.4775 75.667 56.1306 78.3757 60.7611C79.4456 62.5907 80.5154 64.4203 81.3348 66.3629C82.0632 68.1021 82.5868 69.9543 83.5428 71.6032C84.3167 72.9359 85.341 74.1105 86.0239 75.5109C87.5034 78.5377 87.0937 82.1065 87.8904 85.3592C88.4594 87.7083 89.6431 89.8541 90.8039 92H92.6705V84.8397C92.6022 84.5234 92.5339 84.2072 92.4428 83.9136C91.8738 81.8129 90.9405 79.8252 90.0073 77.86ZM87.5717 37.6538C86.6385 35.1014 86.2515 32.4134 85.7962 29.7255C84.3167 20.6904 82.473 12.4459 79.9008 3.68181C79.696 2.959 79.4228 2.25878 79.1269 1.60373C78.922 1.15198 78.6944 0.722809 78.444 0.293641C78.3985 0.20329 78.353 0.135527 78.3075 0.0677633H70.022C70.591 1.21974 71.0918 2.41689 71.5015 3.70439C72.5941 7.09256 73.5046 9.93862 74.5972 13.3268C75.0752 14.8176 75.5532 16.3084 76.2133 17.7314C76.8507 19.0867 77.6246 20.3516 78.2164 21.7068C80.0829 25.9759 79.9236 30.8775 81.6308 35.2143C82.177 36.6374 82.9282 37.97 83.6566 39.3253C84.9768 41.697 86.2743 44.0461 87.5717 46.4179C89.2561 49.4672 90.3942 52.5617 90.7357 56.0177C90.7357 56.108 90.7357 56.221 90.7584 56.3113C85.4776 51.8841 81.0162 46.3275 78.7399 39.8448C76.8051 34.3108 76.4182 28.1444 73.1632 23.2428C71.5471 20.7807 69.2708 18.7704 67.9506 16.1277C67.1767 14.5691 66.767 12.8524 66.3117 11.1584C65.6061 8.58335 64.6501 6.23422 63.7624 3.70439C63.2388 2.2136 62.2145 1.15198 61.0764 0.0677633H54.1111C55.1582 1.26491 56.4101 2.19101 57.0247 3.70439C58.4815 7.29585 58.6636 11.2713 60.5756 14.6369C61.4406 16.1728 62.4649 17.641 63.1933 19.2448C65.5833 24.5755 64.6273 31.1711 68.0872 35.892C69.2936 37.5409 70.9552 38.8058 72.321 40.3418C75.1435 43.5266 76.5775 47.728 79.4911 50.8225C80.5382 51.9293 81.7673 52.878 82.7689 54.0299C84.1346 55.5885 85.0451 57.4859 86.1604 59.2477C87.8904 61.9808 90.0756 64.3526 92.3518 66.6565C92.4201 66.8598 92.5111 67.0631 92.6022 67.2438V51.2291C92.1697 50.0545 91.8055 48.8799 91.5551 47.615C90.895 44.0913 88.7326 41.0194 87.5034 37.6538M64.7867 76.6629C62.169 72.4616 61.1219 67.5148 59.9155 62.7036C58.7091 57.8925 57.1841 52.9909 53.9063 49.2865C52.8365 48.0668 51.5845 47.0051 50.4692 45.808C48.9441 44.1365 47.7149 42.2391 46.5085 40.3192C42.5707 34.0849 38.9742 26.2018 36.6069 21.3906C35.5826 19.3125 33.1698 17.8443 31.2806 16.4665C29.5962 15.2242 27.6614 14.2529 26.2046 12.7395C25.2941 11.7908 24.6112 10.684 23.9511 9.55463C22.6992 7.52173 21.5155 5.71471 20.2636 3.68181C19.5125 2.43948 18.6703 1.21974 17.8053 0.0451755H11.3863C12.1147 1.24233 12.8204 2.46207 13.5032 3.68181C18.0329 11.9038 20.9465 20.329 21.3107 29.7029C21.4017 32.1876 21.3107 34.6948 21.6976 37.1569C21.9936 39.0994 22.5854 40.9742 23.1772 42.849C24.8616 48.1797 29.1637 52.2681 33.2609 56.108C34.399 57.1922 35.4233 58.3668 36.3338 59.6543L36.6525 60.1061L41.6602 67.2212C42.4796 68.3732 43.2763 69.5252 44.2095 70.5868C45.0973 71.6032 46.0988 72.5293 46.941 73.591C48.6482 75.669 49.8091 78.1537 51.5618 80.2092C52.6316 81.4515 53.9063 82.5131 55.1354 83.5973C58.1173 86.2401 60.8488 89.1313 63.5803 92.0226H69.2025C67.814 90.6673 66.4028 89.3346 64.9915 87.8438C60.6212 83.2133 56.2053 78.5603 52.8137 73.1844C51.448 71.0385 50.2643 68.7798 48.8075 66.7017C47.6011 64.985 46.2354 63.3813 44.8697 61.8001C41.9561 58.4346 39.566 55.34 36.6525 51.9745C34.4218 49.3769 32.3959 46.3727 31.0529 43.233C30.3473 41.5841 29.7783 39.8674 29.0043 38.2637C28.367 36.931 27.5703 35.6661 26.9785 34.3108C25.9542 31.9391 25.5445 29.3641 25.1575 26.8117C25.0665 26.2696 24.9982 25.7275 25.0665 25.208C25.9542 25.5016 26.4094 26.4503 26.8647 27.2409C29.323 31.3518 33.7389 34.0849 36.6297 37.9249C38.9287 40.9742 40.7269 43.6622 43.0259 46.7115C44.0957 48.1345 45.1656 49.5576 46.2354 50.958C47.7605 52.9683 49.2855 54.9786 50.4464 57.2148C52.882 61.8905 53.7014 67.3793 56.9337 71.5355C58.049 72.9585 59.392 74.1782 60.348 75.6916C61.0309 76.7758 61.4634 77.973 62.0779 79.1024C63.3982 81.5644 65.4468 83.5522 67.3588 85.6302C69.4529 87.9116 70.8414 89.7864 72.3437 92.0452H75.5305C72.9583 87.8438 70.0903 83.8232 66.9491 80.0285C66.1296 79.0346 65.5378 77.8149 64.8549 76.7081M68.0417 49.6479L59.2099 34.5367C57.002 30.7645 54.7713 26.9698 52.1081 23.4913C49.1034 19.6062 44.073 17.4378 40.1123 14.5013C39.2474 13.8689 38.3824 13.2138 37.563 12.491C37.2443 12.22 36.9711 11.9263 36.6752 11.6101C35.6965 10.5485 34.8998 9.35134 34.2169 8.06383C33.5796 6.79892 32.8056 5.01448 32.3504 3.68181C32.0317 2.82347 31.531 2.0329 31.0074 1.26492C30.7343 0.880923 30.5067 0.474343 30.3018 0.0451755H24.2698C24.3381 0.271053 24.3836 0.496931 24.4519 0.745396C24.7023 1.69408 24.9071 2.7783 25.2713 3.68181C26.4094 6.4601 28.3442 7.99607 29.4141 10.6163C29.9604 11.9263 31.0985 12.9202 32.3504 13.5978C33.6023 14.2981 34.9908 14.7046 36.22 15.45C36.3793 15.5404 36.5159 15.6533 36.6752 15.7663C37.7451 16.5342 38.6328 17.5507 39.4978 18.5446C41.7967 21.1647 44.0957 23.8075 46.3947 26.4503C48.7392 29.1156 51.0838 31.8262 52.9958 34.8078C54.6574 37.4053 56.0004 40.2062 57.6393 42.8038C59.3465 45.5369 61.3951 48.0668 63.2388 50.7321C67.9279 57.4859 71.3877 65.0754 73.5957 72.9811C74.6655 76.821 75.4622 80.7287 76.7596 84.5008C77.6474 87.0984 78.8082 89.6283 80.1512 92.0226H83.3834C82.5412 88.8603 82.3591 85.4495 81.8811 82.1969C80.1512 70.4738 74.0281 59.8802 68.0417 49.6479Z" fill="white"/>
</g>
<defs>
<clipPath id="clip0_76_836">
<rect width="370" height="92" fill="white"/>
</clipPath>
</defs>
</svg>
