<svg width="1539" height="64" viewBox="0 0 1539 64" fill="none" xmlns="http://www.w3.org/2000/svg">
<path d="M149.444 47.1984C169.645 19.9708 163.742 17.6918 184.39 46.4288C186.671 46.4288 188.953 46.4455 191.235 46.4788C186.353 37.263 177.34 27.1475 170.686 19.3311C166.732 15.223 165.372 18.2316 161.475 22.9295C155.303 30.596 146.793 38.1725 142.096 47.4383C144.538 47.3784 146.987 47.2984 149.444 47.1984Z" fill="#D9C6A5"/>
<path d="M42.9539 17.632C22.7528 44.8596 28.6622 47.1386 8.00756 18.4016C5.72599 18.4016 3.44677 18.385 1.16992 18.3516C6.05192 27.5675 15.0578 37.6829 21.7183 45.4993C25.6791 49.6075 27.0325 46.5988 30.9296 41.901C37.1012 34.2344 45.611 26.6579 50.3088 17.3921C47.8666 17.4521 45.415 17.532 42.9539 17.632Z" fill="#AD8F53"/>
<path d="M55.508 47.1984C75.7091 19.9708 69.7997 17.6918 90.4543 46.4288C92.7359 46.4288 95.0175 46.4455 97.299 46.4788C92.417 37.263 83.4041 27.1475 76.7507 19.3311C72.7969 15.223 71.4365 18.2316 67.5394 22.9295C61.3678 30.596 52.8579 38.1725 48.1602 47.4383C50.6023 47.3784 53.0516 47.2984 55.508 47.1984Z" fill="#D9C6A5"/>
<path d="M136.888 17.632C116.686 44.8596 122.596 47.1386 101.941 18.4016C99.6596 18.4016 97.3804 18.385 95.1035 18.3516C99.9855 27.5675 108.991 37.6829 115.652 45.4993C119.613 49.6075 120.973 46.5988 124.863 41.901C131.035 34.2344 139.545 26.6579 144.242 17.3921C141.8 17.4521 139.349 17.532 136.888 17.632Z" fill="#AD8F53"/>
<path d="M192.382 60.5323V63.9907H138.071C110.33 64.0907 82.5973 63.331 54.857 63.1811C37.2279 63.0911 19.606 63.5509 1.97689 63.9408L0 63.9907V60.5223C19.691 59.8126 39.2686 59.6827 58.9737 59.9926C83.7097 59.9926 108.453 60.8422 133.182 61.3519C140.189 61.5019 147.204 61.7817 154.212 61.7817L192.382 60.5323Z" fill="#D9C6A5"/>
<path d="M192.383 0.82961V4.29804L176.716 3.81824C171.976 3.66831 167.207 3.03861 162.545 3.0486L131.113 3.09857C110.466 3.09857 89.8747 3.76827 69.2129 4.16809C65.0324 4.24805 60.8495 4.29137 56.6643 4.29804C44.0731 4.29804 32.318 4.1481 11.2383 4.29804C5.39971 4.29804 6.32793 4.29804 0.0429688 4.29804V0.82961L30.5112 1.7392C37.526 1.93911 44.5762 2.46887 51.5697 2.36892C72.2598 2.36892 92.9994 1.36936 113.697 0.859595C126.734 0.509754 136.909 0 149.968 0C161.305 0 175.583 0.82961 186.927 0.82961H192.383Z" fill="#D9C6A5"/>
<path d="M341.811 47.1984C362.012 19.9708 356.102 17.6918 376.757 46.4288C379.039 46.4288 381.32 46.4455 383.602 46.4788C378.72 37.263 369.707 27.1475 363.053 19.3311C359.1 15.223 357.739 18.2316 353.842 22.9295C347.67 30.596 339.161 38.1725 334.463 47.4383C336.905 47.3784 339.354 47.2984 341.811 47.1984Z" fill="#D9C6A5"/>
<path d="M235.322 17.632C215.121 44.8596 221.031 47.1386 200.376 18.4016C198.094 18.4016 195.813 18.385 193.531 18.3516C198.42 27.5675 207.426 37.6829 214.08 45.4993C218.033 49.6075 219.394 46.5988 223.291 41.901C229.463 34.2344 237.972 26.6579 242.67 17.3921C240.233 17.4521 237.783 17.532 235.322 17.632Z" fill="#AD8F53"/>
<path d="M247.877 47.1984C268.078 19.9708 262.169 17.6918 282.823 46.4288C285.105 46.4288 287.387 46.4455 289.668 46.4788C284.786 37.263 275.773 27.1475 269.12 19.3311C265.166 15.223 263.806 18.2316 259.909 22.9295C253.737 30.596 245.227 38.1725 240.529 47.4383C242.971 47.3784 245.421 47.2984 247.877 47.1984Z" fill="#D9C6A5"/>
<path d="M329.256 17.632C309.055 44.8596 314.964 47.1386 294.31 18.4016C292.028 18.4016 289.746 18.385 287.465 18.3516C292.354 27.5675 301.36 37.6829 308.013 45.4993C311.967 49.6075 313.327 46.5988 317.225 41.901C323.396 34.2344 331.906 26.6579 336.604 17.3921C334.166 17.4521 331.717 17.532 329.256 17.632Z" fill="#AD8F53"/>
<path d="M384.751 60.5323V63.9907H330.439C302.699 64.0907 274.966 63.331 247.226 63.1811C229.597 63.0911 211.975 63.5509 194.346 63.9408L192.383 63.9907V60.5223C212.074 59.8126 231.651 59.6827 251.357 59.9926C276.092 59.9926 300.836 60.8422 325.564 61.3519C332.572 61.5019 339.587 61.7817 346.595 61.7817L384.751 60.5323Z" fill="#D9C6A5"/>
<path d="M384.75 0.82961V4.29804L369.083 3.81824C364.343 3.66831 359.574 3.03861 354.912 3.0486L323.48 3.09857C302.833 3.09857 282.242 3.76827 261.58 4.16809C257.4 4.24805 253.217 4.29137 249.031 4.29804C236.44 4.29804 224.685 4.1481 203.605 4.29804C197.767 4.29804 198.695 4.29804 192.41 4.29804V0.82961L222.878 1.7392C229.9 1.93911 236.95 2.46887 243.944 2.36892C264.634 2.36892 285.374 1.36936 306.071 0.859595C319.108 0.509754 329.283 0 342.342 0C353.679 0 367.957 0.82961 379.301 0.82961H384.75Z" fill="#D9C6A5"/>
<path d="M534.18 47.1984C554.381 19.9708 548.472 17.6918 569.126 46.4288C571.408 46.4288 573.689 46.4455 575.971 46.4788C571.082 37.263 562.076 27.1475 555.423 19.3311C551.469 15.223 550.108 18.2316 546.211 22.9295C540.04 30.596 531.53 38.1725 526.832 47.4383C529.274 47.3784 531.723 47.2984 534.18 47.1984Z" fill="#D9C6A5"/>
<path d="M427.689 17.632C407.488 44.8596 413.398 47.1386 392.743 18.4016C390.462 18.4016 388.18 18.385 385.898 18.3516C390.78 27.5675 399.793 37.6829 406.447 45.4993C410.401 49.6075 411.761 46.5988 415.658 41.901C421.83 34.2344 430.34 26.6579 435.037 17.3921C432.6 17.4521 430.151 17.532 427.689 17.632Z" fill="#AD8F53"/>
<path d="M440.244 47.1984C460.445 19.9708 454.536 17.6918 475.191 46.4288C477.472 46.4288 479.754 46.4455 482.035 46.4788C477.146 37.263 468.14 27.1475 461.487 19.3311C457.533 15.223 456.173 18.2316 452.276 22.9295C446.104 30.596 437.594 38.1725 432.896 47.4383C435.339 47.3784 437.788 47.2984 440.244 47.1984Z" fill="#D9C6A5"/>
<path d="M521.623 17.632C501.422 44.8596 507.331 47.1386 486.677 18.4016C484.395 18.4016 482.114 18.385 479.832 18.3516C484.714 27.5675 493.727 37.6829 500.38 45.4993C504.334 49.6075 505.695 46.5988 509.592 41.901C515.763 34.2344 524.273 26.6579 528.971 17.3921C526.533 17.4521 524.084 17.532 521.623 17.632Z" fill="#AD8F53"/>
<path d="M577.118 60.5323V63.9907H522.807C495.059 64.0907 467.326 63.331 439.593 63.1811C421.964 63.0911 404.342 63.5509 386.713 63.9408L384.75 63.9907V60.5223C404.441 59.8126 424.019 59.6827 443.724 59.9926C468.46 59.9926 493.203 60.8422 517.932 61.3519C524.939 61.5019 531.954 61.7817 538.962 61.7817L577.118 60.5323Z" fill="#D9C6A5"/>
<path d="M577.118 0.82961V4.29804L561.445 3.81824C556.712 3.66831 551.943 3.03861 547.273 3.0486L515.842 3.09857C495.187 3.09857 474.603 3.76827 453.941 4.16809C449.761 4.24805 445.576 4.29137 441.386 4.29804C428.802 4.29804 417.047 4.1481 395.967 4.29804C390.128 4.29804 391.056 4.29804 384.771 4.29804V0.82961L415.24 1.7392C422.262 1.93911 429.312 2.46887 436.305 2.36892C456.988 2.36892 477.735 1.36936 498.432 0.859595C511.47 0.509754 521.645 0 534.704 0C546.041 0 560.318 0.82961 571.662 0.82961H577.118Z" fill="#D9C6A5"/>
<path d="M726.546 47.1984C746.747 19.9708 740.838 17.6918 761.493 46.4288C763.774 46.4288 766.053 46.4455 768.33 46.4788C763.448 37.263 754.442 27.1475 747.782 19.3311C743.821 15.223 742.468 18.2316 738.571 22.9295C732.399 30.596 723.889 38.1725 719.191 47.4383C721.638 47.3784 724.09 47.2984 726.546 47.1984Z" fill="#D9C6A5"/>
<path d="M620.057 17.632C599.856 44.8596 605.758 47.1386 585.11 18.4016C582.829 18.4016 580.547 18.385 578.266 18.3516C583.148 27.5675 592.161 37.6829 598.814 45.4993C602.768 49.6075 604.128 46.5988 608.025 41.901C614.197 34.2344 622.707 26.6579 627.405 17.3921C624.967 17.4521 622.518 17.532 620.057 17.632Z" fill="#AD8F53"/>
<path d="M632.612 47.1984C652.814 19.9708 646.904 17.6918 667.559 46.4288C669.84 46.4288 672.12 46.4455 674.396 46.4788C669.514 37.263 660.509 27.1475 653.848 19.3311C649.887 15.223 648.527 18.2316 644.637 22.9295C638.416 30.596 629.913 38.1725 625.236 47.4383C627.697 47.3784 630.156 47.2984 632.612 47.1984Z" fill="#D9C6A5"/>
<path d="M713.99 17.632C693.789 44.8596 699.699 47.1386 679.044 18.4016C676.762 18.4016 674.481 18.385 672.199 18.3516C677.081 27.5675 686.094 37.6829 692.748 45.4993C696.701 49.6075 698.062 46.5988 701.959 41.901C708.131 34.2344 716.64 26.6579 721.338 17.3921C718.896 17.4521 716.447 17.532 713.99 17.632Z" fill="#AD8F53"/>
<path d="M769.501 60.5323V63.9907H715.189C687.442 64.0907 659.709 63.331 631.976 63.1811C614.347 63.0911 596.725 63.5509 579.096 63.9408L577.133 63.9907V60.5223C596.824 59.8126 616.401 59.6827 636.107 59.9926C660.835 59.9926 685.578 60.8422 710.314 61.3519C717.322 61.5019 724.337 61.7817 731.345 61.7817L769.501 60.5323Z" fill="#D9C6A5"/>
<path d="M769.501 0.82961V4.29804L753.828 3.81824C749.094 3.66831 744.326 3.03861 739.656 3.0486L708.224 3.09857C687.57 3.09857 666.986 3.76827 646.324 4.16809C642.144 4.24805 637.959 4.29137 633.769 4.29804C621.184 4.29804 609.429 4.1481 588.35 4.29804C582.511 4.29804 583.439 4.29804 577.154 4.29804V0.82961L607.623 1.7392C614.644 1.93911 621.695 2.46887 628.688 2.36892C649.371 2.36892 670.118 1.36936 690.815 0.859595C703.853 0.509754 714.028 0 727.086 0C738.423 0 752.701 0.82961 764.045 0.82961H769.501Z" fill="#D9C6A5"/>
<path d="M918.944 47.1984C939.145 19.9708 933.242 17.6918 953.89 46.4288C956.171 46.4288 958.453 46.4455 960.735 46.4788C955.853 37.263 946.84 27.1475 940.186 19.3311C936.232 15.223 934.872 18.2316 930.975 22.9295C924.803 30.596 916.293 38.1725 911.596 47.4383C914.038 47.3784 916.487 47.2984 918.944 47.1984Z" fill="#D9C6A5"/>
<path d="M812.454 17.632C792.253 44.8596 798.162 47.1386 777.508 18.4016C775.226 18.4016 772.947 18.385 770.67 18.3516C775.552 27.5675 784.558 37.6829 791.218 45.4993C795.179 49.6075 796.532 46.5988 800.43 41.901C806.601 34.2344 815.111 26.6579 819.809 17.3921C817.367 17.4521 814.915 17.532 812.454 17.632Z" fill="#AD8F53"/>
<path d="M825.008 47.1984C845.209 19.9708 839.3 17.6918 859.954 46.4288C862.236 46.4288 864.517 46.4455 866.799 46.4788C861.917 37.263 852.904 27.1475 846.251 19.3311C842.297 15.223 840.936 18.2316 837.039 22.9295C830.868 30.596 822.358 38.1725 817.66 47.4383C820.102 47.3784 822.552 47.2984 825.008 47.1984Z" fill="#D9C6A5"/>
<path d="M906.388 17.632C886.186 44.8596 892.096 47.1386 871.441 18.4016C869.16 18.4016 866.88 18.385 864.604 18.3516C869.486 27.5675 878.491 37.6829 885.152 45.4993C889.113 49.6075 890.473 46.5988 894.363 41.901C900.535 34.2344 909.045 26.6579 913.742 17.3921C911.3 17.4521 908.849 17.532 906.388 17.632Z" fill="#AD8F53"/>
<path d="M961.882 60.5323V63.9907H907.571C879.83 64.0907 852.097 63.331 824.357 63.1811C806.728 63.0911 789.106 63.5509 771.477 63.9408L769.5 63.9907V60.5223C789.191 59.8126 808.769 59.6827 828.474 59.9926C853.21 59.9926 877.953 60.8422 902.682 61.3519C909.689 61.5019 916.704 61.7817 923.712 61.7817L961.882 60.5323Z" fill="#D9C6A5"/>
<path d="M961.883 0.82961V4.29804L946.216 3.81824C941.476 3.66831 936.707 3.03861 932.045 3.0486L900.613 3.09857C879.966 3.09857 859.375 3.76827 838.713 4.16809C834.532 4.24805 830.35 4.29137 826.164 4.29804C813.573 4.29804 801.818 4.1481 780.738 4.29804C774.9 4.29804 775.828 4.29804 769.543 4.29804V0.82961L800.011 1.7392C807.026 1.93911 814.076 2.46887 821.07 2.36892C841.76 2.36892 862.499 1.36936 883.197 0.859595C896.234 0.509754 906.409 0 919.468 0C930.805 0 945.083 0.82961 956.427 0.82961H961.883Z" fill="#D9C6A5"/>
<path d="M1111.31 47.1984C1131.51 19.9708 1125.6 17.6918 1146.26 46.4288C1148.54 46.4288 1150.82 46.4455 1153.1 46.4788C1148.22 37.263 1139.21 27.1475 1132.55 19.3311C1128.6 15.223 1127.24 18.2316 1123.34 22.9295C1117.17 30.596 1108.66 38.1725 1103.96 47.4383C1106.41 47.3784 1108.85 47.2984 1111.31 47.1984Z" fill="#D9C6A5"/>
<path d="M1004.82 17.632C984.621 44.8596 990.531 47.1386 969.876 18.4016C967.594 18.4016 965.313 18.385 963.031 18.3516C967.92 27.5675 976.926 37.6829 983.58 45.4993C987.533 49.6075 988.894 46.5988 992.791 41.901C998.963 34.2344 1007.47 26.6579 1012.17 17.3921C1009.73 17.4521 1007.28 17.532 1004.82 17.632Z" fill="#AD8F53"/>
<path d="M1017.38 47.1984C1037.58 19.9708 1031.67 17.6918 1052.32 46.4288C1054.61 46.4288 1056.89 46.4455 1059.17 46.4788C1054.29 37.263 1045.27 27.1475 1038.62 19.3311C1034.67 15.223 1033.31 18.2316 1029.41 22.9295C1023.24 30.596 1014.73 38.1725 1010.03 47.4383C1012.47 47.3784 1014.92 47.2984 1017.38 47.1984Z" fill="#D9C6A5"/>
<path d="M1098.76 17.632C1078.55 44.8596 1084.46 47.1386 1063.81 18.4016C1061.53 18.4016 1059.25 18.385 1056.96 18.3516C1061.85 27.5675 1070.86 37.6829 1077.51 45.4993C1081.47 49.6075 1082.83 46.5988 1086.72 41.901C1092.9 34.2344 1101.41 26.6579 1106.1 17.3921C1103.67 17.4521 1101.22 17.532 1098.76 17.632Z" fill="#AD8F53"/>
<path d="M1154.25 60.5323V63.9907H1099.94C1072.2 64.0907 1044.47 63.331 1016.73 63.1811C999.097 63.0911 981.475 63.5509 963.846 63.9408L961.883 63.9907V60.5223C981.574 59.8126 1001.15 59.6827 1020.86 59.9926C1045.59 59.9926 1070.34 60.8422 1095.06 61.3519C1102.07 61.5019 1109.09 61.7817 1116.09 61.7817L1154.25 60.5323Z" fill="#D9C6A5"/>
<path d="M1154.25 0.82961V4.29804L1138.58 3.81824C1133.84 3.66831 1129.07 3.03861 1124.41 3.0486L1092.98 3.09857C1072.33 3.09857 1051.74 3.76827 1031.08 4.16809C1026.9 4.24805 1022.72 4.29137 1018.53 4.29804C1005.94 4.29804 994.185 4.1481 973.105 4.29804C967.267 4.29804 968.195 4.29804 961.91 4.29804V0.82961L992.378 1.7392C999.4 1.93911 1006.45 2.46887 1013.44 2.36892C1034.13 2.36892 1054.87 1.36936 1075.57 0.859595C1088.61 0.509754 1098.78 0 1111.84 0C1123.18 0 1137.46 0.82961 1148.8 0.82961H1154.25Z" fill="#D9C6A5"/>
<path d="M1303.68 47.1984C1323.88 19.9708 1317.97 17.6918 1338.63 46.4288C1340.91 46.4288 1343.19 46.4455 1345.47 46.4788C1340.58 37.263 1331.58 27.1475 1324.92 19.3311C1320.97 15.223 1319.61 18.2316 1315.71 22.9295C1309.54 30.596 1301.03 38.1725 1296.33 47.4383C1298.77 47.3784 1301.22 47.2984 1303.68 47.1984Z" fill="#D9C6A5"/>
<path d="M1197.19 17.632C1176.99 44.8596 1182.9 47.1386 1162.24 18.4016C1159.96 18.4016 1157.68 18.385 1155.4 18.3516C1160.28 27.5675 1169.29 37.6829 1175.95 45.4993C1179.9 49.6075 1181.26 46.5988 1185.16 41.901C1191.33 34.2344 1199.84 26.6579 1204.54 17.3921C1202.1 17.4521 1199.65 17.532 1197.19 17.632Z" fill="#AD8F53"/>
<path d="M1209.74 47.1984C1229.95 19.9708 1224.04 17.6918 1244.69 46.4288C1246.97 46.4288 1249.25 46.4455 1251.54 46.4788C1246.65 37.263 1237.64 27.1475 1230.99 19.3311C1227.03 15.223 1225.67 18.2316 1221.78 22.9295C1215.6 30.596 1207.09 38.1725 1202.4 47.4383C1204.84 47.3784 1207.29 47.2984 1209.74 47.1984Z" fill="#D9C6A5"/>
<path d="M1291.12 17.632C1270.92 44.8596 1276.83 47.1386 1256.18 18.4016C1253.9 18.4016 1251.61 18.385 1249.33 18.3516C1254.21 27.5675 1263.23 37.6829 1269.88 45.4993C1273.83 49.6075 1275.19 46.5988 1279.09 41.901C1285.26 34.2344 1293.77 26.6579 1298.47 17.3921C1296.03 17.4521 1293.58 17.532 1291.12 17.632Z" fill="#AD8F53"/>
<path d="M1346.62 60.5323V63.9907H1292.31C1264.56 64.0907 1236.83 63.331 1209.09 63.1811C1191.46 63.0911 1173.84 63.5509 1156.21 63.9408L1154.25 63.9907V60.5223C1173.94 59.8126 1193.52 59.6827 1213.22 59.9926C1237.96 59.9926 1262.7 60.8422 1287.43 61.3519C1294.44 61.5019 1301.45 61.7817 1308.46 61.7817L1346.62 60.5323Z" fill="#D9C6A5"/>
<path d="M1346.62 0.82961V4.29804L1330.94 3.81824C1326.21 3.66831 1321.44 3.03861 1316.77 3.0486L1285.34 3.09857C1264.69 3.09857 1244.1 3.76827 1223.44 4.16809C1219.26 4.24805 1215.08 4.29137 1210.89 4.29804C1198.3 4.29804 1186.55 4.1481 1165.47 4.29804C1159.63 4.29804 1160.56 4.29804 1154.27 4.29804V0.82961L1184.74 1.7392C1191.76 1.93911 1198.81 2.46887 1205.81 2.36892C1226.49 2.36892 1247.24 1.36936 1267.93 0.859595C1280.97 0.509754 1291.14 0 1304.2 0C1315.54 0 1329.82 0.82961 1341.16 0.82961H1346.62Z" fill="#D9C6A5"/>
<path d="M1496.05 47.1984C1516.25 19.9708 1510.34 17.6918 1530.99 46.4288C1533.27 46.4288 1535.55 46.4455 1537.83 46.4788C1532.95 37.263 1523.94 27.1475 1517.28 19.3311C1513.32 15.223 1511.97 18.2316 1508.07 22.9295C1501.9 30.596 1493.39 38.1725 1488.69 47.4383C1491.14 47.3784 1493.59 47.2984 1496.05 47.1984Z" fill="#D9C6A5"/>
<path d="M1389.56 17.632C1369.36 44.8596 1375.26 47.1386 1354.61 18.4016C1352.33 18.4016 1350.05 18.385 1347.77 18.3516C1352.65 27.5675 1361.66 37.6829 1368.31 45.4993C1372.27 49.6075 1373.63 46.5988 1377.53 41.901C1383.7 34.2344 1392.21 26.6579 1396.9 17.3921C1394.47 17.4521 1392.02 17.532 1389.56 17.632Z" fill="#AD8F53"/>
<path d="M1402.11 47.1984C1422.31 19.9708 1416.4 17.6918 1437.06 46.4288C1439.34 46.4288 1441.62 46.4455 1443.9 46.4788C1439.01 37.263 1430.01 27.1475 1423.35 19.3311C1419.39 15.223 1418.03 18.2316 1414.14 22.9295C1407.92 30.596 1399.41 38.1725 1394.74 47.4383C1397.2 47.3784 1399.66 47.2984 1402.11 47.1984Z" fill="#D9C6A5"/>
<path d="M1483.49 17.632C1463.29 44.8596 1469.2 47.1386 1448.54 18.4016C1446.26 18.4016 1443.98 18.385 1441.7 18.3516C1446.58 27.5675 1455.59 37.6829 1462.25 45.4993C1466.2 49.6075 1467.56 46.5988 1471.46 41.901C1477.63 34.2344 1486.14 26.6579 1490.84 17.3921C1488.4 17.4521 1485.95 17.532 1483.49 17.632Z" fill="#AD8F53"/>
<path d="M1539 60.5323V63.9907H1484.69C1456.94 64.0907 1429.21 63.331 1401.48 63.1811C1383.85 63.0911 1366.22 63.5509 1348.6 63.9408L1346.63 63.9907V60.5223C1366.32 59.8126 1385.9 59.6827 1405.61 59.9926C1430.34 59.9926 1455.08 60.8422 1479.81 61.3519C1486.82 61.5019 1493.84 61.7817 1500.84 61.7817L1539 60.5323Z" fill="#D9C6A5"/>
<path d="M1539 0.82961V4.29804L1523.33 3.81824C1518.59 3.66831 1513.83 3.03861 1509.16 3.0486L1477.72 3.09857C1457.07 3.09857 1436.49 3.76827 1415.82 4.16809C1411.64 4.24805 1407.46 4.29137 1403.27 4.29804C1390.68 4.29804 1378.93 4.1481 1357.85 4.29804C1352.01 4.29804 1352.94 4.29804 1346.65 4.29804V0.82961L1377.12 1.7392C1384.14 1.93911 1391.19 2.46887 1398.19 2.36892C1418.87 2.36892 1439.62 1.36936 1460.31 0.859595C1473.35 0.509754 1483.53 0 1496.59 0C1507.92 0 1522.2 0.82961 1533.55 0.82961H1539Z" fill="#D9C6A5"/>
</svg>
