<svg width="935" height="351" viewBox="0 0 935 351" fill="none" xmlns="http://www.w3.org/2000/svg">
<g filter="url(#filter0_d_76_859)">
<path d="M128.332 17.9663C101.911 35.3695 72.2118 47.1883 41.0584 52.6967C9.90505 58.205 -22.0448 57.2867 -52.8287 49.9981C-53.0314 49.936 -53.2029 49.7989 -53.3083 49.6149C-53.4136 49.4309 -53.445 49.2137 -53.396 49.0074C-53.347 48.8011 -53.2213 48.6211 -53.0444 48.5041C-52.8676 48.3871 -52.6528 48.3419 -52.4437 48.3775C9.0782 58.9744 72.3353 45.9375 124.659 11.8777C128.49 9.3752 132.163 15.4637 128.332 17.9663ZM229.957 11.9864C166.775 72.8119 64.8331 110.321 -22.1453 85.4151C-23.7321 84.9578 -23.6818 82.2194 -21.7657 82.2919C22.6842 86.0602 65.4901 85.9739 108.625 73.0699C151.756 60.2008 191.18 37.1936 223.602 5.97163C227.627 2.05052 234.036 8.08173 229.957 11.9864ZM288.063 22.5525C283.57 32.2288 273.308 39.6488 265.461 46.43C257.615 53.2111 249.24 59.6311 240.675 65.6627C221.633 78.9009 201.262 90.1153 179.892 99.1236C137.49 117.213 90.1222 127.747 43.9649 123.686C43.5176 123.658 43.097 123.463 42.7858 123.141C42.4745 122.818 42.2952 122.391 42.2829 121.943C42.2707 121.495 42.4264 121.059 42.7195 120.72C43.0126 120.38 43.4219 120.163 43.867 120.111C88.9899 117.098 133.169 109.675 174.91 91.5863C194.974 82.8543 214.126 72.1587 232.085 59.6558C241.574 53.0171 250.683 45.8505 259.368 38.1898C267.002 31.486 273.838 22.425 282.851 17.7585C283.522 17.2383 284.355 16.9725 285.203 17.008C286.051 17.0436 286.859 17.3783 287.483 17.9528C288.108 18.5273 288.509 19.3044 288.615 20.1464C288.721 20.9884 288.526 21.8408 288.063 22.5525ZM349.07 23.3966C345.919 33.7515 336.903 41.6203 329.508 49.2119C302.613 76.7009 271.305 99.4932 236.883 116.643C191.876 139.189 142.117 150.607 91.7854 149.937C91.5602 149.906 91.3535 149.796 91.202 149.626C91.0504 149.457 90.9639 149.239 90.9577 149.012C90.9514 148.785 91.026 148.562 91.168 148.385C91.31 148.208 91.5104 148.086 91.7335 148.042C141.015 143.04 188.911 128.783 232.907 106.019C253.304 95.3942 272.654 82.8709 290.702 68.6157C300.886 60.5527 310.589 51.8993 319.759 42.7001C327.421 35.0475 334.202 24.6463 343.848 19.5331C344.447 19.2106 345.127 19.0653 345.806 19.1142C346.485 19.1631 347.136 19.4041 347.684 19.8091C348.231 20.2141 348.652 20.7664 348.897 21.4016C349.143 22.0368 349.203 22.7287 349.07 23.3966ZM775.634 37.8337L773.616 40.5904C773.45 41.1201 773.184 41.6132 772.833 42.0431L771.094 43.8798C721.176 114.126 714.566 203.288 746.99 282.699C747.796 284.681 744.578 286.057 743.543 284.207C706.719 218.566 711.562 132.816 748.651 67.6635C735.249 80.3958 720.7 91.8627 705.189 101.918C705.28 102.299 705.294 102.695 705.227 103.081C705.161 103.467 705.017 103.836 704.803 104.165C695.634 118.818 686.306 132.276 679.898 148.463C672.863 166.574 668.556 185.629 667.117 205.004C664.311 241.69 671.707 278.436 688.486 311.178C688.747 311.61 688.826 312.127 688.705 312.617C688.584 313.107 688.274 313.529 687.842 313.79C687.41 314.051 686.893 314.129 686.403 314.009C685.913 313.888 685.492 313.578 685.231 313.146C665.138 280.249 656.023 241.816 659.202 203.397C661.519 172.368 671.633 136.705 690.848 110.631C666.452 124.564 639.918 134.361 612.322 139.625C599.243 142.035 585.973 143.262 572.673 143.291C586.413 172.059 601.606 200.109 618.194 227.334C626.851 241.216 636.077 254.767 645.873 267.986C655.96 281.644 668.5 294.036 677.23 308.429C677.582 309.07 677.696 309.814 677.553 310.532C677.411 311.249 677.02 311.893 676.449 312.35C675.879 312.808 675.166 313.05 674.434 313.034C673.703 313.018 673.001 312.745 672.452 312.263C660.359 302.489 650.83 288.314 641.458 275.96C630.701 261.623 620.618 246.808 611.207 231.515C593.873 203.756 579.655 174.168 568.809 143.29C551.566 143.101 534.405 140.884 517.68 136.683C530.94 170.128 545.87 202.544 566.522 232.226C577.901 248.588 590.643 263.958 604.613 278.172C610.704 284.356 617.022 290.336 623.529 296.078C630.037 301.82 638.242 306.836 642.904 314.418C643.138 314.84 643.246 315.32 643.216 315.801C643.186 316.283 643.019 316.746 642.734 317.135C642.45 317.525 642.06 317.825 641.61 318C641.161 318.175 640.67 318.218 640.197 318.124C624.615 313.508 610.034 295.805 599.005 284.355C585.107 270.054 572.397 254.645 560.999 238.281C539.402 207.391 521.987 172.449 513.659 135.487C491.598 129.439 470.666 119.846 451.683 107.085C460.6 144.95 475.677 181.092 496.311 214.068C519.719 250.991 549.815 278.642 582.781 306.644C583.341 307.229 583.679 307.991 583.735 308.798C583.791 309.606 583.563 310.408 583.091 311.064C582.618 311.721 581.93 312.192 581.146 312.395C580.362 312.597 579.533 312.519 578.801 312.174C542.241 290.175 511.862 254.105 489.554 218.154C467.674 183.185 453.028 144.183 446.485 103.453C444.916 102.352 443.364 101.196 441.829 100.022C419.614 83.2757 401.751 61.4344 389.746 36.3384C386.093 42.5148 382.074 48.4675 377.712 54.1649C390.08 102.125 408.063 148.678 434.542 190.597C448.529 212.71 464.619 233.421 482.586 252.442C500.529 271.412 521.26 286.333 540.466 303.747C541.07 304.37 541.436 305.186 541.498 306.051C541.561 306.916 541.317 307.776 540.809 308.479C540.301 309.183 539.561 309.685 538.72 309.898C537.879 310.11 536.99 310.02 536.209 309.643C513.282 296.821 493.041 276.233 475.256 257.169C457.371 238.017 441.341 217.212 427.383 195.034C401.139 153.198 382.034 106.836 374.689 58.0942C366.791 67.9918 358.205 77.3203 348.995 86.0102C362.019 124.852 380.057 161.828 402.651 196.001C415.002 214.415 428.819 231.803 443.967 247.994C458.874 263.881 476.709 276.933 491.177 293.1C491.529 293.462 491.743 293.938 491.779 294.442C491.816 294.947 491.674 295.448 491.377 295.858C491.081 296.268 490.649 296.56 490.159 296.683C489.668 296.806 489.15 296.752 488.695 296.531C469.493 286.469 453.437 269.147 438.825 253.574C430.164 244.331 422.05 234.805 414.302 224.929C413.461 232.107 409.585 239.513 406.646 245.855C402.769 254.419 397.971 262.535 392.336 270.059C391.093 271.703 388.623 269.714 389.47 267.973C393.284 260.265 397.167 252.484 400.637 244.625C404.107 236.765 405.574 227.637 410.431 220.778C410.534 220.632 410.657 220.502 410.796 220.392C406.158 214.306 401.682 208.084 397.369 201.727C395.786 199.427 394.29 197.071 392.777 194.734C381.225 218.415 363.248 240.644 344.604 258.832C344.259 259.197 343.782 259.41 343.279 259.424C342.776 259.438 342.288 259.251 341.923 258.905C341.558 258.56 341.345 258.083 341.331 257.58C341.317 257.077 341.504 256.589 341.85 256.224C358.634 234.188 373.014 211.199 388.305 188.202L388.514 187.982C382.188 177.78 376.303 167.334 370.964 156.604C353.241 192.065 323.822 221.121 291.604 243.313C288.795 245.251 286.277 240.848 288.87 238.844C320.296 215.171 343.231 185.828 364.115 152.768C364.519 152.077 365.125 151.528 365.852 151.194C366.579 150.86 367.391 150.759 368.178 150.903C364.032 142.335 360.232 133.572 356.779 124.615C350.706 133.458 340.213 140.277 331.982 146.728C319.591 156.435 306.628 165.387 293.164 173.539C267.857 188.817 240.927 201.228 212.872 210.542C208.812 211.888 207.067 205.639 210.998 204.171C239.034 194.42 265.903 181.592 291.112 165.921C302.563 158.763 313.636 151.018 324.287 142.718C333.973 135.171 343.348 124.09 354.448 118.543C350.943 109.027 347.853 99.3689 345.175 89.5678C326.48 107.383 306.062 123.297 284.222 137.076C261.697 150.697 237.406 161.159 212.033 168.168C188.247 174.904 159.59 181.489 134.761 178.254C133.288 178.044 133.463 175.946 134.685 175.501C158.532 168.334 182.913 165.015 206.451 156.371C231.084 147.079 254.748 135.397 277.105 121.494C298.342 108.513 319.995 92.443 337.044 74.2102C354.719 55.2804 368.915 34.729 385.111 14.7128C390.44 8.12619 399.583 16.0141 396.552 22.9311C395.189 26.0634 393.628 29.1833 391.961 32.3061C405.295 56.9731 423.857 78.4292 446.348 95.1746C446.594 95.0167 446.875 94.9181 447.166 94.8867C447.458 94.8553 447.752 94.8918 448.027 94.9935C448.302 95.0951 448.55 95.259 448.75 95.4725C448.951 95.6859 449.1 95.943 449.185 96.2236C449.25 96.6332 449.35 97.0419 449.451 97.4506C468.524 111.203 489.793 121.621 512.351 128.26C512.442 128.039 512.598 127.851 512.798 127.722C512.999 127.592 513.234 127.528 513.473 127.537C513.712 127.546 513.942 127.628 514.132 127.773C514.322 127.917 514.463 128.116 514.536 128.343L514.767 128.945C530.96 133.528 547.666 136.049 564.489 136.45C643.302 138.2 717.456 95.8739 767.287 36.7931C767.689 36.2475 768.258 35.8471 768.907 35.6518C769.557 35.4566 770.252 35.477 770.889 35.7102L772.071 34.4612C774.148 31.9354 777.481 35.4036 775.634 37.8337ZM729.317 35.7805C698.534 84.9276 628.621 110.303 572.908 108.097C511.856 105.609 453.243 73.2498 421.267 20.6949C419.883 18.479 423.041 16.8715 424.523 18.727C460.708 64.2967 515.666 95.7721 574.555 97.0502C602.316 97.5807 629.846 91.9097 655.138 80.4506C681.678 68.4504 701.37 50.0018 722.853 30.9852C726.051 28.2317 731.974 31.575 729.386 35.707L729.317 35.7805ZM675.88 24.5851C669.897 39.3292 647.376 48.5175 633.762 54.3661C615.387 62.1349 595.667 66.2209 575.719 66.3921C537.947 66.7157 499.87 52.647 472.515 26.4407C471.101 25.1022 472.852 22.4064 474.566 23.5757C504.464 44.0411 538.758 56.4787 575.403 54.8445C592.94 54.0415 610.211 50.2511 626.473 43.6364C634.66 40.3956 642.533 36.4126 649.994 31.7372C656.974 27.3055 663.314 21.0488 671.493 19.2138C672.198 19.0422 672.937 19.0736 673.624 19.3042C674.312 19.5348 674.92 19.9552 675.379 20.517C675.838 21.0787 676.128 21.7588 676.217 22.4786C676.305 23.1985 676.189 23.9287 675.88 24.5851ZM812.019 28.6753C808.592 45.943 799.867 62.4442 795.962 79.8861C792.094 97.1006 789.896 114.648 789.401 132.285C788.534 167.961 794.162 203.497 806.011 237.158C807.176 240.489 802.062 241.882 800.776 238.68C786.898 203.743 780.545 166.271 782.129 128.71C782.844 110.439 785.318 92.2789 789.517 74.482C793.27 58.6722 797.409 39.2918 807.027 26.0041C808.812 23.2716 812.538 26.0671 812.019 28.6753ZM866.43 22.5095C861.866 50.5419 854.211 76.6916 853.353 105.481C852.57 133.647 855.932 161.775 863.331 188.963C863.422 189.749 863.229 190.542 862.789 191.2C862.349 191.858 861.689 192.338 860.928 192.554C860.166 192.771 859.353 192.71 858.632 192.382C857.912 192.054 857.331 191.481 856.994 190.765C848.624 162.522 844.528 133.185 844.844 103.729C845.207 76.492 848.044 44.8756 860.285 20.2099C862.013 16.6918 867.012 18.9514 866.43 22.5095ZM907.595 24.5614C911.803 41.7085 910.102 59.9484 911.154 77.4507C912.28 96.3702 914.18 115.209 916.852 133.966C917.263 137.211 911.744 138.186 911.045 134.877C907.16 116.755 904.316 98.4254 902.529 79.9777C900.872 61.9375 898.171 42.3518 903.251 24.6987C903.822 22.6616 907.048 22.2329 907.595 24.5614Z" fill="url(#paint0_linear_76_859)"/>
</g>
<defs>
<filter id="filter0_d_76_859" x="-71.418" y="0.69873" width="1006.29" height="349.474" filterUnits="userSpaceOnUse" color-interpolation-filters="sRGB">
<feFlood flood-opacity="0" result="BackgroundImageFix"/>
<feColorMatrix in="SourceAlpha" type="matrix" values="0 0 0 0 0 0 0 0 0 0 0 0 0 0 0 0 0 0 127 0" result="hardAlpha"/>
<feOffset dy="14"/>
<feGaussianBlur stdDeviation="9"/>
<feComposite in2="hardAlpha" operator="out"/>
<feColorMatrix type="matrix" values="0 0 0 0 0 0 0 0 0 0 0 0 0 0 0 0 0 0 0.5 0"/>
<feBlend mode="normal" in2="BackgroundImageFix" result="effect1_dropShadow_76_859"/>
<feBlend mode="normal" in="SourceGraphic" in2="effect1_dropShadow_76_859" result="shape"/>
</filter>
<linearGradient id="paint0_linear_76_859" x1="734.679" y1="253.181" x2="300.037" y2="-42.3374" gradientUnits="userSpaceOnUse">
<stop stop-color="#F39C11"/>
<stop offset="1" stop-color="#DE8110"/>
</linearGradient>
</defs>
</svg>
