<svg width="846" height="426" viewBox="0 0 846 426" fill="none" xmlns="http://www.w3.org/2000/svg">
<path d="M833.484 285.62C833.868 285.691 834.206 285.84 834.446 286.045C834.686 286.249 834.816 286.498 834.816 286.754C834.816 287.01 834.686 287.259 834.446 287.463C834.206 287.668 833.868 287.817 833.484 287.888C810.017 290.513 784.322 288.77 760.562 289.763C757.16 289.913 757.189 286.557 760.562 286.389C783.647 285.32 810.604 282.714 833.484 285.62Z" fill="url(#paint0_linear_119_384)"/>
<path d="M840.23 270.209C840.86 270.209 841.464 270.369 841.91 270.654C842.355 270.938 842.605 271.325 842.605 271.727C842.605 272.13 842.355 272.516 841.91 272.801C841.464 273.086 840.86 273.246 840.23 273.246C812.187 273.715 784.262 274.015 756.191 273.733C755.407 273.685 754.679 273.452 754.15 273.079C753.62 272.707 753.327 272.221 753.327 271.718C753.327 271.215 753.62 270.729 754.15 270.357C754.679 269.984 755.407 269.751 756.191 269.703C784.204 269.44 812.187 269.74 840.23 270.209Z" fill="url(#paint1_linear_119_384)"/>
<path d="M790.749 252.435C805.415 252.923 819.847 253.317 834.455 253.242C836.449 253.242 837.036 255.36 834.953 255.548C809.874 257.76 775.877 262.597 751.971 255.81C749.829 255.191 750.592 253.092 752.616 252.735C764.525 250.636 778.341 252.004 790.749 252.435Z" fill="url(#paint2_linear_119_384)"/>
<path d="M839.936 236.481C840.228 236.557 840.477 236.686 840.653 236.853C840.828 237.02 840.922 237.217 840.922 237.418C840.922 237.619 840.828 237.816 840.653 237.983C840.477 238.15 840.228 238.28 839.936 238.356C813.537 242.386 783.177 240.005 756.22 240.98C753.14 241.093 753.287 238.131 756.22 237.943C782.561 236.462 813.918 232.619 839.936 236.481Z" fill="url(#paint3_linear_119_384)"/>
<path d="M842.43 220.601C846.097 220.77 846.214 224.351 842.43 224.351C811.602 223.957 780.274 224.351 749.65 221.745C748.867 221.696 748.139 221.463 747.61 221.09C747.08 220.718 746.787 220.232 746.787 219.729C746.787 219.226 747.08 218.741 747.61 218.368C748.139 217.995 748.867 217.762 749.65 217.714C780.509 216.908 811.69 219.157 842.43 220.601Z" fill="url(#paint4_linear_119_384)"/>
<path d="M841.694 197.747C844.627 197.972 845.977 200.99 842.457 201.384C814.473 204.571 784.554 202.959 756.218 203.071C755.57 203.027 754.969 202.832 754.533 202.522C754.097 202.212 753.856 201.81 753.856 201.393C753.856 200.977 754.097 200.575 754.533 200.265C754.969 199.955 755.57 199.759 756.218 199.715C784.202 198.666 813.74 195.778 841.694 197.747Z" fill="url(#paint5_linear_119_384)"/>
<path d="M833.717 180.442C834.5 180.491 835.228 180.724 835.757 181.096C836.287 181.469 836.58 181.954 836.58 182.458C836.58 182.961 836.287 183.446 835.757 183.819C835.228 184.192 834.5 184.425 833.717 184.473C807.552 184.061 781.465 182.93 755.456 181.08C752.142 180.836 752.083 177.499 755.456 177.705C781.504 179.355 807.591 180.267 833.717 180.442Z" fill="url(#paint6_linear_119_384)"/>
<path d="M835.889 156.783C839.115 157.027 840.523 160.251 836.71 160.758C811.19 164.057 782.209 162.314 756.191 162.632C752.788 162.632 752.847 159.408 756.191 159.258C781.887 158.283 810.281 154.927 835.889 156.783Z" fill="url(#paint7_linear_119_384)"/>
<path d="M791.189 137.585L833.722 140.453C837.33 140.697 837.506 144.203 833.722 144.203C819.525 143.903 805.347 143.596 791.189 143.284C778.84 143.022 765.317 143.978 753.76 141.109C752.996 140.961 752.327 140.659 751.851 140.249C751.376 139.839 751.119 139.342 751.119 138.831C751.119 138.321 751.376 137.824 751.851 137.414C752.327 137.004 752.996 136.702 753.76 136.553C765.757 134.604 778.987 136.76 791.189 137.585Z" fill="url(#paint8_linear_119_384)"/>
<path d="M831.547 118.536C832.467 118.589 833.322 118.859 833.945 119.295C834.568 119.73 834.914 120.299 834.914 120.889C834.914 121.479 834.568 122.048 833.945 122.483C833.322 122.919 832.467 123.189 831.547 123.242C806.174 125.117 779.598 124.423 754.02 125.117C751.38 125.117 750.735 122.454 753.375 122.136C778.337 119.211 806.203 116.474 831.547 118.536Z" fill="url(#paint9_linear_119_384)"/>
<path d="M790.538 97.2565C803.972 97.519 817.378 97.3503 830.812 96.9191C836.239 96.7503 836.209 102.112 830.812 102.3C816.468 102.731 802.066 103.05 787.663 102.731C776.664 102.544 764.754 103.312 755.016 99.7875C754.674 99.6476 754.401 99.4484 754.229 99.2131C754.057 98.9777 753.994 98.716 754.046 98.4584C754.098 98.2009 754.264 97.9582 754.524 97.7586C754.784 97.5591 755.128 97.411 755.514 97.3315C766.28 95.0255 779.215 97.1065 790.538 97.2565Z" fill="url(#paint10_linear_119_384)"/>
<path d="M840.438 80.0459C840.711 80.1509 840.937 80.2993 841.094 80.4767C841.251 80.6541 841.334 80.8545 841.334 81.0583C841.334 81.2621 841.251 81.4625 841.094 81.6399C840.937 81.8173 840.711 81.9657 840.438 82.0707C829.321 85.4642 816.414 83.8331 804.241 83.9456C788.225 84.0955 772.239 83.9455 756.223 84.208C753.612 84.208 752.908 81.4708 755.607 81.2458C770.684 79.9334 785.82 78.6586 801.044 78.2086C813.892 77.8149 828.822 76.1088 840.438 80.0459Z" fill="url(#paint11_linear_119_384)"/>
<path d="M834.42 58.2045C838.057 58.4107 838.204 61.9541 834.42 61.9541C810.631 61.5229 784.349 62.8353 761.088 59.3106C757.362 58.7482 758.624 55.561 761.909 55.3548C785.434 53.5737 810.954 56.8546 834.42 58.2045Z" fill="url(#paint12_linear_119_384)"/>
<path d="M838.708 36.213C839.149 36.3002 839.541 36.4666 839.838 36.6922C840.135 36.9179 840.324 37.1934 840.383 37.4859C840.442 37.7783 840.367 38.0754 840.169 38.3417C839.971 38.608 839.658 38.8322 839.266 38.9878C829.82 42.6437 817.999 41.8937 807.175 42.1374C793.066 42.4374 778.986 42.2499 764.877 41.7437C764.037 41.7437 763.231 41.5304 762.637 41.1507C762.043 40.771 761.709 40.256 761.709 39.719C761.709 39.182 762.043 38.6669 762.637 38.2872C763.231 37.9074 764.037 37.6941 764.877 37.6941C778.077 37.8066 791.277 37.6942 804.359 37.0192C815.594 36.4943 827.914 34.057 838.708 36.213Z" fill="url(#paint13_linear_119_384)"/>
<path d="M842.403 14.0151C846.158 14.0151 846.099 17.5585 842.403 17.7647C829.027 18.3522 815.642 18.8084 802.246 19.1334C790.748 19.3958 778.252 20.727 767.223 18.4209C766.787 18.3379 766.405 18.1671 766.133 17.934C765.861 17.701 765.714 17.418 765.714 17.1273C765.714 16.8366 765.861 16.5537 766.133 16.3206C766.405 16.0875 766.787 15.9167 767.223 15.8337C778.135 13.5464 790.689 14.7275 802.246 14.6525C815.622 14.615 829.027 14.3151 842.403 14.0151Z" fill="url(#paint14_linear_119_384)"/>
<path d="M840.848 1.20966C841.336 1.30435 841.763 1.49667 842.066 1.75829C842.369 2.01991 842.533 2.33697 842.533 2.66263C842.533 2.98829 842.369 3.30535 842.066 3.56697C841.763 3.82859 841.336 4.02091 840.848 4.1156C829.467 5.99042 816.854 4.99681 805.091 5.09055C791.393 5.20304 777.87 5.0905 764.025 4.75304C762.91 4.75304 762.529 3.57192 763.761 3.42193C776.367 1.99819 789.105 1.10263 801.894 0.740955C814.83 0.384739 828.558 -0.965131 840.848 1.20966Z" fill="url(#paint15_linear_119_384)"/>
<path d="M716.74 359.581C717.124 359.653 717.462 359.802 717.702 360.006C717.942 360.211 718.072 360.46 718.072 360.716C718.072 360.971 717.942 361.22 717.702 361.425C717.462 361.629 717.124 361.779 716.74 361.85C668.37 366.537 615.16 362.225 566.35 361.569C565.498 361.518 564.707 361.266 564.13 360.862C563.554 360.458 563.235 359.931 563.235 359.385C563.235 358.838 563.554 358.311 564.13 357.907C564.707 357.503 565.498 357.251 566.35 357.2C615.248 357.407 668.692 353.957 716.74 359.581Z" fill="url(#paint16_linear_119_384)"/>
<path d="M716.357 338.959C717.345 339.013 718.264 339.302 718.935 339.769C719.605 340.236 719.977 340.847 719.977 341.48C719.977 342.114 719.605 342.724 718.935 343.191C718.264 343.658 717.345 343.947 716.357 344.002C668.955 344.208 621.494 343.571 574.415 339.615C571.188 339.352 570.924 336.165 574.415 336.259C621.758 337.384 668.955 339.127 716.357 338.959Z" fill="url(#paint17_linear_119_384)"/>
<path d="M717.122 315.148C721.845 315.148 721.845 319.966 717.122 319.873C668.073 318.709 618.956 319.836 570.164 323.247C566.116 323.528 566.175 319.498 570.164 319.198C618.933 315.581 668.047 314.227 717.122 315.148Z" fill="url(#paint18_linear_119_384)"/>
<path d="M710.166 293.194C711.398 293.363 711.486 294.694 710.166 294.806C664.113 299.175 613.572 294.656 567.138 293.719C562.416 293.625 562.386 288.919 567.138 289.013C613.631 289.782 664.582 287.12 710.166 293.194Z" fill="url(#paint19_linear_119_384)"/>
<path d="M710.877 268.259C711.225 268.335 711.521 268.487 711.713 268.688C711.905 268.889 711.981 269.126 711.929 269.359C711.877 269.592 711.7 269.806 711.427 269.965C711.155 270.123 710.805 270.216 710.437 270.227C664.296 273.377 615.251 268.146 568.524 269.102C564.095 269.102 564.153 264.884 568.524 264.734C613.697 263.028 667.317 259.616 710.877 268.259Z" fill="url(#paint20_linear_119_384)"/>
<path d="M711.285 239.593C712.063 239.593 712.81 239.79 713.36 240.142C713.91 240.493 714.219 240.97 714.219 241.467C714.219 241.965 713.91 242.442 713.36 242.793C712.81 243.145 712.063 243.342 711.285 243.342C663.531 243.342 612.815 244.58 565.794 238.618C563.095 238.28 563.829 235.712 566.439 235.656C614.428 234.774 663.209 238.974 711.285 239.593Z" fill="url(#paint21_linear_119_384)"/>
<path d="M712.541 213.87C714.212 214.133 714.388 215.952 712.541 216.139C666.4 220.789 615.536 216.139 568.633 217.358C564.908 217.47 564.937 213.814 568.633 213.608C614.07 211.789 668.013 206.877 712.541 213.87Z" fill="url(#paint22_linear_119_384)"/>
<path d="M712.018 187.398C716.388 187.585 716.418 191.954 712.018 191.766C662.973 189.629 614.046 189.76 564.972 188.804C564.194 188.804 563.448 188.606 562.897 188.255C562.347 187.903 562.038 187.426 562.038 186.929C562.038 186.432 562.347 185.955 562.897 185.603C563.448 185.252 564.194 185.054 564.972 185.054C613.811 183.348 663.266 185.223 712.018 187.398Z" fill="url(#paint23_linear_119_384)"/>
<path d="M711.223 162.332C714.01 162.688 713.1 165.163 710.607 165.294C662.677 167.975 613.808 163.288 565.732 165.932C559.044 166.307 558.868 159.089 565.732 159.201C613.368 159.989 664.32 156.258 711.223 162.332Z" fill="url(#paint24_linear_119_384)"/>
<path d="M713.486 131.135C714.27 131.183 714.998 131.416 715.527 131.789C716.056 132.162 716.35 132.647 716.35 133.15C716.35 133.654 716.056 134.139 715.527 134.511C714.998 134.884 714.27 135.117 713.486 135.166C666.553 135.653 613.255 139.103 567.349 132.26C565.149 131.922 565.941 130.104 567.848 129.954C614.898 126.148 665.908 131.097 713.486 131.135Z" fill="url(#paint25_linear_119_384)"/>
<path d="M712.076 109.18C716.124 109.349 716.153 113.38 712.076 113.211C664.325 111.158 616.395 111.496 568.726 114.224C567.289 114.224 566.907 112.705 568.374 112.574C615.958 108.24 664.121 107.103 712.076 109.18Z" fill="url(#paint26_linear_119_384)"/>
<path d="M713.455 80.234C718.881 80.0652 718.852 85.4272 713.455 85.6147C665.994 87.4895 611.611 90.7142 564.854 84.0586C561.217 83.5337 562.302 80.3089 565.705 80.1027C614.368 77.7967 664.381 81.865 713.455 80.234Z" fill="url(#paint27_linear_119_384)"/>
<path d="M647.952 56.6664C670.685 56.7977 693.829 55.2791 716.239 57.9413C716.739 58.0307 717.178 58.222 717.492 58.486C717.805 58.75 717.975 59.0723 717.975 59.4037C717.975 59.7351 717.805 60.0574 717.492 60.3214C717.178 60.5854 716.739 60.7767 716.239 60.8661C671.008 67.5029 615.833 61.7285 569.985 59.3099C565.644 59.085 565.556 54.7917 569.985 54.9416C595.974 55.8603 621.934 56.5165 647.952 56.6664Z" fill="url(#paint28_linear_119_384)"/>
<path d="M533.821 405.684C539.893 405.459 539.893 411.571 533.821 411.739C477.125 413.443 420.323 413.086 363.69 410.671C360.023 410.502 359.935 406.921 363.69 406.921C420.479 407.99 477.091 407.821 533.821 405.684Z" fill="url(#paint29_linear_119_384)"/>
<path d="M528.418 385.717C530.354 385.942 529.591 387.592 528.007 387.704C476.381 392.073 419.27 387.536 367.204 386.598C366.42 386.55 365.693 386.317 365.163 385.944C364.634 385.571 364.341 385.086 364.341 384.583C364.341 384.079 364.634 383.594 365.163 383.221C365.693 382.849 366.42 382.616 367.204 382.567C419.681 382.998 476.704 379.924 528.418 385.717Z" fill="url(#paint30_linear_119_384)"/>
<path d="M530.916 358.307C537.369 358.307 537.369 364.643 530.916 364.7C475.939 365.5 420.946 363.62 366.417 359.075C363.219 358.794 363.953 355.326 367.209 355.438C421.68 357.294 476.21 358.813 530.916 358.307Z" fill="url(#paint31_linear_119_384)"/>
<path d="M522.963 331.966C527.334 331.966 527.363 336.428 522.963 336.334L365.768 332.903C362.042 332.903 362.013 329.153 365.768 329.153L522.963 331.966Z" fill="url(#paint32_linear_119_384)"/>
<path d="M526.57 299.924C531.674 299.831 531.644 304.836 526.57 304.968C471.659 306.411 416.19 307.03 361.425 303.73C356.145 303.411 355.911 298.256 361.425 298.349C416.571 299.268 471.395 300.843 526.57 299.924Z" fill="url(#paint33_linear_119_384)"/>
<path d="M455.206 270.678C480.403 270.828 506.979 269.309 531.706 272.721C532.304 272.84 532.827 273.078 533.198 273.4C533.569 273.722 533.77 274.112 533.77 274.512C533.77 274.912 533.569 275.301 533.198 275.624C532.827 275.946 532.304 276.184 531.706 276.302C506.832 279.152 480.403 277.09 455.206 276.658C426.342 276.183 397.488 275.708 368.644 275.234C367.657 275.179 366.737 274.89 366.067 274.423C365.397 273.956 365.025 273.345 365.025 272.712C365.025 272.078 365.397 271.468 366.067 271.001C366.737 270.534 367.657 270.245 368.644 270.19C397.508 270.34 426.362 270.503 455.206 270.678Z" fill="url(#paint34_linear_119_384)"/>
<path d="M450.483 241.805C476.883 242.124 503.282 242.143 529.477 241.974C530.669 242.034 531.781 242.379 532.593 242.94C533.405 243.501 533.855 244.238 533.855 245.002C533.855 245.766 533.405 246.502 532.593 247.063C531.781 247.625 530.669 247.97 529.477 248.03C478.672 248.123 420.534 251.629 370.903 244.28C367.969 243.849 369.084 241.505 371.519 241.299C397.273 239.162 424.523 241.468 450.483 241.805Z" fill="url(#paint35_linear_119_384)"/>
<path d="M530.943 214.901C534.258 215.37 533.29 218.389 530.151 218.539C477.939 220.807 423.497 215.726 370.874 216.326C369.954 216.274 369.098 216.003 368.475 215.568C367.852 215.132 367.507 214.563 367.507 213.973C367.506 213.383 367.852 212.814 368.475 212.379C369.098 211.944 369.954 211.673 370.874 211.62C422.382 210.702 480.403 207.721 530.943 214.901Z" fill="url(#paint36_linear_119_384)"/>
<path d="M525.138 179.993C530.505 180.18 530.564 185.617 525.138 185.373C474.01 183.967 418.102 186.18 367.942 179.393C364.833 178.962 365.918 176.281 368.646 176.074C419.304 172.512 474.333 178.174 525.138 179.993Z" fill="url(#paint37_linear_119_384)"/>
<path d="M528.039 155.039C475.396 155.039 422.753 154.976 370.11 154.851C369.258 154.801 368.467 154.549 367.891 154.145C367.315 153.741 366.995 153.214 366.995 152.667C366.995 152.12 367.315 151.593 367.891 151.189C368.467 150.785 369.258 150.533 370.11 150.483L528.039 149.995C529.026 150.05 529.946 150.339 530.616 150.806C531.286 151.273 531.658 151.883 531.658 152.517C531.658 153.151 531.286 153.761 530.616 154.228C529.946 154.695 529.026 154.984 528.039 155.039Z" fill="url(#paint38_linear_119_384)"/>
<path d="M523.699 123.729C524.619 123.782 525.475 124.052 526.098 124.488C526.721 124.923 527.066 125.492 527.066 126.082C527.066 126.672 526.721 127.241 526.098 127.677C525.475 128.112 524.619 128.383 523.699 128.435C470.695 128.06 417.954 127.01 365.008 125.398C359.963 125.229 359.904 120.298 365.008 120.336C418.013 120.861 470.753 121.967 523.699 123.729Z" fill="url(#paint39_linear_119_384)"/>
<path d="M525.783 96.1134C528.716 96.4134 527.513 98.8881 525.167 99.0943C475.535 103.313 421.475 99.0944 371.579 97.7632C370.999 97.7218 370.462 97.5449 370.072 97.2665C369.683 96.9881 369.467 96.6276 369.467 96.254C369.467 95.8804 369.683 95.5199 370.072 95.2415C370.462 94.9631 370.999 94.7862 371.579 94.7448C421.739 94.2011 476.21 91.0139 525.783 96.1134Z" fill="url(#paint40_linear_119_384)"/>
<path d="M444.588 72.0971L528.04 72.4345C529.096 72.4909 530.08 72.7988 530.797 73.2971C531.514 73.7954 531.912 74.4478 531.912 75.1249C531.912 75.802 531.514 76.4543 530.797 76.9527C530.08 77.451 529.096 77.7588 528.04 77.8152L444.588 79.69C420.945 80.1962 394.106 83.3272 371.666 78.0215C371.183 77.9213 370.761 77.7258 370.462 77.4631C370.164 77.2004 370.003 76.8839 370.003 76.5591C370.003 76.2343 370.164 75.9179 370.462 75.6551C370.761 75.3924 371.183 75.197 371.666 75.0968C393.9 69.3411 420.916 72.0033 444.588 72.0971Z" fill="url(#paint41_linear_119_384)"/>
<path d="M320.133 397.077C320.911 397.077 321.657 397.275 322.207 397.627C322.757 397.978 323.066 398.455 323.066 398.952C323.066 399.449 322.757 399.926 322.207 400.278C321.657 400.629 320.911 400.827 320.133 400.827C281.003 403.621 239.057 400.265 199.868 398.09C195.497 397.846 195.439 393.497 199.868 393.721C239.79 395.728 280.504 394.415 320.133 397.077Z" fill="url(#paint42_linear_119_384)"/>
<path d="M314.379 372.892C320.246 372.742 320.246 378.517 314.379 378.61C280.998 379.341 242.719 381.479 210.042 376.417C207.109 375.948 207.959 373.305 210.746 373.117C244.479 370.83 280.177 373.867 314.379 372.892Z" fill="url(#paint43_linear_119_384)"/>
<path d="M320.741 350.714C321.177 350.797 321.559 350.968 321.831 351.201C322.103 351.434 322.25 351.717 322.25 352.007C322.25 352.298 322.103 352.581 321.831 352.814C321.559 353.047 321.177 353.218 320.741 353.301C285.776 357.819 244.241 353.657 208.601 353.301C207.971 353.301 207.367 353.141 206.921 352.856C206.476 352.571 206.226 352.185 206.226 351.782C206.226 351.38 206.476 350.993 206.921 350.709C207.367 350.424 207.971 350.264 208.601 350.264C244.241 349.983 285.806 346.027 320.741 350.714Z" fill="url(#paint44_linear_119_384)"/>
<path d="M318.69 320.492C319.741 320.492 320.748 320.758 321.491 321.233C322.233 321.708 322.65 322.351 322.65 323.023C322.65 323.694 322.233 324.338 321.491 324.812C320.748 325.287 319.741 325.554 318.69 325.554C280.822 325.554 238.113 326.735 201.359 320.492C200.724 320.348 200.186 320.069 199.835 319.702C199.483 319.335 199.341 318.902 199.43 318.475C199.519 318.049 199.836 317.655 200.326 317.36C200.816 317.064 201.45 316.886 202.121 316.854C240.577 316.086 279.942 320.398 318.69 320.492Z" fill="url(#paint45_linear_119_384)"/>
<path d="M319.309 291.113C319.793 291.213 320.214 291.409 320.513 291.672C320.812 291.934 320.973 292.251 320.973 292.576C320.973 292.9 320.812 293.217 320.513 293.48C320.214 293.742 319.793 293.938 319.309 294.038C302.678 296.456 284.55 294.432 267.537 294.225C247.649 293.982 227.761 294.113 207.874 294.507C204.471 294.507 204.53 291.282 207.874 291.132C227.732 290.251 247.62 289.613 267.537 289.388C284.609 289.182 302.942 287.776 319.309 291.113Z" fill="url(#paint46_linear_119_384)"/>
<path d="M320.129 262.222C321.039 262.222 321.912 262.453 322.555 262.864C323.199 263.276 323.561 263.834 323.561 264.415C323.561 264.997 323.199 265.555 322.555 265.967C321.912 266.378 321.039 266.609 320.129 266.609C281.204 267.434 239.815 269.384 201.477 264.322C199.013 264.003 199.805 261.791 202.034 261.678C241.018 259.597 280.94 262.541 320.129 262.222Z" fill="url(#paint47_linear_119_384)"/>
<path d="M330.279 233.8C335.676 233.912 335.706 239.274 330.279 239.18C289.213 238.443 248.147 238.524 207.081 239.424C200.979 239.555 200.979 233.462 207.081 233.369C248.205 232.719 289.271 232.862 330.279 233.8Z" fill="url(#paint48_linear_119_384)"/>
<path d="M322.359 208.077C326.73 208.19 326.759 212.54 322.359 212.446C284.52 211.658 242.281 213.739 205.292 208.434C203.825 208.227 203.708 206.559 205.292 206.559C242.809 202.997 284.549 207.046 322.359 208.077Z" fill="url(#paint49_linear_119_384)"/>
<path d="M332.479 182.542C333.197 182.673 333.827 182.95 334.277 183.331C334.726 183.711 334.969 184.175 334.969 184.652C334.969 185.128 334.726 185.592 334.277 185.973C333.827 186.353 333.197 186.63 332.479 186.761C293.056 191.335 250.025 188.804 209.926 191.073C205.82 191.298 204.823 186.854 208.929 186.442C247.971 182.486 293.76 177.049 332.479 182.542Z" fill="url(#paint50_linear_119_384)"/>
<path d="M259.703 155.639C281.086 155.864 302.441 155.395 323.766 154.589C331.51 154.307 331.568 162.2 323.766 162.332C287.276 162.932 238.906 166.213 204.351 157.926C202.591 157.513 202.093 155.582 204.351 155.32C222.362 153.258 241.399 155.47 259.703 155.639Z" fill="url(#paint51_linear_119_384)"/>
<path d="M323.679 134.603C324.239 134.603 324.776 134.745 325.172 134.999C325.568 135.252 325.791 135.595 325.791 135.953C325.791 136.311 325.568 136.654 325.172 136.908C324.776 137.161 324.239 137.303 323.679 137.303C284.842 139.872 241.107 141.578 202.974 135.128C202.607 135.063 202.289 134.914 202.079 134.711C201.869 134.507 201.78 134.262 201.83 134.021C201.88 133.779 202.065 133.557 202.351 133.395C202.636 133.234 203.003 133.143 203.385 133.141C242.544 130.235 284.461 133.235 323.679 134.603Z" fill="url(#paint52_linear_119_384)"/>
<path d="M326.879 108.037C327.153 108.142 327.379 108.29 327.536 108.468C327.693 108.645 327.775 108.845 327.775 109.049C327.775 109.253 327.693 109.453 327.536 109.631C327.379 109.808 327.153 109.957 326.879 110.062C311.597 115.217 293 113.436 276.016 113.324C253.283 113.155 230.55 112.03 207.876 110.924C207.362 110.885 206.889 110.727 206.545 110.48C206.202 110.233 206.012 109.914 206.012 109.583C206.012 109.253 206.202 108.934 206.545 108.687C206.889 108.44 207.362 108.282 207.876 108.243C230.609 107.887 253.283 107.062 276.016 106.537C293 106.143 311.039 103.725 326.879 108.037Z" fill="url(#paint53_linear_119_384)"/>
<path d="M333.211 90.2819C334.131 90.3344 334.986 90.605 335.609 91.0405C336.233 91.4759 336.578 92.0447 336.578 92.6348C336.578 93.2249 336.233 93.7937 335.609 94.2291C334.986 94.6646 334.131 94.9352 333.211 94.9877C290.737 95.1377 248.146 96.4876 205.701 95.2314C202.768 95.2314 201.536 91.8943 204.938 91.6131C247.412 87.8822 290.473 88.6695 333.211 90.2819Z" fill="url(#paint54_linear_119_384)"/>
<path d="M154.751 317.379C155.136 317.451 155.473 317.6 155.714 317.804C155.954 318.009 156.084 318.258 156.084 318.513C156.084 318.769 155.954 319.018 155.714 319.223C155.473 319.427 155.136 319.576 154.751 319.648C109.579 324.185 56.7794 318.748 12.0467 313.423C11.7586 313.356 11.5154 313.227 11.357 313.059C11.1987 312.891 11.1347 312.693 11.1758 312.499C11.2168 312.304 11.3603 312.125 11.5826 311.989C11.8049 311.854 12.0928 311.771 12.3987 311.755C59.038 313.967 108.787 312.711 154.751 317.379Z" fill="url(#paint55_linear_119_384)"/>
<path d="M163.665 291.769C168.564 292.144 168.886 296.794 163.665 296.812C116.732 297.037 65.6637 297.112 19.4056 291.075C15.7097 290.588 16.9123 287.326 20.2563 287.12C67.013 284.476 117.202 288.207 163.665 291.769Z" fill="url(#paint56_linear_119_384)"/>
<path d="M95.8158 261.678C116.848 261.997 139.551 260.947 159.263 265.897C161.434 266.44 162.196 268.784 159.263 269.14C138.73 271.821 116.701 268.821 95.8158 268.109C71.3815 267.284 46.9178 266.984 22.4835 267.04C21.4959 266.986 20.5761 266.697 19.9059 266.23C19.2358 265.763 18.864 265.152 18.864 264.519C18.864 263.885 19.2358 263.275 19.9059 262.808C20.5761 262.341 21.4959 262.052 22.4835 261.997C46.8885 261.472 71.4108 261.285 95.8158 261.678Z" fill="url(#paint57_linear_119_384)"/>
<path d="M157.158 242.311C158.01 242.362 158.802 242.614 159.378 243.018C159.954 243.422 160.273 243.949 160.273 244.495C160.273 245.042 159.954 245.569 159.378 245.973C158.802 246.377 158.01 246.629 157.158 246.679C109.668 247.223 55.5198 248.985 9.17374 241.299C8.39174 241.148 7.71931 240.824 7.27731 240.386C6.83531 239.947 6.65268 239.421 6.76224 238.904C6.8718 238.387 7.26636 237.911 7.87501 237.563C8.48369 237.215 9.2666 237.018 10.0831 237.005C58.3064 235.656 108.759 241.28 157.158 242.311Z" fill="url(#paint58_linear_119_384)"/>
<path d="M164.579 212.933C165.361 213.083 166.033 213.407 166.475 213.846C166.917 214.285 167.1 214.81 166.99 215.327C166.881 215.845 166.486 216.32 165.878 216.668C165.269 217.016 164.486 217.214 163.67 217.226C113.246 219.101 62.4417 214.583 11.637 216.664C5.53574 216.926 5.59441 210.889 11.637 210.608C60.3297 208.339 116.796 205.115 164.579 212.933Z" fill="url(#paint59_linear_119_384)"/>
<path d="M80.2135 191.335C106.257 192.638 132.392 193.032 158.503 192.516C164.956 192.404 164.927 198.778 158.503 198.909C128.913 199.557 99.2885 199.031 69.8003 197.335C47.2432 195.966 21.9289 195.46 1.30788 189.179C-1.21475 188.41 0.281188 186.142 2.65716 186.048C28.3528 185.017 54.5765 190.004 80.2135 191.335Z" fill="url(#paint60_linear_119_384)"/>
<path d="M154.31 165.801C156.862 165.801 157.683 168.5 154.955 168.781C108.316 173.356 58.5381 171.444 11.5467 170.225C7.85077 170.131 7.82144 166.475 11.5467 166.475C59.1834 167.544 106.849 164.826 154.31 165.801Z" fill="url(#paint61_linear_119_384)"/>
<path d="M82.6473 146.321C105.779 147.374 129.01 147.142 152.078 145.627C158.708 145.196 158.942 152.358 152.078 152.339C125.385 152.339 98.6044 152.208 71.9701 151.308C51.8477 150.614 30.904 150.801 12.4829 145.252C10.1069 144.54 11.6029 142.571 13.6562 142.421C36.5065 140.753 59.6796 145.252 82.6473 146.321Z" fill="url(#paint62_linear_119_384)"/>
<path d="M159.414 121.873C163.462 122.004 163.491 126.054 159.414 125.904C114.751 124.379 69.9837 124.598 25.3624 126.56C21.3144 126.747 21.3438 122.81 25.3624 122.529C69.9831 120.558 114.751 120.338 159.414 121.873Z" fill="url(#paint63_linear_119_384)"/>
<path d="M744.192 15.7579C751.261 41.8367 742.285 71.1026 741.522 97.5938C740.672 127.028 742.021 156.594 741.933 186.066C741.933 214.395 741.288 242.723 741.288 271.052C741.288 298.893 746.92 329.303 738.032 356.637C737.81 357.086 737.37 357.477 736.777 357.755C736.184 358.032 735.467 358.182 734.732 358.182C733.996 358.182 733.28 358.032 732.687 357.755C732.093 357.477 731.654 357.086 731.432 356.637C721.928 330.577 726.563 301.293 726.563 274.652C726.563 245.142 726.563 215.632 727.648 186.123C728.733 157.738 731.579 129.503 733.515 101.156C735.333 73.5774 728.528 42.5303 739.205 15.7579C739.704 14.2581 743.722 14.0518 744.192 15.7579Z" fill="url(#paint64_linear_119_384)"/>
<path d="M553.031 53.3489C553.589 169.7 556.991 286.108 554.322 402.44C554.253 402.854 553.947 403.238 553.462 403.517C552.978 403.795 552.349 403.95 551.697 403.95C551.045 403.95 550.416 403.795 549.931 403.517C549.446 403.238 549.14 402.854 549.071 402.44C543.938 286.201 544.906 169.719 543.029 53.3864C543.118 52.5804 543.68 51.8256 544.602 51.273C545.524 50.7204 546.739 50.4107 548.003 50.406C549.267 50.4012 550.487 50.7018 551.42 51.2474C552.352 51.7931 552.928 52.5436 553.031 53.3489Z" fill="url(#paint65_linear_119_384)"/>
<path d="M355.066 87.7327C352.925 199.472 351.047 311.192 351.781 422.95C351.684 423.756 351.115 424.508 350.188 425.057C349.261 425.606 348.043 425.911 346.779 425.911C345.515 425.911 344.298 425.606 343.371 425.057C342.443 424.508 341.875 423.756 341.778 422.95C339.754 311.211 339.901 199.416 344.535 87.7327C344.741 83.5331 355.154 83.4394 355.066 87.7327Z" fill="url(#paint66_linear_119_384)"/>
<path d="M192.851 101.587C197.398 122.36 193.731 143.939 192.851 164.862C191.795 187.135 190.769 209.408 189.918 231.7C188.481 275.083 187.425 318.466 188.862 361.85C189.038 367.268 175.603 367.343 175.691 361.85C176.483 317.304 176.014 272.739 176.835 228.175C177.217 207.065 177.715 185.973 178.537 164.862C179.358 143.752 177.921 121.742 185.049 100.894C186.134 97.9314 192.265 98.9814 192.851 101.587Z" fill="url(#paint67_linear_119_384)"/>
<defs>
<linearGradient id="paint0_linear_119_384" x1="835.214" y1="286.464" x2="-37.8783" y2="313.663" gradientUnits="userSpaceOnUse">
<stop stop-color="#F39C11"/>
<stop offset="1" stop-color="#DE8110"/>
</linearGradient>
<linearGradient id="paint1_linear_119_384" x1="834.715" y1="271.034" x2="-38.3484" y2="298.233" gradientUnits="userSpaceOnUse">
<stop stop-color="#F39C11"/>
<stop offset="1" stop-color="#DE8110"/>
</linearGradient>
<linearGradient id="paint2_linear_119_384" x1="834.22" y1="254.704" x2="-38.8743" y2="281.857" gradientUnits="userSpaceOnUse">
<stop stop-color="#F39C11"/>
<stop offset="1" stop-color="#DE8110"/>
</linearGradient>
<linearGradient id="paint3_linear_119_384" x1="833.688" y1="237.512" x2="-39.4062" y2="264.665" gradientUnits="userSpaceOnUse">
<stop stop-color="#F39C11"/>
<stop offset="1" stop-color="#DE8110"/>
</linearGradient>
<linearGradient id="paint4_linear_119_384" x1="833.161" y1="220.488" x2="-39.9315" y2="247.688" gradientUnits="userSpaceOnUse">
<stop stop-color="#F39C11"/>
<stop offset="1" stop-color="#DE8110"/>
</linearGradient>
<linearGradient id="paint5_linear_119_384" x1="832.513" y1="199.959" x2="-40.5798" y2="227.158" gradientUnits="userSpaceOnUse">
<stop stop-color="#F39C11"/>
<stop offset="1" stop-color="#DE8110"/>
</linearGradient>
<linearGradient id="paint6_linear_119_384" x1="831.898" y1="180.611" x2="-41.1653" y2="207.81" gradientUnits="userSpaceOnUse">
<stop stop-color="#F39C11"/>
<stop offset="1" stop-color="#DE8110"/>
</linearGradient>
<linearGradient id="paint7_linear_119_384" x1="831.254" y1="159.239" x2="-41.8386" y2="186.438" gradientUnits="userSpaceOnUse">
<stop stop-color="#F39C11"/>
<stop offset="1" stop-color="#DE8110"/>
</linearGradient>
<linearGradient id="paint8_linear_119_384" x1="830.642" y1="139.553" x2="-42.4509" y2="166.753" gradientUnits="userSpaceOnUse">
<stop stop-color="#F39C11"/>
<stop offset="1" stop-color="#DE8110"/>
</linearGradient>
<linearGradient id="paint9_linear_119_384" x1="830.051" y1="120.88" x2="-43.0416" y2="148.079" gradientUnits="userSpaceOnUse">
<stop stop-color="#F39C11"/>
<stop offset="1" stop-color="#DE8110"/>
</linearGradient>
<linearGradient id="paint10_linear_119_384" x1="829.375" y1="99.0189" x2="-43.7179" y2="126.218" gradientUnits="userSpaceOnUse">
<stop stop-color="#F39C11"/>
<stop offset="1" stop-color="#DE8110"/>
</linearGradient>
<linearGradient id="paint11_linear_119_384" x1="828.793" y1="80.7771" x2="-44.2706" y2="107.976" gradientUnits="userSpaceOnUse">
<stop stop-color="#F39C11"/>
<stop offset="1" stop-color="#DE8110"/>
</linearGradient>
<linearGradient id="paint12_linear_119_384" x1="828.084" y1="58.0545" x2="-44.9794" y2="85.2539" gradientUnits="userSpaceOnUse">
<stop stop-color="#F39C11"/>
<stop offset="1" stop-color="#DE8110"/>
</linearGradient>
<linearGradient id="paint13_linear_119_384" x1="827.503" y1="38.6315" x2="-45.5895" y2="65.8308" gradientUnits="userSpaceOnUse">
<stop stop-color="#F39C11"/>
<stop offset="1" stop-color="#DE8110"/>
</linearGradient>
<linearGradient id="paint14_linear_119_384" x1="826.798" y1="16.5273" x2="-46.2652" y2="43.7266" gradientUnits="userSpaceOnUse">
<stop stop-color="#F39C11"/>
<stop offset="1" stop-color="#DE8110"/>
</linearGradient>
<linearGradient id="paint15_linear_119_384" x1="826.358" y1="2.61578" x2="-46.7058" y2="29.8151" gradientUnits="userSpaceOnUse">
<stop stop-color="#F39C11"/>
<stop offset="1" stop-color="#DE8110"/>
</linearGradient>
<linearGradient id="paint16_linear_119_384" x1="721.697" y1="359.863" x2="133.559" y2="366.654" gradientUnits="userSpaceOnUse">
<stop stop-color="#F3DE66"/>
<stop offset="1" stop-color="#E6AE3E"/>
</linearGradient>
<linearGradient id="paint17_linear_119_384" x1="721.461" y1="339.727" x2="133.323" y2="346.519" gradientUnits="userSpaceOnUse">
<stop stop-color="#F3DE66"/>
<stop offset="1" stop-color="#E6AE3E"/>
</linearGradient>
<linearGradient id="paint18_linear_119_384" x1="721.229" y1="318.616" x2="133.091" y2="325.408" gradientUnits="userSpaceOnUse">
<stop stop-color="#F3DE66"/>
<stop offset="1" stop-color="#E6AE3E"/>
</linearGradient>
<linearGradient id="paint19_linear_119_384" x1="720.902" y1="292.35" x2="132.793" y2="299.142" gradientUnits="userSpaceOnUse">
<stop stop-color="#F3DE66"/>
<stop offset="1" stop-color="#E6AE3E"/>
</linearGradient>
<linearGradient id="paint20_linear_119_384" x1="720.615" y1="266.646" x2="132.507" y2="273.438" gradientUnits="userSpaceOnUse">
<stop stop-color="#F3DE66"/>
<stop offset="1" stop-color="#E6AE3E"/>
</linearGradient>
<linearGradient id="paint21_linear_119_384" x1="720.291" y1="239.124" x2="132.182" y2="245.916" gradientUnits="userSpaceOnUse">
<stop stop-color="#F3DE66"/>
<stop offset="1" stop-color="#E6AE3E"/>
</linearGradient>
<linearGradient id="paint22_linear_119_384" x1="720.02" y1="213.964" x2="131.883" y2="220.756" gradientUnits="userSpaceOnUse">
<stop stop-color="#F3DE66"/>
<stop offset="1" stop-color="#E6AE3E"/>
</linearGradient>
<linearGradient id="paint23_linear_119_384" x1="719.703" y1="187.773" x2="131.565" y2="194.565" gradientUnits="userSpaceOnUse">
<stop stop-color="#F3DE66"/>
<stop offset="1" stop-color="#E6AE3E"/>
</linearGradient>
<linearGradient id="paint24_linear_119_384" x1="719.407" y1="162.182" x2="131.269" y2="168.974" gradientUnits="userSpaceOnUse">
<stop stop-color="#F3DE66"/>
<stop offset="1" stop-color="#E6AE3E"/>
</linearGradient>
<linearGradient id="paint25_linear_119_384" x1="719.059" y1="132.035" x2="130.922" y2="138.826" gradientUnits="userSpaceOnUse">
<stop stop-color="#F3DE66"/>
<stop offset="1" stop-color="#E6AE3E"/>
</linearGradient>
<linearGradient id="paint26_linear_119_384" x1="718.823" y1="110.718" x2="130.685" y2="117.509" gradientUnits="userSpaceOnUse">
<stop stop-color="#F3DE66"/>
<stop offset="1" stop-color="#E6AE3E"/>
</linearGradient>
<linearGradient id="paint27_linear_119_384" x1="718.5" y1="83.2149" x2="130.362" y2="90.0066" gradientUnits="userSpaceOnUse">
<stop stop-color="#F3DE66"/>
<stop offset="1" stop-color="#E6AE3E"/>
</linearGradient>
<linearGradient id="paint28_linear_119_384" x1="718.205" y1="58.9725" x2="130.096" y2="65.7642" gradientUnits="userSpaceOnUse">
<stop stop-color="#F3DE66"/>
<stop offset="1" stop-color="#E6AE3E"/>
</linearGradient>
<linearGradient id="paint29_linear_119_384" x1="838.884" y1="404.54" x2="-34.1796" y2="431.739" gradientUnits="userSpaceOnUse">
<stop stop-color="#F39C11"/>
<stop offset="1" stop-color="#DE8110"/>
</linearGradient>
<linearGradient id="paint30_linear_119_384" x1="838.145" y1="380.805" x2="-34.9482" y2="408.004" gradientUnits="userSpaceOnUse">
<stop stop-color="#F39C11"/>
<stop offset="1" stop-color="#DE8110"/>
</linearGradient>
<linearGradient id="paint31_linear_119_384" x1="837.328" y1="355.119" x2="-35.7355" y2="382.319" gradientUnits="userSpaceOnUse">
<stop stop-color="#F39C11"/>
<stop offset="1" stop-color="#DE8110"/>
</linearGradient>
<linearGradient id="paint32_linear_119_384" x1="836.473" y1="327.785" x2="-36.5899" y2="354.984" gradientUnits="userSpaceOnUse">
<stop stop-color="#F39C11"/>
<stop offset="1" stop-color="#DE8110"/>
</linearGradient>
<linearGradient id="paint33_linear_119_384" x1="835.534" y1="296.85" x2="-37.559" y2="324.049" gradientUnits="userSpaceOnUse">
<stop stop-color="#F39C11"/>
<stop offset="1" stop-color="#DE8110"/>
</linearGradient>
<linearGradient id="paint34_linear_119_384" x1="834.657" y1="268.915" x2="-38.4065" y2="296.115" gradientUnits="userSpaceOnUse">
<stop stop-color="#F39C11"/>
<stop offset="1" stop-color="#DE8110"/>
</linearGradient>
<linearGradient id="paint35_linear_119_384" x1="833.747" y1="239.499" x2="-39.3472" y2="266.653" gradientUnits="userSpaceOnUse">
<stop stop-color="#F39C11"/>
<stop offset="1" stop-color="#DE8110"/>
</linearGradient>
<linearGradient id="paint36_linear_119_384" x1="832.838" y1="210.102" x2="-40.2564" y2="237.255" gradientUnits="userSpaceOnUse">
<stop stop-color="#F39C11"/>
<stop offset="1" stop-color="#DE8110"/>
</linearGradient>
<linearGradient id="paint37_linear_119_384" x1="831.755" y1="175.456" x2="-41.3379" y2="202.655" gradientUnits="userSpaceOnUse">
<stop stop-color="#F39C11"/>
<stop offset="1" stop-color="#DE8110"/>
</linearGradient>
<linearGradient id="paint38_linear_119_384" x1="830.901" y1="147.895" x2="-42.1914" y2="175.095" gradientUnits="userSpaceOnUse">
<stop stop-color="#F39C11"/>
<stop offset="1" stop-color="#DE8110"/>
</linearGradient>
<linearGradient id="paint39_linear_119_384" x1="829.994" y1="119.492" x2="-43.0711" y2="146.646" gradientUnits="userSpaceOnUse">
<stop stop-color="#F39C11"/>
<stop offset="1" stop-color="#DE8110"/>
</linearGradient>
<linearGradient id="paint40_linear_119_384" x1="829.173" y1="92.495" x2="-43.921" y2="119.648" gradientUnits="userSpaceOnUse">
<stop stop-color="#F39C11"/>
<stop offset="1" stop-color="#DE8110"/>
</linearGradient>
<linearGradient id="paint41_linear_119_384" x1="828.497" y1="70.8222" x2="-44.5972" y2="97.9757" gradientUnits="userSpaceOnUse">
<stop stop-color="#F39C11"/>
<stop offset="1" stop-color="#DE8110"/>
</linearGradient>
<linearGradient id="paint42_linear_119_384" x1="722.112" y1="395.559" x2="133.975" y2="402.396" gradientUnits="userSpaceOnUse">
<stop stop-color="#F3DE66"/>
<stop offset="1" stop-color="#E6AE3E"/>
</linearGradient>
<linearGradient id="paint43_linear_119_384" x1="721.873" y1="373.755" x2="133.735" y2="380.592" gradientUnits="userSpaceOnUse">
<stop stop-color="#F3DE66"/>
<stop offset="1" stop-color="#E6AE3E"/>
</linearGradient>
<linearGradient id="paint44_linear_119_384" x1="721.576" y1="349.833" x2="133.438" y2="356.624" gradientUnits="userSpaceOnUse">
<stop stop-color="#F3DE66"/>
<stop offset="1" stop-color="#E6AE3E"/>
</linearGradient>
<linearGradient id="paint45_linear_119_384" x1="721.226" y1="318.992" x2="133.089" y2="325.829" gradientUnits="userSpaceOnUse">
<stop stop-color="#F3DE66"/>
<stop offset="1" stop-color="#E6AE3E"/>
</linearGradient>
<linearGradient id="paint46_linear_119_384" x1="720.907" y1="290.063" x2="132.769" y2="296.855" gradientUnits="userSpaceOnUse">
<stop stop-color="#F3DE66"/>
<stop offset="1" stop-color="#E6AE3E"/>
</linearGradient>
<linearGradient id="paint47_linear_119_384" x1="720.582" y1="262.072" x2="132.444" y2="268.864" gradientUnits="userSpaceOnUse">
<stop stop-color="#F3DE66"/>
<stop offset="1" stop-color="#E6AE3E"/>
</linearGradient>
<linearGradient id="paint48_linear_119_384" x1="720.231" y1="234.043" x2="132.123" y2="240.835" gradientUnits="userSpaceOnUse">
<stop stop-color="#F3DE66"/>
<stop offset="1" stop-color="#E6AE3E"/>
</linearGradient>
<linearGradient id="paint49_linear_119_384" x1="719.938" y1="206.69" x2="131.8" y2="213.482" gradientUnits="userSpaceOnUse">
<stop stop-color="#F3DE66"/>
<stop offset="1" stop-color="#E6AE3E"/>
</linearGradient>
<linearGradient id="paint50_linear_119_384" x1="719.674" y1="183.442" x2="131.537" y2="190.234" gradientUnits="userSpaceOnUse">
<stop stop-color="#F3DE66"/>
<stop offset="1" stop-color="#E6AE3E"/>
</linearGradient>
<linearGradient id="paint51_linear_119_384" x1="719.35" y1="156.726" x2="131.212" y2="163.518" gradientUnits="userSpaceOnUse">
<stop stop-color="#F3DE66"/>
<stop offset="1" stop-color="#E6AE3E"/>
</linearGradient>
<linearGradient id="paint52_linear_119_384" x1="719.087" y1="133.535" x2="130.949" y2="140.326" gradientUnits="userSpaceOnUse">
<stop stop-color="#F3DE66"/>
<stop offset="1" stop-color="#E6AE3E"/>
</linearGradient>
<linearGradient id="paint53_linear_119_384" x1="718.797" y1="107.643" x2="130.659" y2="114.435" gradientUnits="userSpaceOnUse">
<stop stop-color="#F3DE66"/>
<stop offset="1" stop-color="#E6AE3E"/>
</linearGradient>
<linearGradient id="paint54_linear_119_384" x1="718.587" y1="90.1881" x2="130.45" y2="96.9799" gradientUnits="userSpaceOnUse">
<stop stop-color="#F3DE66"/>
<stop offset="1" stop-color="#E6AE3E"/>
</linearGradient>
<linearGradient id="paint55_linear_119_384" x1="835.833" y1="306.768" x2="-37.2304" y2="333.967" gradientUnits="userSpaceOnUse">
<stop stop-color="#F39C11"/>
<stop offset="1" stop-color="#DE8110"/>
</linearGradient>
<linearGradient id="paint56_linear_119_384" x1="835.067" y1="282.245" x2="-37.9966" y2="309.444" gradientUnits="userSpaceOnUse">
<stop stop-color="#F39C11"/>
<stop offset="1" stop-color="#DE8110"/>
</linearGradient>
<linearGradient id="paint57_linear_119_384" x1="834.272" y1="256.504" x2="-38.82" y2="283.703" gradientUnits="userSpaceOnUse">
<stop stop-color="#F39C11"/>
<stop offset="1" stop-color="#DE8110"/>
</linearGradient>
<linearGradient id="paint58_linear_119_384" x1="833.518" y1="232.281" x2="-39.546" y2="259.48" gradientUnits="userSpaceOnUse">
<stop stop-color="#F39C11"/>
<stop offset="1" stop-color="#DE8110"/>
</linearGradient>
<linearGradient id="paint59_linear_119_384" x1="832.637" y1="203.69" x2="-40.456" y2="230.889" gradientUnits="userSpaceOnUse">
<stop stop-color="#F39C11"/>
<stop offset="1" stop-color="#DE8110"/>
</linearGradient>
<linearGradient id="paint60_linear_119_384" x1="831.987" y1="182.898" x2="-41.1052" y2="210.098" gradientUnits="userSpaceOnUse">
<stop stop-color="#F39C11"/>
<stop offset="1" stop-color="#DE8110"/>
</linearGradient>
<linearGradient id="paint61_linear_119_384" x1="831.256" y1="159.201" x2="-41.8386" y2="186.355" gradientUnits="userSpaceOnUse">
<stop stop-color="#F39C11"/>
<stop offset="1" stop-color="#DE8110"/>
</linearGradient>
<linearGradient id="paint62_linear_119_384" x1="830.579" y1="137.753" x2="-42.514" y2="164.952" gradientUnits="userSpaceOnUse">
<stop stop-color="#F39C11"/>
<stop offset="1" stop-color="#DE8110"/>
</linearGradient>
<linearGradient id="paint63_linear_119_384" x1="829.848" y1="114.411" x2="-43.2157" y2="141.61" gradientUnits="userSpaceOnUse">
<stop stop-color="#F39C11"/>
<stop offset="1" stop-color="#DE8110"/>
</linearGradient>
<linearGradient id="paint64_linear_119_384" x1="769.913" y1="186.116" x2="93.9232" y2="201.952" gradientUnits="userSpaceOnUse">
<stop stop-color="white"/>
<stop offset="1" stop-color="#FBEFD0"/>
</linearGradient>
<linearGradient id="paint65_linear_119_384" x1="770.701" y1="225.091" x2="94.9165" y2="240.924" gradientUnits="userSpaceOnUse">
<stop stop-color="white"/>
<stop offset="1" stop-color="#FBEFD0"/>
</linearGradient>
<linearGradient id="paint66_linear_119_384" x1="771.23" y1="251.299" x2="95.3578" y2="267.133" gradientUnits="userSpaceOnUse">
<stop stop-color="white"/>
<stop offset="1" stop-color="#FBEFD0"/>
</linearGradient>
<linearGradient id="paint67_linear_119_384" x1="770.695" y1="226.947" x2="94.6765" y2="242.783" gradientUnits="userSpaceOnUse">
<stop stop-color="white"/>
<stop offset="1" stop-color="#FBEFD0"/>
</linearGradient>
</defs>
</svg>
