<svg width="130" height="429" viewBox="0 0 130 429" fill="none" xmlns="http://www.w3.org/2000/svg">
<path d="M0.430298 356.865C12.204 344.858 28.5061 331.207 39.6089 318.462C44.5733 312.794 50.2086 302.498 57.7223 299.278C57.8416 298.517 58.1501 297.799 58.6195 297.188C59.0889 296.578 59.7042 296.095 60.4089 295.785C61.1135 295.474 61.8849 295.346 62.6522 295.411C63.4194 295.476 64.158 295.734 64.7999 296.159C76.7414 305.248 87.5088 316.282 98.5781 326.344C109.04 335.179 118.964 344.631 128.297 354.651C128.634 355.035 128.878 355.492 129.011 355.985C129.144 356.478 129.163 356.995 129.066 357.496C128.969 357.998 128.758 358.47 128.451 358.878C128.143 359.286 127.747 359.618 127.291 359.849C123.937 371.924 110.821 383.126 103.073 391.946C92.0044 404.655 80.282 416.779 67.953 428.269C65.2025 430.785 40.2798 402.947 30.5187 392.081C23.005 383.629 -2.99112 360.386 0.430298 356.865ZM35.3489 381.65C45.6803 392.953 58.2925 404.188 67.0474 416.933C77.1104 406.1 87.4082 395.334 97.2363 384.098C103.945 376.217 111.09 363.975 120.214 357.267C109.245 349.083 99.3496 339.29 89.186 330.167C80.3641 322.252 71.1396 314.605 62.7538 306.254C60.1039 314.605 49.0681 322.151 44.2043 327.484C34.1413 338.485 25.0511 350.693 12.6065 359.011C20.1873 367.631 28.808 374.506 35.3489 381.65Z" fill="url(#paint0_linear_332_608)"/>
<path d="M0.430298 209.17C12.204 197.163 28.5061 183.512 39.6089 170.767C44.5733 165.099 50.2086 154.803 57.7223 151.583C57.8416 150.822 58.1501 150.104 58.6195 149.494C59.0889 148.883 59.7042 148.401 60.4089 148.09C61.1135 147.78 61.8849 147.651 62.6522 147.716C63.4194 147.782 64.158 148.039 64.7999 148.464C76.7414 157.553 87.5088 168.587 98.5781 178.649C109.04 187.484 118.964 196.936 128.297 206.956C128.634 207.341 128.878 207.797 129.011 208.29C129.144 208.783 129.163 209.3 129.066 209.801C128.969 210.303 128.758 210.776 128.451 211.183C128.143 211.591 127.747 211.923 127.291 212.155C123.937 224.229 110.821 235.431 103.073 244.252C92.0044 256.96 80.282 269.084 67.953 280.574C65.2025 283.09 40.2798 255.252 30.5187 244.386C23.005 235.934 -2.99112 212.691 0.430298 209.17ZM35.3489 233.955C45.6803 245.258 58.2925 256.493 67.0474 269.238C77.1104 258.405 87.4082 247.639 97.2363 236.403C103.945 228.522 111.09 216.28 120.214 209.572C109.245 201.389 99.3496 191.595 89.186 182.472C80.3641 174.557 71.1396 166.91 62.7538 158.559C60.1039 166.91 49.0681 174.457 44.2043 179.789C34.1413 190.79 25.0511 202.998 12.6065 211.316C20.1873 219.936 28.808 226.811 35.3489 233.955Z" fill="url(#paint1_linear_332_608)"/>
<path d="M0.430298 61.4749C12.204 49.4679 28.5061 35.8174 39.6089 23.0725C44.5733 17.4044 50.2086 7.1079 57.7223 3.88815C57.8416 3.12749 58.1501 2.40904 58.6195 1.79871C59.0889 1.18837 59.7042 0.705772 60.4089 0.395237C61.1135 0.084703 61.8849 -0.0438746 62.6522 0.021443C63.4194 0.0867607 64.158 0.343859 64.7999 0.769032C76.7414 9.85814 87.5088 20.8925 98.5781 30.9543C109.04 39.789 118.964 49.2416 128.297 59.2613C128.634 59.6458 128.878 60.1019 129.011 60.5951C129.144 61.0882 129.163 61.6051 129.066 62.1066C128.969 62.6081 128.758 63.0808 128.451 63.4886C128.143 63.8964 127.747 64.2286 127.291 64.4598C123.937 76.5339 110.821 87.736 103.073 96.5568C92.0044 109.265 80.282 121.389 67.953 132.88C65.2025 135.395 40.2798 107.558 30.5187 96.691C23.005 88.2391 -2.99112 64.9965 0.430298 61.4749ZM35.3489 86.2603C45.6803 97.5629 58.2925 108.799 67.0474 121.543C77.1104 110.71 87.4082 99.9443 97.2363 88.7086C103.945 80.827 111.09 68.5852 120.214 61.8773C109.245 53.6938 99.3496 43.9003 89.186 34.7777C80.3641 26.8624 71.1396 19.2156 62.7538 10.8643C60.1039 19.2156 49.0681 26.7618 44.2043 32.0946C34.1413 43.0954 25.0511 55.3036 12.6065 63.6213C20.1873 72.2409 28.808 79.1164 35.3489 86.2603Z" fill="url(#paint2_linear_332_608)"/>
<defs>
<linearGradient id="paint0_linear_332_608" x1="59.802" y1="-153.568" x2="66.7437" y2="578.659" gradientUnits="userSpaceOnUse">
<stop stop-color="#F39C11"/>
<stop offset="1" stop-color="#DE8110"/>
</linearGradient>
<linearGradient id="paint1_linear_332_608" x1="59.802" y1="-301.262" x2="66.7437" y2="430.964" gradientUnits="userSpaceOnUse">
<stop stop-color="#F39C11"/>
<stop offset="1" stop-color="#DE8110"/>
</linearGradient>
<linearGradient id="paint2_linear_332_608" x1="59.802" y1="-448.957" x2="66.7437" y2="283.269" gradientUnits="userSpaceOnUse">
<stop stop-color="#F39C11"/>
<stop offset="1" stop-color="#DE8110"/>
</linearGradient>
</defs>
</svg>
