<svg width="577" height="1067" viewBox="0 0 577 1067" fill="none" xmlns="http://www.w3.org/2000/svg">
<path d="M383.008 361.82C394.782 349.813 411.084 336.163 422.187 323.418C427.151 317.75 432.787 307.453 440.3 304.233C440.42 303.473 440.728 302.754 441.198 302.144C441.667 301.533 442.282 301.051 442.987 300.74C443.692 300.43 444.463 300.301 445.23 300.367C445.998 300.432 446.736 300.689 447.378 301.114C459.319 310.203 470.087 321.238 481.156 331.299C491.618 340.134 501.542 349.587 510.876 359.607C511.212 359.991 511.456 360.447 511.589 360.94C511.722 361.433 511.741 361.95 511.644 362.452C511.547 362.953 511.337 363.426 511.029 363.834C510.721 364.242 510.325 364.574 509.869 364.805C506.515 376.879 493.4 388.081 485.651 396.902C474.583 409.611 462.86 421.735 450.531 433.225C447.781 435.74 422.858 407.903 413.097 397.036C405.583 388.584 379.587 365.342 383.008 361.82ZM417.927 386.605C428.258 397.908 440.871 409.144 449.625 421.889C459.688 411.055 469.986 400.289 479.814 389.054C486.523 381.172 493.668 368.93 502.792 362.223C491.823 354.039 481.928 344.246 471.764 335.123C462.942 327.208 453.718 319.561 445.332 311.209C442.682 319.561 431.646 327.107 426.782 332.44C416.719 343.441 407.629 355.649 395.185 363.967C402.765 372.452 411.386 379.462 417.927 386.605Z" fill="url(#paint0_linear_125_518)"/>
<path d="M383.008 692.885C394.782 680.878 411.084 667.228 422.187 654.483C427.151 648.815 432.787 638.518 440.3 635.298C440.42 634.538 440.728 633.819 441.198 633.209C441.667 632.599 442.282 632.116 442.987 631.805C443.692 631.495 444.463 631.366 445.23 631.432C445.998 631.497 446.736 631.754 447.378 632.179C459.319 641.268 470.087 652.303 481.156 662.364C491.618 671.199 501.542 680.652 510.876 690.671C511.212 691.056 511.456 691.512 511.589 692.005C511.722 692.498 511.741 693.015 511.644 693.517C511.547 694.018 511.337 694.491 511.029 694.899C510.721 695.307 510.325 695.639 509.869 695.87C506.515 707.944 493.4 719.146 485.651 727.967C474.583 740.676 462.86 752.8 450.531 764.29C447.781 766.805 422.858 738.968 413.097 728.101C405.583 719.649 379.587 696.407 383.008 692.885ZM417.927 717.67C428.258 728.973 440.871 740.209 449.625 752.954C459.688 742.12 469.986 731.354 479.814 720.119C486.523 712.237 493.668 699.995 502.792 693.287C491.823 685.104 481.928 675.31 471.764 666.188C462.942 658.273 453.718 650.626 445.332 642.274C442.682 650.626 431.646 658.172 426.782 663.505C416.719 674.506 407.629 686.714 395.185 695.031C402.765 703.651 411.386 710.527 417.927 717.67Z" fill="url(#paint1_linear_125_518)"/>
<path d="M170.143 219.077C182.05 207.204 198.52 193.755 209.791 181.178C214.789 175.577 220.558 165.314 228.139 162.195C228.272 161.443 228.591 160.736 229.066 160.138C229.542 159.54 230.158 159.07 230.861 158.771C231.563 158.471 232.33 158.351 233.09 158.422C233.851 158.493 234.582 158.752 235.217 159.177C247.057 168.4 257.691 179.501 268.76 189.731C279.099 198.704 288.899 208.28 298.11 218.407C298.446 218.793 298.688 219.252 298.818 219.746C298.949 220.241 298.965 220.759 298.865 221.261C298.764 221.762 298.55 222.235 298.239 222.641C297.928 223.047 297.529 223.377 297.071 223.605C293.515 235.612 280.299 246.68 272.416 255.4C261.213 267.999 249.344 279.99 236.86 291.321C234.076 293.803 209.489 265.663 199.963 254.696C192.281 246.11 166.654 222.565 170.143 219.077ZM204.726 244.165C214.789 255.601 227.401 266.971 235.988 279.85C246.286 269.151 256.617 258.486 266.446 247.384C273.355 239.603 280.534 227.261 289.926 220.956C279.058 212.638 269.297 202.71 259.234 193.487C250.512 185.471 241.389 177.724 233.103 169.238C230.353 177.589 219.217 184.968 214.319 190.234C204.256 201.1 194.831 213.208 182.319 221.392C189.765 229.944 198.285 237.088 204.726 244.165Z" fill="url(#paint2_linear_125_518)"/>
<path d="M170.143 537.599C182.05 525.726 198.52 512.277 209.791 499.7C214.789 494.099 220.558 483.836 228.139 480.716C228.264 479.96 228.578 479.247 229.052 478.644C229.526 478.041 230.144 477.567 230.85 477.266C231.555 476.965 232.325 476.847 233.089 476.923C233.852 476.998 234.584 477.265 235.217 477.698C247.057 486.921 257.691 498.023 268.76 508.252C279.099 517.226 288.899 526.801 298.11 536.928C298.446 537.315 298.688 537.773 298.818 538.268C298.949 538.762 298.965 539.28 298.865 539.782C298.764 540.284 298.55 540.756 298.239 541.162C297.928 541.569 297.529 541.899 297.071 542.127C293.515 554.134 280.299 565.202 272.416 573.888C261.178 586.466 249.276 598.434 236.76 609.742C233.976 612.223 209.388 584.084 199.862 573.083C192.281 564.631 166.654 541.087 170.143 537.599ZM204.726 562.787C214.789 574.224 227.401 585.593 235.988 598.472C246.286 587.773 256.617 577.108 266.446 566.006C273.355 558.192 280.534 545.883 289.926 539.578C279.058 531.26 269.297 521.332 259.234 512.109C250.512 504.093 241.389 496.346 233.103 487.86C230.353 496.178 219.217 503.59 214.319 508.856C204.256 519.723 194.831 531.83 182.319 540.014C189.765 548.465 198.285 555.609 204.726 562.787Z" fill="url(#paint3_linear_125_518)"/>
<path d="M170.142 885.533C182.05 873.661 198.519 860.211 209.79 847.634C214.788 842.033 220.557 831.77 228.138 828.651C228.271 827.899 228.59 827.192 229.065 826.594C229.541 825.996 230.157 825.526 230.86 825.227C231.563 824.927 232.329 824.807 233.089 824.878C233.85 824.949 234.581 825.208 235.216 825.633C247.057 834.856 257.69 845.957 268.759 856.187C279.06 865.131 288.827 874.672 298.009 884.762C298.344 885.149 298.586 885.607 298.717 886.102C298.848 886.596 298.863 887.114 298.763 887.616C298.663 888.118 298.449 888.59 298.138 888.996C297.827 889.403 297.427 889.733 296.969 889.961C293.413 901.968 280.197 913.036 272.315 921.756C261.112 934.355 249.243 946.345 236.759 957.676C233.975 960.158 209.387 932.019 199.861 921.051C192.28 912.566 166.653 889.022 170.142 885.533ZM204.725 910.755C214.788 922.192 227.4 933.562 235.987 946.441C246.285 935.742 256.616 925.076 266.445 913.975C273.354 906.194 280.533 893.851 289.925 887.546C279.057 879.228 269.296 869.301 259.233 860.077C250.512 852.061 241.388 844.314 233.103 835.828C230.352 844.18 219.216 851.558 214.318 856.824C204.255 867.691 194.83 879.798 182.318 887.982C189.765 896.4 198.285 903.544 204.725 910.755Z" fill="url(#paint4_linear_125_518)"/>
<path d="M571.154 387.981C571.69 481.588 572.193 574.827 576.621 668.368C576.621 671.252 572.462 671.152 572.193 668.368C563.64 575.632 561.158 480.884 568.638 387.981C568.687 387.682 568.84 387.411 569.07 387.215C569.301 387.02 569.593 386.912 569.896 386.912C570.198 386.912 570.49 387.02 570.721 387.215C570.951 387.411 571.105 387.682 571.154 387.981ZM552.336 373.223C552.045 473.64 553.644 574.033 557.132 674.405C557.132 677.256 552.839 677.256 552.738 674.405C548.445 574.056 546.533 473.662 547.002 373.223C547.076 372.568 547.389 371.962 547.881 371.523C548.372 371.083 549.009 370.84 549.669 370.84C550.329 370.84 550.966 371.083 551.457 371.523C551.949 371.962 552.262 372.568 552.336 373.223ZM525.233 381.944C531.069 429.133 534.826 476.256 536.47 523.781C538.113 570.735 542.004 618.864 539.522 665.785C539.522 666.328 539.307 666.848 538.923 667.232C538.539 667.616 538.019 667.831 537.476 667.831C536.933 667.831 536.413 667.616 536.029 667.232C535.645 666.848 535.43 666.328 535.43 665.785C530.734 618.831 531.371 570.937 528.721 523.781C526.071 476.625 524.294 429.301 523.69 381.944C523.623 380.904 525.099 380.971 525.233 381.944ZM506.214 414.778L509.031 538.571C509.97 579.69 514.096 621.279 510.742 662.331C510.69 662.671 510.517 662.982 510.256 663.206C509.994 663.43 509.661 663.554 509.316 663.554C508.972 663.554 508.639 663.43 508.377 663.206C508.116 662.982 507.943 662.671 507.891 662.331C502.591 621.447 504.704 579.69 503.664 538.571L500.545 414.778C500.621 414.08 500.952 413.434 501.475 412.965C501.999 412.496 502.677 412.236 503.379 412.236C504.082 412.236 504.76 412.496 505.283 412.965C505.806 413.434 506.138 414.08 506.214 414.778ZM480.385 432.085C478.574 502.517 477.232 572.949 473.241 643.381C473.241 644.004 472.993 644.601 472.553 645.041C472.112 645.482 471.515 645.729 470.893 645.729C470.27 645.729 469.673 645.482 469.232 645.041C468.792 644.601 468.544 644.004 468.544 643.381C468.544 572.949 471.06 502.517 473.14 432.085C473.127 431.102 473.504 430.154 474.19 429.449C474.876 428.745 475.813 428.342 476.796 428.328C477.779 428.315 478.727 428.693 479.432 429.378C480.136 430.064 480.54 431.001 480.553 431.984L480.385 432.085ZM446.205 445.064C446.875 473.483 447.535 501.902 448.184 530.321C448.821 558.494 451.169 587.337 448.888 615.577C448.784 615.942 448.564 616.262 448.261 616.49C447.959 616.719 447.59 616.842 447.211 616.842C446.832 616.842 446.463 616.719 446.161 616.49C445.858 616.262 445.638 615.942 445.534 615.577C441.978 587.572 442.951 558.561 442.179 530.321C441.408 502.081 440.838 473.472 440.2 445.064C440.2 444.659 440.28 444.258 440.435 443.884C440.59 443.509 440.818 443.169 441.104 442.882C441.391 442.596 441.731 442.369 442.105 442.214C442.48 442.058 442.881 441.979 443.286 441.979C443.692 441.979 444.093 442.058 444.467 442.214C444.842 442.369 445.182 442.596 445.468 442.882C445.755 443.169 445.982 443.509 446.137 443.884C446.293 444.258 446.372 444.659 446.372 445.064H446.205ZM415.647 633.755C415.11 564.799 414.596 495.843 414.104 426.886C414.104 426.094 414.418 425.335 414.978 424.775C415.538 424.216 416.297 423.901 417.089 423.901C417.881 423.901 418.64 424.216 419.2 424.775C419.76 425.335 420.074 426.094 420.074 426.886C420.074 495.843 419.963 564.799 419.739 633.755C419.739 634.298 419.523 634.818 419.14 635.202C418.756 635.586 418.235 635.801 417.693 635.801C417.15 635.801 416.63 635.586 416.246 635.202C415.862 634.818 415.647 634.298 415.647 633.755ZM394.783 658.876C393.038 574.257 389.852 489.034 391.093 404.415C391.197 404.05 391.417 403.73 391.72 403.502C392.022 403.273 392.391 403.15 392.77 403.15C393.149 403.15 393.518 403.273 393.821 403.502C394.123 403.73 394.343 404.05 394.447 404.415C402.431 488.263 401.391 574.794 396.896 658.876C396.801 659.051 396.66 659.197 396.489 659.299C396.318 659.401 396.122 659.455 395.923 659.455C395.724 659.455 395.528 659.401 395.357 659.299C395.186 659.197 395.045 659.051 394.95 658.876H394.783ZM371.671 385.331C374.623 409.077 371.839 434.332 371.671 458.279C371.504 482.226 371.671 506.91 372.141 531.226C372.879 579.824 374.69 628.49 375.864 677.021C375.864 678.664 373.449 678.597 373.349 677.021C369.29 627.383 367.579 577.678 366.64 527.906C366.215 503.601 365.991 479.285 365.969 454.958C365.969 431.917 363.889 407.568 367.546 384.794C368.216 382.313 371.604 383.252 371.839 385.331H371.671ZM370.263 150.792C372.946 182.084 371.638 214.181 372.107 245.574C372.577 276.966 372.912 308.761 372.845 340.355C372.845 340.898 372.63 341.418 372.246 341.802C371.862 342.185 371.342 342.401 370.799 342.401C370.257 342.401 369.736 342.185 369.352 341.802C368.969 341.418 368.753 340.898 368.753 340.355C367.814 308.761 367.277 277.201 366.875 245.574C366.472 213.946 364.292 182.151 366.17 150.792C366.17 150.227 366.395 149.685 366.794 149.286C367.194 148.887 367.735 148.662 368.3 148.662C368.865 148.662 369.407 148.887 369.806 149.286C370.206 149.685 370.43 150.227 370.43 150.792H370.263ZM394.716 317.314C391.093 293.568 391.831 268.548 391.16 244.534C390.422 218.474 387.806 191.576 389.617 165.549C389.617 165.051 389.815 164.573 390.167 164.221C390.519 163.869 390.997 163.671 391.495 163.671C391.994 163.671 392.471 163.869 392.824 164.221C393.176 164.573 393.374 165.051 393.374 165.549C396.493 190.368 395.588 216.227 396.359 241.247C397.131 266.267 399.512 292.193 397.198 316.978C397.231 318.253 395.118 318.823 394.883 317.314H394.716ZM416.318 182.185C423.026 216.529 422.724 252.617 422.322 287.565C422.322 288.107 422.106 288.628 421.722 289.011C421.339 289.395 420.818 289.61 420.276 289.61C419.733 289.61 419.213 289.395 418.829 289.011C418.445 288.628 418.229 288.107 418.229 287.565C417.357 252.516 412.762 217.77 411.521 182.855C411.495 182.229 411.704 181.616 412.107 181.136C412.509 180.656 413.077 180.344 413.698 180.26C414.318 180.176 414.948 180.327 415.464 180.683C415.98 181.039 416.344 181.574 416.485 182.185H416.318ZM437.349 193.185C437.356 192.733 437.525 192.298 437.827 191.961C438.128 191.624 438.541 191.407 438.99 191.349C439.439 191.292 439.893 191.399 440.27 191.65C440.646 191.901 440.919 192.28 441.039 192.716C448.049 219.547 446.104 250.638 444.997 278.006C444.997 278.673 444.732 279.313 444.26 279.785C443.788 280.256 443.149 280.521 442.481 280.521C441.814 280.521 441.174 280.256 440.702 279.785C440.231 279.313 439.966 278.673 439.966 278.006C441.072 249.665 436.678 221.358 437.517 193.185H437.349ZM470.893 214.852C474.448 242.376 476.453 270.078 476.897 297.827C476.844 298.168 476.672 298.479 476.41 298.703C476.149 298.927 475.816 299.05 475.471 299.05C475.127 299.05 474.794 298.927 474.532 298.703C474.271 298.479 474.098 298.168 474.046 297.827C472.1 270.091 469.886 242.354 466.431 214.751C465.962 211.833 470.792 211.867 471.161 214.852H470.893ZM501.417 251.745C505.811 274.954 504.335 300.41 505.308 323.988C505.308 326.638 501.383 326.604 501.249 323.988C500.042 300.511 496.184 275.49 498.331 252.147C498.767 250.437 501.35 249.766 501.685 251.644L501.417 251.745ZM524.294 261.806C528.117 292.595 528.017 324.323 529.627 355.28C529.627 357.93 525.702 357.896 525.535 355.28C523.623 324.323 519.899 292.83 520.235 261.806C520.503 258.889 524.26 259.056 524.562 261.572L524.294 261.806ZM338.027 119.03C338.132 118.666 338.352 118.345 338.654 118.117C338.957 117.889 339.326 117.765 339.705 117.765C340.084 117.765 340.452 117.889 340.755 118.117C341.058 118.345 341.278 118.666 341.382 119.03C349.533 350.786 351.646 584.084 339.805 815.739C339.805 816.326 339.572 816.889 339.157 817.304C338.742 817.719 338.178 817.952 337.591 817.952C337.004 817.952 336.441 817.719 336.026 817.304C335.611 816.889 335.377 816.326 335.377 815.739C338.497 583.178 342.153 351.155 338.296 118.796L338.027 119.03ZM311.662 191.441C312.669 169.238 313.172 147.036 313.004 124.799C312.836 102.563 309.65 79.8231 312.132 58.1568C312.367 56.0439 315.486 55.1719 316.124 57.6203C320.753 78.012 319.478 100.684 319.176 121.345C319.176 144.822 318.17 167.998 316.694 191.307C316.56 194.661 311.662 194.695 311.662 191.441ZM284.828 41.1525C285.197 38.5365 288.954 39.442 289.155 41.7227C291.134 63.4896 289.39 85.6925 289.725 107.56C290.06 129.428 290.966 151.396 292.375 173.263C292.576 176.315 287.88 176.282 287.645 173.263C284.056 130.4 278.656 83.9149 284.828 41.1525ZM262.756 151.664C262.756 152.082 262.59 152.483 262.294 152.779C261.999 153.074 261.598 153.24 261.18 153.24C260.762 153.24 260.361 153.074 260.065 152.779C259.769 152.483 259.603 152.082 259.603 151.664C258.53 128.589 258.731 105.682 258.999 82.6069C259.268 62.0809 257.222 39.7774 261.683 19.6539C261.787 19.2895 262.007 18.9689 262.31 18.7406C262.612 18.5124 262.981 18.3889 263.36 18.3889C263.739 18.3889 264.108 18.5124 264.41 18.7406C264.713 18.9689 264.933 19.2895 265.037 19.6539C268.828 39.7774 266.077 62.1145 265.641 82.6069C265.037 105.715 264.467 128.623 262.622 151.664H262.756ZM240.483 1.07328C243.636 46.9548 241.087 93.6077 239.242 139.556C239.138 139.921 238.918 140.241 238.616 140.47C238.313 140.698 237.944 140.821 237.565 140.821C237.186 140.821 236.817 140.698 236.515 140.47C236.212 140.241 235.992 139.921 235.888 139.556C234.848 93.6077 233.171 46.9213 237.129 1.07328C237.262 0.755447 237.485 0.483927 237.772 0.292935C238.058 0.101943 238.395 0 238.739 0C239.084 0 239.42 0.101943 239.707 0.292935C239.993 0.483927 240.217 0.755447 240.349 1.07328H240.483ZM206.538 152.536C205.934 107.56 202.479 61.5443 205.196 16.6354C205.196 16.0128 205.443 15.4156 205.884 14.9753C206.324 14.535 206.921 14.2877 207.544 14.2877C208.167 14.2877 208.764 14.535 209.204 14.9753C209.645 15.4156 209.892 16.0128 209.892 16.6354C213.481 61.4772 210.965 107.56 211.267 152.536C211.267 153.181 211.011 153.799 210.555 154.255C210.099 154.711 209.48 154.968 208.835 154.968C208.19 154.968 207.572 154.711 207.116 154.255C206.66 153.799 206.403 153.181 206.403 152.536H206.538ZM190.001 188.892C190.001 190.301 187.451 191.005 187.217 189.261C183.862 163.537 185.204 136.907 184.869 110.981C184.567 85.8937 180.81 57.3184 186.244 32.6671C186.351 32.3475 186.556 32.0696 186.83 31.8728C187.104 31.6759 187.433 31.57 187.77 31.57C188.107 31.57 188.436 31.6759 188.71 31.8728C188.984 32.0696 189.189 32.3475 189.296 32.6671C194.797 56.1445 191.51 83.6466 191.477 107.728C191.309 134.559 193.187 162.262 189.867 188.892H190.001ZM312.065 245.909C312.769 337.605 312.367 429.469 313.809 521.131C313.809 521.798 313.544 522.438 313.072 522.91C312.6 523.381 311.961 523.646 311.293 523.646C310.626 523.646 309.986 523.381 309.514 522.91C309.043 522.438 308.778 521.798 308.778 521.131C308.778 429.435 307.1 337.605 306.396 245.909C306.56 245.293 306.926 244.751 307.435 244.367C307.943 243.984 308.566 243.782 309.203 243.793C309.84 243.805 310.454 244.029 310.949 244.431C311.443 244.833 311.789 245.388 311.931 246.009L312.065 245.909ZM286.907 278.811C286.002 350.048 285.633 421.419 288.383 492.623C288.383 495.675 283.821 495.641 283.654 492.623C279.561 421.413 279.494 350.028 283.452 278.811C283.452 276.731 286.807 276.664 286.773 278.911L286.907 278.811ZM259.201 304.535C259.277 304.27 259.438 304.037 259.659 303.871C259.88 303.705 260.149 303.615 260.425 303.615C260.701 303.615 260.97 303.705 261.191 303.871C261.411 304.037 261.572 304.27 261.649 304.535C266.916 329.79 262.287 359.841 261.918 385.599C261.482 414.678 260.375 443.723 259.536 472.801C259.536 473.219 259.37 473.62 259.074 473.916C258.779 474.211 258.378 474.378 257.959 474.378C257.541 474.378 257.14 474.211 256.845 473.916C256.549 473.62 256.383 473.219 256.383 472.801C256.383 443.756 256.148 414.678 256.383 385.599C256.953 359.707 253.163 329.723 259.201 304.535ZM233.54 310.908C233.07 359.405 231.796 407.836 231.158 456.3C231.109 456.598 230.956 456.869 230.726 457.065C230.495 457.261 230.203 457.368 229.9 457.368C229.598 457.368 229.306 457.261 229.075 457.065C228.845 456.869 228.691 456.598 228.643 456.3C229.28 407.836 229.28 359.372 230.085 310.908C230.143 310.491 230.35 310.109 230.668 309.833C230.985 309.557 231.392 309.405 231.812 309.405C232.233 309.405 232.64 309.557 232.957 309.833C233.275 310.109 233.482 310.491 233.54 310.908ZM207.946 299.672C208.349 360.78 209.053 422.157 205.296 483.165C205.296 483.583 205.13 483.984 204.835 484.279C204.539 484.575 204.138 484.741 203.72 484.741C203.302 484.741 202.901 484.575 202.605 484.279C202.309 483.984 202.143 483.583 202.143 483.165C199.527 422.09 201.405 360.747 202.915 299.672C202.915 299.005 203.18 298.365 203.652 297.893C204.124 297.422 204.763 297.157 205.431 297.157C206.098 297.157 206.738 297.422 207.21 297.893C207.681 298.365 207.946 299.005 207.946 299.672ZM186.378 274.585C181.325 351.508 180.362 428.645 183.493 505.669C183.493 508.286 179.502 508.286 179.401 505.669C176.404 428.646 177.266 351.522 181.984 274.585C182.185 271.768 186.579 271.734 186.378 274.585ZM152.097 320.902C152.734 299.572 150.789 275.725 155.753 254.931C156.189 253.086 159.409 252.885 159.711 254.931C162.696 275.054 159.208 297.224 158.47 317.616C157.62 340.534 156.938 363.441 156.424 386.337C155.35 432.185 154.914 478 154.009 523.848C154.009 524.266 153.843 524.667 153.547 524.962C153.251 525.258 152.85 525.424 152.432 525.424C152.014 525.424 151.613 525.258 151.317 524.962C151.022 524.667 150.856 524.266 150.856 523.848C149.547 478 149.749 432.219 150.554 386.337C150.956 364.537 151.471 342.725 152.097 320.902ZM320.585 568.287C324.811 589.819 322.161 613.8 322.296 635.734C322.296 661.358 322.296 687.016 322.564 712.639C322.564 737.235 322.642 761.763 322.799 786.224C322.799 811.58 324.543 837.908 321.491 863.129C321.429 863.589 321.203 864.01 320.855 864.315C320.506 864.62 320.059 864.789 319.595 864.789C319.132 864.789 318.684 864.62 318.336 864.315C317.987 864.01 317.761 863.589 317.7 863.129C314.614 839.015 316.023 813.827 315.889 789.545C315.889 763.921 315.721 738.263 315.654 712.639C315.654 688.044 315.576 663.516 315.419 639.055C315.419 616.047 312.4 590.926 316.66 568.287C316.785 567.864 317.044 567.492 317.398 567.228C317.751 566.964 318.181 566.821 318.623 566.821C319.064 566.821 319.494 566.964 319.847 567.228C320.201 567.492 320.46 567.864 320.585 568.287ZM294.891 585.291C296.668 628.691 298.882 672.124 299.721 715.557C300.56 758.99 303.545 802.491 302.84 845.79C302.774 846.326 302.514 846.819 302.109 847.177C301.705 847.534 301.183 847.731 300.643 847.731C300.103 847.731 299.582 847.534 299.177 847.177C298.773 846.819 298.513 846.326 298.446 845.79C295.092 802.558 295.662 758.856 293.918 715.557C292.174 672.258 291.872 628.725 291.1 585.291C291.162 584.832 291.387 584.411 291.736 584.106C292.085 583.801 292.532 583.632 292.995 583.632C293.459 583.632 293.906 583.801 294.255 584.106C294.604 584.411 294.829 584.832 294.891 585.291ZM270.136 616.449C275.234 689.732 278.723 764.659 272.383 837.807C272.383 838.101 272.266 838.383 272.059 838.59C271.851 838.798 271.57 838.914 271.276 838.914C270.983 838.914 270.701 838.798 270.493 838.59C270.286 838.383 270.169 838.101 270.169 837.807C268.962 763.82 269.934 690.235 264.802 616.449C264.702 613.095 269.901 613.095 270.136 616.449ZM242.899 632.783C242.899 632.409 243.047 632.051 243.311 631.787C243.575 631.523 243.934 631.374 244.307 631.374C244.681 631.374 245.039 631.523 245.304 631.787C245.568 632.051 245.716 632.409 245.716 632.783C245.94 663.08 245.94 693.377 245.716 723.674C245.515 753.624 246.89 784.782 243.435 814.531C243.435 814.905 243.287 815.263 243.023 815.527C242.758 815.792 242.4 815.94 242.026 815.94C241.653 815.94 241.294 815.792 241.03 815.527C240.766 815.263 240.618 814.905 240.618 814.531C237.901 784.715 240.047 753.624 240.618 723.674C241.188 693.723 241.926 663.169 242.899 632.883V632.783ZM371.504 725.518C372.107 774.318 377.508 822.95 378.045 871.682C378.045 874.231 373.852 875.036 373.416 872.286C365.969 824.392 366.908 774.083 367.109 725.518C367.176 724.983 367.436 724.489 367.84 724.132C368.245 723.774 368.766 723.577 369.307 723.577C369.847 723.577 370.368 723.774 370.773 724.132C371.177 724.489 371.437 724.983 371.504 725.518ZM394.816 733.3C394.38 775.19 399.512 817.147 398.909 858.803C398.909 862.157 393.307 863.264 392.737 859.641C386.229 818.791 389.147 774.519 390.724 733.3C390.724 732.757 390.94 732.237 391.323 731.853C391.707 731.469 392.227 731.254 392.77 731.254C393.313 731.254 393.833 731.469 394.217 731.853C394.601 732.237 394.816 732.757 394.816 733.3ZM415.647 764.357C415.647 762.982 417.928 762.613 418.129 764.021C420.477 779.818 422.188 795.582 423.06 811.513C423.898 826.572 426.146 845.052 420.376 859.34C420.229 859.83 419.928 860.26 419.517 860.565C419.106 860.871 418.607 861.036 418.095 861.036C417.583 861.036 417.085 860.871 416.674 860.565C416.263 860.26 415.962 859.83 415.814 859.34C412.091 845.354 415.311 829.154 415.814 814.666C416.217 797.896 416.161 781.126 415.647 764.357ZM218.814 628.59C213.716 691.577 214.756 754.161 213.246 817.214C213.194 817.555 213.021 817.865 212.76 818.09C212.498 818.314 212.165 818.437 211.821 818.437C211.476 818.437 211.143 818.314 210.881 818.09C210.62 817.865 210.447 817.555 210.395 817.214C205.833 754.765 209.825 691.007 213.749 628.59C213.951 625.371 219.016 625.371 218.781 628.59H218.814ZM188.625 851.458C185.841 832.072 187.451 811.647 187.217 792.06C186.948 770.26 186.445 748.459 186.412 726.592C186.412 682.991 185.774 639.39 185.17 595.789C185.17 595.122 185.435 594.482 185.907 594.01C186.379 593.539 187.019 593.274 187.686 593.274C188.353 593.274 188.993 593.539 189.465 594.01C189.937 594.482 190.202 595.122 190.202 595.789C192.103 639.412 193.389 683.013 194.059 726.592C194.395 747.319 194.059 768.08 194.059 788.807C194.059 809.534 195.368 831.1 192.08 851.458C191.987 851.837 191.77 852.174 191.463 852.414C191.156 852.655 190.777 852.786 190.386 852.786C189.996 852.786 189.617 852.655 189.31 852.414C189.003 852.174 188.786 851.837 188.692 851.458H188.625ZM165.145 559.466C168.969 583.178 165.883 608.97 165.413 632.917C164.877 659.379 164.541 685.808 164.239 712.271C163.636 765.162 163.132 818.019 161.153 870.911C161.153 871.329 160.987 871.73 160.692 872.025C160.396 872.321 159.995 872.487 159.577 872.487C159.159 872.487 158.758 872.321 158.462 872.025C158.166 871.73 158 871.329 158 870.911C156.994 818.019 157.43 765.162 158 712.271C158 685.808 158.302 659.379 158.269 632.917C158.269 608.97 155.585 583.078 159.845 559.466C160.053 558.934 160.415 558.477 160.885 558.153C161.356 557.829 161.913 557.654 162.484 557.651C163.055 557.647 163.614 557.815 164.088 558.133C164.563 558.45 164.931 558.903 165.145 559.433V559.466ZM125.564 898.178C125.832 849.311 126.034 800.478 126.738 751.612C127.442 702.745 126.738 653.879 125.899 605.046C125.53 581.569 125.363 558.393 125.161 535.083C124.96 511.774 122.88 487.122 127.275 464.651C127.395 464.26 127.637 463.917 127.966 463.674C128.295 463.431 128.693 463.299 129.103 463.299C129.512 463.299 129.911 463.431 130.24 463.674C130.569 463.917 130.811 464.26 130.931 464.651C135.09 486.15 133.245 509.929 133.044 531.729C132.809 556.179 132.608 580.596 132.206 605.046C131.4 653.879 130.629 702.745 131.3 751.612C131.971 800.478 132.138 849.311 132.373 898.178C132.507 921.499 132.63 944.82 132.742 968.14C132.742 991.316 135.157 1015.83 131.199 1038.57C131.052 1039.06 130.75 1039.49 130.34 1039.8C129.929 1040.1 129.43 1040.27 128.918 1040.27C128.406 1040.27 127.908 1040.1 127.497 1039.8C127.086 1039.49 126.785 1039.06 126.637 1038.57C122.88 1016.71 125.061 993.463 125.161 971.327C125.228 946.91 125.363 922.527 125.564 898.178ZM159.812 918.67C159.812 918.128 160.027 917.607 160.411 917.224C160.795 916.84 161.315 916.624 161.858 916.624C162.4 916.624 162.921 916.84 163.305 917.224C163.688 917.607 163.904 918.128 163.904 918.67C163.535 941.309 163.904 963.982 163.535 986.621C163.166 1009.26 165.917 1032.37 163.535 1054.57C163.334 1056.18 160.818 1056.89 160.449 1054.97C156.323 1033.98 157.631 1011.37 157.363 989.84C156.994 965.927 158.269 942.248 159.812 918.536V918.67ZM186.277 941.141C188.458 970.019 192.013 1001.51 187.552 1030.12C187.116 1033.11 182.856 1032.07 182.621 1029.45C180.038 1000.54 183.695 970.186 184.097 941.141C184.124 940.88 184.242 940.637 184.431 940.456C184.621 940.274 184.868 940.165 185.13 940.149C185.392 940.133 185.651 940.211 185.861 940.368C186.072 940.525 186.219 940.752 186.277 941.007V941.141ZM99.6685 652.236C100.541 608.031 98.6622 562.753 103.861 518.817C103.861 518.15 104.126 517.51 104.598 517.038C105.07 516.566 105.71 516.301 106.377 516.301C107.044 516.301 107.684 516.566 108.156 517.038C108.628 517.51 108.893 518.15 108.893 518.817C112.448 562.887 108.893 608.065 108.021 652.236C107.216 695.635 106.578 739.001 105.27 782.334C102.62 870.173 101.748 958.112 97.7901 1045.88C97.7901 1046.26 97.6416 1046.62 97.3774 1046.88C97.1132 1047.14 96.7549 1047.29 96.3813 1047.29C96.0076 1047.29 95.6492 1047.14 95.385 1046.88C95.1208 1046.62 94.9724 1046.26 94.9724 1045.88C94.3351 958.045 96.8173 870.173 97.4881 782.334C97.8236 738.833 98.8299 695.467 99.6685 652.101V652.236ZM69.4795 933.964C70.4411 890.43 71.3243 846.897 72.1294 803.363C73.6724 717.469 74.0414 631.307 79.1399 545.547C79.1399 545.129 79.3061 544.728 79.6017 544.433C79.8974 544.137 80.2983 543.971 80.7165 543.971C81.1346 543.971 81.5356 544.137 81.8313 544.433C82.127 544.728 82.293 545.129 82.293 545.547C83.8025 631.408 80.5488 717.503 78.5027 803.363C77.4964 845.846 76.5683 888.262 75.7186 930.61C75.316 951.807 74.8464 973.049 74.3098 994.335C73.8401 1013.85 76.2552 1036.02 71.2573 1054.94C71.1928 1055.21 71.0385 1055.45 70.8194 1055.63C70.6002 1055.8 70.329 1055.89 70.0497 1055.89C69.7704 1055.89 69.4992 1055.8 69.2801 1055.63C69.0609 1055.45 68.9066 1055.21 68.8422 1054.94C64.8505 1036.83 67.9029 1016.17 68.2383 997.689C68.7079 976.291 69.077 955.194 69.5801 933.897L69.4795 933.964ZM51.6344 793.469C52.4395 764.927 50.7623 735.044 54.9888 706.804C55.3913 704.188 59.1146 705.093 59.3159 707.374C62.0329 737.559 58.276 769.656 57.4039 800.076L54.8881 886.137C53.1439 945.748 51.2654 1005.34 49.2529 1064.9C49.1838 1065.48 48.905 1066.01 48.4692 1066.4C48.0334 1066.79 47.4708 1067 46.8881 1067C46.3053 1067 45.7427 1066.79 45.3069 1066.4C44.8711 1066.01 44.5923 1065.48 44.5233 1064.9C45.9768 1004.2 47.5421 943.501 49.2193 882.817L51.6344 793.469ZM31.978 742.02C37.0431 845.991 32.2464 950.432 29.5294 1054.44C29.4532 1055.14 29.1219 1055.78 28.5988 1056.25C28.0756 1056.72 27.3976 1056.98 26.6949 1056.98C25.9922 1056.98 25.3143 1056.72 24.7911 1056.25C24.2681 1055.78 23.9366 1055.14 23.8605 1054.44C25.9738 950.465 23.8605 846.025 29.1604 742.02C29.1515 741.633 29.2968 741.258 29.5641 740.978C29.8314 740.698 30.199 740.536 30.586 740.527C30.973 740.518 31.3477 740.664 31.6276 740.931C31.9075 741.198 32.0698 741.566 32.0787 741.953L31.978 742.02ZM1.789 950.197C2.66113 914.176 1.45361 877.384 4.90857 841.53C4.97491 840.994 5.23486 840.501 5.63953 840.144C6.04419 839.786 6.56561 839.589 7.10565 839.589C7.64569 839.589 8.16718 839.786 8.57178 840.144C8.97644 840.501 9.23639 840.994 9.30273 841.53C10.9128 877.518 7.7262 914.21 6.71991 950.197C5.71362 986.185 4.37183 1022.61 2.82886 1058.83C2.82886 1059.2 2.68048 1059.56 2.41626 1059.83C2.1521 1060.09 1.7937 1060.24 1.42004 1060.24C1.04639 1060.24 0.688049 1060.09 0.423889 1059.83C0.159668 1059.56 0.0112305 1059.2 0.0112305 1058.83C0.32428 1022.56 0.905762 986.33 1.75549 950.13L1.789 950.197Z" fill="url(#paint5_linear_125_518)"/>
<defs>
<linearGradient id="paint0_linear_125_518" x1="445.5" y1="182.419" x2="452.441" y2="914.646" gradientUnits="userSpaceOnUse">
<stop stop-color="#F39C11"/>
<stop offset="1" stop-color="#DE8110"/>
</linearGradient>
<linearGradient id="paint1_linear_125_518" x1="442.38" y1="182.453" x2="449.322" y2="914.679" gradientUnits="userSpaceOnUse">
<stop stop-color="#F39C11"/>
<stop offset="1" stop-color="#DE8110"/>
</linearGradient>
<linearGradient id="paint2_linear_125_518" x1="233.976" y1="184.398" x2="240.917" y2="916.658" gradientUnits="userSpaceOnUse">
<stop stop-color="#F39C11"/>
<stop offset="1" stop-color="#DE8110"/>
</linearGradient>
<linearGradient id="paint3_linear_125_518" x1="230.99" y1="184.432" x2="237.898" y2="916.692" gradientUnits="userSpaceOnUse">
<stop stop-color="#F39C11"/>
<stop offset="1" stop-color="#DE8110"/>
</linearGradient>
<linearGradient id="paint4_linear_125_518" x1="227.668" y1="184.465" x2="234.61" y2="916.691" gradientUnits="userSpaceOnUse">
<stop stop-color="#F39C11"/>
<stop offset="1" stop-color="#DE8110"/>
</linearGradient>
<linearGradient id="paint5_linear_125_518" x1="265.171" y1="129.461" x2="298.941" y2="1113.57" gradientUnits="userSpaceOnUse">
<stop stop-color="#F3DE66"/>
<stop offset="1" stop-color="#E6AE3E"/>
</linearGradient>
</defs>
</svg>
