<svg width="405" height="60" viewBox="0 0 405 60" fill="none" xmlns="http://www.w3.org/2000/svg">
<g clip-path="url(#clip0_377_1726)">
<path d="M228.768 2.56005L216.429 9.68374L204.086 16.8106V31.0595V45.31L216.429 52.4353L228.77 59.5605L241.111 52.4353L253.453 45.31V31.0595V16.8106L241.111 9.68374L228.772 2.56005L228.77 2.55848L228.768 2.56005Z" fill="#008BD0"/>
<path d="M166.851 9.68061L154.508 16.8059V31.0564V45.3085L166.851 52.4337L179.19 59.5574L179.192 59.5605L179.193 59.5574L191.533 52.4337L203.874 45.3085V31.0564V16.8059L191.533 9.68061L179.192 2.55535L166.851 9.68061Z" fill="#E30023"/>
<path d="M216.426 24.0207L204.086 45.3965H228.768H253.451L241.11 24.0207L228.768 2.64494L216.426 24.0207Z" fill="white"/>
<path d="M179.192 59.5605L191.533 38.1832L203.874 16.8074H179.192H154.508L166.849 38.1832L179.192 59.5605Z" fill="white"/>
<path d="M9.19831 35.7818H17.6679L13.4675 26.1933L13.3642 25.4484H13.1623L13.0606 26.1933L9.19831 35.7818ZM8.48625 37.6112L6.75854 41.9806H9.19831V43.8789H2.32031V41.9806H4.86181L13.2969 21.2152H16.0747L25.3581 41.9806H27.898V43.8789H17.6679V41.9806H20.3095L18.4128 37.6112H8.48625Z" fill="#DEE2F1"/>
<path d="M9.19831 35.7818H17.6679L13.4675 26.1933L13.3642 25.4484H13.1623L13.0606 26.1933L9.19831 35.7818ZM8.48625 37.6112L6.75854 41.9806H9.19831V43.8789H2.32031V41.9806H4.86181L13.2969 21.2152H16.0747L25.3581 41.9806H27.898V43.8789H17.6679V41.9806H20.3095L18.4128 37.6112H8.48625Z" stroke="black" stroke-width="0.907676"/>
<mask id="mask0_377_1726" style="mask-type:luminance" maskUnits="userSpaceOnUse" x="-1" y="1" width="408" height="60">
<path d="M-0.40625 60.4824H406.028V1.72759H-0.40625V60.4824Z" fill="white"/>
</mask>
<g mask="url(#mask0_377_1726)">
<path d="M40.932 27.1458L35.4437 41.3744C34.9366 42.6608 34.1902 44.2539 31.921 44.2539C31.0399 44.2539 30.0915 44.016 29.5156 43.8142L31.1416 40.1209C31.4796 40.3916 32.0556 40.6968 32.5313 40.6968C33.4452 40.6968 33.9194 39.7484 34.1902 39.1036L40.5251 23.1144H37.9852V21.2177H44.1496L51.9071 41.9847H54.1778V43.8799H44.3546V41.9847H46.9618L41.4735 27.1458L41.3389 26.2303H41.1354L40.932 27.1458Z" fill="#DEE2F1"/>
<path d="M40.932 27.1458L35.4437 41.3744C34.9366 42.6608 34.1902 44.2539 31.921 44.2539C31.0399 44.2539 30.0915 44.016 29.5156 43.8142L31.1416 40.1209C31.4796 40.3916 32.0556 40.6968 32.5313 40.6968C33.4452 40.6968 33.9194 39.7484 34.1902 39.1036L40.5251 23.1144H37.9852V21.2177H44.1496L51.9071 41.9847H54.1778V43.8799H44.3546V41.9847H46.9618L41.4735 27.1458L41.3389 26.2303H41.1354L40.932 27.1458Z" stroke="black" stroke-width="0.907676"/>
<path d="M63.8618 33.5126C65.8946 33.6816 69.8571 33.2075 69.8571 27.8553C69.8571 23.0775 65.386 23.0102 63.8618 23.1119V33.5126ZM63.8618 41.9822H66.5707V43.8789H56.375V41.9822H59.0182V23.1119H56.375V21.2152H64.8446C67.8931 21.2152 74.6005 21.4186 74.6005 28.0587C74.6005 32.4625 71.721 35.4438 63.8618 35.2059V41.9822Z" fill="#DEE2F1"/>
<path d="M63.8618 33.5126C65.8946 33.6816 69.8571 33.2075 69.8571 27.8553C69.8571 23.0775 65.386 23.0102 63.8618 23.1119V33.5126ZM63.8618 41.9822H66.5707V43.8789H56.375V41.9822H59.0182V23.1119H56.375V21.2152H64.8446C67.8931 21.2152 74.6005 21.4186 74.6005 28.0587C74.6005 32.4625 71.721 35.4438 63.8618 35.2059V41.9822Z" stroke="black" stroke-width="0.907676"/>
<path d="M88.5918 42.5935C92.5887 42.5935 95.7405 39.0363 95.7405 32.5652C95.7405 26.0613 92.5887 22.5041 88.5918 22.5041C85.0018 22.5041 81.5103 25.6544 81.5103 32.5652C81.5103 39.4088 85.0018 42.5935 88.5918 42.5935ZM88.5918 20.8452C95.5371 20.8452 101.329 25.9251 101.329 32.5324C101.329 37.6482 97.0269 44.2539 88.5918 44.2539C81.6465 44.2539 75.9219 39.1381 75.9219 32.5324C75.9219 25.9251 81.6465 20.8452 88.5918 20.8452Z" fill="#DEE2F1"/>
<path d="M88.5918 42.5935C92.5887 42.5935 95.7405 39.0363 95.7405 32.5652C95.7405 26.0613 92.5887 22.5041 88.5918 22.5041C85.0018 22.5041 81.5103 25.6544 81.5103 32.5652C81.5103 39.4088 85.0018 42.5935 88.5918 42.5935ZM88.5918 20.8452C95.5371 20.8452 101.329 25.9251 101.329 32.5324C101.329 37.6482 97.0269 44.2539 88.5918 44.2539C81.6465 44.2539 75.9219 39.1381 75.9219 32.5324C75.9219 25.9251 81.6465 20.8452 88.5918 20.8452Z" stroke="black" stroke-width="0.907676"/>
<path d="M123.865 27.5159H121.934C121.765 24.4674 118.682 22.7052 116.073 22.7052C112.821 22.7052 108.586 25.2123 108.586 32.9698C108.586 38.3235 111.602 42.286 116.547 42.286C119.156 42.286 121.154 41.1342 122.848 38.9323L124.508 40.2531C121.832 42.9652 118.985 44.25 115.802 44.25C109.805 44.25 102.996 40.3892 102.996 32.6317C102.996 26.2295 107.502 20.8413 115.43 20.8413C117.395 20.8413 119.054 21.4188 121.121 22.8742L122.172 21.1136H123.865V27.5159Z" fill="#DEE2F1"/>
<path d="M123.865 27.5159H121.934C121.765 24.4674 118.682 22.7052 116.073 22.7052C112.821 22.7052 108.586 25.2123 108.586 32.9698C108.586 38.3235 111.602 42.286 116.547 42.286C119.156 42.286 121.154 41.1342 122.848 38.9323L124.508 40.2531C121.832 42.9652 118.985 44.25 115.802 44.25C109.805 44.25 102.996 40.3892 102.996 32.6317C102.996 26.2295 107.502 20.8413 115.43 20.8413C117.395 20.8413 119.054 21.4188 121.121 22.8742L122.172 21.1136H123.865V27.5159Z" stroke="black" stroke-width="0.907676"/>
<path d="M132.105 35.7838H140.574L136.374 26.1953L136.272 25.4503H136.069L135.967 26.1953L132.105 35.7838ZM131.393 37.6132L129.665 41.9826H132.105V43.8809H125.227V41.9826H127.768L136.203 21.2171H138.983L148.264 41.9826H150.804V43.8809H140.574V41.9826H143.216L141.319 37.6132H131.393Z" fill="#DEE2F1"/>
<path d="M132.105 35.7838H140.574L136.374 26.1953L136.272 25.4503H136.069L135.967 26.1953L132.105 35.7838ZM131.393 37.6132L129.665 41.9826H132.105V43.8809H125.227V41.9826H127.768L136.203 21.2171H138.983L148.264 41.9826H150.804V43.8809H140.574V41.9826H143.216L141.319 37.6132H131.393Z" stroke="black" stroke-width="0.907676"/>
<path d="M264.198 34.8756H272.668L268.468 25.2871L268.366 24.5421H268.162L268.061 25.2871L264.198 34.8756ZM263.486 36.705L261.759 41.0744H264.198V42.9727H257.32V41.0744H259.862L268.297 20.3089H271.076L280.358 41.0744H282.898V42.9727H272.668V41.0744H275.31L273.413 36.705H263.486Z" fill="#DEE2F1"/>
<path d="M264.198 34.8756H272.668L268.468 25.2871L268.366 24.5421H268.162L268.061 25.2871L264.198 34.8756ZM263.486 36.705L261.759 41.0744H264.198V42.9727H257.32V41.0744H259.862L268.297 20.3089H271.076L280.358 41.0744H282.898V42.9727H272.668V41.0744H275.31L273.413 36.705H263.486Z" stroke="black" stroke-width="0.907676"/>
<path d="M289.62 41.0759V22.2057H286.977V20.3089H297.107V22.2057H294.463V40.7035H301.85V37.9257H304.05V42.9727H286.977V41.0759H289.62Z" fill="#DEE2F1"/>
<path d="M289.62 41.0759V22.2057H286.977V20.3089H297.107V22.2057H294.463V40.7035H301.85V37.9257H304.05V42.9727H286.977V41.0759H289.62Z" stroke="black" stroke-width="0.907676"/>
<path d="M316.526 32.0307C317.881 32.1653 323.03 32.4032 323.03 27.389C323.03 24.0353 320.964 22.173 318.016 22.2059H316.526V32.0307ZM319.847 20.3092C326.656 20.3765 328.62 23.6957 328.62 26.4751C328.62 30.4047 325.368 32.1997 322.692 32.8101V33.0135C323.302 33.0479 324.013 33.3515 324.352 33.9963L326.79 38.7381C327.773 40.602 328.247 41.0089 330.382 41.2796V42.7366C329.806 43.0402 328.858 43.3125 326.621 43.3125C324.318 43.3125 323.404 42.4987 322.319 40.4658L319.371 35.012C318.695 33.7584 318.186 33.8257 317.474 33.8257H316.526V41.0762H319.167V42.9729H309.039V41.0762H311.682V22.2059H309.039V20.3092H319.847Z" fill="#DEE2F1"/>
<path d="M316.526 32.0307C317.881 32.1653 323.03 32.4032 323.03 27.389C323.03 24.0353 320.964 22.173 318.016 22.2059H316.526V32.0307ZM319.847 20.3092C326.656 20.3765 328.62 23.6957 328.62 26.4751C328.62 30.4047 325.368 32.1997 322.692 32.8101V33.0135C323.302 33.0479 324.013 33.3515 324.352 33.9963L326.79 38.7381C327.773 40.602 328.247 41.0089 330.382 41.2796V42.7366C329.806 43.0402 328.858 43.3125 326.621 43.3125C324.318 43.3125 323.404 42.4987 322.319 40.4658L319.371 35.012C318.695 33.7584 318.186 33.8257 317.474 33.8257H316.526V41.0762H319.167V42.9729H309.039V41.0762H311.682V22.2059H309.039V20.3092H319.847Z" stroke="black" stroke-width="0.907676"/>
<path d="M344.65 41.6853C348.647 41.6853 351.799 38.1281 351.799 31.657C351.799 25.1531 348.647 21.5959 344.65 21.5959C341.06 21.5959 337.571 24.7462 337.571 31.657C337.571 38.5006 341.06 41.6853 344.65 41.6853ZM344.65 19.937C351.596 19.937 357.389 25.0169 357.389 31.6242C357.389 36.74 353.086 43.3457 344.65 43.3457C337.705 43.3457 331.98 38.2299 331.98 31.6242C331.98 25.0169 337.705 19.937 344.65 19.937Z" fill="#DEE2F1"/>
<path d="M344.65 41.6853C348.647 41.6853 351.799 38.1281 351.799 31.657C351.799 25.1531 348.647 21.5959 344.65 21.5959C341.06 21.5959 337.571 24.7462 337.571 31.657C337.571 38.5006 341.06 41.6853 344.65 41.6853ZM344.65 19.937C351.596 19.937 357.389 25.0169 357.389 31.6242C357.389 36.74 353.086 43.3457 344.65 43.3457C337.705 43.3457 331.98 38.2299 331.98 31.6242C331.98 25.0169 337.705 19.937 344.65 19.937Z" stroke="black" stroke-width="0.907676"/>
<path d="M375.848 20.3095V26.0686H373.748C373.679 25.1546 373.41 23.7994 371.988 22.6131C370.903 21.7321 369.582 21.3596 368.463 21.3596C366.905 21.3596 364.194 22.1045 364.194 24.5787C364.194 26.7462 365.72 27.2204 367.244 27.8307L372.393 29.9309C374.155 30.6414 376.933 32.2001 376.933 36.1641C376.933 39.5507 374.053 43.3457 368.193 43.3457C366.905 43.3457 364.77 43.1767 362.637 41.3472L362.061 42.9732H360.434V37.0107H362.366C362.468 37.9591 362.806 39.2815 364.161 40.5006C365.313 41.5507 366.634 41.9232 368.091 41.9232C370.395 41.9232 372.867 40.5679 372.867 38.1626C372.867 35.7572 370.903 35.0796 369.479 34.4708L365.482 32.776C361.384 31.0483 360.773 27.9653 360.773 26.2376C360.773 22.8166 363.958 19.937 368.193 19.937C369.92 19.937 371.884 20.5802 373.309 21.6648L374.053 20.3095H375.848Z" fill="#DEE2F1"/>
<path d="M375.848 20.3095V26.0686H373.748C373.679 25.1546 373.41 23.7994 371.988 22.6131C370.903 21.7321 369.582 21.3596 368.463 21.3596C366.905 21.3596 364.194 22.1045 364.194 24.5787C364.194 26.7462 365.72 27.2204 367.244 27.8307L372.393 29.9309C374.155 30.6414 376.933 32.2001 376.933 36.1641C376.933 39.5507 374.053 43.3457 368.193 43.3457C366.905 43.3457 364.77 43.1767 362.637 41.3472L362.061 42.9732H360.434V37.0107H362.366C362.468 37.9591 362.806 39.2815 364.161 40.5006C365.313 41.5507 366.634 41.9232 368.091 41.9232C370.395 41.9232 372.867 40.5679 372.867 38.1626C372.867 35.7572 370.903 35.0796 369.479 34.4708L365.482 32.776C361.384 31.0483 360.773 27.9653 360.773 26.2376C360.773 22.8166 363.958 19.937 368.193 19.937C369.92 19.937 371.884 20.5802 373.309 21.6648L374.053 20.3095H375.848Z" stroke="black" stroke-width="0.907676"/>
<path d="M384.603 34.8756H393.073L388.872 25.2871L388.77 24.5421H388.567L388.465 25.2871L384.603 34.8756ZM383.891 36.705L382.165 41.0744H384.603V42.9727H377.727V41.0744H380.266L388.702 20.3089H391.481L400.763 41.0744H403.304V42.9727H393.073V41.0744H395.714L393.817 36.705H383.891Z" fill="#DEE2F1"/>
<path d="M384.603 34.8756H393.073L388.872 25.2871L388.77 24.5421H388.567L388.465 25.2871L384.603 34.8756ZM383.891 36.705L382.165 41.0744H384.603V42.9727H377.727V41.0744H380.266L388.702 20.3089H391.481L400.763 41.0744H403.304V42.9727H393.073V41.0744H395.714L393.817 36.705H383.891Z" stroke="black" stroke-width="0.907676"/>
</g>
</g>
<defs>
<clipPath id="clip0_377_1726">
<rect width="403.246" height="59.2932" fill="white" transform="translate(0.816406 0.599609)"/>
</clipPath>
</defs>
</svg>
