<svg width="667" height="65" viewBox="0 0 667 65" fill="none" xmlns="http://www.w3.org/2000/svg">
<path d="M-11.8202 47.7595C8.38098 20.5318 2.47156 18.2529 23.1262 46.9898C25.4078 46.9898 27.6893 47.0065 29.9709 47.0398C25.0818 37.824 16.076 27.7086 9.42255 19.8921C5.46877 15.784 4.10833 18.7926 0.211226 23.4905C-5.96036 31.157 -14.4702 38.7336 -19.168 47.9994C-16.7258 47.9394 -14.2765 47.8594 -11.8202 47.7595Z" fill="#D9C6A5"/>
<path d="M31.1179 61.0943V64.5527H-23.1935C-50.9408 64.6527 -78.674 63.893 -106.407 63.7431C-124.036 63.6532 -141.658 64.113 -159.287 64.5028L-161.25 64.5527V61.0843C-141.559 60.3746 -121.981 60.2447 -102.276 60.5546C-77.5403 60.5546 -52.7973 61.4042 -28.0684 61.9139C-21.0607 62.0639 -14.0459 62.3438 -7.03822 62.3438L31.1179 61.0943Z" fill="#D9C6A5"/>
<path d="M180.546 47.7595C200.747 20.5318 194.838 18.2529 215.493 46.9898C217.774 46.9898 220.053 47.0065 222.33 47.0398C217.448 37.824 208.442 27.7086 201.782 19.8921C197.821 15.784 196.468 18.7926 192.571 23.4905C186.399 31.157 177.889 38.7336 173.191 47.9994C175.638 47.9394 178.09 47.8594 180.546 47.7595Z" fill="#D9C6A5"/>
<path d="M74.0567 18.193C53.8556 45.4206 59.7579 47.6996 39.1104 18.9627C36.8288 18.9627 34.5472 18.946 32.2656 18.9127C37.1476 28.1285 46.1606 38.2439 52.814 46.0604C56.7678 50.1685 58.1282 47.1599 62.0253 42.462C68.1969 34.7955 76.7068 27.2189 81.4045 17.9531C78.9671 18.0131 76.5178 18.0931 74.0567 18.193Z" fill="#AD8F53"/>
<path d="M86.6125 47.7605C106.814 20.5328 100.904 18.2538 121.559 46.9908C123.84 46.9908 126.12 47.0075 128.396 47.0408C123.514 37.825 114.509 27.7096 107.848 19.8931C103.887 15.785 102.527 18.7936 98.6368 23.4915C92.4156 31.158 83.9128 38.7345 79.2363 48.0003C81.6974 47.9404 84.1561 47.8604 86.6125 47.7605Z" fill="#D9C6A5"/>
<path d="M167.99 18.193C147.789 45.4206 153.699 47.6996 133.044 18.9627C130.762 18.9627 128.481 18.946 126.199 18.9127C131.081 28.1285 140.094 38.2439 146.748 46.0604C150.701 50.1685 152.062 47.1599 155.959 42.462C162.131 34.7955 170.64 27.2189 175.338 17.9531C172.896 18.0131 170.447 18.0931 167.99 18.193Z" fill="#AD8F53"/>
<path d="M223.501 61.0943V64.5527H169.189C141.442 64.6527 113.709 63.893 85.9756 63.7431C68.3465 63.6532 50.7246 64.113 33.0955 64.5028L31.1328 64.5527V61.0843C50.8238 60.3746 70.4014 60.2447 90.1065 60.5546C114.835 60.5546 139.578 61.4042 164.314 61.9139C171.322 62.0639 178.337 62.3438 185.345 62.3438L223.501 61.0943Z" fill="#D9C6A5"/>
<path d="M31.1181 1.39113V4.85956L15.4447 4.37977C10.7115 4.22983 5.94286 3.60013 1.27342 3.61013L-30.1584 3.66009C-50.8131 3.66009 -71.3968 4.3298 -92.0585 4.72961C-96.2391 4.80958 -100.424 4.8529 -104.614 4.85956C-117.198 4.85956 -128.953 4.70963 -150.033 4.85956C-155.872 4.85956 -154.944 4.85956 -161.229 4.85956V1.39113L-130.76 2.30072C-123.738 2.50063 -116.688 3.0304 -109.695 2.93044C-89.0117 2.93044 -68.265 1.93089 -47.5679 1.42112C-34.5303 1.07128 -24.3553 0.561523 -11.2965 0.561523C0.0405273 0.561523 14.3181 1.39113 25.6622 1.39113H31.1181Z" fill="#D9C6A5"/>
<path d="M223.501 1.39113V4.85956L207.828 4.37977C203.094 4.22983 198.326 3.60013 193.656 3.61013L162.224 3.66009C141.57 3.66009 120.986 4.3298 100.324 4.72961C96.1437 4.80958 91.9585 4.8529 87.7685 4.85956C75.1845 4.85956 63.4294 4.70963 42.3496 4.85956C36.5111 4.85956 37.4393 4.85956 31.1543 4.85956V1.39113L61.6225 2.30072C68.6444 2.50063 75.6946 3.0304 82.6882 2.93044C103.371 2.93044 124.118 1.93089 144.815 1.42112C157.853 1.07128 168.028 0.561523 181.086 0.561523C192.423 0.561523 206.701 1.39113 218.045 1.39113H223.501Z" fill="#D9C6A5"/>
<path d="M372.944 47.7595C393.145 20.5318 387.242 18.2529 407.89 46.9898C410.171 46.9898 412.453 47.0065 414.735 47.0398C409.853 37.824 400.84 27.7086 394.186 19.8921C390.232 15.784 388.872 18.7926 384.975 23.4905C378.803 31.157 370.293 38.7336 365.596 47.9994C368.038 47.9394 370.487 47.8594 372.944 47.7595Z" fill="#D9C6A5"/>
<path d="M266.454 18.193C246.253 45.4206 252.162 47.6996 231.508 18.9627C229.226 18.9627 226.947 18.946 224.67 18.9127C229.552 28.1285 238.558 38.2439 245.218 46.0604C249.179 50.1685 250.532 47.1599 254.43 42.462C260.601 34.7955 269.111 27.2189 273.809 17.9531C271.367 18.0131 268.915 18.0931 266.454 18.193Z" fill="#AD8F53"/>
<path d="M279.008 47.7595C299.209 20.5318 293.3 18.2529 313.954 46.9898C316.236 46.9898 318.517 47.0065 320.799 47.0398C315.917 37.824 306.904 27.7086 300.251 19.8921C296.297 15.784 294.936 18.7926 291.039 23.4905C284.868 31.157 276.358 38.7336 271.66 47.9994C274.102 47.9394 276.552 47.8594 279.008 47.7595Z" fill="#D9C6A5"/>
<path d="M360.388 18.193C340.186 45.4206 346.096 47.6996 325.441 18.9627C323.16 18.9627 320.88 18.946 318.604 18.9127C323.486 28.1285 332.491 38.2439 339.152 46.0604C343.113 50.1685 344.473 47.1599 348.363 42.462C354.535 34.7955 363.045 27.2189 367.742 17.9531C365.3 18.0131 362.849 18.0931 360.388 18.193Z" fill="#AD8F53"/>
<path d="M415.882 61.0943V64.5527H361.571C333.83 64.6527 306.097 63.893 278.357 63.7431C260.728 63.6532 243.106 64.113 225.477 64.5028L223.5 64.5527V61.0843C243.191 60.3746 262.769 60.2447 282.474 60.5546C307.21 60.5546 331.953 61.4042 356.682 61.9139C363.689 62.0639 370.704 62.3438 377.712 62.3438L415.882 61.0943Z" fill="#D9C6A5"/>
<path d="M415.883 1.39113V4.85956L400.216 4.37977C395.476 4.22983 390.707 3.60013 386.045 3.61013L354.613 3.66009C333.966 3.66009 313.375 4.3298 292.713 4.72961C288.532 4.80958 284.35 4.8529 280.164 4.85956C267.573 4.85956 255.818 4.70963 234.738 4.85956C228.9 4.85956 229.828 4.85956 223.543 4.85956V1.39113L254.011 2.30072C261.026 2.50063 268.076 3.0304 275.07 2.93044C295.76 2.93044 316.499 1.93089 337.197 1.42112C350.234 1.07128 360.409 0.561523 373.468 0.561523C384.805 0.561523 399.083 1.39113 410.427 1.39113H415.883Z" fill="#D9C6A5"/>
<path d="M565.311 47.7595C585.512 20.5318 579.602 18.2529 600.257 46.9898C602.539 46.9898 604.82 47.0065 607.102 47.0398C602.22 37.824 593.207 27.7086 586.553 19.8921C582.6 15.784 581.239 18.7926 577.342 23.4905C571.17 31.157 562.661 38.7336 557.963 47.9994C560.405 47.9394 562.854 47.8594 565.311 47.7595Z" fill="#D9C6A5"/>
<path d="M458.822 18.193C438.621 45.4206 444.531 47.6996 423.876 18.9627C421.594 18.9627 419.313 18.946 417.031 18.9127C421.92 28.1285 430.926 38.2439 437.58 46.0604C441.533 50.1685 442.894 47.1599 446.791 42.462C452.963 34.7955 461.472 27.2189 466.17 17.9531C463.733 18.0131 461.283 18.0931 458.822 18.193Z" fill="#AD8F53"/>
<path d="M471.377 47.7595C491.578 20.5318 485.669 18.2529 506.323 46.9898C508.605 46.9898 510.887 47.0065 513.168 47.0398C508.286 37.824 499.273 27.7086 492.62 19.8921C488.666 15.784 487.306 18.7926 483.409 23.4905C477.237 31.157 468.727 38.7336 464.029 47.9994C466.471 47.9394 468.921 47.8594 471.377 47.7595Z" fill="#D9C6A5"/>
<path d="M552.756 18.193C532.555 45.4206 538.464 47.6996 517.81 18.9627C515.528 18.9627 513.246 18.946 510.965 18.9127C515.854 28.1285 524.86 38.2439 531.513 46.0604C535.467 50.1685 536.827 47.1599 540.725 42.462C546.896 34.7955 555.406 27.2189 560.104 17.9531C557.666 18.0131 555.217 18.0931 552.756 18.193Z" fill="#AD8F53"/>
<path d="M608.251 61.0943V64.5527H553.939C526.199 64.6527 498.466 63.893 470.726 63.7431C453.097 63.6532 435.475 64.113 417.846 64.5028L415.883 64.5527V61.0843C435.574 60.3746 455.151 60.2447 474.857 60.5546C499.592 60.5546 524.336 61.4042 549.064 61.9139C556.072 62.0639 563.087 62.3438 570.095 62.3438L608.251 61.0943Z" fill="#D9C6A5"/>
<path d="M608.25 1.39113V4.85956L592.583 4.37977C587.843 4.22983 583.074 3.60013 578.412 3.61013L546.98 3.66009C526.333 3.66009 505.742 4.3298 485.08 4.72961C480.9 4.80958 476.717 4.8529 472.531 4.85956C459.94 4.85956 448.185 4.70963 427.105 4.85956C421.267 4.85956 422.195 4.85956 415.91 4.85956V1.39113L446.378 2.30072C453.4 2.50063 460.45 3.0304 467.444 2.93044C488.134 2.93044 508.874 1.93089 529.571 1.42112C542.608 1.07128 552.783 0.561523 565.842 0.561523C577.179 0.561523 591.457 1.39113 602.801 1.39113H608.25Z" fill="#D9C6A5"/>
<path d="M651.189 18.193C630.988 45.4206 636.898 47.6996 616.243 18.9627C613.962 18.9627 611.68 18.946 609.398 18.9127C614.28 28.1285 623.293 38.2439 629.947 46.0604C633.901 50.1685 635.261 47.1599 639.158 42.462C645.33 34.7955 653.84 27.2189 658.537 17.9531C656.1 18.0131 653.651 18.0931 651.189 18.193Z" fill="#AD8F53"/>
<path d="M663.744 47.7595C683.945 20.5318 678.036 18.2529 698.691 46.9898C700.972 46.9898 703.254 47.0065 705.535 47.0398C700.646 37.824 691.64 27.7086 684.987 19.8921C681.033 15.784 679.673 18.7926 675.776 23.4905C669.604 31.157 661.094 38.7336 656.396 47.9994C658.839 47.9394 661.288 47.8594 663.744 47.7595Z" fill="#D9C6A5"/>
<path d="M800.618 61.0943V64.5527H746.307C718.559 64.6527 690.826 63.893 663.093 63.7431C645.464 63.6532 627.842 64.113 610.213 64.5028L608.25 64.5527V61.0843C627.941 60.3746 647.519 60.2447 667.224 60.5546C691.96 60.5546 716.703 61.4042 741.432 61.9139C748.439 62.0639 755.454 62.3438 762.462 62.3438L800.618 61.0943Z" fill="#D9C6A5"/>
<path d="M800.618 1.39113V4.85956L784.945 4.37977C780.212 4.22983 775.443 3.60013 770.773 3.61013L739.342 3.66009C718.687 3.66009 698.103 4.3298 677.441 4.72961C673.261 4.80958 669.076 4.8529 664.886 4.85956C652.302 4.85956 640.547 4.70963 619.467 4.85956C613.628 4.85956 614.556 4.85956 608.271 4.85956V1.39113L638.74 2.30072C645.762 2.50063 652.812 3.0304 659.805 2.93044C680.488 2.93044 701.235 1.93089 721.932 1.42112C734.97 1.07128 745.145 0.561523 758.204 0.561523C769.541 0.561523 783.818 1.39113 795.162 1.39113H800.618Z" fill="#D9C6A5"/>
</svg>
