<svg width="138" height="187" viewBox="0 0 138 187" fill="none" xmlns="http://www.w3.org/2000/svg">
<g clip-path="url(#clip0_377_1728)">
<path d="M4.7689 0.979638H47.497C47.497 2.00045 47.497 2.96091 47.497 3.92137C47.497 29.3209 47.4668 54.7204 47.5121 80.1199C47.5322 92.4299 57.1771 102.06 69.3161 102.045C80.8517 102.03 90.6475 92.2841 90.6575 80.7183C90.6827 55.5702 90.6626 30.4221 90.6626 5.27407C90.6626 3.94149 90.6626 2.60891 90.6626 1.0953H133.31C133.345 1.93004 133.416 2.73965 133.416 3.54926C133.416 29.2857 133.461 55.0221 133.406 80.7535C133.335 112.202 110.475 138.899 79.4387 143.893C44.6458 149.495 12.2314 126.635 5.83999 91.8969C5.1913 88.3718 4.83427 84.7412 4.81918 81.1558C4.7337 55.1679 4.7689 29.1801 4.7689 3.19725C4.7689 2.54354 4.7689 1.88982 4.7689 0.974609V0.979638Z" fill="black"/>
<path d="M62.2983 176.288C61.9262 182.076 59.261 185.475 54.8258 186.069C49.4904 186.788 45.1155 184.475 43.3756 180.014C41.6257 175.524 43.099 170.53 46.9208 168.011C51.2353 165.165 56.983 165.864 60.9707 169.781C60.2365 170.56 59.5074 171.345 58.8134 172.084C53.5937 168.821 49.4803 169.077 47.1873 172.667C45.2714 175.664 46.1916 179.783 49.2038 181.724C52.5076 183.851 56.0377 183.152 58.2301 179.672H53.106V176.293H62.2983V176.288Z" fill="black"/>
<path d="M4.12285 166.457C6.35053 170.213 8.17088 173.286 10.2175 176.725C12.3446 173.346 14.346 170.163 16.6391 166.522C17.8007 173.125 18.8768 179.225 19.9479 185.319C17.4084 186.24 16.3776 185.495 16.1613 183.011C15.9652 180.728 15.3568 178.475 14.8086 175.569C13.1442 178.249 11.8015 180.401 10.2175 182.951C8.76929 180.572 7.45682 178.42 5.78229 175.674C5.1688 178.682 4.55029 181.105 4.2184 183.569C3.94182 185.626 2.97633 186.069 0.929688 185.39C1.9505 179.33 2.9713 173.276 4.11783 166.457H4.12285Z" fill="black"/>
<path d="M112.84 175.604V185.505H109.48V167.015C112.905 170.404 116.355 173.819 120.388 177.806V166.939H123.807V185.364C120.438 181.884 117.089 178.425 113.74 174.97C113.438 175.181 113.141 175.393 112.84 175.604Z" fill="black"/>
<path d="M41.1368 185.455C39.0801 185.792 37.4207 186.185 36.6563 183.786C36.4803 183.238 35.4846 182.685 34.8158 182.619C33.0759 182.453 31.3059 182.479 29.5559 182.604C28.9324 182.65 27.9618 183.072 27.8009 183.54C27.0165 185.858 25.4425 186.034 23.2148 185.41C26.1314 179.195 29.0279 173.025 32.1457 166.377C35.2332 172.934 38.1448 179.104 41.1318 185.45L41.1368 185.455ZM34.5192 179.044C33.6743 177.309 33.0005 175.916 32.1054 174.076C31.2204 176.042 30.5868 177.445 29.8627 179.044H34.5192Z" fill="black"/>
<path d="M81.8186 185.394C79.5105 186.018 78.022 185.802 77.2627 183.624C77.0918 183.136 76.1916 182.679 75.5781 182.608C74.2556 182.453 72.8979 182.644 71.5653 182.538C69.8455 182.402 68.6839 182.709 67.8039 184.529C67.3916 185.389 65.5964 185.58 64.4297 186.073C64.2738 185.832 64.1129 185.59 63.957 185.354C66.8787 179.139 69.7952 172.918 72.8677 166.371C75.9301 172.878 78.8367 179.053 81.8186 185.389V185.394ZM75.2211 179.018C74.3914 177.323 73.7075 175.93 72.8124 174.115C71.9425 176.016 71.2988 177.414 70.5646 179.018H75.2211Z" fill="black"/>
<path d="M90.3223 170.264C88.6377 170.178 87.3102 170.113 85.8167 170.032V166.965H95.3962C93.6764 172.114 92.0069 177.113 90.262 182.327C92.0119 182.438 93.4652 182.528 95.019 182.624V185.541H85.168C86.8676 180.497 88.5321 175.559 90.3223 170.264Z" fill="black"/>
<path d="M137.281 166.99V169.801C135.752 170.022 134.244 170.053 132.911 170.556C132.529 170.701 132.665 172.21 132.534 173.311C133.862 173.437 134.978 173.548 136.205 173.663V176.665C135.139 176.771 134.093 176.876 132.705 177.017C132.705 178.576 132.137 180.532 132.871 181.533C133.55 182.463 135.622 182.373 137.251 182.77V185.48H129.301V166.99H137.276H137.281Z" fill="black"/>
<path d="M100.441 166.934H103.645V185.499H100.441V166.934Z" fill="black"/>
</g>
<defs>
<clipPath id="clip0_377_1728">
<rect width="136.346" height="185.219" fill="white" transform="translate(0.9375 0.980469)"/>
</clipPath>
</defs>
</svg>
