<svg width="183" height="111" viewBox="0 0 183 111" fill="none" xmlns="http://www.w3.org/2000/svg">
<g clip-path="url(#clip0_377_1729)">
<path d="M174.931 48.9249H171.483V58.8641H174.931V55.4837C174.931 55.0258 174.85 54.4197 174.702 53.6521H174.809C175.052 54.1639 175.281 54.6083 175.496 54.945L177.974 58.8641H181.436V48.9249H177.974V52.0764C177.974 52.7767 178.082 53.5578 178.284 54.4332H178.176C177.947 53.908 177.638 53.3154 177.234 52.6824L174.931 48.9249ZM162.419 53.8945C162.419 53.3019 162.608 52.8036 162.985 52.3996C163.308 52.0629 163.739 51.8878 164.278 51.8878C164.816 51.8878 165.234 52.0494 165.571 52.3996C165.948 52.7632 166.136 53.248 166.136 53.8945C166.136 54.541 165.948 54.9854 165.571 55.3759C165.234 55.7126 164.803 55.8877 164.278 55.8877C163.752 55.8877 163.321 55.7126 162.985 55.3759C162.608 54.9989 162.419 54.5005 162.419 53.8945ZM160.157 50.2851C159.227 51.2279 158.769 52.4265 158.769 53.881C158.769 55.3355 159.227 56.5476 160.157 57.4904C161.194 58.5543 162.581 59.0796 164.278 59.0796C165.975 59.0796 167.362 58.5409 168.399 57.4904C169.328 56.5476 169.786 55.349 169.786 53.881C169.786 52.413 169.328 51.2413 168.399 50.2851C167.362 49.2212 165.988 48.6959 164.278 48.6959C162.567 48.6959 161.194 49.2212 160.157 50.2851ZM157.072 48.9114H153.463V58.8506H157.072V48.9114ZM152.224 48.9114H144.628V52.1437L146.648 52.0494V58.8372H150.19V52.0494L152.224 52.1437V48.9114ZM137.234 50.1909C136.238 51.2009 135.739 52.4534 135.739 53.9618C135.739 55.4702 136.224 56.6823 137.181 57.6251C138.15 58.5947 139.362 59.0661 140.844 59.0661C141.813 59.0661 142.635 58.9314 143.349 58.6621L143.456 54.9585C142.891 55.578 142.217 55.9012 141.45 55.9012C140.871 55.9012 140.372 55.7126 139.968 55.3355C139.578 54.9585 139.389 54.4871 139.389 53.908C139.389 53.3288 139.564 52.8709 139.914 52.4938C140.292 52.0898 140.776 51.8878 141.356 51.8878C142.096 51.8878 142.797 52.211 143.456 52.8709L143.349 49.0865C142.581 48.8306 141.8 48.6959 140.978 48.6959C139.484 48.6959 138.231 49.1942 137.221 50.2043M124.844 55.2682C124.844 56.2783 125.14 57.1133 125.746 57.7732C126.568 58.6486 127.793 59.0796 129.437 59.0796C130.999 59.0796 132.184 58.6621 132.979 57.8406C133.679 57.1268 134.016 56.184 134.016 55.0123V48.9249H130.433V54.6891C130.433 55.2009 130.339 55.551 130.164 55.7261C130.002 55.8877 129.76 55.9685 129.437 55.9685C129.127 55.9685 128.884 55.8743 128.723 55.6992C128.521 55.4837 128.413 55.147 128.413 54.6891V48.9249H124.844V55.2682ZM98.757 110.621H125.073C123.309 96.8567 123.457 83.1195 123.511 69.3286H100.292C100.333 83.1465 100.508 96.9105 98.757 110.621ZM118.972 55.3625C118.622 55.6722 118.11 55.8204 117.437 55.8204H117.167V51.9551H117.558C118.164 51.9551 118.635 52.1168 118.972 52.4265C119.363 52.7901 119.551 53.2884 119.551 53.9214C119.551 54.5544 119.363 55.0123 118.972 55.349M118.312 58.8506C119.767 58.8506 120.952 58.3793 121.868 57.45C122.716 56.6015 123.147 55.4433 123.147 54.0157C123.147 52.5881 122.703 51.3222 121.8 50.4198C120.79 49.4232 119.322 48.9114 117.41 48.9114H113.585V58.8506H118.312ZM107.673 55.3625C107.336 55.6992 106.905 55.8743 106.38 55.8743C105.854 55.8743 105.424 55.6992 105.087 55.3625C104.71 54.9854 104.521 54.4871 104.521 53.881C104.521 53.275 104.71 52.7901 105.087 52.3861C105.41 52.0494 105.841 51.8743 106.38 51.8743C106.918 51.8743 107.336 52.0359 107.673 52.3861C108.05 52.7497 108.238 53.2346 108.238 53.881C108.238 54.5275 108.05 54.9719 107.673 55.3625ZM106.38 59.0661C108.09 59.0661 109.464 58.5274 110.501 57.4769C111.417 56.5342 111.888 55.3355 111.888 53.8676C111.888 52.3996 111.43 51.2279 110.501 50.2717C109.464 49.2077 108.077 48.6825 106.38 48.6825C104.683 48.6825 103.296 49.2077 102.259 50.2717C101.329 51.2144 100.871 52.413 100.871 53.8676C100.871 55.3221 101.329 56.5342 102.259 57.4769C103.296 58.5409 104.683 59.0661 106.38 59.0661ZM74.6901 69.2343C54.2595 69.2612 33.8289 69.2612 13.3983 69.2343C12.6306 69.2343 12.3613 69.4902 12.1727 70.1905C10.1929 77.517 8.15931 84.8165 6.17955 92.1295C4.52301 98.2304 3.04156 104.399 0.0921171 110.082C0.0113105 110.23 0.0247783 110.432 -0.015625 110.634H5.08866C5.14253 110.203 5.18293 109.826 5.2368 109.449C5.50616 107.564 5.60043 105.638 6.07181 103.806C8.84617 93.2338 11.7283 82.6751 14.5161 72.1029C14.745 71.2275 15.1356 71.0659 15.9302 71.0794C27.3509 71.0928 38.7581 71.1063 50.1787 71.0794C51.108 71.0794 51.4986 71.3487 51.741 72.2511C53.6265 79.2812 55.5793 86.2979 57.5052 93.3281C58.7712 97.961 60.2122 102.554 60.6028 107.375C60.6971 108.466 60.7644 109.557 60.8452 110.675H88.939C88.737 110.257 88.6292 110.015 88.508 109.786C86.4609 106.028 84.737 102.136 83.5788 98.0014C80.993 88.7491 78.4206 79.5102 75.8752 70.2444C75.6867 69.544 75.4443 69.2612 74.6766 69.2612M55.4985 48.9384H51.7275L55.5928 58.8776H58.6904L62.5287 48.9384H58.7577L57.3975 53.6117C57.2762 54.0426 57.2089 54.4871 57.1954 54.945H57.1012C57.0473 54.3928 56.98 53.9618 56.8722 53.6117L55.485 48.9384H55.4985ZM47.5391 55.2817H46.098L46.5963 53.3693C46.6906 52.9787 46.7445 52.6016 46.7579 52.2514H46.8926C46.9465 52.6555 47.0003 53.0326 47.0812 53.3693L47.5391 55.2817ZM48.4953 58.8776H52.3201L48.7781 48.9384H44.7916L41.3574 58.8776H45.1687L45.4381 57.6385H48.172L48.4953 58.8776ZM38.2867 58.8776V55.4029H40.9398V52.7767H38.2867V51.7666H41.3035V48.9384H34.6773V58.8776H38.2867ZM26.6775 48.9384V58.8776H33.3171V55.6722H30.2734V48.9384H26.664H26.6775ZM20.7517 55.2817H19.3106L19.7955 53.3693C19.8897 52.9787 19.9436 52.6016 19.9571 52.2514H20.0917C20.1456 52.6555 20.1995 53.0326 20.2803 53.3693L20.7382 55.2817H20.7517ZM21.9907 48.9384H18.0042L14.57 58.8776H18.3813L18.6507 57.6385H21.3981L21.7213 58.8776H25.5462L22.0042 48.9384H21.9907ZM66.9192 37.7736C63.431 25.1408 59.9698 12.6158 56.5086 0.0907763H28.6842C30.1387 3.86175 29.371 7.47111 28.3744 11.0805C26.0984 19.2689 23.8627 27.4573 21.6136 35.6591C21.4251 36.3325 21.2769 37.0194 21.1018 37.7466H23.9705C26.9199 26.9051 29.8693 16.0905 32.8323 5.2624C33.1824 5.62603 33.3171 6.00312 33.4248 6.38022C36.2396 16.5215 39.0678 26.6492 41.8557 36.7904C42.0711 37.5716 42.354 37.7871 43.162 37.7871C50.6097 37.7601 58.0574 37.7871 65.5051 37.7871H66.9326L66.9192 37.7736ZM63.6734 58.8641H67.2828V48.9249H63.6734V58.8641ZM74.0975 52.0764L76.1177 52.1706V48.9384H68.5218V52.1706L70.5555 52.0764V58.8641H74.0975V52.0764ZM86.0165 52.4938C86.0165 52.7632 85.9357 52.9652 85.774 53.0999C85.599 53.275 85.3296 53.3693 84.966 53.3693H84.3599V51.6588H85.0199C85.3296 51.6588 85.572 51.7397 85.7471 51.8878C85.9222 52.0225 86.0165 52.238 86.0165 52.4938ZM88.5484 55.0662C89.2083 54.4736 89.5316 53.6386 89.5316 52.5747C89.5316 51.5107 89.1949 50.6353 88.5215 49.9619C87.7942 49.2616 86.8245 48.9249 85.6124 48.9249H80.8448V58.8641H84.3599V55.8743H86.0973C87.1343 55.8743 87.9424 55.6049 88.5349 55.0662M95.8614 52.5208C95.8614 52.7767 95.7806 52.9787 95.6055 53.1268C95.4439 53.275 95.188 53.3558 94.8513 53.3558H94.4338V51.6588H95.0533C95.2958 51.6588 95.4978 51.7531 95.6594 51.9282C95.7941 52.0629 95.8479 52.2649 95.8479 52.5208M99.363 52.3996C99.363 51.403 99.0533 50.5814 98.4203 49.9619C98.0163 49.5579 97.5583 49.2885 97.0735 49.1404C96.5752 49.0057 96.023 48.9384 95.3766 48.9384H90.8918V58.8776H94.4069V55.6857L94.4742 55.6588C94.4877 55.7261 94.5146 55.7934 94.5416 55.8608L94.5954 55.9685L96.023 58.8776H100.185L97.9489 55.5241C97.8277 55.3355 97.6526 55.1874 97.4237 55.0662V54.9719C98.0028 54.8507 98.4607 54.5948 98.7974 54.1773C99.161 53.7329 99.3495 53.1403 99.3495 52.3996M182.931 28.9253C182.877 22.6089 181.153 16.7908 176.776 12.0097C172.708 7.56539 167.496 5.03345 161.827 3.32304C154.756 1.1682 147.389 0.279325 139.982 0.171583C126.474 -0.0169658 112.952 0.0638408 99.4304 0.0234375C99.2418 0.0234375 99.0667 0.0773086 98.7704 0.117712C100.346 12.6293 100.387 25.1678 100.306 37.7062H123.578V2.85167C126.81 2.85167 129.908 2.70352 132.992 2.89207C136.103 3.08062 139.255 3.32304 142.271 4.0099C149.894 5.76071 155.187 10.3128 157.692 17.8548C159.214 22.4473 159.618 27.1745 159.362 31.9824C159.254 33.8814 159.025 35.7669 158.837 37.7871C166.419 37.7871 173.894 37.7871 181.382 37.7601C181.665 37.7601 182.163 37.2887 182.19 37.0059C182.513 34.3258 183.011 31.6323 182.998 28.9522" fill="#0A0B09"/>
</g>
<defs>
<clipPath id="clip0_377_1729">
<rect width="183" height="110.651" fill="white" transform="translate(0 0.0234375)"/>
</clipPath>
</defs>
</svg>
