<svg width="136" height="83" viewBox="0 0 136 83" fill="none" xmlns="http://www.w3.org/2000/svg">
<path d="M129.9 36.5753H127.3V43.9753H129.9V41.4753C129.9 41.1753 129.8 40.6753 129.7 40.0753H129.8C130 40.4753 130.1 40.7753 130.3 41.0753L132.1 43.9753H134.7V36.5753H132.1V38.8753C132.1 39.3753 132.2 39.9753 132.3 40.5753H132.2C132 40.1753 131.8 39.7753 131.5 39.2753L129.9 36.5753ZM120.6 40.2753C120.6 39.8753 120.7 39.4753 121 39.1753C121.2 38.8753 121.6 38.7753 122 38.7753C122.4 38.7753 122.7 38.8753 123 39.1753C123.3 39.4753 123.4 39.7753 123.4 40.2753C123.4 40.7753 123.3 41.0753 123 41.3753C122.7 41.6753 122.4 41.7753 122 41.7753C121.6 41.7753 121.3 41.6753 121 41.3753C120.8 41.0753 120.6 40.6753 120.6 40.2753ZM119 37.5753C118.3 38.2753 118 39.1753 118 40.2753C118 41.3753 118.3 42.2753 119 42.9753C119.8 43.7753 120.8 44.1753 122.1 44.1753C123.4 44.1753 124.4 43.7753 125.2 42.9753C125.9 42.2753 126.2 41.3753 126.2 40.2753C126.2 39.1753 125.9 38.2753 125.2 37.5753C124.4 36.7753 123.4 36.3753 122.1 36.3753C120.7 36.3753 119.7 36.7753 119 37.5753ZM116.7 36.5753H114V43.9753H116.7V36.5753ZM113.1 36.5753H107.5V38.9753L109 38.8753V43.8753H111.6V38.8753L113.1 38.9753V36.5753ZM101.9 37.4753C101.2 38.2753 100.8 39.1753 100.8 40.2753C100.8 41.3753 101.2 42.2753 101.9 42.9753C102.6 43.6753 103.5 44.0753 104.6 44.0753C105.3 44.0753 105.9 43.9753 106.5 43.7753L106.6 40.9753C106.2 41.4753 105.7 41.6753 105.1 41.6753C104.7 41.6753 104.3 41.5753 104 41.2753C103.7 40.9753 103.6 40.6753 103.6 40.1753C103.6 39.7753 103.7 39.3753 104 39.0753C104.3 38.7753 104.6 38.5753 105.1 38.5753C105.7 38.5753 106.2 38.7753 106.7 39.2753L106.6 36.4753C106 36.2753 105.4 36.1753 104.8 36.1753C103.6 36.3753 102.7 36.7753 101.9 37.4753ZM92.7 41.2753C92.7 42.0753 92.9 42.6753 93.4 43.1753C94 43.7753 94.9 44.1753 96.1 44.1753C97.3 44.1753 98.1 43.8753 98.7 43.2753C99.2 42.7753 99.5 42.0753 99.5 41.1753V36.6753H96.8V40.9753C96.8 41.3753 96.7 41.5753 96.6 41.7753C96.5 41.8753 96.3 41.9753 96.1 41.9753C95.9 41.9753 95.7 41.8753 95.6 41.7753C95.4 41.5753 95.4 41.3753 95.4 40.9753V36.6753H92.7V41.2753ZM73.4 82.3753H92.9C91.6 72.1753 91.7 61.9753 91.7 51.6753H74.5C74.5 61.9753 74.7 72.1753 73.4 82.3753ZM88.4 41.3753C88.1 41.5753 87.8 41.6753 87.3 41.6753H87V38.7753H87.3C87.7 38.7753 88.1 38.8753 88.4 39.1753C88.7 39.4753 88.8 39.7753 88.8 40.2753C88.8 40.7753 88.7 41.0753 88.4 41.3753ZM87.9 43.9753C89 43.9753 89.9 43.6753 90.5 42.9753C91.1 42.3753 91.5 41.4753 91.5 40.3753C91.5 39.2753 91.2 38.3753 90.5 37.6753C89.7 36.9753 88.7 36.5753 87.2 36.5753H84.4V43.9753H87.9ZM80 41.3753C79.7 41.6753 79.4 41.7753 79 41.7753C78.6 41.7753 78.3 41.6753 78 41.3753C77.7 41.0753 77.6 40.7753 77.6 40.2753C77.6 39.8753 77.7 39.4753 78 39.1753C78.2 38.8753 78.6 38.7753 79 38.7753C79.4 38.7753 79.7 38.8753 80 39.1753C80.3 39.4753 80.4 39.7753 80.4 40.2753C80.4 40.6753 80.3 41.0753 80 41.3753ZM79 44.0753C80.3 44.0753 81.3 43.6753 82.1 42.8753C82.8 42.1753 83.1 41.2753 83.1 40.1753C83.1 39.0753 82.8 38.1753 82.1 37.4753C81.3 36.6753 80.3 36.2753 79 36.2753C77.7 36.2753 76.7 36.6753 75.9 37.4753C75.2 38.1753 74.9 39.0753 74.9 40.1753C74.9 41.2753 75.2 42.1753 75.9 42.8753C76.7 43.6753 77.8 44.0753 79 44.0753ZM55.5 51.6753C40.3 51.6753 25.2 51.6753 10 51.6753C9.4 51.6753 9.2 51.8753 9.1 52.3753C7.6 57.7753 6.1 63.2753 4.6 68.6753C3.4 73.1753 2.3 77.7753 0.0999999 81.9753C-9.68575e-08 82.0753 0 82.2753 0 82.3753H3.8C3.8 82.0753 3.9 81.7753 3.9 81.4753C4.1 80.0753 4.2 78.6753 4.5 77.2753C6.6 69.3753 8.7 61.5753 10.8 53.7753C11 53.1753 11.3 52.9753 11.9 52.9753C20.4 52.9753 28.9 52.9753 37.3 52.9753C38 52.9753 38.3 53.1753 38.5 53.8753C39.9 59.0753 41.4 64.2753 42.8 69.4753C43.7 72.8753 44.8 76.2753 45.1 79.8753C45.2 80.6753 45.2 81.4753 45.3 82.3753H66.2C66 82.0753 66 81.8753 65.9 81.6753C64.4 78.8753 63.1 75.9753 62.2 72.8753C60.3 65.9753 58.4 59.1753 56.5 52.2753C56.3 51.8753 56.1 51.6753 55.5 51.6753ZM41.3 36.5753H38.5L41.4 43.9753H43.7L46.6 36.5753H43.8L42.8 40.0753C42.7 40.3753 42.7 40.6753 42.6 41.0753H42.5C42.5 40.6753 42.4 40.3753 42.3 40.0753L41.3 36.5753ZM35.4 41.2753H34.3L34.7 39.8753C34.8 39.5753 34.8 39.2753 34.8 39.0753H34.9C34.9 39.3753 35 39.6753 35 39.8753L35.4 41.2753ZM36.1 43.9753H38.9L36.3 36.5753H33.3L30.7 43.9753H33.5L33.7 43.0753H35.7L36.1 43.9753ZM28.5 43.9753V41.3753H30.5V39.4753H28.5V38.6753H30.7V36.5753H25.8V43.9753H28.5ZM19.9 36.5753V43.9753H24.8V41.5753H22.5V36.5753H19.9ZM15.5 41.2753H14.4L14.8 39.8753C14.9 39.5753 14.9 39.2753 14.9 39.0753H15C15 39.3753 15.1 39.6753 15.1 39.8753L15.5 41.2753ZM16.4 36.5753H13.4L10.8 43.9753H13.6L13.8 43.0753H15.8L16 43.9753H19L16.4 36.5753ZM49.7 28.2753C47.1 18.8753 44.5 9.57533 42 0.27533H21.4C22.5 3.07533 21.9 5.77533 21.2 8.47533C19.5 14.5753 17.9 20.6753 16.2 26.6753C16.1 27.1753 15.9 27.6753 15.8 28.1753H17.9C20.1 20.1753 22.3 12.0753 24.5 4.07533C24.8 4.37533 24.9 4.67533 24.9 4.87533C27 12.3753 29.1 19.8753 31.2 27.4753C31.4 28.0753 31.6 28.1753 32.2 28.1753C37.7 28.1753 43.3 28.1753 48.8 28.1753C49 28.2753 49.3 28.2753 49.7 28.2753ZM47.3 43.9753H50V36.5753H47.3V43.9753ZM55.1 38.8753L56.6 38.9753V36.5753H51V38.9753L52.5 38.8753V43.8753H55.1V38.8753ZM63.9 39.1753C63.9 39.3753 63.8 39.5753 63.7 39.6753C63.6 39.7753 63.4 39.8753 63.1 39.8753H62.6V38.5753H63.1C63.3 38.5753 63.5 38.6753 63.6 38.7753C63.9 38.8753 63.9 38.9753 63.9 39.1753ZM65.8 41.0753C66.3 40.6753 66.5 39.9753 66.5 39.2753C66.5 38.4753 66.2 37.8753 65.7 37.3753C65.2 36.8753 64.4 36.5753 63.5 36.5753H60V43.9753H62.6V41.7753H64C64.8 41.6753 65.4 41.4753 65.8 41.0753ZM71.2 39.1753C71.2 39.3753 71.1 39.4753 71 39.6753C70.9 39.7753 70.7 39.8753 70.4 39.8753H70.1V38.5753H70.6C70.8 38.5753 70.9 38.6753 71.1 38.7753C71.2 38.8753 71.2 39.0753 71.2 39.1753ZM73.9 39.1753C73.9 38.4753 73.7 37.8753 73.2 37.3753C72.9 37.0753 72.6 36.8753 72.2 36.7753C71.8 36.6753 71.4 36.5753 70.9 36.5753H67.6V43.9753H70.2V41.5753C70.2 41.6753 70.2 41.6753 70.3 41.7753V41.8753L71.4 44.0753H74.5L72.8 41.5753C72.7 41.4753 72.6 41.2753 72.4 41.2753V41.1753C72.8 41.0753 73.2 40.8753 73.4 40.5753C73.7 40.0753 73.9 39.6753 73.9 39.1753ZM135.9 21.6753C135.9 16.9753 134.6 12.6753 131.3 9.07533C128.3 5.77533 124.4 3.87533 120.2 2.67533C114.9 1.07533 109.4 0.375329 103.9 0.375329C93.9 0.275329 83.8 0.27533 73.8 0.27533C73.7 0.27533 73.5 0.275329 73.3 0.375329C74.5 9.67533 74.5 18.9753 74.4 28.2753H91.7V2.37533C94.1 2.37533 96.4 2.27533 98.7 2.37533C101 2.47533 103.3 2.67533 105.6 3.17533C111.3 4.47533 115.2 7.87533 117 13.4753C118.1 16.8753 118.4 20.3753 118.2 23.9753C118.1 25.3753 118 26.7753 117.8 28.2753C123.4 28.2753 129 28.2753 134.5 28.2753C134.7 28.2753 135.1 27.9753 135.1 27.6753C135.6 25.6753 135.9 23.6753 135.9 21.6753Z" fill="white"/>
</svg>
