<svg width="574" height="573" viewBox="0 0 574 573" fill="none" xmlns="http://www.w3.org/2000/svg">
<g filter="url(#filter0_d_76_992)">
<path d="M355.74 397.385C346.73 389.206 342.124 381.945 340.658 375.513C340.929 369.047 342.492 362.704 345.255 356.857C357.435 340.542 387.876 329.858 396.563 318.822C408.081 304.164 407.401 282.96 414.119 266.049C433.736 216.681 484.913 187.369 535.81 182.485C550.84 181.058 553.669 155.532 538.259 152.231C471.108 137.791 411.211 171.119 385.676 234.514C376.233 259.386 362.307 282.309 344.588 302.149C331.136 317.35 318.86 332.388 314.206 352.213C306.082 379.076 317.608 403.762 339.924 420.052C354.695 430.737 368.477 408.92 355.74 397.385ZM546.692 232.935C563.01 227.489 554.073 201.81 537.771 204.734C509.529 209.765 483.834 223.269 466.503 246.694C458.655 257.443 452.98 269.619 449.794 282.545C445.807 299.13 449.919 322.917 440.461 337.614C438.116 340.39 435.434 342.865 432.476 344.979C431.603 345.582 430.832 346.321 430.191 347.167C429.421 347.701 428.768 348.386 428.272 349.18C427.776 349.974 427.446 350.861 427.304 351.787C427.161 352.714 427.208 353.66 427.442 354.568C427.676 355.476 428.093 356.328 428.666 357.072C430.736 363.51 437.838 368.768 445.026 365.046C465.446 354.48 473.891 337.866 478.233 315.553C481.366 299.431 480.968 284.78 488.729 270.45C493.099 263.616 498.444 257.457 504.596 252.168C516.705 242.915 531.624 238.005 546.692 232.935ZM283.529 340.567C289.147 303.597 312.889 278.215 331.155 247.309C351.418 213.106 380.257 193.247 404.926 163.329C431.651 131.063 452.391 86.3375 501.499 86.4092C502.818 86.4217 503.882 84.5162 502.467 83.7178C477.499 69.4352 454.025 74.0489 431.141 91.406C410.358 107.165 396.049 129.9 377.445 147.974C358.841 166.047 338.025 181.746 320.417 201.271C287.002 238.288 270.131 264.531 261.056 314.446C254.727 349.066 251.073 399.095 274.785 427.896C275.701 428.943 276.901 429.701 278.24 430.078C279.579 430.455 280.997 430.434 282.322 430.017C283.647 429.601 284.82 428.808 285.699 427.735C286.578 426.661 287.124 425.354 287.27 423.974C289.275 396.096 279.217 369.143 283.511 340.593L283.529 340.567ZM214.469 440.354C155.998 389.72 245.947 288.318 250.922 229.112C254.594 184.657 218.232 143.434 176.16 132.953C164.338 129.999 152.915 142.946 161.817 153.508C186.905 183.383 225.325 196.272 212.614 243.461C203.527 277.14 193.528 309.843 185.674 343.929C176.859 382.11 165.798 429.164 210.835 447.464C215.428 449.307 217.837 443.083 214.469 440.354ZM197.492 94.011C231.938 131.891 266.504 168.078 321.461 144.655C362.584 127.089 424.764 84.3461 426.591 35.577C426.774 29.8793 419.066 24.2365 414.406 29.2306C388.214 57.2537 366.452 83.2233 334.209 105.133C313.406 119.289 293.921 129.221 267.793 122.526C244.309 116.391 222.808 101.652 204.594 86.333C200.049 82.5184 193.64 89.5833 197.563 93.9092L197.492 94.011ZM252.335 63.7388C263.777 80.9899 294.682 85.079 313.059 77.9303C341.613 66.7989 346.805 32.5583 371.579 17.2764C378.711 12.872 373.94 1.33507 365.959 5.10883C346.001 14.5216 336.631 32.5705 321.335 47.3163C310.264 57.7473 298.87 61.4098 284.01 57.32C274.15 54.6003 267.14 50.7303 256.708 52.4162C255.534 52.6562 254.441 53.1874 253.527 53.961C252.614 54.7346 251.911 55.7258 251.483 56.8432C251.054 57.9607 250.914 59.1686 251.076 60.3558C251.237 61.543 251.695 62.6713 252.406 63.637L252.335 63.7388ZM156.156 289.364C170.079 249.678 159.004 203.745 108.285 208.753C99.7941 209.561 100.674 222.923 109.009 223.481L138.872 265.048L134.642 275.676C132.429 285.479 126.284 295.754 123.039 305.405C117.578 321.552 113.385 338.103 110.498 354.907C107.369 372.846 105.8 391.026 105.809 409.244C105.918 433.604 105.451 447.048 92.6653 469.068C92.1564 469.821 91.8253 470.681 91.6971 471.582C91.5688 472.482 91.6466 473.401 91.9247 474.269C92.2027 475.136 92.6739 475.93 93.3026 476.59C93.9313 477.251 94.7013 477.761 95.5547 478.082L102.549 480.995C104.553 481.717 106.71 481.902 108.805 481.532C110.899 481.162 112.859 480.25 114.489 478.887C134.302 462.451 133.088 442.502 132.641 418.246C131.85 372.794 141.253 331.921 156.156 289.364ZM27.4097 275.028C16.8697 275.239 14.7049 287.799 23.7357 292.361C60.858 311.077 53.8421 334.286 46.9971 365.785C41.7449 389.62 34.5837 412.766 28.6283 436.413C19.8904 471.168 17.3505 500.791 25.3465 536.026C26.6147 541.602 35.4242 541.697 35.6314 535.638C38.063 479.044 144.414 273.794 27.4097 275.028Z" fill="url(#paint0_linear_76_992)"/>
</g>
<defs>
<filter id="filter0_d_76_992" x="0.0722656" y="0.362305" width="573.268" height="571.833" filterUnits="userSpaceOnUse" color-interpolation-filters="sRGB">
<feFlood flood-opacity="0" result="BackgroundImageFix"/>
<feColorMatrix in="SourceAlpha" type="matrix" values="0 0 0 0 0 0 0 0 0 0 0 0 0 0 0 0 0 0 127 0" result="hardAlpha"/>
<feOffset dy="14"/>
<feGaussianBlur stdDeviation="9"/>
<feComposite in2="hardAlpha" operator="out"/>
<feColorMatrix type="matrix" values="0 0 0 0 0 0 0 0 0 0 0 0 0 0 0 0 0 0 0.5 0"/>
<feBlend mode="normal" in2="BackgroundImageFix" result="effect1_dropShadow_76_992"/>
<feBlend mode="normal" in="SourceGraphic" in2="effect1_dropShadow_76_992" result="shape"/>
</filter>
<linearGradient id="paint0_linear_76_992" x1="501.323" y1="51.4395" x2="59.6196" y2="537.233" gradientUnits="userSpaceOnUse">
<stop stop-color="#C0382A"/>
<stop offset="1" stop-color="#991F12"/>
</linearGradient>
</defs>
</svg>
