<svg width="1213" height="51" viewBox="0 0 1213 51" fill="none" xmlns="http://www.w3.org/2000/svg">
<path d="M117.734 37.1826C133.648 15.7326 128.999 13.9372 145.265 36.5763C147.062 36.5763 148.86 36.5894 150.657 36.6157C146.811 29.3554 139.711 21.3865 134.469 15.2287C131.354 11.9923 130.282 14.3625 127.212 18.0635C122.35 24.1032 115.646 30.072 111.945 37.3716C113.869 37.3244 115.799 37.2614 117.734 37.1826Z" fill="#D9C6A5"/>
<path d="M33.8434 13.8902C17.9288 35.3402 22.5843 37.1356 6.3125 14.4965C4.51506 14.4965 2.71949 14.4834 0.925781 14.4571C4.77184 21.7174 11.8667 29.6863 17.1138 35.8441C20.2342 39.0805 21.3004 36.7103 24.3705 33.0093C29.2325 26.9696 35.9366 21.0008 39.6376 13.7012C37.7136 13.7484 35.7822 13.8114 33.8434 13.8902Z" fill="#AD8F53"/>
<path d="M43.7339 37.1826C59.6485 15.7326 54.993 13.9372 71.2648 36.5763C73.0622 36.5763 74.8597 36.5894 76.6571 36.6157C72.811 29.3554 65.7106 21.3865 60.469 15.2287C57.3542 11.9923 56.2825 14.3625 53.2123 18.0635C48.3503 24.1032 41.6462 30.072 37.9453 37.3716C39.8693 37.3244 41.7988 37.2614 43.7339 37.1826Z" fill="#D9C6A5"/>
<path d="M107.839 13.8902C91.9249 35.3402 96.5804 37.1356 80.3086 14.4965C78.5112 14.4965 76.7156 14.4834 74.9219 14.4571C78.7679 21.7174 85.8628 29.6863 91.1099 35.8441C94.2303 39.0805 95.3021 36.7103 98.3666 33.0093C103.229 26.9696 109.933 21.0008 113.634 13.7012C111.71 13.7484 109.778 13.8114 107.839 13.8902Z" fill="#AD8F53"/>
<path d="M151.563 47.6879V50.4125H108.776C86.9226 50.4912 65.0743 49.8928 43.2204 49.7747C29.3322 49.7038 15.4495 50.066 1.56131 50.3731L0.00390625 50.4125V47.6801C15.5165 47.121 30.9398 47.0186 46.4636 47.2627C65.9507 47.2627 85.4433 47.932 104.925 48.3336C110.446 48.4518 115.972 48.6723 121.492 48.6723L151.563 47.6879Z" fill="#D9C6A5"/>
<path d="M269.285 37.1826C285.199 15.7326 280.544 13.9372 296.816 36.5763C298.613 36.5763 300.41 36.5894 302.208 36.6157C298.362 29.3554 291.261 21.3865 286.02 15.2287C282.905 11.9923 281.833 14.3625 278.763 18.0635C273.901 24.1032 267.197 30.072 263.496 37.3716C265.42 37.3244 267.35 37.2614 269.285 37.1826Z" fill="#D9C6A5"/>
<path d="M185.392 13.8902C169.477 35.3402 174.133 37.1356 157.861 14.4965C156.064 14.4965 154.266 14.4834 152.469 14.4571C156.32 21.7174 163.415 29.6863 168.657 35.8441C171.772 39.0805 172.843 36.7103 175.914 33.0093C180.776 26.9696 187.48 21.0008 191.181 13.7012C189.26 13.7484 187.331 13.8114 185.392 13.8902Z" fill="#AD8F53"/>
<path d="M195.285 37.1826C211.199 15.7326 206.544 13.9372 222.816 36.5763C224.613 36.5763 226.41 36.5894 228.208 36.6157C224.362 29.3554 217.261 21.3865 212.02 15.2287C208.905 11.9923 207.833 14.3625 204.763 18.0635C199.901 24.1032 193.197 30.072 189.496 37.3716C191.42 37.3244 193.35 37.2614 195.285 37.1826Z" fill="#D9C6A5"/>
<path d="M259.392 13.8902C243.477 35.3402 248.133 37.1356 231.861 14.4965C230.064 14.4965 228.266 14.4834 226.469 14.4571C230.32 21.7174 237.415 29.6863 242.657 35.8441C245.772 39.0805 246.843 36.7103 249.914 33.0093C254.776 26.9696 261.48 21.0008 265.181 13.7012C263.26 13.7484 261.331 13.8114 259.392 13.8902Z" fill="#AD8F53"/>
<path d="M303.114 47.6879V50.4125H260.328C238.474 50.4912 216.626 49.8928 194.772 49.7747C180.884 49.7038 167.001 50.066 153.113 50.3731L151.566 50.4125V47.6801C167.079 47.121 182.502 47.0186 198.026 47.2627C217.513 47.2627 237.006 47.932 256.487 48.3336C262.008 48.4518 267.534 48.6723 273.055 48.6723L303.114 47.6879Z" fill="#D9C6A5"/>
<path d="M420.832 37.1826C436.746 15.7326 432.091 13.9372 448.362 36.5763C450.16 36.5763 451.957 36.5894 453.755 36.6157C449.903 29.3554 442.808 21.3865 437.567 15.2287C434.452 11.9923 433.38 14.3625 430.31 18.0635C425.448 24.1032 418.744 30.072 415.043 37.3716C416.967 37.3244 418.896 37.2614 420.832 37.1826Z" fill="#D9C6A5"/>
<path d="M336.939 13.8902C321.024 35.3402 325.68 37.1356 309.408 14.4965C307.611 14.4965 305.813 14.4834 304.016 14.4571C307.862 21.7174 314.962 29.6863 320.204 35.8441C323.318 39.0805 324.39 36.7103 327.46 33.0093C332.322 26.9696 339.026 21.0008 342.727 13.7012C340.807 13.7484 338.878 13.8114 336.939 13.8902Z" fill="#AD8F53"/>
<path d="M346.832 37.1826C362.746 15.7326 358.091 13.9372 374.362 36.5763C376.16 36.5763 377.957 36.5894 379.755 36.6157C375.903 29.3554 368.808 21.3865 363.567 15.2287C360.452 11.9923 359.38 14.3625 356.31 18.0635C351.448 24.1032 344.744 30.072 341.043 37.3716C342.967 37.3244 344.896 37.2614 346.832 37.1826Z" fill="#D9C6A5"/>
<path d="M410.939 13.8902C395.024 35.3402 399.68 37.1356 383.408 14.4965C381.61 14.4965 379.813 14.4834 378.016 14.4571C381.862 21.7174 388.962 29.6863 394.204 35.8441C397.318 39.0805 398.39 36.7103 401.46 33.0093C406.322 26.9696 413.026 21.0008 416.727 13.7012C414.807 13.7484 412.878 13.8114 410.939 13.8902Z" fill="#AD8F53"/>
<path d="M454.657 47.6879V50.4125H411.871C390.011 50.4912 368.163 49.8928 346.315 49.7747C332.427 49.7038 318.544 50.066 304.656 50.3731L303.109 50.4125V47.6801C318.622 47.121 334.045 47.0186 349.569 47.2627C369.056 47.2627 388.549 47.932 408.03 48.3336C413.551 48.4518 419.077 48.6723 424.598 48.6723L454.657 47.6879Z" fill="#D9C6A5"/>
<path d="M572.376 37.1826C588.291 15.7326 583.635 13.9372 599.907 36.5763C601.704 36.5763 603.5 36.5894 605.294 36.6157C601.448 29.3554 594.353 21.3865 589.106 15.2287C585.985 11.9923 584.919 14.3625 581.849 18.0635C576.987 24.1032 570.283 30.072 566.582 37.3716C568.51 37.3244 570.441 37.2614 572.376 37.1826Z" fill="#D9C6A5"/>
<path d="M488.486 13.8902C472.571 35.3402 477.221 37.1356 460.955 14.4965C459.157 14.4965 457.36 14.4834 455.562 14.4571C459.409 21.7174 466.509 29.6863 471.751 35.8441C474.865 39.0805 475.937 36.7103 479.007 33.0093C483.869 26.9696 490.573 21.0008 494.274 13.7012C492.354 13.7484 490.425 13.8114 488.486 13.8902Z" fill="#AD8F53"/>
<path d="M498.377 37.1836C514.292 15.7336 509.636 13.9382 525.908 36.5773C527.706 36.5773 529.501 36.5904 531.295 36.6167C527.449 29.3564 520.354 21.3875 515.107 15.2296C511.986 11.9932 510.915 14.3634 507.85 18.0644C502.949 24.1041 496.251 30.073 492.566 37.3726C494.505 37.3254 496.442 37.2624 498.377 37.1836Z" fill="#D9C6A5"/>
<path d="M562.49 13.8902C546.575 35.3402 551.231 37.1356 534.959 14.4965C533.161 14.4965 531.364 14.4834 529.566 14.4571C533.412 21.7174 540.513 29.6863 545.754 35.8441C548.869 39.0805 549.941 36.7103 553.011 33.0093C557.873 26.9696 564.577 21.0008 568.278 13.7012C566.354 13.7484 564.425 13.8114 562.49 13.8902Z" fill="#AD8F53"/>
<path d="M606.22 47.6879V50.4125H563.433C541.574 50.4912 519.726 49.8928 497.877 49.7747C483.989 49.7038 470.106 50.066 456.218 50.3731L454.672 50.4125V47.6801C470.184 47.121 485.608 47.0186 501.132 47.2627C520.613 47.2627 540.106 47.932 559.593 48.3336C565.113 48.4518 570.64 48.6723 576.16 48.6723L606.22 47.6879Z" fill="#D9C6A5"/>
<path d="M151.569 0.653569V3.38601L139.227 3.00802C135.492 2.88991 131.736 2.39383 128.063 2.4017L103.3 2.44106C87.0342 2.44106 70.8127 2.96866 54.5353 3.28364C51.2419 3.34663 47.9466 3.38076 44.6494 3.38601C34.7301 3.38601 25.4694 3.26789 8.86267 3.38601C4.26303 3.38601 4.99428 3.38601 0.0429688 3.38601V0.653569L24.0459 1.37015C29.5722 1.52764 35.1264 1.94499 40.6359 1.86624C56.9356 1.86624 73.2744 1.07879 89.5797 0.677192C99.8507 0.401586 107.867 0 118.154 0C127.086 0 138.334 0.653569 147.271 0.653569H151.569Z" fill="#D9C6A5"/>
<path d="M303.116 0.653569V3.38601L290.774 3.00802C287.039 2.88991 283.282 2.39383 279.609 2.4017L254.847 2.44106C238.581 2.44106 222.36 2.96866 206.082 3.28364C202.789 3.34663 199.493 3.38076 196.196 3.38601C186.277 3.38601 177.016 3.26789 160.41 3.38601C155.81 3.38601 156.541 3.38601 151.59 3.38601V0.653569L175.593 1.37015C181.125 1.52764 186.679 1.94499 192.188 1.86624C208.488 1.86624 224.827 1.07879 241.132 0.677192C251.403 0.401586 259.419 0 269.707 0C278.638 0 289.886 0.653569 298.823 0.653569H303.116Z" fill="#D9C6A5"/>
<path d="M454.668 0.653569V3.38601L442.32 3.00802C438.592 2.88991 434.835 2.39383 431.156 2.4017L406.394 2.44106C390.122 2.44106 373.906 2.96866 357.629 3.28364C354.336 3.34663 351.038 3.38076 347.738 3.38601C337.824 3.38601 328.563 3.26789 311.956 3.38601C307.357 3.38601 308.088 3.38601 303.137 3.38601V0.653569L327.14 1.37015C332.672 1.52764 338.226 1.94499 343.735 1.86624C360.029 1.86624 376.374 1.07879 392.679 0.677192C402.95 0.401586 410.966 0 421.254 0C430.185 0 441.433 0.653569 450.37 0.653569H454.668Z" fill="#D9C6A5"/>
<path d="M606.223 0.653569V3.38601L593.875 3.00802C590.146 2.88991 586.39 2.39383 582.711 2.4017L557.949 2.44106C541.677 2.44106 525.461 2.96866 509.184 3.28364C505.89 3.34663 502.593 3.38076 499.292 3.38601C489.379 3.38601 480.118 3.26789 463.511 3.38601C458.911 3.38601 459.643 3.38601 454.691 3.38601V0.653569L478.694 1.37015C484.226 1.52764 489.78 1.94499 495.29 1.86624C511.584 1.86624 527.928 1.07879 544.234 0.677192C554.505 0.401586 562.521 0 572.808 0C581.74 0 592.988 0.653569 601.925 0.653569H606.223Z" fill="#D9C6A5"/>
<path d="M723.945 37.1826C739.859 15.7326 735.21 13.9372 751.476 36.5763C753.273 36.5763 755.071 36.5894 756.868 36.6157C753.022 29.3554 745.922 21.3865 740.68 15.2287C737.565 11.9923 736.493 14.3625 733.423 18.0635C728.561 24.1032 721.857 30.072 718.156 37.3716C720.08 37.3244 722.01 37.2614 723.945 37.1826Z" fill="#D9C6A5"/>
<path d="M640.054 13.8902C624.14 35.3402 628.795 37.1356 612.523 14.4965C610.726 14.4965 608.93 14.4834 607.137 14.4571C610.983 21.7174 618.078 29.6863 623.325 35.8441C626.445 39.0805 627.511 36.7103 630.581 33.0093C635.443 26.9696 642.148 21.0008 645.848 13.7012C643.925 13.7484 641.993 13.8114 640.054 13.8902Z" fill="#AD8F53"/>
<path d="M649.945 37.1826C665.859 15.7326 661.204 13.9372 677.476 36.5763C679.273 36.5763 681.071 36.5894 682.868 36.6157C679.022 29.3554 671.922 21.3865 666.68 15.2287C663.565 11.9923 662.493 14.3625 659.423 18.0635C654.561 24.1032 647.857 30.072 644.156 37.3716C646.08 37.3244 648.01 37.2614 649.945 37.1826Z" fill="#D9C6A5"/>
<path d="M714.05 13.8902C698.136 35.3402 702.791 37.1356 686.52 14.4965C684.722 14.4965 682.927 14.4834 681.133 14.4571C684.979 21.7174 692.074 29.6863 697.321 35.8441C700.441 39.0805 701.513 36.7103 704.578 33.0093C709.44 26.9696 716.144 21.0008 719.845 13.7012C717.921 13.7484 715.989 13.8114 714.05 13.8902Z" fill="#AD8F53"/>
<path d="M757.774 47.6879V50.4125H714.987C693.134 50.4912 671.285 49.8928 649.431 49.7747C635.543 49.7038 621.66 50.066 607.772 50.3731L606.215 50.4125V47.6801C621.727 47.121 637.151 47.0186 652.675 47.2627C672.162 47.2627 691.654 47.932 711.136 48.3336C716.656 48.4518 722.183 48.6723 727.703 48.6723L757.774 47.6879Z" fill="#D9C6A5"/>
<path d="M757.776 0.653569V3.38601L745.434 3.00802C741.699 2.88991 737.943 2.39383 734.27 2.4017L709.507 2.44106C693.241 2.44106 677.02 2.96866 660.742 3.28364C657.449 3.34663 654.154 3.38076 650.856 3.38601C640.937 3.38601 631.676 3.26789 615.07 3.38601C610.47 3.38601 611.201 3.38601 606.25 3.38601V0.653569L630.253 1.37015C635.779 1.52764 641.333 1.94499 646.843 1.86624C663.143 1.86624 679.481 1.07879 695.787 0.677192C706.058 0.401586 714.074 0 724.361 0C733.293 0 744.541 0.653569 753.478 0.653569H757.776Z" fill="#D9C6A5"/>
<path d="M875.496 37.1826C891.41 15.7326 886.755 13.9372 903.026 36.5763C904.824 36.5763 906.621 36.5894 908.419 36.6157C904.573 29.3554 897.472 21.3865 892.231 15.2287C889.116 11.9923 888.044 14.3625 884.974 18.0635C880.112 24.1032 873.408 30.072 869.707 37.3716C871.631 37.3244 873.561 37.2614 875.496 37.1826Z" fill="#D9C6A5"/>
<path d="M791.603 13.8902C775.688 35.3402 780.344 37.1356 764.072 14.4965C762.275 14.4965 760.477 14.4834 758.68 14.4571C762.531 21.7174 769.626 29.6863 774.868 35.8441C777.983 39.0805 779.054 36.7103 782.124 33.0093C786.986 26.9696 793.691 21.0008 797.391 13.7012C795.471 13.7484 793.542 13.8114 791.603 13.8902Z" fill="#AD8F53"/>
<path d="M801.496 37.1826C817.41 15.7326 812.755 13.9372 829.027 36.5763C830.824 36.5763 832.621 36.5894 834.419 36.6157C830.573 29.3554 823.472 21.3865 818.231 15.2287C815.116 11.9923 814.044 14.3625 810.974 18.0635C806.112 24.1032 799.408 30.072 795.707 37.3716C797.631 37.3244 799.561 37.2614 801.496 37.1826Z" fill="#D9C6A5"/>
<path d="M865.603 13.8902C849.688 35.3402 854.344 37.1356 838.072 14.4965C836.275 14.4965 834.477 14.4834 832.68 14.4571C836.531 21.7174 843.626 29.6863 848.868 35.8441C851.983 39.0805 853.054 36.7103 856.124 33.0093C860.986 26.9696 867.691 21.0008 871.391 13.7012C869.471 13.7484 867.542 13.8114 865.603 13.8902Z" fill="#AD8F53"/>
<path d="M909.325 47.6879V50.4125H866.539C844.685 50.4912 822.837 49.8928 800.983 49.7747C787.094 49.7038 773.212 50.066 759.324 50.3731L757.777 50.4125V47.6801C773.29 47.121 788.713 47.0186 804.237 47.2627C823.724 47.2627 843.217 47.932 862.698 48.3336C868.219 48.4518 873.745 48.6723 879.266 48.6723L909.325 47.6879Z" fill="#D9C6A5"/>
<path d="M909.319 0.653569V3.38601L896.977 3.00802C893.242 2.88991 889.486 2.39383 885.813 2.4017L861.05 2.44106C844.784 2.44106 828.563 2.96866 812.285 3.28364C808.992 3.34663 805.697 3.38076 802.399 3.38601C792.48 3.38601 783.219 3.26789 766.613 3.38601C762.013 3.38601 762.744 3.38601 757.793 3.38601V0.653569L781.796 1.37015C787.328 1.52764 792.882 1.94499 798.391 1.86624C814.691 1.86624 831.03 1.07879 847.335 0.677192C857.606 0.401586 865.622 0 875.91 0C884.841 0 896.089 0.653569 905.026 0.653569H909.319Z" fill="#D9C6A5"/>
<path d="M1027.04 37.1826C1042.96 15.7326 1038.3 13.9372 1054.57 36.5763C1056.37 36.5763 1058.17 36.5894 1059.97 36.6157C1056.11 29.3554 1049.02 21.3865 1043.78 15.2287C1040.66 11.9923 1039.59 14.3625 1036.52 18.0635C1031.66 24.1032 1024.95 30.072 1021.25 37.3716C1023.18 37.3244 1025.11 37.2614 1027.04 37.1826Z" fill="#D9C6A5"/>
<path d="M943.15 13.8902C927.235 35.3402 931.891 37.1356 915.619 14.4965C913.821 14.4965 912.024 14.4834 910.227 14.4571C914.073 21.7174 921.173 29.6863 926.415 35.8441C929.529 39.0805 930.601 36.7103 933.671 33.0093C938.533 26.9696 945.237 21.0008 948.938 13.7012C947.018 13.7484 945.089 13.8114 943.15 13.8902Z" fill="#AD8F53"/>
<path d="M953.043 37.1826C968.957 15.7326 964.302 13.9372 980.573 36.5763C982.371 36.5763 984.168 36.5894 985.966 36.6157C982.114 29.3554 975.019 21.3865 969.778 15.2287C966.663 11.9923 965.591 14.3625 962.521 18.0635C957.659 24.1032 950.955 30.072 947.254 37.3716C949.178 37.3244 951.107 37.2614 953.043 37.1826Z" fill="#D9C6A5"/>
<path d="M1017.15 13.8902C1001.24 35.3402 1005.89 37.1356 989.619 14.4965C987.821 14.4965 986.024 14.4834 984.227 14.4571C988.073 21.7174 995.173 29.6863 1000.41 35.8441C1003.53 39.0805 1004.6 36.7103 1007.67 33.0093C1012.53 26.9696 1019.24 21.0008 1022.94 13.7012C1021.02 13.7484 1019.09 13.8114 1017.15 13.8902Z" fill="#AD8F53"/>
<path d="M1060.87 47.6879V50.4125H1018.08C996.222 50.4912 974.374 49.8928 952.526 49.7747C938.637 49.7038 924.755 50.066 910.867 50.3731L909.32 50.4125V47.6801C924.833 47.121 940.256 47.0186 955.78 47.2627C975.267 47.2627 994.76 47.932 1014.24 48.3336C1019.76 48.4518 1025.29 48.6723 1030.81 48.6723L1060.87 47.6879Z" fill="#D9C6A5"/>
<path d="M1060.87 0.653569V3.38601L1048.52 3.00802C1044.79 2.88991 1041.04 2.39383 1037.36 2.4017L1012.6 2.44106C996.326 2.44106 980.11 2.96866 963.832 3.28364C960.539 3.34663 957.242 3.38076 953.941 3.38601C944.027 3.38601 934.766 3.26789 918.16 3.38601C913.56 3.38601 914.291 3.38601 909.34 3.38601V0.653569L933.343 1.37015C938.875 1.52764 944.429 1.94499 949.938 1.86624C966.232 1.86624 982.577 1.07879 998.882 0.677192C1009.15 0.401586 1017.17 0 1027.46 0C1036.39 0 1047.64 0.653569 1056.57 0.653569H1060.87Z" fill="#D9C6A5"/>
<path d="M1178.59 37.1826C1194.5 15.7326 1189.85 13.9372 1206.12 36.5763C1207.92 36.5763 1209.71 36.5894 1211.5 36.6157C1207.66 29.3554 1200.56 21.3865 1195.32 15.2287C1192.2 11.9923 1191.13 14.3625 1188.06 18.0635C1183.2 24.1032 1176.49 30.072 1172.79 37.3716C1174.72 37.3244 1176.65 37.2614 1178.59 37.1826Z" fill="#D9C6A5"/>
<path d="M1094.7 13.8902C1078.79 35.3402 1083.44 37.1356 1067.17 14.4965C1065.37 14.4965 1063.57 14.4834 1061.78 14.4571C1065.62 21.7174 1072.72 29.6863 1077.97 35.8441C1081.08 39.0805 1082.15 36.7103 1085.22 33.0093C1090.08 26.9696 1096.79 21.0008 1100.49 13.7012C1098.57 13.7484 1096.64 13.8114 1094.7 13.8902Z" fill="#AD8F53"/>
<path d="M1104.59 37.1831C1120.5 15.7331 1115.85 13.9377 1132.12 36.5768C1133.92 36.5768 1135.71 36.5899 1137.51 36.6162C1133.66 29.3559 1126.56 21.387 1121.32 15.2291C1118.2 11.9927 1117.13 14.363 1114.06 18.064C1109.16 24.1037 1102.46 30.0725 1098.78 37.3721C1100.72 37.3249 1102.65 37.2619 1104.59 37.1831Z" fill="#D9C6A5"/>
<path d="M1168.7 13.8902C1152.79 35.3402 1157.44 37.1356 1141.17 14.4965C1139.37 14.4965 1137.57 14.4834 1135.78 14.4571C1139.62 21.7174 1146.72 29.6863 1151.97 35.8441C1155.08 39.0805 1156.15 36.7103 1159.22 33.0093C1164.08 26.9696 1170.79 21.0008 1174.49 13.7012C1172.57 13.7484 1170.64 13.8114 1168.7 13.8902Z" fill="#AD8F53"/>
<path d="M1212.43 47.6879V50.4125H1169.64C1147.78 50.4912 1125.94 49.8928 1104.09 49.7747C1090.2 49.7038 1076.32 50.066 1062.43 50.3731L1060.88 50.4125V47.6801C1076.4 47.121 1091.82 47.0186 1107.34 47.2627C1126.82 47.2627 1146.32 47.932 1165.8 48.3336C1171.32 48.4518 1176.85 48.6723 1182.37 48.6723L1212.43 47.6879Z" fill="#D9C6A5"/>
<path d="M1212.43 0.653569V3.38601L1200.09 3.00802C1196.36 2.88991 1192.6 2.39383 1188.92 2.4017L1164.16 2.44106C1147.89 2.44106 1131.67 2.96866 1115.39 3.28364C1112.1 3.34663 1108.8 3.38076 1105.5 3.38601C1095.59 3.38601 1086.33 3.26789 1069.72 3.38601C1065.12 3.38601 1065.85 3.38601 1060.9 3.38601V0.653569L1084.91 1.37015C1090.44 1.52764 1095.99 1.94499 1101.5 1.86624C1117.8 1.86624 1134.14 1.07879 1150.44 0.677192C1160.72 0.401586 1168.73 0 1179.02 0C1187.95 0 1199.2 0.653569 1208.14 0.653569H1212.43Z" fill="#D9C6A5"/>
</svg>
