<svg width="575" height="439" viewBox="0 0 575 439" fill="none" xmlns="http://www.w3.org/2000/svg">
<path d="M177.308 429.679C152.452 421.778 125.499 423.343 99.6332 422.444C73.7674 421.545 47.4023 419.814 21.5586 423.554C17.8857 424.075 18.1188 430.034 21.5586 430.755C47.1471 436.071 73.5788 435.893 99.6332 436.603C125.444 437.324 152.064 440.487 177.308 434.162C177.803 434.031 178.24 433.74 178.551 433.334C178.863 432.929 179.032 432.432 179.032 431.92C179.032 431.409 178.863 430.912 178.551 430.507C178.24 430.101 177.803 429.81 177.308 429.679Z" fill="url(#paint0_linear_377_1652)"/>
<path d="M169.184 402.436C120.615 391.795 65.7988 396.944 16.6748 400.872C11.2154 401.316 11.1266 409.749 16.6748 409.494C66.8862 407.33 118.573 412.678 168.419 408.084C171.426 407.807 172.569 403.18 169.184 402.436Z" fill="url(#paint1_linear_377_1652)"/>
<path d="M165.657 377.859C144.94 373.576 123.49 375.884 102.474 375.806C78.1502 375.706 53.9932 375.418 29.6809 376.028C26.2965 376.117 25.1758 381.72 28.8376 382.242C70.8931 388.178 124.267 395.18 165.657 383.352C168.253 382.664 168.52 378.458 165.657 377.859Z" fill="url(#paint2_linear_377_1652)"/>
<path d="M141.067 352.046C117.997 349.272 93.0304 354.399 69.9387 356.485C64.1352 357.007 63.9688 365.984 69.9387 365.684C93.4631 364.486 119.307 366.083 142.132 359.98C146.837 358.693 145.317 352.557 141.067 352.046Z" fill="url(#paint3_linear_377_1652)"/>
<path d="M73.1114 323.308C58.1755 319.668 42.3631 323.863 27.2941 325.294C24.0207 325.594 22.678 330.776 26.4508 331.497C41.9858 334.46 59.6292 337.112 73.7993 328.556C74.2732 328.261 74.6521 327.836 74.8908 327.331C75.1295 326.827 75.2179 326.264 75.1453 325.711C75.0728 325.157 74.8424 324.636 74.4817 324.21C74.121 323.784 73.6453 323.471 73.1114 323.308Z" fill="url(#paint4_linear_377_1652)"/>
<path d="M62.3923 301.159C56.3669 299.838 51.6509 300.737 45.5146 300.915C38.725 301.093 31.9375 300.49 25.2858 299.117C17.9621 297.63 15.0549 309.104 22.2343 310.214C35.2726 312.155 52.6385 314.075 63.5463 305.498C65.0554 304.277 64.1234 301.547 62.3923 301.159Z" fill="url(#paint5_linear_377_1652)"/>
<path d="M65.0892 274.604C53.1161 272.629 39.2123 276.535 27.2615 278.111C16.4424 279.531 18.7948 295.454 29.2477 292.78C40.9322 289.784 55.6905 288.264 66.0546 281.961C68.751 280.308 68.6733 275.192 65.0892 274.604Z" fill="url(#paint6_linear_377_1652)"/>
<path d="M187.109 299.084C177.122 297.442 166.647 298.695 156.55 299.084C149.015 299.339 149.381 311.479 156.55 310.569C166.603 309.293 177.477 308.993 187.109 305.764C190.028 304.743 190.727 299.672 187.109 299.084Z" fill="url(#paint7_linear_377_1652)"/>
<path d="M192.654 319.767C188.681 317.792 184.254 318.036 179.882 317.714L164.824 316.604C158.243 316.138 158.166 326.946 164.824 326.946L178.872 326.946C183.133 326.946 187.849 327.657 191.832 326.036C194.296 325.127 195.594 321.221 192.654 319.767Z" fill="url(#paint8_linear_377_1652)"/>
<path d="M194.452 339.009C191.045 336.99 187.406 337.767 183.6 337.978L171.971 338.599C164.98 338.976 164.936 349.895 171.971 349.518L183.6 348.885C187.25 348.697 191.367 349.207 194.452 346.943C197.149 344.946 197.659 340.907 194.452 339.009Z" fill="url(#paint9_linear_377_1652)"/>
<path d="M193.188 259.404C181.193 256.419 168.631 259.26 156.503 261.08C139.159 263.687 121.871 266.284 104.416 268.059C97.5808 268.758 97.2479 279.156 104.416 278.978C130.559 278.401 171.339 281.841 194.153 266.772C196.916 264.919 196.705 260.281 193.188 259.404Z" fill="url(#paint10_linear_377_1652)"/>
<path d="M187.027 235.181C158.387 228.711 126.607 236.224 98.9991 244.346C94.383 245.711 96.3026 252.658 100.985 251.548C129.614 244.746 158.221 245.645 187.027 241.273C190.156 240.795 189.923 235.835 187.027 235.181Z" fill="url(#paint11_linear_377_1652)"/>
<path d="M183.81 213.619C152.285 209.957 119.395 214.34 87.7703 215.838C83.3318 216.06 83.3318 222.751 87.7703 222.729C119.717 222.585 153.073 225.17 184.642 219.778C188.459 219.167 187.028 213.985 183.81 213.619Z" fill="url(#paint12_linear_377_1652)"/>
<path d="M179.048 189.108C157.721 187.754 136.438 189.918 115.033 189.108C107.964 188.841 108.097 199.516 115.033 200.027C136.926 201.613 158.808 202.767 180.124 197.019C184.652 195.788 183.476 189.385 179.048 189.108Z" fill="url(#paint13_linear_377_1652)"/>
<path d="M56.3562 234.746C53.0273 235.456 50.12 237.398 46.7356 238.13C43.0191 238.924 39.1805 238.958 35.4505 238.23C30.679 237.32 28.7926 244.788 33.4753 245.421C41.7422 246.53 53.7375 245.743 59.2746 238.541C60.7282 236.599 58.2648 234.335 56.3562 234.746Z" fill="url(#paint14_linear_377_1652)"/>
<path d="M55.4147 210.579C47.2144 209.192 39.1584 208.492 30.8583 207.915C21.4485 207.272 22.203 223.24 32.6891 221.464C40.3901 220.144 47.8802 218.746 55.4147 216.671C58.2332 215.894 58.5772 211.122 55.4147 210.579Z" fill="url(#paint15_linear_377_1652)"/>
<path d="M60.0637 191.481C51.819 189.528 44.0404 189.262 35.5849 189.051C27.1294 188.84 27.6621 202.655 35.5849 201.69C44.0737 200.658 51.9411 199.781 60.0637 197.03C62.6048 196.164 63.0153 192.18 60.0637 191.481Z" fill="url(#paint16_linear_377_1652)"/>
<path d="M153.062 152.467C102.983 155.707 53.9814 161.932 3.60358 161.344C-1.21228 161.344 -1.19009 168.645 3.60358 168.812C53.2158 170.532 105.402 171.186 154.282 161.466C159.32 160.489 158.233 152.134 153.062 152.467Z" fill="url(#paint17_linear_377_1652)"/>
<path d="M154.893 133.458C113.149 126.8 69.5728 129.785 27.3619 125.202C18.6179 124.259 18.4848 138.218 27.3619 138.984C68.5187 142.59 114.325 148.072 154.893 138.44C157.246 137.885 157.457 133.868 154.893 133.458Z" fill="url(#paint18_linear_377_1652)"/>
<path d="M152.641 105.019C124.345 96.3859 89.7796 101.202 60.5405 101.191C52.773 101.191 52.773 113.108 60.5405 113.252C89.8351 113.774 124.267 119.211 152.641 111.111C153.294 110.912 153.865 110.508 154.271 109.96C154.677 109.411 154.896 108.747 154.896 108.065C154.896 107.383 154.677 106.718 154.271 106.17C153.865 105.622 153.294 105.218 152.641 105.019Z" fill="url(#paint19_linear_377_1652)"/>
<path d="M143.601 76.0682C126.701 69.7544 105.462 71.2856 87.7523 71.8183C78.4979 72.0957 78.5423 86.7097 87.7523 86.1771C106.172 85.1229 125.403 88.0191 143.601 85.4891C148.883 84.7456 147.529 77.5441 143.601 76.0682Z" fill="url(#paint20_linear_377_1652)"/>
<path d="M218.111 85.8435C208.734 81.8932 197.449 82.5146 187.385 81.7934C180.017 81.2607 180.05 92.7455 187.385 93.2893C197.46 94.0216 208.246 96.1633 218.111 93.5889C222.338 92.4903 221.495 87.2639 218.111 85.8435Z" fill="url(#paint21_linear_377_1652)"/>
<path d="M221.218 103.821C210.466 102.223 199.369 103.388 188.528 103.71C179.473 103.976 181.038 117.991 190.215 116.116C200.523 114.018 211.42 112.709 221.218 108.803C223.26 107.993 224.048 104.242 221.218 103.821Z" fill="url(#paint22_linear_377_1652)"/>
<path d="M219.942 133.382C210.743 129.099 199.78 127.745 189.982 125.448C183.412 123.906 180.76 134.326 187.23 135.435C197.216 137.1 208.091 140.251 218.3 139.874C221.34 139.674 223.238 134.925 219.942 133.382Z" fill="url(#paint23_linear_377_1652)"/>
<path d="M375.825 171.386C327.777 155.563 268.766 161.4 219.553 168.546C215.059 169.2 216.147 176.635 220.663 176.446C271.951 174.349 323.993 182.305 374.793 179.287C375.748 179.253 376.66 178.881 377.367 178.238C378.074 177.595 378.53 176.721 378.654 175.774C378.778 174.826 378.561 173.865 378.043 173.061C377.525 172.258 376.739 171.665 375.825 171.386Z" fill="url(#paint24_linear_377_1652)"/>
<path d="M365.24 204.398C323.894 197.218 277.789 204.398 235.933 205.052C230.706 205.13 230.828 212.709 235.933 213.097C277.123 216.182 324.704 223.206 365.24 213.264C369.434 212.232 369.789 205.197 365.24 204.398Z" fill="url(#paint25_linear_377_1652)"/>
<path d="M371.151 230.807C324.546 227.101 277.941 230.03 231.214 225.07C224.556 224.36 224.656 234.702 231.214 235.401C276.92 240.272 326.432 245.155 371.839 235.889C374.824 235.301 373.892 231.062 371.151 230.807Z" fill="url(#paint26_linear_377_1652)"/>
<path d="M358.182 258.893C314.362 260.68 271.63 264.53 227.766 260.558C219.998 259.87 220.065 271.965 227.766 272.62C271.408 276.337 316.537 277.058 359.014 265.107C362.321 264.164 361.766 258.749 358.182 258.893Z" fill="url(#paint27_linear_377_1652)"/>
<path d="M413.851 132.628C366.514 126.27 316.824 129.987 269.187 131.186C265.114 131.286 265.126 137.333 269.187 137.5C316.768 139.453 366.447 143.98 413.851 138.376C414.613 138.376 415.344 138.073 415.883 137.535C416.422 136.996 416.725 136.265 416.725 135.502C416.725 134.74 416.422 134.009 415.883 133.47C415.344 132.931 414.613 132.628 413.851 132.628Z" fill="url(#paint28_linear_377_1652)"/>
<path d="M401.945 93.7325C357.67 92.4675 313.551 98.8924 269.088 97.35C260.21 97.0393 260.21 110.777 269.088 111.132C312.841 112.885 360.7 114.838 403.088 102.188C404.063 101.883 404.899 101.243 405.448 100.381C405.996 99.5188 406.222 98.4905 406.085 97.4779C405.949 96.4653 405.458 95.5339 404.7 94.8484C403.942 94.1629 402.966 93.7676 401.945 93.7325Z" fill="url(#paint29_linear_377_1652)"/>
<path d="M378.399 56.4167C364.528 51.7784 349.781 54.0642 335.445 55.2182C319.236 56.5276 303.047 58.033 286.875 59.7345C280.406 60.4003 280.095 70.2206 286.875 70.0653C303.065 69.6991 319.255 69.466 335.445 69.4771C349.87 69.4771 364.761 71.0085 378.399 65.8264C382.882 64.1287 383.181 58.0035 378.399 56.4167Z" fill="url(#paint30_linear_377_1652)"/>
<path d="M265.638 49.6145C261.199 49.326 257.127 50.8351 252.777 51.279C248.376 51.6915 243.944 51.6543 239.55 51.168C232.304 50.4356 232.049 62.442 239.55 62.6529C248.683 62.9081 261.177 62.4642 268.279 55.995C270.82 53.6647 268.667 49.8253 265.638 49.6145Z" fill="url(#paint31_linear_377_1652)"/>
<path d="M260.9 24.4698C255.199 23.7903 249.443 23.6974 243.722 24.1924C244.233 23.6387 244.683 23.0325 245.065 22.3837C246.745 19.5031 249.213 17.1623 252.178 15.6371C255.507 13.906 259.391 14.0392 262.598 12.1417C266.581 9.76707 266.004 4.69599 262.598 2.22148C258.159 -1.04087 250.558 0.257416 245.62 1.81092C239.892 3.61245 234.727 6.8656 230.629 11.254C225.824 16.3917 228.21 22.3504 232.515 25.2022L228.853 25.5573C218.123 26.5671 220.087 42.2797 230.84 40.2268C241.936 38.1074 252.566 36.5317 262.919 31.9599C267.069 30.129 264.273 24.9248 260.9 24.4698Z" fill="url(#paint32_linear_377_1652)"/>
<path d="M340.349 297.642C303.221 282.595 254.907 291.961 216.602 298.075C209.622 299.185 211.187 311.069 218.277 310.481C257.903 307.218 301.745 314.786 340.338 305.942C344.866 304.899 343.933 299.096 340.349 297.642Z" fill="url(#paint33_linear_377_1652)"/>
<path d="M347.406 337.988C309.678 337.089 272.527 339.398 234.777 335.414C226.754 334.559 226.665 347.376 234.777 348.042C272.15 351.104 311.52 352.835 348.249 344.191C351.789 343.359 350.912 338.066 347.406 337.988Z" fill="url(#paint34_linear_377_1652)"/>
<path d="M344.766 377.283C314.173 368.595 277.921 373.266 246.673 375.929C241.957 376.329 241.813 383.608 246.673 383.397C278.775 381.955 312.209 387.237 343.923 383.486C347.263 383.053 348.439 378.293 344.766 377.283Z" fill="url(#paint35_linear_377_1652)"/>
<path d="M223.913 385.327C213.927 382.952 203.529 383.108 193.276 382.608C185.153 382.209 185.131 395.636 193.276 395.236C203.529 394.737 213.904 394.892 223.913 392.517C227.497 391.707 227.497 386.159 223.913 385.327Z" fill="url(#paint36_linear_377_1652)"/>
<path d="M235.988 401.461C231.061 401.317 226.001 402.793 221.229 403.68L205.051 406.743C198.937 407.853 201.533 417.95 207.647 416.164C217.201 413.356 228.731 411.603 237.441 406.821C240.016 405.4 238.74 401.55 235.988 401.461Z" fill="url(#paint37_linear_377_1652)"/>
<path d="M255.87 427.105C240.191 422.477 223.824 421.556 207.523 421.445C198.923 421.445 199.145 435.394 207.523 434.661C223.358 433.263 239.104 433.896 254.96 433.873C258.866 433.873 259.61 428.203 255.87 427.105Z" fill="url(#paint38_linear_377_1652)"/>
<path d="M413.781 340.773C409.343 339.664 404.482 340.651 399.866 340.518C394.698 340.367 389.572 339.539 384.62 338.055C376.42 335.647 372.824 348.907 381.102 350.794C391.511 353.168 406.724 355.077 415.679 347.975C418.231 345.944 416.7 341.461 413.781 340.773Z" fill="url(#paint39_linear_377_1652)"/>
<path d="M417.354 313.398C411.617 312.222 405.636 312.755 399.788 312.433C393.408 312.078 387.016 311.667 380.636 311.323C371.259 310.757 371.537 326.692 380.636 325.682C387.016 324.972 393.408 324.229 399.788 323.552C405.636 322.93 411.673 323.219 417.354 321.743C421.326 320.689 421.604 314.264 417.354 313.398Z" fill="url(#paint40_linear_377_1652)"/>
<path d="M399.622 278.955L369.983 277.268C361.317 276.78 362.082 290.994 371.659 289.674L400.509 285.724C404.571 285.18 403.283 279.166 399.622 278.955Z" fill="url(#paint41_linear_377_1652)"/>
<path d="M555.886 159.091C504.953 156.594 451.79 169.244 401.401 176.046C394.111 177.023 395.753 189.917 403.154 189.018C453.665 182.882 508.226 181.695 556.884 166.426C557.735 166.165 558.465 165.61 558.944 164.861C559.423 164.111 559.62 163.216 559.5 162.334C559.38 161.453 558.951 160.643 558.289 160.049C557.627 159.455 556.775 159.115 555.886 159.091Z" fill="url(#paint42_linear_377_1652)"/>
<path d="M573.35 212.808C521.941 203.665 466.969 210.145 415.037 211.443C409.134 211.588 409.112 220.565 415.037 220.631C466.991 221.253 522.074 227.045 573.35 217.236C575.536 216.825 575.559 213.197 573.35 212.808Z" fill="url(#paint43_linear_377_1652)"/>
<path d="M562.82 255.009C517.113 247.363 468.356 251.103 422.139 250.859C416.213 250.859 416.236 259.891 422.139 260.058C468.078 261.334 516.403 266.716 562.065 260.646C564.917 260.269 566.359 255.597 562.82 255.009Z" fill="url(#paint44_linear_377_1652)"/>
<path d="M526.378 299.706C516.646 296.765 507.625 297.486 497.527 296.976C485.435 296.309 473.41 294.736 461.553 292.271C454.728 290.895 451.777 301.148 458.656 302.802C478.63 307.717 506.371 315.008 526.345 307.462C529.984 306.097 530.395 300.915 526.378 299.706Z" fill="url(#paint45_linear_377_1652)"/>
<path d="M505.141 329.687C499.948 329.421 494.81 330.409 489.606 329.965C484.014 329.424 478.527 328.097 473.305 326.026C467.158 323.684 464.106 334.059 470.554 336.012C481.65 339.341 496.164 341.339 506.928 336.123C510.201 334.525 508.292 329.843 505.141 329.687Z" fill="url(#paint46_linear_377_1652)"/>
<path d="M505.152 129.93C495.203 130.246 485.244 130.057 475.314 129.364C467.546 128.842 458.436 126.479 451.39 130.074C449.448 131.062 449.503 133.581 450.746 135.034C456.028 141.204 467.502 141.692 475.314 141.692C485.786 141.414 496.135 139.358 505.918 135.611C508.769 134.502 508.603 129.83 505.152 129.93Z" fill="url(#paint47_linear_377_1652)"/>
<path d="M493.49 103.609C479.486 107.592 466.47 108.902 452.733 103.143C447.983 101.156 445.809 108.979 450.591 110.91C465.017 116.68 482.227 117.146 495.476 108.336C497.84 106.76 496.419 102.765 493.49 103.609Z" fill="url(#paint48_linear_377_1652)"/>
<path d="M490.882 77.8675C474.104 75.1821 456.894 75.4484 439.927 74.8159C432.16 74.5163 432.16 86.8001 439.927 86.8778C456.461 87.0331 473.294 88.1761 489.739 86.3341C494.089 85.8458 496.108 78.7108 490.882 77.8675Z" fill="url(#paint49_linear_377_1652)"/>
<defs>
<linearGradient id="paint0_linear_377_1652" x1="180.367" y1="429.311" x2="143.538" y2="361.894" gradientUnits="userSpaceOnUse">
<stop stop-color="#6C817C"/>
<stop offset="1" stop-color="#F39C11" stop-opacity="0.87"/>
</linearGradient>
<linearGradient id="paint1_linear_377_1652" x1="172.573" y1="402.787" x2="145.171" y2="342.783" gradientUnits="userSpaceOnUse">
<stop stop-color="#6C817C"/>
<stop offset="1" stop-color="#F39C11" stop-opacity="0.87"/>
</linearGradient>
<linearGradient id="paint2_linear_377_1652" x1="168.881" y1="382.231" x2="137.307" y2="323.39" gradientUnits="userSpaceOnUse">
<stop stop-color="#6C817C"/>
<stop offset="1" stop-color="#F39C11" stop-opacity="0.87"/>
</linearGradient>
<linearGradient id="paint3_linear_377_1652" x1="145.689" y1="358.182" x2="108.055" y2="318.464" gradientUnits="userSpaceOnUse">
<stop stop-color="#6C817C"/>
<stop offset="1" stop-color="#F39C11" stop-opacity="0.87"/>
</linearGradient>
<linearGradient id="paint4_linear_377_1652" x1="75.5949" y1="327.857" x2="43.9703" y2="303.082" gradientUnits="userSpaceOnUse">
<stop stop-color="#6C817C"/>
<stop offset="1" stop-color="#F39C11" stop-opacity="0.87"/>
</linearGradient>
<linearGradient id="paint5_linear_377_1652" x1="64.6891" y1="305.175" x2="33.2971" y2="283.589" gradientUnits="userSpaceOnUse">
<stop stop-color="#6C817C"/>
<stop offset="1" stop-color="#F39C11" stop-opacity="0.87"/>
</linearGradient>
<linearGradient id="paint6_linear_377_1652" x1="68.3412" y1="283.195" x2="29.5538" y2="264.522" gradientUnits="userSpaceOnUse">
<stop stop-color="#6C817C"/>
<stop offset="1" stop-color="#F39C11" stop-opacity="0.87"/>
</linearGradient>
<linearGradient id="paint7_linear_377_1652" x1="189.888" y1="304.195" x2="161.49" y2="287.211" gradientUnits="userSpaceOnUse">
<stop stop-color="#6C817C"/>
<stop offset="1" stop-color="#F39C11" stop-opacity="0.87"/>
</linearGradient>
<linearGradient id="paint8_linear_377_1652" x1="194.632" y1="321.638" x2="169.914" y2="306.084" gradientUnits="userSpaceOnUse">
<stop stop-color="#6C817C"/>
<stop offset="1" stop-color="#F39C11" stop-opacity="0.87"/>
</linearGradient>
<linearGradient id="paint9_linear_377_1652" x1="196.92" y1="343.357" x2="172.631" y2="331.601" gradientUnits="userSpaceOnUse">
<stop stop-color="#6C817C"/>
<stop offset="1" stop-color="#F39C11" stop-opacity="0.87"/>
</linearGradient>
<linearGradient id="paint10_linear_377_1652" x1="196.854" y1="268.13" x2="142.766" y2="219.986" gradientUnits="userSpaceOnUse">
<stop stop-color="#6C817C"/>
<stop offset="1" stop-color="#F39C11" stop-opacity="0.87"/>
</linearGradient>
<linearGradient id="paint11_linear_377_1652" x1="190.062" y1="241.827" x2="140.767" y2="195.417" gradientUnits="userSpaceOnUse">
<stop stop-color="#6C817C"/>
<stop offset="1" stop-color="#F39C11" stop-opacity="0.87"/>
</linearGradient>
<linearGradient id="paint12_linear_377_1652" x1="187.785" y1="217.492" x2="163.234" y2="173.731" gradientUnits="userSpaceOnUse">
<stop stop-color="#6C817C"/>
<stop offset="1" stop-color="#F39C11" stop-opacity="0.87"/>
</linearGradient>
<linearGradient id="paint13_linear_377_1652" x1="183.607" y1="194.735" x2="150.737" y2="158.298" gradientUnits="userSpaceOnUse">
<stop stop-color="#6C817C"/>
<stop offset="1" stop-color="#F39C11" stop-opacity="0.87"/>
</linearGradient>
<linearGradient id="paint14_linear_377_1652" x1="59.9547" y1="240.044" x2="36.7625" y2="228.48" gradientUnits="userSpaceOnUse">
<stop stop-color="#6C817C"/>
<stop offset="1" stop-color="#F39C11" stop-opacity="0.87"/>
</linearGradient>
<linearGradient id="paint15_linear_377_1652" x1="57.9375" y1="214.479" x2="30.5212" y2="201.672" gradientUnits="userSpaceOnUse">
<stop stop-color="#6C817C"/>
<stop offset="1" stop-color="#F39C11" stop-opacity="0.87"/>
</linearGradient>
<linearGradient id="paint16_linear_377_1652" x1="62.3986" y1="195.143" x2="36.1102" y2="182.156" gradientUnits="userSpaceOnUse">
<stop stop-color="#6C817C"/>
<stop offset="1" stop-color="#F39C11" stop-opacity="0.87"/>
</linearGradient>
<linearGradient id="paint17_linear_377_1652" x1="158.861" y1="160.802" x2="119.694" y2="92.6808" gradientUnits="userSpaceOnUse">
<stop stop-color="#6C817C"/>
<stop offset="1" stop-color="#F39C11" stop-opacity="0.87"/>
</linearGradient>
<linearGradient id="paint18_linear_377_1652" x1="157.871" y1="134.128" x2="111.738" y2="69.7159" gradientUnits="userSpaceOnUse">
<stop stop-color="#6C817C"/>
<stop offset="1" stop-color="#F39C11" stop-opacity="0.87"/>
</linearGradient>
<linearGradient id="paint19_linear_377_1652" x1="155.731" y1="107.382" x2="115.727" y2="58.2923" gradientUnits="userSpaceOnUse">
<stop stop-color="#6C817C"/>
<stop offset="1" stop-color="#F39C11" stop-opacity="0.87"/>
</linearGradient>
<linearGradient id="paint20_linear_377_1652" x1="147.625" y1="78.6092" x2="108.407" y2="46.028" gradientUnits="userSpaceOnUse">
<stop stop-color="#6C817C"/>
<stop offset="1" stop-color="#F39C11" stop-opacity="0.87"/>
</linearGradient>
<linearGradient id="paint21_linear_377_1652" x1="221.3" y1="88.041" x2="191.892" y2="71.1348" gradientUnits="userSpaceOnUse">
<stop stop-color="#6C817C"/>
<stop offset="1" stop-color="#F39C11" stop-opacity="0.87"/>
</linearGradient>
<linearGradient id="paint22_linear_377_1652" x1="223.395" y1="109.381" x2="193.162" y2="91.6762" gradientUnits="userSpaceOnUse">
<stop stop-color="#6C817C"/>
<stop offset="1" stop-color="#F39C11" stop-opacity="0.87"/>
</linearGradient>
<linearGradient id="paint23_linear_377_1652" x1="221.99" y1="132.311" x2="191.466" y2="117.02" gradientUnits="userSpaceOnUse">
<stop stop-color="#6C817C"/>
<stop offset="1" stop-color="#F39C11" stop-opacity="0.87"/>
</linearGradient>
<linearGradient id="paint24_linear_377_1652" x1="380.038" y1="170.28" x2="337.065" y2="98.7288" gradientUnits="userSpaceOnUse">
<stop stop-color="#6C817C"/>
<stop offset="1" stop-color="#F39C11" stop-opacity="0.87"/>
</linearGradient>
<linearGradient id="paint25_linear_377_1652" x1="369.657" y1="209.474" x2="328.593" y2="146.858" gradientUnits="userSpaceOnUse">
<stop stop-color="#6C817C"/>
<stop offset="1" stop-color="#F39C11" stop-opacity="0.87"/>
</linearGradient>
<linearGradient id="paint26_linear_377_1652" x1="374.913" y1="232.763" x2="338.827" y2="169.352" gradientUnits="userSpaceOnUse">
<stop stop-color="#6C817C"/>
<stop offset="1" stop-color="#F39C11" stop-opacity="0.87"/>
</linearGradient>
<linearGradient id="paint27_linear_377_1652" x1="362.369" y1="266.641" x2="325.104" y2="204.969" gradientUnits="userSpaceOnUse">
<stop stop-color="#6C817C"/>
<stop offset="1" stop-color="#F39C11" stop-opacity="0.87"/>
</linearGradient>
<linearGradient id="paint28_linear_377_1652" x1="417.98" y1="134.81" x2="395.583" y2="81.2084" gradientUnits="userSpaceOnUse">
<stop stop-color="#6C817C"/>
<stop offset="1" stop-color="#F39C11" stop-opacity="0.87"/>
</linearGradient>
<linearGradient id="paint29_linear_377_1652" x1="407.322" y1="102.617" x2="361.514" y2="35.6249" gradientUnits="userSpaceOnUse">
<stop stop-color="#6C817C"/>
<stop offset="1" stop-color="#F39C11" stop-opacity="0.87"/>
</linearGradient>
<linearGradient id="paint30_linear_377_1652" x1="382.707" y1="61.5226" x2="340.328" y2="12.0942" gradientUnits="userSpaceOnUse">
<stop stop-color="#6C817C"/>
<stop offset="1" stop-color="#F39C11" stop-opacity="0.87"/>
</linearGradient>
<linearGradient id="paint31_linear_377_1652" x1="269.697" y1="55.8827" x2="241.76" y2="41.4392" gradientUnits="userSpaceOnUse">
<stop stop-color="#6C817C"/>
<stop offset="1" stop-color="#F39C11" stop-opacity="0.87"/>
</linearGradient>
<linearGradient id="paint32_linear_377_1652" x1="265.737" y1="19.5098" x2="223.874" y2="10.7945" gradientUnits="userSpaceOnUse">
<stop stop-color="#6C817C"/>
<stop offset="1" stop-color="#F39C11" stop-opacity="0.87"/>
</linearGradient>
<linearGradient id="paint33_linear_377_1652" x1="344.489" y1="299.604" x2="290.701" y2="235" gradientUnits="userSpaceOnUse">
<stop stop-color="#6C817C"/>
<stop offset="1" stop-color="#F39C11" stop-opacity="0.87"/>
</linearGradient>
<linearGradient id="paint34_linear_377_1652" x1="351.524" y1="342.659" x2="315.374" y2="286.997" gradientUnits="userSpaceOnUse">
<stop stop-color="#6C817C"/>
<stop offset="1" stop-color="#F39C11" stop-opacity="0.87"/>
</linearGradient>
<linearGradient id="paint35_linear_377_1652" x1="347.894" y1="378.313" x2="318.226" y2="331.349" gradientUnits="userSpaceOnUse">
<stop stop-color="#6C817C"/>
<stop offset="1" stop-color="#F39C11" stop-opacity="0.87"/>
</linearGradient>
<linearGradient id="paint36_linear_377_1652" x1="226.93" y1="388.673" x2="197.872" y2="371.295" gradientUnits="userSpaceOnUse">
<stop stop-color="#6C817C"/>
<stop offset="1" stop-color="#F39C11" stop-opacity="0.87"/>
</linearGradient>
<linearGradient id="paint37_linear_377_1652" x1="239.149" y1="408.619" x2="208.813" y2="394.085" gradientUnits="userSpaceOnUse">
<stop stop-color="#6C817C"/>
<stop offset="1" stop-color="#F39C11" stop-opacity="0.87"/>
</linearGradient>
<linearGradient id="paint38_linear_377_1652" x1="258.792" y1="427.806" x2="224.855" y2="399.712" gradientUnits="userSpaceOnUse">
<stop stop-color="#6C817C"/>
<stop offset="1" stop-color="#F39C11" stop-opacity="0.87"/>
</linearGradient>
<linearGradient id="paint39_linear_377_1652" x1="417.312" y1="345.055" x2="385.162" y2="328.577" gradientUnits="userSpaceOnUse">
<stop stop-color="#6C817C"/>
<stop offset="1" stop-color="#F39C11" stop-opacity="0.87"/>
</linearGradient>
<linearGradient id="paint40_linear_377_1652" x1="420.828" y1="318.234" x2="387.1" y2="297.268" gradientUnits="userSpaceOnUse">
<stop stop-color="#6C817C"/>
<stop offset="1" stop-color="#F39C11" stop-opacity="0.87"/>
</linearGradient>
<linearGradient id="paint41_linear_377_1652" x1="403.344" y1="283.261" x2="374.58" y2="266.025" gradientUnits="userSpaceOnUse">
<stop stop-color="#6C817C"/>
<stop offset="1" stop-color="#F39C11" stop-opacity="0.87"/>
</linearGradient>
<linearGradient id="paint42_linear_377_1652" x1="560.891" y1="173.318" x2="481.911" y2="91.887" gradientUnits="userSpaceOnUse">
<stop stop-color="#6C817C"/>
<stop offset="1" stop-color="#F39C11" stop-opacity="0.87"/>
</linearGradient>
<linearGradient id="paint43_linear_377_1652" x1="576.368" y1="215.155" x2="546.378" y2="151.642" gradientUnits="userSpaceOnUse">
<stop stop-color="#6C817C"/>
<stop offset="1" stop-color="#F39C11" stop-opacity="0.87"/>
</linearGradient>
<linearGradient id="paint44_linear_377_1652" x1="566.134" y1="256.554" x2="539.315" y2="199.712" gradientUnits="userSpaceOnUse">
<stop stop-color="#6C817C"/>
<stop offset="1" stop-color="#F39C11" stop-opacity="0.87"/>
</linearGradient>
<linearGradient id="paint45_linear_377_1652" x1="529.856" y1="301.063" x2="483.034" y2="265.037" gradientUnits="userSpaceOnUse">
<stop stop-color="#6C817C"/>
<stop offset="1" stop-color="#F39C11" stop-opacity="0.87"/>
</linearGradient>
<linearGradient id="paint46_linear_377_1652" x1="508.98" y1="332.232" x2="477.947" y2="314.044" gradientUnits="userSpaceOnUse">
<stop stop-color="#6C817C"/>
<stop offset="1" stop-color="#F39C11" stop-opacity="0.87"/>
</linearGradient>
<linearGradient id="paint47_linear_377_1652" x1="508.395" y1="134.638" x2="473.675" y2="106.156" gradientUnits="userSpaceOnUse">
<stop stop-color="#6C817C"/>
<stop offset="1" stop-color="#F39C11" stop-opacity="0.87"/>
</linearGradient>
<linearGradient id="paint48_linear_377_1652" x1="497.071" y1="108.728" x2="466.162" y2="85.2226" gradientUnits="userSpaceOnUse">
<stop stop-color="#6C817C"/>
<stop offset="1" stop-color="#F39C11" stop-opacity="0.87"/>
</linearGradient>
<linearGradient id="paint49_linear_377_1652" x1="494.496" y1="80.8426" x2="461.865" y2="50.9953" gradientUnits="userSpaceOnUse">
<stop stop-color="#6C817C"/>
<stop offset="1" stop-color="#F39C11" stop-opacity="0.87"/>
</linearGradient>
</defs>
</svg>
