<svg width="575" height="386" viewBox="0 0 575 386" fill="none" xmlns="http://www.w3.org/2000/svg">
<path d="M501.889 323.673C516.824 320.033 532.637 324.228 547.706 325.659C550.979 325.959 552.322 331.141 548.549 331.862C533.014 334.825 515.371 337.477 501.201 328.922C500.727 328.627 500.348 328.201 500.109 327.697C499.87 327.192 499.782 326.629 499.855 326.076C499.927 325.522 500.158 325.001 500.518 324.575C500.879 324.149 501.355 323.836 501.889 323.673Z" fill="url(#paint0_linear_377_1608)"/>
<path d="M512.608 301.524C518.633 300.204 523.349 301.102 529.485 301.28C536.275 301.458 543.063 300.855 549.714 299.482C557.038 297.995 559.945 309.469 552.766 310.579C539.727 312.521 522.361 314.44 511.454 305.863C509.945 304.642 510.877 301.912 512.608 301.524Z" fill="url(#paint1_linear_377_1608)"/>
<path d="M509.911 274.969C521.884 272.994 535.788 276.9 547.739 278.476C558.558 279.896 556.205 295.82 545.752 293.145C534.068 290.149 519.309 288.629 508.945 282.326C506.249 280.673 506.327 275.557 509.911 274.969Z" fill="url(#paint2_linear_377_1608)"/>
<path d="M387.891 299.449C397.878 297.807 408.353 299.061 418.45 299.449C425.985 299.704 425.619 311.844 418.45 310.934C408.397 309.658 397.523 309.358 387.891 306.129C384.972 305.108 384.273 300.037 387.891 299.449Z" fill="url(#paint3_linear_377_1608)"/>
<path d="M382.346 320.132C386.319 318.157 390.746 318.401 395.118 318.079L410.176 316.97C416.757 316.504 416.834 327.312 410.176 327.312L396.128 327.312C391.867 327.312 387.151 328.022 383.168 326.402C380.704 325.492 379.406 321.586 382.346 320.132Z" fill="url(#paint4_linear_377_1608)"/>
<path d="M380.548 339.375C383.955 337.355 387.594 338.132 391.4 338.343L403.029 338.964C410.02 339.341 410.064 350.26 403.029 349.883L391.4 349.251C387.75 349.062 383.633 349.572 380.548 347.309C377.851 345.311 377.341 341.272 380.548 339.375Z" fill="url(#paint5_linear_377_1608)"/>
<path d="M381.812 259.769C393.807 256.784 406.369 259.625 418.497 261.445C435.841 264.053 453.129 266.649 470.584 268.425C477.419 269.124 477.752 279.521 470.584 279.343C444.441 278.766 403.661 282.206 380.847 267.137C378.084 265.284 378.295 260.646 381.812 259.769Z" fill="url(#paint6_linear_377_1608)"/>
<path d="M387.973 235.546C416.613 229.077 448.393 236.589 476.001 244.712C480.617 246.076 478.697 253.023 474.015 251.913C445.386 245.111 416.779 246.01 387.973 241.638C384.844 241.161 385.077 236.201 387.973 235.546Z" fill="url(#paint7_linear_377_1608)"/>
<path d="M391.19 213.984C422.715 210.322 455.605 214.706 487.23 216.204C491.668 216.425 491.668 223.117 487.23 223.094C455.283 222.95 421.927 225.536 390.358 220.143C386.541 219.532 387.972 214.35 391.19 213.984Z" fill="url(#paint8_linear_377_1608)"/>
<path d="M395.952 189.473C417.279 188.119 438.562 190.283 459.967 189.473C467.036 189.207 466.903 199.881 459.967 200.392C438.074 201.979 416.192 203.133 394.876 197.385C390.348 196.153 391.524 189.75 395.952 189.473Z" fill="url(#paint9_linear_377_1608)"/>
<path d="M518.644 235.111C521.973 235.821 524.88 237.763 528.264 238.496C531.981 239.289 535.82 239.323 539.55 238.596C544.321 237.686 546.207 245.154 541.525 245.786C533.258 246.896 521.263 246.108 515.725 238.906C514.272 236.964 516.735 234.701 518.644 235.111Z" fill="url(#paint10_linear_377_1608)"/>
<path d="M519.585 210.944C527.786 209.557 535.842 208.858 544.142 208.281C553.552 207.637 552.797 223.605 542.311 221.829C534.61 220.509 527.12 219.111 519.585 217.036C516.767 216.259 516.423 211.488 519.585 210.944Z" fill="url(#paint11_linear_377_1608)"/>
<path d="M514.936 191.847C523.181 189.894 530.96 189.627 539.415 189.416C547.871 189.206 547.338 203.021 539.415 202.055C530.926 201.023 523.059 200.147 514.936 197.395C512.395 196.529 511.985 192.546 514.936 191.847Z" fill="url(#paint12_linear_377_1608)"/>
<path d="M421.938 152.832C472.017 156.072 521.019 162.297 571.396 161.709C576.212 161.709 576.19 169.011 571.396 169.177C521.784 170.897 469.598 171.552 420.718 161.831C415.68 160.855 416.767 152.499 421.938 152.832Z" fill="url(#paint13_linear_377_1608)"/>
<path d="M420.107 133.823C461.851 127.165 505.427 130.15 547.638 125.567C556.382 124.624 556.515 138.583 547.638 139.349C506.481 142.955 460.675 148.437 420.107 138.805C417.754 138.25 417.543 134.234 420.107 133.823Z" fill="url(#paint14_linear_377_1608)"/>
<path d="M422.359 105.384C450.655 96.7511 485.22 101.567 514.46 101.556C522.227 101.556 522.227 113.473 514.46 113.618C485.165 114.139 450.733 119.576 422.359 111.476C421.706 111.277 421.135 110.873 420.729 110.325C420.323 109.777 420.104 109.112 420.104 108.43C420.104 107.748 420.323 107.084 420.729 106.535C421.135 105.987 421.706 105.583 422.359 105.384Z" fill="url(#paint15_linear_377_1608)"/>
<path d="M431.399 76.4335C448.299 70.1196 469.538 71.6509 487.248 72.1835C496.502 72.4609 496.458 87.0749 487.248 86.5423C468.828 85.4882 449.597 88.3843 431.399 85.8543C426.117 85.1109 427.471 77.9093 431.399 76.4335Z" fill="url(#paint16_linear_377_1608)"/>
<path d="M356.889 86.2087C366.266 82.2584 377.551 82.8799 387.615 82.1586C394.983 81.626 394.95 93.1108 387.615 93.6545C377.54 94.3869 366.754 96.5285 356.889 93.9541C352.662 92.8556 353.505 87.6291 356.889 86.2087Z" fill="url(#paint17_linear_377_1608)"/>
<path d="M353.782 104.186C364.534 102.588 375.631 103.753 386.472 104.075C395.527 104.341 393.962 118.356 384.785 116.481C374.477 114.384 363.58 113.074 353.782 109.168C351.74 108.358 350.952 104.608 353.782 104.186Z" fill="url(#paint18_linear_377_1608)"/>
<path d="M355.058 133.748C364.257 129.464 375.22 128.111 385.018 125.814C391.588 124.271 394.24 134.691 387.77 135.8C377.784 137.465 366.909 140.616 356.7 140.239C353.66 140.039 351.762 135.29 355.058 133.748Z" fill="url(#paint19_linear_377_1608)"/>
<path d="M199.175 171.752C247.223 155.928 306.234 161.765 355.447 168.911C359.941 169.566 358.853 177 354.337 176.812C303.049 174.714 251.007 182.67 200.207 179.652C199.252 179.618 198.34 179.246 197.633 178.603C196.926 177.96 196.47 177.087 196.346 176.139C196.222 175.191 196.439 174.23 196.957 173.427C197.475 172.623 198.261 172.03 199.175 171.752Z" fill="url(#paint20_linear_377_1608)"/>
<path d="M209.76 204.763C251.106 197.583 297.211 204.763 339.067 205.417C344.294 205.495 344.172 213.074 339.067 213.462C297.877 216.547 250.296 223.571 209.76 213.629C205.566 212.597 205.211 205.562 209.76 204.763Z" fill="url(#paint21_linear_377_1608)"/>
<path d="M203.849 231.172C250.454 227.466 297.059 230.395 343.786 225.435C350.444 224.725 350.344 235.067 343.786 235.766C298.08 240.637 248.568 245.52 203.161 236.254C200.176 235.666 201.108 231.427 203.849 231.172Z" fill="url(#paint22_linear_377_1608)"/>
<path d="M216.818 259.259C260.638 261.045 303.37 264.896 347.234 260.923C355.002 260.235 354.935 272.33 347.234 272.985C303.592 276.702 258.463 277.424 215.986 265.473C212.679 264.529 213.234 259.114 216.818 259.259Z" fill="url(#paint23_linear_377_1608)"/>
<path d="M161.149 132.994C208.486 126.635 258.176 130.353 305.813 131.551C309.886 131.651 309.874 137.698 305.813 137.865C258.232 139.818 208.553 144.345 161.149 138.742C160.387 138.742 159.656 138.439 159.117 137.9C158.578 137.361 158.275 136.63 158.275 135.868C158.275 135.105 158.578 134.374 159.117 133.835C159.656 133.296 160.387 132.994 161.149 132.994Z" fill="url(#paint24_linear_377_1608)"/>
<path d="M173.055 94.0977C217.33 92.8327 261.449 99.2576 305.912 97.7152C314.79 97.4045 314.79 111.142 305.912 111.497C262.159 113.25 214.3 115.203 171.912 102.553C170.937 102.248 170.101 101.608 169.552 100.746C169.004 99.8841 168.778 98.8557 168.915 97.8431C169.051 96.8305 169.542 95.8991 170.3 95.2136C171.058 94.5281 172.034 94.1328 173.055 94.0977Z" fill="url(#paint25_linear_377_1608)"/>
<path d="M196.601 56.7819C210.472 52.1436 225.219 54.4294 239.555 55.5835C255.764 56.8929 271.953 58.3983 288.125 60.0997C294.594 60.7655 294.905 70.5859 288.125 70.4305C271.935 70.0643 255.745 69.8313 239.555 69.8424C225.13 69.8424 210.239 71.3737 196.601 66.1917C192.118 64.4939 191.819 58.3687 196.601 56.7819Z" fill="url(#paint26_linear_377_1608)"/>
<path d="M309.362 49.9797C313.801 49.6912 317.873 51.2004 322.223 51.6442C326.624 52.0567 331.056 52.0195 335.45 51.5332C342.696 50.8009 342.951 62.8073 335.45 63.0181C326.317 63.2733 313.823 62.8294 306.721 56.3602C304.18 54.03 306.333 50.1906 309.362 49.9797Z" fill="url(#paint27_linear_377_1608)"/>
<path d="M314.1 24.8351C319.801 24.1556 325.557 24.0626 331.278 24.5577C330.767 24.004 330.317 23.3977 329.935 22.749C328.255 19.8683 325.787 17.5276 322.822 16.0023C319.493 14.2713 315.609 14.4044 312.402 12.5069C308.419 10.1323 308.996 5.06122 312.402 2.58672C316.841 -0.67564 324.442 0.622651 329.38 2.17615C335.108 3.97769 340.273 7.23084 344.371 11.6192C349.176 16.7569 346.79 22.7157 342.485 25.5675L346.147 25.9225C356.877 26.9323 354.913 42.6449 344.16 40.5921C333.064 38.4726 322.434 36.8969 312.081 32.3252C307.931 30.4943 310.727 25.29 314.1 24.8351Z" fill="url(#paint28_linear_377_1608)"/>
<path d="M234.651 298.007C271.779 282.961 320.093 292.326 358.398 298.44C365.378 299.55 363.813 311.434 356.723 310.846C317.097 307.584 273.255 315.151 234.662 306.308C230.134 305.264 231.067 299.461 234.651 298.007Z" fill="url(#paint29_linear_377_1608)"/>
<path d="M227.594 338.354C265.322 337.455 302.473 339.763 340.223 335.779C348.246 334.925 348.335 347.741 340.223 348.407C302.85 351.47 263.48 353.201 226.751 344.556C223.211 343.724 224.088 338.431 227.594 338.354Z" fill="url(#paint30_linear_377_1608)"/>
<path d="M230.234 377.648C260.827 368.96 297.079 373.631 328.327 376.295C333.043 376.694 333.187 383.973 328.327 383.762C296.225 382.32 262.791 387.602 231.077 383.851C227.737 383.418 226.561 378.658 230.234 377.648Z" fill="url(#paint31_linear_377_1608)"/>
<path d="M161.219 341.139C165.657 340.029 170.518 341.017 175.134 340.884C180.302 340.732 185.428 339.904 190.38 338.42C198.58 336.012 202.176 349.272 193.898 351.159C183.489 353.533 168.276 355.442 159.321 348.34C156.769 346.31 158.3 341.827 161.219 341.139Z" fill="url(#paint32_linear_377_1608)"/>
<path d="M157.646 313.764C163.383 312.587 169.364 313.12 175.212 312.798C181.592 312.443 187.984 312.033 194.364 311.689C203.741 311.123 203.463 327.057 194.364 326.047C187.984 325.337 181.592 324.594 175.212 323.917C169.364 323.295 163.327 323.584 157.646 322.108C153.674 321.054 153.396 314.629 157.646 313.764Z" fill="url(#paint33_linear_377_1608)"/>
<path d="M175.378 279.32L205.017 277.633C213.683 277.145 212.918 291.36 203.341 290.039L174.491 286.089C170.429 285.545 171.717 279.531 175.378 279.32Z" fill="url(#paint34_linear_377_1608)"/>
<path d="M19.1142 159.456C70.0469 156.96 123.21 169.61 173.599 176.412C180.889 177.388 179.247 190.282 171.846 189.383C121.335 183.247 66.7735 182.06 18.1156 166.791C17.2652 166.53 16.5352 165.975 16.056 165.226C15.5768 164.476 15.3797 163.581 15.4997 162.699C15.6197 161.818 16.0491 161.008 16.7112 160.414C17.3733 159.82 18.2249 159.48 19.1142 159.456Z" fill="url(#paint35_linear_377_1608)"/>
<path d="M1.64957 213.174C53.0594 204.03 108.031 210.51 159.963 211.809C165.866 211.953 165.888 220.93 159.963 220.997C108.009 221.618 52.9263 227.41 1.64957 217.601C-0.536439 217.19 -0.558625 213.562 1.64957 213.174Z" fill="url(#paint36_linear_377_1608)"/>
<path d="M12.1803 255.374C57.8866 247.729 106.644 251.468 152.861 251.224C158.787 251.224 158.764 260.257 152.861 260.423C106.922 261.699 58.5968 267.081 12.9349 261.011C10.0831 260.634 8.64052 255.962 12.1803 255.374Z" fill="url(#paint37_linear_377_1608)"/>
<path d="M48.6221 300.071C58.3537 297.13 67.3751 297.852 77.4728 297.341C89.5651 296.674 101.59 295.101 113.447 292.636C120.272 291.26 123.223 301.514 116.344 303.167C96.37 308.083 68.6289 315.373 48.6553 307.827C45.0156 306.463 44.6052 301.281 48.6221 300.071Z" fill="url(#paint38_linear_377_1608)"/>
<path d="M69.859 330.053C75.0521 329.786 80.1898 330.774 85.394 330.33C90.9855 329.789 96.4729 328.463 101.695 326.391C107.842 324.05 110.894 334.425 104.446 336.378C93.35 339.707 78.8359 341.704 68.0723 336.489C64.7989 334.891 66.7076 330.208 69.859 330.053Z" fill="url(#paint39_linear_377_1608)"/>
<path d="M69.8482 130.295C79.7974 130.611 89.7563 130.423 99.6864 129.729C107.454 129.208 116.564 126.844 123.61 130.439C125.552 131.427 125.497 133.946 124.254 135.399C118.972 141.569 107.498 142.057 99.6864 142.057C89.2142 141.779 78.8655 139.723 69.0824 135.976C66.2307 134.867 66.3972 130.195 69.8482 130.295Z" fill="url(#paint40_linear_377_1608)"/>
<path d="M81.5101 103.974C95.5138 107.957 108.53 109.267 122.267 103.508C127.017 101.522 129.191 109.345 124.409 111.275C109.983 117.045 92.7729 117.512 79.5238 108.701C77.1602 107.125 78.5806 103.131 81.5101 103.974Z" fill="url(#paint41_linear_377_1608)"/>
<path d="M84.1179 78.2327C100.896 75.5474 118.106 75.8137 135.073 75.1812C142.84 74.8816 142.84 87.1653 135.073 87.243C118.539 87.3984 101.706 88.5413 85.2608 86.6993C80.911 86.211 78.8915 79.076 84.1179 78.2327Z" fill="url(#paint42_linear_377_1608)"/>
<defs>
<linearGradient id="paint0_linear_377_1608" x1="499.405" y1="328.222" x2="531.03" y2="303.447" gradientUnits="userSpaceOnUse">
<stop stop-color="#6C817C"/>
<stop offset="1" stop-color="#F39C11" stop-opacity="0.87"/>
</linearGradient>
<linearGradient id="paint1_linear_377_1608" x1="510.311" y1="305.54" x2="541.703" y2="283.954" gradientUnits="userSpaceOnUse">
<stop stop-color="#6C817C"/>
<stop offset="1" stop-color="#F39C11" stop-opacity="0.87"/>
</linearGradient>
<linearGradient id="paint2_linear_377_1608" x1="506.659" y1="283.56" x2="545.446" y2="264.887" gradientUnits="userSpaceOnUse">
<stop stop-color="#6C817C"/>
<stop offset="1" stop-color="#F39C11" stop-opacity="0.87"/>
</linearGradient>
<linearGradient id="paint3_linear_377_1608" x1="385.112" y1="304.56" x2="413.51" y2="287.576" gradientUnits="userSpaceOnUse">
<stop stop-color="#6C817C"/>
<stop offset="1" stop-color="#F39C11" stop-opacity="0.87"/>
</linearGradient>
<linearGradient id="paint4_linear_377_1608" x1="380.368" y1="322.003" x2="405.086" y2="306.449" gradientUnits="userSpaceOnUse">
<stop stop-color="#6C817C"/>
<stop offset="1" stop-color="#F39C11" stop-opacity="0.87"/>
</linearGradient>
<linearGradient id="paint5_linear_377_1608" x1="378.08" y1="343.722" x2="402.369" y2="331.967" gradientUnits="userSpaceOnUse">
<stop stop-color="#6C817C"/>
<stop offset="1" stop-color="#F39C11" stop-opacity="0.87"/>
</linearGradient>
<linearGradient id="paint6_linear_377_1608" x1="378.146" y1="268.495" x2="432.234" y2="220.351" gradientUnits="userSpaceOnUse">
<stop stop-color="#6C817C"/>
<stop offset="1" stop-color="#F39C11" stop-opacity="0.87"/>
</linearGradient>
<linearGradient id="paint7_linear_377_1608" x1="384.938" y1="242.193" x2="434.233" y2="195.782" gradientUnits="userSpaceOnUse">
<stop stop-color="#6C817C"/>
<stop offset="1" stop-color="#F39C11" stop-opacity="0.87"/>
</linearGradient>
<linearGradient id="paint8_linear_377_1608" x1="387.215" y1="217.857" x2="411.766" y2="174.097" gradientUnits="userSpaceOnUse">
<stop stop-color="#6C817C"/>
<stop offset="1" stop-color="#F39C11" stop-opacity="0.87"/>
</linearGradient>
<linearGradient id="paint9_linear_377_1608" x1="391.393" y1="195.1" x2="424.263" y2="158.663" gradientUnits="userSpaceOnUse">
<stop stop-color="#6C817C"/>
<stop offset="1" stop-color="#F39C11" stop-opacity="0.87"/>
</linearGradient>
<linearGradient id="paint10_linear_377_1608" x1="515.045" y1="240.409" x2="538.238" y2="228.846" gradientUnits="userSpaceOnUse">
<stop stop-color="#6C817C"/>
<stop offset="1" stop-color="#F39C11" stop-opacity="0.87"/>
</linearGradient>
<linearGradient id="paint11_linear_377_1608" x1="517.062" y1="214.844" x2="544.479" y2="202.037" gradientUnits="userSpaceOnUse">
<stop stop-color="#6C817C"/>
<stop offset="1" stop-color="#F39C11" stop-opacity="0.87"/>
</linearGradient>
<linearGradient id="paint12_linear_377_1608" x1="512.601" y1="195.508" x2="538.89" y2="182.521" gradientUnits="userSpaceOnUse">
<stop stop-color="#6C817C"/>
<stop offset="1" stop-color="#F39C11" stop-opacity="0.87"/>
</linearGradient>
<linearGradient id="paint13_linear_377_1608" x1="416.139" y1="161.167" x2="455.306" y2="93.0461" gradientUnits="userSpaceOnUse">
<stop stop-color="#6C817C"/>
<stop offset="1" stop-color="#F39C11" stop-opacity="0.87"/>
</linearGradient>
<linearGradient id="paint14_linear_377_1608" x1="417.129" y1="134.493" x2="463.262" y2="70.0811" gradientUnits="userSpaceOnUse">
<stop stop-color="#6C817C"/>
<stop offset="1" stop-color="#F39C11" stop-opacity="0.87"/>
</linearGradient>
<linearGradient id="paint15_linear_377_1608" x1="419.269" y1="107.747" x2="459.273" y2="58.6575" gradientUnits="userSpaceOnUse">
<stop stop-color="#6C817C"/>
<stop offset="1" stop-color="#F39C11" stop-opacity="0.87"/>
</linearGradient>
<linearGradient id="paint16_linear_377_1608" x1="427.375" y1="78.9744" x2="466.593" y2="46.3933" gradientUnits="userSpaceOnUse">
<stop stop-color="#6C817C"/>
<stop offset="1" stop-color="#F39C11" stop-opacity="0.87"/>
</linearGradient>
<linearGradient id="paint17_linear_377_1608" x1="353.7" y1="88.4063" x2="383.108" y2="71.5" gradientUnits="userSpaceOnUse">
<stop stop-color="#6C817C"/>
<stop offset="1" stop-color="#F39C11" stop-opacity="0.87"/>
</linearGradient>
<linearGradient id="paint18_linear_377_1608" x1="351.605" y1="109.746" x2="381.838" y2="92.0414" gradientUnits="userSpaceOnUse">
<stop stop-color="#6C817C"/>
<stop offset="1" stop-color="#F39C11" stop-opacity="0.87"/>
</linearGradient>
<linearGradient id="paint19_linear_377_1608" x1="353.01" y1="132.676" x2="383.534" y2="117.385" gradientUnits="userSpaceOnUse">
<stop stop-color="#6C817C"/>
<stop offset="1" stop-color="#F39C11" stop-opacity="0.87"/>
</linearGradient>
<linearGradient id="paint20_linear_377_1608" x1="194.962" y1="170.645" x2="237.935" y2="99.094" gradientUnits="userSpaceOnUse">
<stop stop-color="#6C817C"/>
<stop offset="1" stop-color="#F39C11" stop-opacity="0.87"/>
</linearGradient>
<linearGradient id="paint21_linear_377_1608" x1="205.343" y1="209.84" x2="246.407" y2="147.223" gradientUnits="userSpaceOnUse">
<stop stop-color="#6C817C"/>
<stop offset="1" stop-color="#F39C11" stop-opacity="0.87"/>
</linearGradient>
<linearGradient id="paint22_linear_377_1608" x1="200.087" y1="233.129" x2="236.173" y2="169.717" gradientUnits="userSpaceOnUse">
<stop stop-color="#6C817C"/>
<stop offset="1" stop-color="#F39C11" stop-opacity="0.87"/>
</linearGradient>
<linearGradient id="paint23_linear_377_1608" x1="212.631" y1="267.006" x2="249.896" y2="205.335" gradientUnits="userSpaceOnUse">
<stop stop-color="#6C817C"/>
<stop offset="1" stop-color="#F39C11" stop-opacity="0.87"/>
</linearGradient>
<linearGradient id="paint24_linear_377_1608" x1="157.02" y1="135.175" x2="179.417" y2="81.5737" gradientUnits="userSpaceOnUse">
<stop stop-color="#6C817C"/>
<stop offset="1" stop-color="#F39C11" stop-opacity="0.87"/>
</linearGradient>
<linearGradient id="paint25_linear_377_1608" x1="167.678" y1="102.983" x2="213.486" y2="35.9901" gradientUnits="userSpaceOnUse">
<stop stop-color="#6C817C"/>
<stop offset="1" stop-color="#F39C11" stop-opacity="0.87"/>
</linearGradient>
<linearGradient id="paint26_linear_377_1608" x1="192.293" y1="61.8878" x2="234.672" y2="12.4594" gradientUnits="userSpaceOnUse">
<stop stop-color="#6C817C"/>
<stop offset="1" stop-color="#F39C11" stop-opacity="0.87"/>
</linearGradient>
<linearGradient id="paint27_linear_377_1608" x1="305.303" y1="56.2479" x2="333.24" y2="41.8044" gradientUnits="userSpaceOnUse">
<stop stop-color="#6C817C"/>
<stop offset="1" stop-color="#F39C11" stop-opacity="0.87"/>
</linearGradient>
<linearGradient id="paint28_linear_377_1608" x1="309.263" y1="19.875" x2="351.126" y2="11.1597" gradientUnits="userSpaceOnUse">
<stop stop-color="#6C817C"/>
<stop offset="1" stop-color="#F39C11" stop-opacity="0.87"/>
</linearGradient>
<linearGradient id="paint29_linear_377_1608" x1="230.511" y1="299.969" x2="284.299" y2="235.365" gradientUnits="userSpaceOnUse">
<stop stop-color="#6C817C"/>
<stop offset="1" stop-color="#F39C11" stop-opacity="0.87"/>
</linearGradient>
<linearGradient id="paint30_linear_377_1608" x1="223.476" y1="343.024" x2="259.626" y2="287.362" gradientUnits="userSpaceOnUse">
<stop stop-color="#6C817C"/>
<stop offset="1" stop-color="#F39C11" stop-opacity="0.87"/>
</linearGradient>
<linearGradient id="paint31_linear_377_1608" x1="227.106" y1="378.678" x2="256.774" y2="331.714" gradientUnits="userSpaceOnUse">
<stop stop-color="#6C817C"/>
<stop offset="1" stop-color="#F39C11" stop-opacity="0.87"/>
</linearGradient>
<linearGradient id="paint32_linear_377_1608" x1="157.688" y1="345.421" x2="189.838" y2="328.942" gradientUnits="userSpaceOnUse">
<stop stop-color="#6C817C"/>
<stop offset="1" stop-color="#F39C11" stop-opacity="0.87"/>
</linearGradient>
<linearGradient id="paint33_linear_377_1608" x1="154.172" y1="318.599" x2="187.9" y2="297.634" gradientUnits="userSpaceOnUse">
<stop stop-color="#6C817C"/>
<stop offset="1" stop-color="#F39C11" stop-opacity="0.87"/>
</linearGradient>
<linearGradient id="paint34_linear_377_1608" x1="171.656" y1="283.627" x2="200.42" y2="266.39" gradientUnits="userSpaceOnUse">
<stop stop-color="#6C817C"/>
<stop offset="1" stop-color="#F39C11" stop-opacity="0.87"/>
</linearGradient>
<linearGradient id="paint35_linear_377_1608" x1="14.1086" y1="173.684" x2="93.0886" y2="92.2522" gradientUnits="userSpaceOnUse">
<stop stop-color="#6C817C"/>
<stop offset="1" stop-color="#F39C11" stop-opacity="0.87"/>
</linearGradient>
<linearGradient id="paint36_linear_377_1608" x1="-1.36803" y1="215.52" x2="28.6222" y2="152.007" gradientUnits="userSpaceOnUse">
<stop stop-color="#6C817C"/>
<stop offset="1" stop-color="#F39C11" stop-opacity="0.87"/>
</linearGradient>
<linearGradient id="paint37_linear_377_1608" x1="8.86556" y1="256.919" x2="35.6847" y2="200.077" gradientUnits="userSpaceOnUse">
<stop stop-color="#6C817C"/>
<stop offset="1" stop-color="#F39C11" stop-opacity="0.87"/>
</linearGradient>
<linearGradient id="paint38_linear_377_1608" x1="45.1444" y1="301.429" x2="91.9661" y2="265.402" gradientUnits="userSpaceOnUse">
<stop stop-color="#6C817C"/>
<stop offset="1" stop-color="#F39C11" stop-opacity="0.87"/>
</linearGradient>
<linearGradient id="paint39_linear_377_1608" x1="66.0203" y1="332.598" x2="97.0529" y2="314.409" gradientUnits="userSpaceOnUse">
<stop stop-color="#6C817C"/>
<stop offset="1" stop-color="#F39C11" stop-opacity="0.87"/>
</linearGradient>
<linearGradient id="paint40_linear_377_1608" x1="66.6052" y1="135.003" x2="101.325" y2="106.522" gradientUnits="userSpaceOnUse">
<stop stop-color="#6C817C"/>
<stop offset="1" stop-color="#F39C11" stop-opacity="0.87"/>
</linearGradient>
<linearGradient id="paint41_linear_377_1608" x1="77.9289" y1="109.093" x2="108.838" y2="85.5879" gradientUnits="userSpaceOnUse">
<stop stop-color="#6C817C"/>
<stop offset="1" stop-color="#F39C11" stop-opacity="0.87"/>
</linearGradient>
<linearGradient id="paint42_linear_377_1608" x1="80.5039" y1="81.2078" x2="113.135" y2="51.3605" gradientUnits="userSpaceOnUse">
<stop stop-color="#6C817C"/>
<stop offset="1" stop-color="#F39C11" stop-opacity="0.87"/>
</linearGradient>
</defs>
</svg>
