<?xml version="1.0" standalone="no"?>
<!DOCTYPE svg PUBLIC "-//W3C//DTD SVG 1.1//EN" "http://www.w3.org/Graphics/SVG/1.1/DTD/svg11.dtd" >
<svg xmlns="http://www.w3.org/2000/svg" xmlns:xlink="http://www.w3.org/1999/xlink" version="1.1">
<metadata>
Created by FontForge 20190801 at Fri May 24 01:12:40 2019
 By www-data
Copyright (c) ParaType, Inc., 2007. All rights reserved. |DCNT
</metadata>
<defs>
<font id="PARANGON430C" horiz-adv-x="630" >
  <font-face 
    font-family="PARANGON430C"
    font-weight="500"
    font-stretch="normal"
    units-per-em="1000"
    panose-1="2 11 7 3 3 5 2 2 2 4"
    ascent="700"
    descent="-300"
    x-height="500"
    cap-height="700"
    bbox="-30 -318 1484 875"
    underline-thickness="50"
    underline-position="-200"
    unicode-range="U+000D-FEFF"
  />
<missing-glyph horiz-adv-x="500" 
d="M58 8h384v496h-384v-496zM50 0v512h400v-512h-400z" />
    <glyph glyph-name="fi" unicode="fi" horiz-adv-x="570" 
d="M324 500v-98h-128v-402h-136v479q0 112 57 167q34 34 75 44t98 10h220v-118h-136v20h-90q-52 0 -72 -24q-16 -18 -16 -58v-20h128zM510 0h-136v500h136v-500z" />
    <glyph glyph-name="fl" unicode="fl" horiz-adv-x="570" 
d="M324 500v-98h-128v-402h-136v479q0 112 57 167q34 34 75 44t98 10h220v-700h-136v602h-90q-52 0 -72 -24q-16 -18 -16 -58v-20h128z" />
    <glyph glyph-name=".notdef" horiz-adv-x="500" 
d="M58 8h384v496h-384v-496zM50 0v512h400v-512h-400z" />
    <glyph glyph-name=".null" horiz-adv-x="0" 
 />
    <glyph glyph-name=".null" horiz-adv-x="0" 
 />
    <glyph glyph-name="nonmarkingreturn" horiz-adv-x="333" 
 />
    <glyph glyph-name="CR" unicode="&#xd;" horiz-adv-x="233" 
 />
    <glyph glyph-name="space" unicode=" " horiz-adv-x="233" 
 />
    <glyph glyph-name="exclam" unicode="!" horiz-adv-x="308" 
d="M80 700h148l-15 -500h-118zM81 132h146v-132h-146v132z" />
    <glyph glyph-name="quotedbl" unicode="&#x22;" horiz-adv-x="448" 
d="M50 700h124v-125l-33 -135h-58l-33 135v125zM274 700h124v-125l-33 -135h-58l-33 135v125z" />
    <glyph glyph-name="numbersign" unicode="#" horiz-adv-x="710" 
d="M119 509h114l38 191h93l-38 -191h117l37 191h93l-37 -191h114l-18 -95h-114l-23 -113h114l-18 -95h-114l-41 -206h-93l41 206h-117l-41 -206h-93l41 206h-114l18 95h114l23 113h-114zM402 301l23 113h-117l-23 -113h117z" />
    <glyph glyph-name="dollar" unicode="$" horiz-adv-x="682" 
d="M60 235h139q-2 -79 50 -119q30 -23 63 -26v220q-103 17 -167 65q-68 54 -64 139q4 93 76 144q68 48 155 46v80h58v-80q84 -4 149 -51q89 -65 89 -193h-136q2 85 -44 124q-27 22 -58 24v-200q104 -22 160 -55q92 -56 92 -161q0 -102 -88 -157q-70 -43 -164 -43v-81h-58v81
q-83 1 -146 45q-45 31 -73 83t-33 115zM312 421v187q-38 -2 -63 -19q-35 -24 -37 -66q-4 -44 35 -74q18 -15 65 -28zM370 296v-206q40 2 69 18q47 27 47 81q0 56 -50 83q-10 5 -66 24z" />
    <glyph glyph-name="percent" unicode="%" horiz-adv-x="1082" 
d="M60 501q0 100 62 156q57 54 145 54q86 0 145 -55q62 -60 62 -155q0 -97 -62 -157q-58 -54 -145 -54t-145 54q-62 60 -62 157zM180 501q0 -55 18 -84q24 -38 69 -38t69 38q18 29 18 84t-18 84q-24 38 -69 38t-69 -38q-18 -29 -18 -84zM728 700h120l-494 -700h-120z
M608 200q0 97 62 156q55 54 145 54q87 0 145 -55q62 -58 62 -155q0 -98 -62 -157q-55 -54 -145 -54t-145 54q-62 59 -62 157zM728 200q0 -55 18 -84q24 -38 69 -38t69 38q18 29 18 84t-18 84q-24 38 -69 38t-69 -38q-18 -29 -18 -84z" />
    <glyph glyph-name="ampersand" unicode="&#x26;" horiz-adv-x="580" 
d="M600 76l-77 -76l-259 313l-42 -47q-56 -63 -57 -103q0 -32 25 -59t74 -24q55 4 103 49l65 -75q-67 -67 -176 -72q-97 -4 -151.5 43t-54.5 124q0 39 16 76.5t33 59.5t46 53l45 47l-42 44q-59 64 -60 129q0 63 47 111.5t129 48.5q86 0 131 -49t45 -111q-1 -70 -60 -129
l-44 -44zM264 457l32 35q31 33 32 67q1 29 -16 49.5t-48 20.5t-48 -20.5t-16 -49.5q1 -34 32 -67z" />
    <glyph glyph-name="quotesingle" unicode="'" horiz-adv-x="224" 
d="M50 700h124v-125l-33 -135h-58l-33 135v125z" />
    <glyph glyph-name="parenleft" unicode="(" horiz-adv-x="397" 
d="M336 809v-113q-57 -42 -93 -116q-55 -110 -55 -253q0 -144 55 -253q37 -71 94 -120l-1 -113q-104 64 -167 144q-109 140 -109 340q0 201 110 340q67 87 166 144z" />
    <glyph glyph-name="parenright" unicode=")" horiz-adv-x="397" 
d="M61 696v113q99 -57 166 -144q110 -139 110 -340q0 -200 -109 -340q-63 -80 -167 -144l-1 113q57 49 94 120q55 109 55 253q0 143 -55 253q-36 74 -93 116z" />
    <glyph glyph-name="asterisk" unicode="*" horiz-adv-x="454" 
d="M186 700h80v-106l104 36l24 -76l-101 -36l67 -89l-68 -49l-67 92l68 46l-27 76h-80l-25 -75l64 -47l-64 -92l-69 50l69 89l-101 34l26 77l100 -36v106z" />
    <glyph glyph-name="plus" unicode="+" horiz-adv-x="680" 
d="M60 353h227v227h106v-227h227v-98h-227v-235h-106v235h-227v98z" />
    <glyph glyph-name="comma" unicode="," horiz-adv-x="273" 
d="M67 132h146v-118q0 -55 -19 -106q-13 -37 -47 -83h-87q41 55 54 90q12 26 18 85h-65v132z" />
    <glyph glyph-name="hyphen" unicode="-" horiz-adv-x="400" 
d="M60 324h280v-107h-280v107z" />
    <glyph glyph-name="period" unicode="." horiz-adv-x="266" 
d="M60 132h146v-132h-146v132z" />
    <glyph glyph-name="slash" unicode="/" horiz-adv-x="452" 
d="M320 750h132l-318 -900h-134z" />
    <glyph glyph-name="zero" unicode="0" horiz-adv-x="638" 
d="M50 345q0 152 45 234q27 51 82 90t142 39q149 0 224 -129q45 -82 45 -234t-45 -234q-75 -129 -224 -129q-87 0 -142 39t-82 90q-45 82 -45 234zM445 347q0 120 -19 179q-34 78 -107 78q-76 0 -107 -78q-19 -57 -19 -179t19 -179q29 -78 107 -78t107 78q19 57 19 179z" />
    <glyph glyph-name="one" unicode="1" horiz-adv-x="628" 
d="M85 450v115l348 143v-708h-136v537z" />
    <glyph glyph-name="two" unicode="2" horiz-adv-x="638" 
d="M212 446h-138v26q0 105 75 175q65 61 173 61q103 0 168 -48q77 -56 77 -157q0 -81 -53 -140q-37 -40 -138 -101q-23 -14 -49 -30t-38.5 -23t-25 -16t-20.5 -17q-32 -30 -32 -65h357v-111h-498v49q0 106 51 169q23 28 56.5 51.5t103.5 65.5q86 53 113 80q39 39 35 94
q-4 45 -31 67q-29 25 -76 25q-51 0 -79 -34q-28 -31 -30 -93z" />
    <glyph glyph-name="three" unicode="3" horiz-adv-x="638" 
d="M200 464h-136q3 65 31 117t73 83q62 44 155 44q101 0 165 -40q80 -50 84 -145q1 -78 -49 -119q-30 -26 -74 -37q55 -13 95 -59q44 -51 44 -116q0 -97 -71 -153q-69 -57 -195 -57q-116 0 -187 60q-85 71 -85 188h144q0 -78 42 -115q32 -27 86 -27q59 0 89 28q32 27 33 76
q1 52 -32 81q-33 30 -90 30h-70v102h70q56 0 86 30q29 28 27 74q-1 50 -32 75q-28 23 -79 23t-81 -30q-38 -36 -43 -113z" />
    <glyph glyph-name="four" unicode="4" horiz-adv-x="638" 
d="M348 690h143l-288 -394v-38h189v122h136v-380h-136v153h-314v166z" />
    <glyph glyph-name="five" unicode="5" horiz-adv-x="638" 
d="M107 690h436v-108h-330l-11 -175q51 56 143 56q91 0 155 -60q72 -68 72 -177q2 -121 -81 -188q-70 -58 -176 -56q-114 2 -182 70q-61 61 -67 152h136q0 -43 21 -75q30 -46 92 -46q56 0 88 40q28 36 28 103q0 64 -27 97q-31 40 -89 40q-57 0 -84 -39h-146z" />
    <glyph glyph-name="six" unicode="6" horiz-adv-x="638" 
d="M434 212v7q-2 54 -26 87q-35 44 -87 44q-51 0 -87 -45q-23 -32 -25 -86v-7q0 -52 27 -88q32 -42 85 -42q51 0 85 42q28 37 28 88zM474 599h-14q-86 0 -151 -35q-67 -39 -95 -109q-10 -26 -18 -78q48 72 151 72h4q94 0 158 -61q69 -65 69 -172q0 -113 -87 -181
q-68 -53 -165 -53q-106 0 -172 58q-69 59 -86 166q-8 29 -8 96q0 69 15 125q32 118 114 190q104 91 266 91h19v-109z" />
    <glyph glyph-name="seven" unicode="7" horiz-adv-x="638" 
d="M82 690h462v-116q-181 -261 -195 -574h-143q23 323 220 582h-344v108z" />
    <glyph glyph-name="eight" unicode="8" horiz-adv-x="638" 
d="M194 196q1 -53 37 -85q32 -29 88 -29q54 0 88 29q37 33 37 85q0 54 -35 85q-34 31 -90 31t-91 -32q-35 -35 -34 -84zM583 190q0 -98 -74 -155q-67 -53 -190 -53t-190 53q-74 57 -74 155q1 61 37.5 108.5t101.5 67.5q-56 15 -88.5 59t-29.5 105q6 89 80 138q62 40 163 40
t163 -40q74 -49 80 -138q3 -61 -29.5 -105t-88.5 -59q65 -20 101.5 -67.5t37.5 -108.5zM207 508q0 -49 30 -76q28 -28 82 -28t82 28q30 27 30 76q0 50 -33 78q-31 26 -79 26t-79 -26q-33 -28 -33 -78z" />
    <glyph glyph-name="nine" unicode="9" horiz-adv-x="638" 
d="M204 481v-7q1 -55 25 -87q31 -44 88 -44t88 45q24 35 24 86v5q0 55 -26 90q-32 42 -86 42q-55 0 -86 -42q-27 -36 -27 -88zM164 96h7q92 0 158 32q63 32 94 107q16 39 19 80q-47 -74 -151 -74h-7q-97 0 -159 62q-65 65 -65 167v4q2 115 86 181q69 53 166 53
q109 0 175 -58q65 -56 83 -166q8 -50 8 -94q0 -67 -15 -127q-31 -116 -113 -189q-107 -92 -267 -92h-19v114z" />
    <glyph glyph-name="colon" unicode=":" horiz-adv-x="266" 
d="M60 500h146v-132h-146v132zM60 132h146v-132h-146v132z" />
    <glyph glyph-name="semicolon" unicode=";" horiz-adv-x="273" 
d="M67 500h146v-132h-146v132zM67 132h146v-118q0 -55 -19 -106q-13 -37 -47 -83h-87q41 55 54 90q12 26 18 85h-65v132z" />
    <glyph glyph-name="semicolon" unicode="&#x37e;" horiz-adv-x="273" 
d="M67 500h146v-132h-146v132zM67 132h146v-118q0 -55 -19 -106q-13 -37 -47 -83h-87q41 55 54 90q12 26 18 85h-65v132z" />
    <glyph glyph-name="less" unicode="&#x3c;" horiz-adv-x="520" 
d="M60 374l400 206v-100l-322 -164v-24l322 -172v-100l-400 214v140z" />
    <glyph glyph-name="equal" unicode="=" horiz-adv-x="680" 
d="M60 237h560v-95h-560v95zM60 458h560v-95h-560v95z" />
    <glyph glyph-name="greater" unicode="&#x3e;" horiz-adv-x="520" 
d="M60 580l400 -206v-140l-400 -214v100l322 172v24l-322 164v100z" />
    <glyph glyph-name="question" unicode="?" horiz-adv-x="550" 
d="M179 486h-139q-4 85 50 153q67 79 190 79q93 0 151 -42q33 -24 55 -63t24 -83q5 -74 -52 -138q-17 -19 -48.5 -46t-45.5 -44q-33 -40 -33 -89v-13h-136v10q0 74 46 134q18 25 54 55.5t42 37.5q37 43 33 92q-3 42 -28 67q-24 22 -63 22q-50 -1 -79 -42q-23 -36 -21 -90z
M193 127h140v-127h-140v127z" />
    <glyph glyph-name="at" unicode="@" horiz-adv-x="991" 
d="M703 554v-249q0 -92 56 -92q35 0 63.5 50t28.5 133q0 79 -33.5 143t-86 102t-112 58t-117.5 20q-153 0 -261.5 -109t-108.5 -261t109 -261t261 -109q128 0 231 82l45 -57q-123 -97 -276 -97q-118 0 -219.5 57.5t-162 159.5t-60.5 225q0 87 34 168t92.5 140.5t141 96
t174.5 37.5q125 2 230 -61t155 -159q33 -65 41 -142t-8.5 -144.5t-66.5 -114t-125 -47.5q-98 -3 -133 81q-45 -77 -135 -77q-86 0 -142 63q-53 60 -53 157q0 96 53 157q56 62 142 62q84 0 129 -68v56h114zM593 349q0 56 -24 91q-30 44 -83 44t-82 -44q-23 -35 -23 -91
q0 -60 23 -93q30 -43 82 -43q55 0 83 43q24 35 24 93z" />
    <glyph glyph-name="A" unicode="A" horiz-adv-x="718" 
d="M258 700h202l243 -700h-150l-57 182h-274l-57 -182h-150zM350 596l-94 -304h206l-94 304h-18z" />
    <glyph glyph-name="B" unicode="B" horiz-adv-x="666" 
d="M70 700h267q47 0 71 -1t62.5 -9.5t66.5 -25.5q77 -48 77 -146q0 -63 -30.5 -100.5t-79.5 -51.5q34 -10 58.5 -30t36.5 -39t18.5 -43t7.5 -35t1 -23q0 -98 -76 -155q-28 -20 -68 -29.5t-65.5 -10.5t-75.5 -1h-271v700zM209 313v-208h132q72 0 99 17q41 24 41 87t-41 87
q-27 17 -99 17h-132zM209 599v-185h132q73 0 96 16q36 22 36 76q0 51 -36 77q-24 16 -96 16h-132z" />
    <glyph glyph-name="C" unicode="C" horiz-adv-x="712" 
d="M527 262h145q-7 -121 -88 -199q-85 -81 -217 -81q-157 0 -246 110q-81 97 -81 258t81 258q92 110 246 110q129 0 217 -81q80 -80 83 -195h-144q1 72 -41 120q-43 48 -115 46q-98 -1 -146 -83q-36 -65 -36 -173q0 -110 36 -173q48 -83 146 -83q71 0 117 46q44 48 43 120z
" />
    <glyph glyph-name="D" unicode="D" horiz-adv-x="700" 
d="M70 700h170q65 0 108 -4t101 -24.5t103 -59.5q108 -94 108 -262t-108 -262q-34 -30 -72.5 -49t-82.5 -27t-76.5 -10t-80.5 -2h-170v700zM209 596v-488h50q132 0 194 59t62 185q0 123 -62 185q-62 59 -194 59h-50z" />
    <glyph glyph-name="E" unicode="E" horiz-adv-x="610" 
d="M70 700h490v-108h-351v-177h333v-108h-333v-195h361v-112h-500v700z" />
    <glyph glyph-name="F" unicode="F" horiz-adv-x="570" 
d="M70 700h460v-108h-321v-187h298v-108h-298v-297h-139v700z" />
    <glyph glyph-name="G" unicode="G" horiz-adv-x="746" 
d="M322 391h384v-37q0 -158 -71 -252q-92 -120 -263 -120q-87 0 -150 31t-100 77q-82 95 -82 260q0 162 84 260q91 108 249 108q135 0 221 -75q88 -76 98 -193h-144q-4 62 -42 106q-46 51 -126 52q-102 0 -155 -80q-40 -61 -40 -174q0 -115 39 -178q53 -80 155 -80
q81 0 135 54q21 21 35 55t14 63v17h-241v106z" />
    <glyph glyph-name="H" unicode="H" horiz-adv-x="720" 
d="M70 700h139v-277h302v277h139v-700h-139v313h-302v-313h-139v700z" />
    <glyph glyph-name="I" unicode="I" horiz-adv-x="302" 
d="M80 700h142v-700h-142v700z" />
    <glyph glyph-name="J" unicode="J" horiz-adv-x="345" 
d="M151 700h139v-456q0 -76 -16 -131t-70 -93q-53 -38 -173 -38h-31v113h31q58 0 91 33q14 14 20.5 34t7.5 33.5t1 38.5v466z" />
    <glyph glyph-name="K" unicode="K" horiz-adv-x="661" 
d="M70 700h139v-279h108l173 279h154l-215 -328l217 -372h-164l-165 315h-108v-315h-139v700z" />
    <glyph glyph-name="L" unicode="L" horiz-adv-x="510" 
d="M70 700h139v-584h301v-116h-440v700z" />
    <glyph glyph-name="M" unicode="M" horiz-adv-x="1030" 
d="M60 0v393q0 48 1 73.5t12.5 73t34.5 80.5q31 41 81.5 66.5t113.5 27.5q146 3 212 -123q66 126 212 123q126 -4 193 -94q23 -33 35 -75.5t13.5 -68.5t1.5 -70v-13v-393h-142v419v19v20t-0.5 17.5t-1.5 18.5t-3 16t-5.5 17.5t-7.5 15.5q-31 56 -104 55q-69 -1 -102 -55
q-3 -5 -6 -11t-5 -11t-3.5 -12.5t-2.5 -11.5t-2 -13t-1.5 -12.5t-0.5 -13v-12.5v-14v-13v-419h-136v419v13v14v12.5t-0.5 13t-1.5 12.5t-2 13t-2.5 11.5t-3.5 12.5t-5 11t-6 11q-33 54 -102 55q-73 1 -104 -55q-4 -8 -7.5 -15.5t-5.5 -17.5t-3 -16t-1.5 -18.5t-0.5 -17.5
v-20v-19v-419h-142z" />
    <glyph glyph-name="N" unicode="N" horiz-adv-x="690" 
d="M60 0v379q0 44 1.5 68t7.5 61.5t22.5 68.5t43.5 59q77 82 210 80q135 -2 210 -80q35 -36 52.5 -85t20 -81.5t2.5 -91.5v-378h-142v390q0 110 -22 148q-37 65 -121 65q-81 0 -120 -65q-11 -20 -16.5 -48t-6 -45t-0.5 -55v-390h-142z" />
    <glyph glyph-name="O" unicode="O" horiz-adv-x="740" 
d="M40 350q0 163 87 262q94 106 243 106t243 -106q87 -99 87 -262t-87 -262q-94 -106 -243 -106t-243 106q-87 99 -87 262zM185 351q0 -116 39 -176q56 -79 146 -79t146 79q39 60 39 176q0 113 -39 176q-53 81 -146 81t-146 -81q-39 -63 -39 -176z" />
    <glyph glyph-name="P" unicode="P" 
d="M70 700h233q141 0 208 -46q89 -67 89 -183q0 -124 -89 -183q-67 -46 -208 -46h-94v-242h-139v700zM209 596v-248h100q73 0 106 24q44 31 44 100t-44 100q-33 24 -106 24h-100z" />
    <glyph glyph-name="Q" unicode="Q" horiz-adv-x="743" 
d="M40 350q0 163 87 262q94 106 243 106t243 -106q87 -99 87 -262q0 -127 -58 -221l71 -67l-73 -80l-71 67q-81 -67 -199 -67q-149 0 -243 106q-87 99 -87 262zM185 351q0 -116 39 -176q56 -79 146 -79t146 79q39 60 39 176q0 113 -39 176q-53 81 -146 81t-146 -81
q-39 -63 -39 -176z" />
    <glyph glyph-name="R" unicode="R" horiz-adv-x="681" 
d="M70 700h233h19h21t20 -0.5t22 -1t20.5 -1.5t22.5 -2.5t20.5 -4t21.5 -5.5t20 -7.5t20 -9.5q44 -23 73.5 -67.5t29.5 -107.5q0 -86 -61 -136q-27 -22 -65 -32q22 -11 34 -26t28 -47l117 -252h-154l-88 212q-16 41 -38 57q-22 14 -67 14h-110v-283h-139v700zM209 596v-210
h128q68 0 97 22q37 28 37 83t-37 83q-30 22 -98 22h-127z" />
    <glyph glyph-name="S" unicode="S" horiz-adv-x="660" 
d="M40 234h145q-3 -31 10 -64.5t45 -54.5q36 -25 96 -25q61 0 94 20q45 26 45 79q1 55 -47 83q-25 15 -135 41q-42 10 -64 16.5t-51 19.5t-50 29q-74 58 -68 144q4 97 82 150q70 48 184 48q116 1 194 -54q94 -67 94 -196h-141q4 78 -50 118q-37 26 -95 26q-60 0 -88 -19
q-35 -22 -39 -64q-4 -43 32 -76q22 -18 119 -41q5 -1 8.5 -2t7.5 -2q111 -26 157 -54q95 -59 95 -166q0 -105 -91 -162q-74 -48 -194 -48q-111 0 -186 51q-47 34 -77 87t-32 116z" />
    <glyph glyph-name="T" unicode="T" horiz-adv-x="570" 
d="M15 700h540v-108h-201v-592h-140v592h-199v108z" />
    <glyph glyph-name="U" unicode="U" horiz-adv-x="690" 
d="M60 700h142v-386q0 -38 0.5 -55t6 -45t16.5 -48q35 -65 120 -65q84 0 121 65q22 38 22 148v386h142v-378q0 -59 -2.5 -91.5t-20 -81.5t-52.5 -85q-75 -78 -210 -80q-133 -2 -210 80q-27 28 -43.5 59t-22.5 68.5t-7.5 61.5t-1.5 68v379z" />
    <glyph glyph-name="V" unicode="V" horiz-adv-x="698" 
d="M20 700h150l170 -590h18l170 590h150l-224 -700h-210z" />
    <glyph glyph-name="W" unicode="W" horiz-adv-x="1020" 
d="M55 700h142v-415v-19v-20t0.5 -17.5t1.5 -18.5t3 -16t5.5 -17.5t7.5 -15.5q31 -56 104 -55q69 1 102 55q3 5 6 11t5 11t3.5 12.5t2.5 11.5t2 13t1.5 12.5t0.5 13v12.5v14v13v415h136v-415v-13v-14v-12.5t0.5 -13t1.5 -12.5t2 -13t2.5 -11.5t3.5 -12.5t5 -11t6 -11
q33 -54 102 -55q73 -1 104 55q4 8 7.5 15.5t5.5 17.5t3 16t1.5 18.5t0.5 17.5v20v19v415h142v-393q0 -102 -13 -148q-12 -44 -37 -79q-67 -90 -193 -94q-146 -3 -212 123q-66 -126 -212 -123q-63 2 -113.5 27.5t-81.5 66.5q-23 33 -34.5 80.5t-12.5 73t-1 73.5v393z" />
    <glyph glyph-name="X" unicode="X" horiz-adv-x="690" 
d="M28 700h150l159 -279h16l159 279h150l-198 -329l211 -371h-157l-165 314h-16l-165 -314h-157l211 371z" />
    <glyph glyph-name="Y" unicode="Y" horiz-adv-x="648" 
d="M15 700h148l161 -298l161 298h148l-238 -414v-286h-142v286z" />
    <glyph glyph-name="Z" unicode="Z" horiz-adv-x="640" 
d="M45 700h550v-122l-400 -463h410v-115h-570v127l400 462h-390v111z" />
    <glyph glyph-name="bracketleft" unicode="[" horiz-adv-x="358" 
d="M60 800h238v-104h-118v-738h118v-108h-238v950z" />
    <glyph glyph-name="backslash" unicode="\" horiz-adv-x="452" 
d="M0 750h132l320 -900h-134z" />
    <glyph glyph-name="bracketright" unicode="]" horiz-adv-x="358" 
d="M60 800h238v-950h-238v108h118v738h-118v104z" />
    <glyph glyph-name="asciicircum" unicode="^" horiz-adv-x="596" 
d="M233 700h130l183 -301h-122l-118 216h-16l-118 -216h-122z" />
    <glyph glyph-name="underscore" unicode="_" horiz-adv-x="670" 
d="M60 -220h550v-98l-550 1v97z" />
    <glyph glyph-name="grave" unicode="`" horiz-adv-x="300" 
d="M30 700h120l120 -160h-120z" />
    <glyph glyph-name="a" unicode="a" 
d="M570 500v-500h-131l-6 70q-48 -84 -156 -84q-104 -1 -173 75q-64 71 -64 189t64 189q69 76 173 75q104 0 156 -82l6 68h131zM437 253q0 68 -28 110q-34 52 -100 52q-65 0 -99 -52q-28 -42 -28 -110q0 -70 28 -112q34 -52 99 -52q66 0 100 52q28 42 28 112z" />
    <glyph glyph-name="b" unicode="b" 
d="M60 700h137v-268q52 82 156 82q104 1 173 -75q64 -71 64 -189t-64 -189q-68 -75 -173 -75t-156 84l-6 -70h-131v700zM193 253q0 -70 28 -112q34 -52 100 -52q65 0 99 52q28 42 28 112q0 68 -28 110q-34 52 -99 52q-66 0 -100 -52q-28 -42 -28 -110z" />
    <glyph glyph-name="c" unicode="c" horiz-adv-x="590" 
d="M408 201h142q-3 -101 -78 -164q-64 -55 -172 -55q-120 0 -192 76q-68 72 -68 193q0 116 67 190q69 77 193 77q105 0 170 -55q71 -63 74 -160h-138q0 38 -26 80q-30 38 -80 38q-62 0 -94 -56q-24 -43 -24 -114t23 -113q30 -54 95 -55q53 0 83 36q27 33 25 82z" />
    <glyph glyph-name="d" unicode="d" 
d="M433 700h137v-700h-131l-6 70q-52 -84 -156 -84q-105 0 -173 75q-64 71 -64 189t64 189q69 76 173 75q104 0 156 -82v268zM437 253q0 68 -28 110q-34 52 -100 52q-65 0 -99 -52q-28 -42 -28 -110q0 -70 28 -112q34 -52 99 -52q66 0 100 52q28 42 28 112z" />
    <glyph glyph-name="e" unicode="e" horiz-adv-x="608" 
d="M304 433q-65 0 -99 -43q-26 -32 -28 -83h255q2 49 -26 83q-34 43 -102 43zM424 166h140q-15 -71 -60 -114q-70 -70 -199 -70q-129 1 -197 76q-68 72 -68 192q0 119 72 195q72 73 192 73q125 0 200 -81q64 -73 64 -203v-8h-391q-2 -57 23 -98q33 -56 105 -57q56 -1 92 37
q22 24 27 58z" />
    <glyph glyph-name="f" unicode="f" horiz-adv-x="318" 
d="M318 500v-98h-122v-402h-136v493q0 37 2 59.5t14 54.5t35 55q25 25 60.5 37t58 13.5t67.5 1.5h21v-98h-27q-59 0 -81 -34q-14 -19 -14 -70v-12h122z" />
    <glyph glyph-name="g" unicode="g" 
d="M570 500v-500q0 -112 -56 -165q-36 -34 -76.5 -43.5t-96.5 -9.5h-29v102h17q59 0 85 34q19 25 19 82v70q-48 -84 -156 -84q-104 -1 -173 75q-64 71 -64 189t64 189q69 76 173 75q104 0 156 -82l6 68h131zM437 253q0 68 -28 110q-34 52 -100 52q-65 0 -99 -52
q-28 -42 -28 -110q0 -70 28 -112q34 -52 99 -52q66 0 100 52q28 42 28 112z" />
    <glyph glyph-name="h" unicode="h" horiz-adv-x="588" 
d="M60 700h136v-267q24 33 47 48q48 33 114 33q96 -1 144 -65q17 -22 26 -53.5t10 -51.5t1 -55v-289h-139v285q0 49 -10 75q-22 50 -79 50q-60 0 -91 -48q-23 -35 -23 -109v-253h-136v700z" />
    <glyph glyph-name="i" unicode="i" horiz-adv-x="276" 
d="M70 500h136v-500h-136v500zM70 700h136v-118h-136v118z" />
    <glyph glyph-name="j" unicode="j" horiz-adv-x="284" 
d="M74 500h136v-700h-136v700zM70 700h144v-118h-144v118z" />
    <glyph glyph-name="k" unicode="k" horiz-adv-x="545" 
d="M60 700h136v-391h72l110 191h149l-151 -234l154 -266h-153l-109 216h-72v-216h-136v700z" />
    <glyph glyph-name="l" unicode="l" horiz-adv-x="276" 
d="M70 700h136v-700h-136v700z" />
    <glyph glyph-name="m" unicode="m" horiz-adv-x="853" 
d="M60 500h130l6 -72q13 29 46 57q39 29 92 31q44 1 83.5 -21.5t59.5 -66.5q58 88 156 88q95 0 145 -79q12 -21 17.5 -50t6.5 -50t1 -61v-276h-140v278q0 66 -13 89q-23 38 -70 37q-47 -2 -68 -38q-15 -27 -15 -88v-278h-136v278q0 66 -13 89q-22 38 -70 37q-40 -2 -63 -39
q-19 -32 -19 -107v-258h-136v500z" />
    <glyph glyph-name="n" unicode="n" horiz-adv-x="588" 
d="M60 500h130l6 -68q22 34 52 52q48 30 109 30q96 0 145 -65q36 -49 36 -160v-289h-140v289q0 55 -9 74q-20 46 -81 46q-60 0 -89 -45q-23 -32 -23 -107v-257h-136v500z" />
    <glyph glyph-name="o" unicode="o" horiz-adv-x="618" 
d="M40 250q0 119 75 194q74 74 194 74t194 -74q75 -75 75 -194t-75 -194q-74 -74 -194 -74t-194 74q-75 75 -75 194zM182 252q0 -62 21 -104q31 -65 106 -65q72 0 106 65q21 42 21 104t-21 104q-34 65 -106 65q-75 0 -106 -65q-21 -42 -21 -104z" />
    <glyph glyph-name="p" unicode="p" 
d="M60 500h131l6 -68q52 82 156 82q104 1 173 -75q64 -71 64 -189t-64 -189q-68 -75 -173 -75t-156 84v-270h-137v700zM193 253q0 -70 28 -112q34 -52 100 -52q65 0 99 52q28 42 28 112q0 68 -28 110q-34 52 -99 52q-66 0 -100 -52q-28 -42 -28 -110z" />
    <glyph glyph-name="q" unicode="q" 
d="M570 500v-700h-137v270q-52 -84 -156 -84q-105 0 -173 75q-64 71 -64 189t64 189q69 76 173 75q104 0 156 -82l6 68h131zM437 253q0 68 -28 110q-34 52 -100 52q-65 0 -99 -52q-28 -42 -28 -110q0 -70 28 -112q34 -52 99 -52q66 0 100 52q28 42 28 112z" />
    <glyph glyph-name="r" unicode="r" horiz-adv-x="408" 
d="M60 500h130l6 -70q20 36 45 56q37 28 86 28q36 0 71 -14v-126q-41 35 -94 33q-54 -5 -83 -44q-25 -35 -25 -118v-245h-136v500z" />
    <glyph glyph-name="s" unicode="s" horiz-adv-x="550" 
d="M182 164v-13q0 -37 25 -59q26 -23 73 -23q39 0 61 14q27 17 27 48q1 24 -11 36.5t-38 21.5q-10 3 -38 11t-66 19q-87 26 -117 51q-42 36 -42 101q0 77 68 117q53 32 147 32q93 0 150 -30q38 -22 62.5 -60.5t24.5 -89.5h-138v13q0 43 -32 66q-22 16 -60 16q-40 0 -59 -13
q-25 -18 -25 -48q1 -29 24 -46q14 -10 88 -29q100 -25 135 -46q69 -41 69 -118q0 -84 -81 -126q-59 -29 -152 -29q-110 0 -169 46q-68 54 -68 138h142z" />
    <glyph glyph-name="t" unicode="t" horiz-adv-x="332" 
d="M15 500h83v85l136 70v-155h83v-96h-83v-404h-136v404h-83v96z" />
    <glyph glyph-name="u" unicode="u" horiz-adv-x="588" 
d="M50 500h140v-289q0 -55 11 -76q21 -44 79 -44q55 0 89 45q23 32 23 107v257h136v-500h-130l-6 68q-22 -34 -52 -52q-46 -30 -113 -30q-89 0 -138 65q-39 55 -39 170v279z" />
    <glyph glyph-name="v" unicode="v" horiz-adv-x="550" 
d="M15 500h144l109 -404h14l109 404h144l-155 -500h-210z" />
    <glyph glyph-name="w" unicode="w" horiz-adv-x="846" 
d="M50 500h139v-278q0 -68 15 -93q21 -37 69 -37t69 37q15 25 15 93v278h132v-278q0 -68 15 -93q21 -37 69 -37t69 37q15 25 15 93v278h139v-276q0 -105 -35 -159q-54 -81 -167 -81q-123 0 -171 101q-53 -101 -171 -101q-113 0 -167 81q-16 24 -24.5 54t-9.5 49.5t-1 55.5
v276z" />
    <glyph glyph-name="x" unicode="x" horiz-adv-x="560" 
d="M23 500h142l108 -190h14l108 190h142l-142 -234l150 -266h-146l-113 213h-13l-112 -213h-146l150 266z" />
    <glyph glyph-name="y" unicode="y" horiz-adv-x="560" 
d="M15 500h144l122 -404h14l106 404h144l-170 -554q-33 -101 -81 -133q-51 -36 -131 -31v102q36 -2 59 16q13 9 21.5 23t11 21.5t7.5 26.5l8 29h-28q-35 0 -51.5 19t-27.5 52z" />
    <glyph glyph-name="z" unicode="z" horiz-adv-x="486" 
d="M20 500h439v-102l-276 -300h283v-98h-443v104l276 300h-279v96z" />
    <glyph glyph-name="braceleft" unicode="{" horiz-adv-x="454" 
d="M60 398h31q33 0 55 27.5t22 71.5v137q0 45 14 77t33 49t48 26.5t50.5 11.5t48.5 2h32v-104h-24q-38 0 -60 -24.5t-22 -64.5v-142q0 -47 -16 -75.5t-58 -43.5q45 -16 59.5 -45t14.5 -74v-180q0 -89 82 -89h24v-108h-32q-40 0 -70.5 6.5t-60.5 23t-46.5 52.5t-16.5 89v175
q0 50 -16.5 71.5t-67.5 21.5h-24v109z" />
    <glyph glyph-name="bar" unicode="|" horiz-adv-x="290" 
d="M80 750h130v-900h-130v900z" />
    <glyph glyph-name="braceright" unicode="}" horiz-adv-x="454" 
d="M60 800h32q27 0 48.5 -2t50.5 -11.5t48 -26.5t33 -49t14 -77v-137q0 -44 22 -71.5t55 -27.5h31v-109h-24q-51 0 -67.5 -21.5t-16.5 -71.5v-175q0 -53 -16.5 -89t-46.5 -52.5t-60.5 -23t-70.5 -6.5h-32v108h24q82 0 82 89v180q0 45 14.5 74t59.5 45q-42 15 -58 43.5
t-16 75.5v142q0 40 -22 64.5t-60 24.5h-24v104z" />
    <glyph glyph-name="asciitilde" unicode="~" horiz-adv-x="680" 
d="M60 236v98q72 65 141 65q55 0 139 -46q5 -3 23 -13t23.5 -12.5t20.5 -10t22 -10t19 -6.5t21.5 -5.5t19.5 -1.5q61 0 131 78v-98q-72 -65 -141 -65q-55 0 -139 46q-5 3 -23 13t-23.5 12.5t-20.5 10t-22 10t-19 6.5t-21.5 5.5t-19.5 1.5q-61 0 -131 -78z" />
    <glyph glyph-name="nbspace" unicode="&#xa0;" horiz-adv-x="233" 
 />
    <glyph glyph-name="exclamdown" unicode="&#xa1;" horiz-adv-x="308" 
d="M95 500h118l15 -500h-148zM81 700h146v-132h-146v132z" />
    <glyph glyph-name="cent" unicode="&#xa2;" horiz-adv-x="638" 
d="M438 194h140q-6 -97 -80 -158q-61 -48 -147 -53v-183h-60v183q-101 10 -162 73q-69 69 -69 195q0 120 68 192q64 70 163 74v183h60v-183q88 -4 144 -54q69 -59 78 -153h-136q0 38 -27 74q-22 30 -59 35v-334q40 4 62 34q23 31 25 75zM291 85v334q-43 -10 -68 -53
q-23 -42 -23 -115q0 -72 23 -114q25 -42 68 -52z" />
    <glyph glyph-name="sterling" unicode="&#xa3;" horiz-adv-x="624" 
d="M60 372h74v109q0 35 2 58t15 56t38 58q56 59 160 59t160 -58q60 -63 55 -154h-124q2 53 -18 84q-24 38 -73 38t-73 -38q-18 -28 -18 -89v-123h211v-71h-211v-70v-15v-14t-0.5 -12.5t-1 -13t-1.5 -11t-2.5 -12t-4 -11t-5.5 -12.5t-7.5 -11.5t-9.5 -12.5h338v-106h-504v104
q25 7 41.5 21.5t22.5 31t8 25.5t2 17v102h-74v71z" />
    <glyph glyph-name="currency" unicode="&#xa4;" horiz-adv-x="634" 
d="M60 536l57 56l56 -56q65 48 144 48q78 0 146 -47l55 55l56 -56l-55 -55q46 -68 46 -146t-47 -146l55 -55l-55 -56l-56 55q-65 -46 -145 -46q-79 0 -144 48l-56 -56l-56 56l55 55q-48 66 -48 146q0 76 47 144zM317 176q67 0 113.5 46t46.5 114q0 66 -46.5 112.5
t-113.5 46.5q-68 0 -114 -46t-46 -113q0 -68 46.5 -114t113.5 -46z" />
    <glyph glyph-name="yen" unicode="&#xa5;" horiz-adv-x="738" 
d="M60 700h147l162 -285l162 285h147l-206 -328h175v-71h-207v-93h207v-71h-207v-137h-142v137h-207v71h207v93h-207v71h175z" />
    <glyph glyph-name="brokenbar" unicode="&#xa6;" horiz-adv-x="290" 
d="M80 750h130v-280h-130v280zM80 130h130v-280h-130v280z" />
    <glyph glyph-name="section" unicode="&#xa7;" horiz-adv-x="594" 
d="M257 253l73 -40q39 0 54 20t15 42q0 44 -62 78l-73 40q-39 0 -54 -20t-15 -43q0 -42 62 -77zM492 550h-128q0 26 -7 44.5t-18.5 27t-21.5 11.5t-20 3q-25 0 -44 -17t-20 -41q0 -17 8.5 -31t18 -20.5t27.5 -16.5l126 -63q22 -12 37 -22t37.5 -30t34.5 -47t12 -60
q0 -43 -25 -81.5t-81 -52.5q76 -46 70 -130q-2 -67 -56.5 -114.5t-144.5 -47.5q-52 0 -91 15.5t-59 36.5t-32 50t-15 49t-3 41h132v-5q0 -16 1.5 -26t7 -26t20.5 -24.5t39 -8.5q29 0 47.5 16t19.5 40q0 40 -54 69l-131 72q-119 66 -119 157q0 43 25 81.5t81 52.5
q-65 46 -65 121q0 66 51.5 110.5t142.5 44.5q45 -1 81 -14t57 -31.5t35 -42t19 -43.5t5 -38v-9z" />
    <glyph glyph-name="dieresis" unicode="&#xa8;" horiz-adv-x="608" 
d="M109 700h124v-125h-124v125zM376 700h124v-125h-124v125z" />
    <glyph glyph-name="copyright" unicode="&#xa9;" horiz-adv-x="1004" 
d="M623 286h104q-7 -84 -63 -137q-57 -57 -160 -57q-114 0 -176 78q-58 75 -58 180q0 110 58 181q62 78 176 78q99 0 158 -57q55 -55 61 -137h-103q1 52 -31 84q-34 34 -87 33q-67 -1 -101 -59q-27 -43 -27 -121q0 -77 27 -121q37 -58 101 -59q54 -1 88 33q32 31 33 81z
M60 349q0 183 129.5 312.5t312.5 129.5q182 0 312 -130t130 -312q0 -183 -129.5 -312.5t-312.5 -129.5q-184 0 -313 129t-129 313zM137 349q0 -152 106.5 -258.5t258.5 -106.5t258.5 106.5t106.5 258.5t-106.5 258.5t-258.5 106.5t-258.5 -106.5t-106.5 -258.5z" />
    <glyph glyph-name="ordfeminine" unicode="&#xaa;" horiz-adv-x="437" 
d="M370 700v-188q0 -44 16 -58q11 -10 31 -11l-25 -67q-35 -3 -62.5 13.5t-40.5 46.5q-37 -58 -102 -58q-68 0 -107 47q-40 48 -40 119q0 74 40 119q40 46 107 46q66 0 97 -51v42h86zM287 546q0 42 -18 68q-23 33 -62 33t-62 -33q-18 -28 -18 -68q0 -43 18 -71
q21 -32 62 -32q39 0 62 32q18 24 18 71z" />
    <glyph glyph-name="guillemotleft" unicode="&#xab;" horiz-adv-x="534" 
d="M60 309l187 206v-156l-88 -96v-26l88 -96v-156l-187 206v118zM287 309l187 206v-156l-88 -96v-26l88 -96v-156l-187 206v118z" />
    <glyph glyph-name="logicalnot" unicode="&#xac;" horiz-adv-x="640" 
d="M60 316h520v-218h-91v127h-429v91z" />
    <glyph glyph-name="uni00AD" unicode="&#xad;" horiz-adv-x="400" 
d="M60 324h280v-107h-280v107z" />
    <glyph glyph-name="registered" unicode="&#xae;" horiz-adv-x="1004" 
d="M315 595h163q104 0 145 -22q33 -18 52.5 -50t20.5 -69q1 -64 -43 -101q-25 -18 -49 -24q29 -7 47 -48l81 -176h-108l-60 148q-13 29 -28 40q-14 10 -47 10h-76v-198h-98v490zM413 522v-149h89q45 0 69 18q26 19 26 58q0 41 -27 58q-24 15 -69 15h-88zM60 349
q0 183 129.5 312.5t312.5 129.5q182 0 312 -130t130 -312q0 -183 -129.5 -312.5t-312.5 -129.5q-184 0 -313 129t-129 313zM137 349q0 -152 106.5 -258.5t258.5 -106.5t258.5 106.5t106.5 258.5t-106.5 258.5t-258.5 106.5t-258.5 -106.5t-106.5 -258.5z" />
    <glyph glyph-name="degree" unicode="&#xb0;" horiz-adv-x="458" 
d="M132 543q0 -41 28 -69t69 -28t69 28t28 69q0 36 -25.5 66t-71.5 30t-71.5 -30t-25.5 -66zM60 543q0 70 49 119.5t120 49.5t120 -49.5t49 -119.5q0 -71 -49 -120t-120 -49t-120 49t-49 120z" />
    <glyph glyph-name="plusminus" unicode="&#xb1;" horiz-adv-x="680" 
d="M60 118h560v-98h-560v98zM60 428h227v152h106v-152h227v-98h-227v-152h-106v152h-227v98z" />
    <glyph glyph-name="acute" unicode="&#xb4;" horiz-adv-x="550" 
d="M305 700h110l-110 -140h-110z" />
    <glyph glyph-name="mu" unicode="&#xb5;" horiz-adv-x="588" 
d="M60 500h136v-257q0 -75 23 -107q29 -45 89 -45q61 0 81 46q9 19 9 74v289h140v-289q0 -111 -36 -160q-48 -64 -145 -65q-66 0 -114 33q-29 21 -47 49v-268h-136v700z" />
    <glyph glyph-name="paragraph" unicode="&#xb6;" 
d="M570 700v-81h-62v-819h-113v819h-110v-359q-98 2 -161 60q-64 59 -64 160q0 102 64 160q40 38 88.5 49t112.5 11h245z" />
    <glyph glyph-name="periodcentered" unicode="&#xb7;" horiz-adv-x="266" 
d="M60 332h146v-132h-146v132z" />
    <glyph glyph-name="ordmasculine" unicode="&#xba;" horiz-adv-x="418" 
d="M40 543q0 78 47 123q48 46 122 46t122 -46q47 -45 47 -123q0 -76 -47 -122q-46 -46 -122 -46t-122 46q-47 46 -47 122zM130 544q0 -40 14 -66q22 -42 65 -42t65 42q14 26 14 66q0 41 -14 66q-21 43 -65 43t-65 -43q-14 -25 -14 -66z" />
    <glyph glyph-name="guillemotright" unicode="&#xbb;" horiz-adv-x="534" 
d="M287 515l187 -206v-118l-187 -206v156l88 96v26l-88 96v156zM60 515l187 -206v-118l-187 -206v156l88 96v26l-88 96v156z" />
    <glyph glyph-name="questiondown" unicode="&#xbf;" horiz-adv-x="550" 
d="M223 500h136v-10q0 -79 -45 -134q-17 -21 -54.5 -52t-45.5 -41q-35 -42 -34 -92q2 -42 28 -67q24 -22 63 -22q50 1 79 42q23 36 21 90h139q4 -85 -50 -153q-67 -79 -190 -79q-93 0 -151 42q-74 54 -79 146q0 78 52 138q11 12 49 46q46 41 49 44q33 42 33 89v13zM222 700
h138v-127h-138v127z" />
    <glyph glyph-name="AE" unicode="&#xc6;" horiz-adv-x="1088" 
d="M263 700h554l38 -107h-351l60 -178h343l37 -107h-343l68 -196h360l39 -112h-508l-57 182h-278l-57 -182h-148zM355 595l-95 -303h208l-95 303h-18z" />
    <glyph glyph-name="multiply" unicode="&#xd7;" horiz-adv-x="620" 
d="M60 485l69 69l181 -181l181 181l69 -69l-181 -181l181 -181l-69 -69l-181 181l-181 -181l-69 69l181 181z" />
    <glyph glyph-name="ae" unicode="&#xe6;" horiz-adv-x="1010" 
d="M568 500v-68q55 86 174 86q112 1 174 -83q54 -72 54 -201v-8h-391q-2 -60 23 -98q32 -54 104 -54q60 0 93 35q25 24 26 65h141q-9 -70 -62 -123q-70 -70 -167 -69q-41 0 -88.5 19t-80.5 69v-70h-137v70q-47 -82 -156 -84q-103 -2 -171 75q-64 74 -64 189t64 189
q68 77 171 75q104 0 156 -82v68h137zM435 253q0 69 -28 110q-35 52 -100 52t-99 -52q-28 -42 -28 -110q0 -70 28 -112q34 -52 99 -52t100 52q28 43 28 112zM706 430q-63 0 -98 -41q-29 -34 -29 -82h254q0 48 -29 82q-35 41 -98 41z" />
    <glyph glyph-name="divide" unicode="&#xf7;" horiz-adv-x="680" 
d="M280 580h120v-133h-120v133zM280 153h120v-133h-120v133zM60 353h560v-98h-560v98z" />
    <glyph glyph-name="OE" unicode="&#x152;" horiz-adv-x="1118" 
d="M45 350q0 164 83 262q96 111 247 106q137 -6 208 -110v92h482v-111h-343v-174h332v-109h-332v-194h351v-112h-490v92q-66 -106 -208 -110q-153 -4 -247 106q-83 96 -83 262zM188 351q0 -113 40 -175q53 -81 153 -81t153 81q40 62 40 175q0 111 -40 175q-54 83 -153 83
t-153 -83q-40 -62 -40 -175z" />
    <glyph glyph-name="oe" unicode="&#x153;" horiz-adv-x="1006" 
d="M40 250q0 115 72 194q77 77 193 74q135 -4 195 -115q71 115 206 115q126 0 197 -83q63 -74 63 -201v-8h-391q-2 -60 23 -98q32 -54 104 -54q60 0 93 35q25 24 26 65h141q-9 -72 -62 -123q-14 -14 -33 -27.5t-66 -28.5t-99 -13q-136 8 -201 114q-66 -109 -196 -114
q-116 -3 -193 74q-72 79 -72 194zM180 251q0 -67 22 -105q11 -22 37 -41t66 -19q66 0 103 60q22 38 22 105t-21 105q-32 62 -104 62t-104 -62q-21 -38 -21 -105zM702 430q-61 0 -96 -41q-31 -36 -31 -82h254q3 44 -27 82q-35 41 -100 41z" />
    <glyph glyph-name="florin" unicode="&#x192;" horiz-adv-x="454" 
d="M40 500h114v17q0 90 47 140q8 8 17 15t17 12t19 9t18.5 6.5t19.5 4t18.5 2.5t19.5 1.5t17.5 0.5h18h15.5h33v-100h-33q-17 0 -27.5 -1.5t-24.5 -8.5t-25 -22q-17 -22 -17 -59v-17h127v-101h-126v-399q0 -54 -10 -91.5t-46 -71.5q-25 -24 -56.5 -36t-53.5 -14t-60 -2h-22
v101h10q60 0 84 33q20 26 20 81v399h-114v101z" />
    <glyph glyph-name="circumflex" unicode="&#x2c6;" horiz-adv-x="440" 
d="M150 700h140l120 -160h-120l-70 109l-70 -109h-120z" />
    <glyph glyph-name="anoteleia" unicode="&#x387;" horiz-adv-x="266" 
d="M60 332h146v-132h-146v132z" />
    <glyph glyph-name="Delta" unicode="&#x394;" horiz-adv-x="664" 
d="M231 700h202l221 -588v-112h-644v112zM156 112h352l-167 480h-18z" />
    <glyph glyph-name="Delta" unicode="&#x2206;" horiz-adv-x="664" 
d="M231 700h202l221 -588v-112h-644v112zM156 112h352l-167 480h-18z" />
    <glyph glyph-name="Omega" unicode="&#x3a9;" horiz-adv-x="760" 
d="M67 112h179v58q-85 23 -134.5 89t-51.5 161q-4 142 91 221q86 77 229 77q139 0 224 -71q101 -82 96 -226q-4 -97 -52.5 -164t-133.5 -87v-58h179v-112h-271v237q131 31 134 183q1 94 -50 143q-48 46 -126 46q-82 0 -132 -56q-42 -48 -44 -133q-1 -74 34.5 -121.5
t99.5 -61.5v-237h-271v112z" />
    <glyph glyph-name="Omega" unicode="&#x2126;" horiz-adv-x="760" 
d="M67 112h179v58q-85 23 -134.5 89t-51.5 161q-4 142 91 221q86 77 229 77q139 0 224 -71q101 -82 96 -226q-4 -97 -52.5 -164t-133.5 -87v-58h179v-112h-271v237q131 31 134 183q1 94 -50 143q-48 46 -126 46q-82 0 -132 -56q-42 -48 -44 -133q-1 -74 34.5 -121.5
t99.5 -61.5v-237h-271v112z" />
    <glyph glyph-name="mu1" unicode="&#x3bc;" horiz-adv-x="588" 
d="M60 500h136v-257q0 -75 23 -107q29 -45 89 -45q61 0 81 46q9 19 9 74v289h140v-289q0 -111 -36 -160q-48 -64 -145 -65q-66 0 -114 33q-29 21 -47 49v-268h-136v700z" />
    <glyph glyph-name="pi" unicode="&#x3c0;" horiz-adv-x="687" 
d="M40 500h607v-103h-62v-397h-136v399h-196v-399h-136v396h-77v104z" />
    <glyph glyph-name="afii10023" unicode="&#x401;" 
d="M110 854h134v-105h-134v105zM382 855h134v-105h-134v105zM70 700h490v-108h-351v-177h333v-108h-333v-195h361v-112h-500v700z" />
    <glyph glyph-name="afii10051" unicode="&#x402;" horiz-adv-x="790" 
d="M20 700h530v-111h-211v-163h115q47 0 74 -1t67 -10t67 -26q88 -65 88 -176q0 -121 -88 -175q-29 -18 -72 -27.5t-65 -10t-65 -0.5h-52l1 105h46q79 0 108 18q46 27 46 90t-46 90q-29 18 -109 18h-115v-321h-140v589h-179v111z" />
    <glyph glyph-name="afii10052" unicode="&#x403;" horiz-adv-x="485" 
d="M65 700h450v-116h-311v-584h-139v700zM298 850h124l-98 -120h-124z" />
    <glyph glyph-name="afii10053" unicode="&#x404;" horiz-adv-x="738" 
d="M467 411v-112h-272q-2 -67 30 -120q50 -82 152 -83q76 -1 123 46q44 47 48 120h145q-10 -123 -92 -199q-85 -81 -224 -81q-157 0 -249 108q-83 99 -83 260q-2 160 83 260q94 108 249 108q136 0 221 -81q81 -76 90 -195h-146q1 71 -43 119q-47 47 -122 47q-102 0 -151 -83
q-30 -51 -30 -114h271z" />
    <glyph glyph-name="afii10054" unicode="&#x405;" horiz-adv-x="660" 
d="M40 234h145q-3 -31 10 -64.5t45 -54.5q36 -25 96 -25q61 0 94 20q45 26 45 79q1 55 -47 83q-25 15 -135 41q-42 10 -64 16.5t-51 19.5t-50 29q-74 58 -68 144q4 97 82 150q70 48 184 48q116 1 194 -54q94 -67 94 -196h-141q4 78 -50 118q-37 26 -95 26q-60 0 -88 -19
q-35 -22 -39 -64q-4 -43 32 -76q22 -18 119 -41q5 -1 8.5 -2t7.5 -2q111 -26 157 -54q95 -59 95 -166q0 -105 -91 -162q-74 -48 -194 -48q-111 0 -186 51q-47 34 -77 87t-32 116z" />
    <glyph glyph-name="afii10055" unicode="&#x406;" horiz-adv-x="292" 
d="M75 700h142v-700h-142v700z" />
    <glyph glyph-name="afii10056" unicode="&#x407;" horiz-adv-x="448" 
d="M153 700h142v-700h-142v700zM40 875h144v-118h-144v118zM264 875h144v-118h-144v118z" />
    <glyph glyph-name="afii10057" unicode="&#x408;" horiz-adv-x="345" 
d="M151 700h139v-456q0 -76 -16 -131t-70 -93q-53 -38 -173 -38h-31v113h31q58 0 91 33q14 14 20.5 34t7.5 33.5t1 38.5v466z" />
    <glyph glyph-name="afii10058" unicode="&#x409;" horiz-adv-x="1057" 
d="M253 700h202l83 -244h203q135 0 203 -47q44 -30 68.5 -78t24.5 -103q0 -60 -26.5 -107.5t-69.5 -75.5q-43 -29 -90.5 -37t-113.5 -8h-194l-180 592h-18l-180 -592h-150zM656 110h87q74 0 108 25q45 34 45 95t-45 95q-34 25 -108 25h-169z" />
    <glyph glyph-name="afii10059" unicode="&#x40a;" horiz-adv-x="1067" 
d="M65 700h139v-274h293v274h139v-274h105q137 0 205 -47q79 -59 81 -166q3 -107 -86 -168q-41 -29 -88 -37t-116 -8h-240v320h-293v-320h-139v700zM636 320v-210h107q74 0 106 24q35 26 35 81q0 53 -33 80q-30 25 -108 25h-107z" />
    <glyph glyph-name="afii10060" unicode="&#x40b;" horiz-adv-x="800" 
d="M20 700h530v-111h-211v-201q28 35 73 56q51 23 109 25q62 2 115 -25t84 -73q19 -29 28.5 -68.5t10.5 -64.5t1 -75v-163h-143v163q0 88 -15 120q-15 30 -46 50t-71 20q-72 0 -117 -62q-14 -20 -20.5 -43.5t-7.5 -39.5t-1 -45v-163h-139v589h-180v111z" />
    <glyph glyph-name="afii10061" unicode="&#x40c;" horiz-adv-x="676" 
d="M70 700h139v-279h108l173 279h154l-215 -328l217 -372h-164l-165 315h-108v-315h-139v700zM375 850h124l-98 -120h-124z" />
    <glyph glyph-name="afii10062" unicode="&#x40e;" 
d="M15 700h150l143 -421h22l135 421h150l-183 -493q-3 -8 -13 -36t-14 -38.5t-14 -33t-18 -34.5t-20 -26t-25 -24q-41 -31 -124 -31h-9v107h16q36 0 54.5 19t28.5 50l6 19h-28q-24 0 -41 10.5t-24 22t-16 32.5zM107 850h120q6 -21 21 -34q23 -23 68 -23t68 23q15 13 21 34
h120q-15 -55 -57 -92q-60 -50 -152 -50t-152 50q-42 37 -57 92z" />
    <glyph glyph-name="afii10145" unicode="&#x40f;" horiz-adv-x="710" 
d="M65 700h143v-591h294v591h143v-700h-225v-200h-130v200h-225v700z" />
    <glyph glyph-name="afii10017" unicode="&#x410;" horiz-adv-x="728" 
d="M263 700h202l243 -700h-150l-57 182h-274l-57 -182h-150zM355 596l-94 -304h206l-94 304h-18z" />
    <glyph glyph-name="afii10018" unicode="&#x411;" horiz-adv-x="660" 
d="M70 700h503v-106h-364v-168h115h14q46 0 70.5 -1t60.5 -10t63 -26q88 -60 88 -176q0 -121 -88 -175q-29 -18 -72 -27.5t-65 -10t-65 -0.5h-260v700zM209 324v-216h116q78 0 107 17q45 27 45 91t-45 91q-29 17 -108 17h-115z" />
    <glyph glyph-name="afii10019" unicode="&#x412;" horiz-adv-x="666" 
d="M70 700h267q47 0 71 -1t62.5 -9.5t66.5 -25.5q77 -48 77 -146q0 -63 -30.5 -100.5t-79.5 -51.5q34 -10 58.5 -30t36.5 -39t18.5 -43t7.5 -35t1 -23q0 -98 -76 -155q-28 -20 -68 -29.5t-65.5 -10.5t-75.5 -1h-271v700zM209 313v-208h132q72 0 99 17q41 24 41 87t-41 87
q-27 17 -99 17h-132zM209 599v-185h132q73 0 96 16q36 22 36 76q0 51 -36 77q-24 16 -96 16h-132z" />
    <glyph glyph-name="afii10020" unicode="&#x413;" horiz-adv-x="490" 
d="M70 700h450v-114h-311v-586h-139v700z" />
    <glyph glyph-name="afii10021" unicode="&#x414;" horiz-adv-x="670" 
d="M234 700h202l219 -588v-112h-640v112zM326 596l-169 -484h356l-169 484h-18z" />
    <glyph glyph-name="afii10022" unicode="&#x415;" horiz-adv-x="615" 
d="M70 700h490v-108h-351v-177h333v-108h-333v-195h361v-112h-500v700z" />
    <glyph glyph-name="afii10024" unicode="&#x416;" horiz-adv-x="996" 
d="M17 700h150l160 -284h103v284h136v-284h103l160 284h150l-200 -329l202 -371h-160l-152 320h-103v-320h-136v320h-103l-152 -320h-160l202 371z" />
    <glyph glyph-name="afii10025" unicode="&#x417;" horiz-adv-x="666" 
d="M299 411h37q71 0 103 26q36 29 35 80t-46 77q-34 20 -86 20q-63 0 -97 -25q-30 -21 -43.5 -54.5t-13.5 -64.5h-140q3 60 31 112t74 85q75 53 191 53q125 0 190 -51q80 -57 80 -145q2 -56 -29 -100t-91 -59q56 -14 95 -57.5t37 -118.5q-5 -103 -88 -158q-77 -51 -198 -51
q-116 0 -192 54q-46 32 -75.5 86.5t-32.5 113.5h142q2 -77 60 -117q40 -27 100 -27q58 0 91 18q52 30 52 90t-47 90q-35 22 -102 22h-37v101z" />
    <glyph glyph-name="afii10026" unicode="&#x418;" horiz-adv-x="720" 
d="M70 700h139v-377l302 202v175h139v-700h-139v397l-302 -202v-195h-139v700z" />
    <glyph glyph-name="afii10027" unicode="&#x419;" horiz-adv-x="720" 
d="M70 700h139v-377l302 202v175h139v-700h-139v397l-302 -202v-195h-139v700zM151 850h120q6 -21 21 -34q23 -23 68 -23t68 23q15 13 21 34h120q-15 -55 -57 -92q-60 -50 -152 -50t-152 50q-42 37 -57 92z" />
    <glyph glyph-name="afii10028" unicode="&#x41a;" horiz-adv-x="661" 
d="M70 700h139v-279h108l173 279h154l-215 -328l217 -372h-164l-165 315h-108v-315h-139v700z" />
    <glyph glyph-name="afii10029" unicode="&#x41b;" horiz-adv-x="708" 
d="M249 700h210l234 -700h-150l-180 596h-18l-180 -596h-150z" />
    <glyph glyph-name="afii10030" unicode="&#x41c;" horiz-adv-x="828" 
d="M70 700h144l200 -257l200 257h144v-700h-136v546l-208 -271l-208 271v-546h-136v700z" />
    <glyph glyph-name="afii10031" unicode="&#x41d;" horiz-adv-x="720" 
d="M70 700h139v-277h302v277h139v-700h-139v313h-302v-313h-139v700z" />
    <glyph glyph-name="afii10032" unicode="&#x41e;" horiz-adv-x="740" 
d="M40 350q0 163 87 262q94 106 243 106t243 -106q87 -99 87 -262t-87 -262q-94 -106 -243 -106t-243 106q-87 99 -87 262zM185 351q0 -116 39 -176q56 -79 146 -79t146 79q39 60 39 176q0 113 -39 176q-53 81 -146 81t-146 -81q-39 -63 -39 -176z" />
    <glyph glyph-name="afii10033" unicode="&#x41f;" horiz-adv-x="720" 
d="M70 700h580v-700h-139v589h-302v-589h-139v700z" />
    <glyph glyph-name="afii10034" unicode="&#x420;" 
d="M70 700h233q141 0 208 -46q89 -67 89 -183q0 -124 -89 -183q-67 -46 -208 -46h-94v-242h-139v700zM209 596v-248h100q73 0 106 24q44 31 44 100t-44 100q-33 24 -106 24h-100z" />
    <glyph glyph-name="afii10035" unicode="&#x421;" horiz-adv-x="712" 
d="M527 262h145q-7 -121 -88 -199q-85 -81 -217 -81q-157 0 -246 110q-81 97 -81 258t81 258q92 110 246 110q129 0 217 -81q80 -80 83 -195h-144q1 72 -41 120q-43 48 -115 46q-98 -1 -146 -83q-36 -65 -36 -173q0 -110 36 -173q48 -83 146 -83q71 0 117 46q44 48 43 120z
" />
    <glyph glyph-name="afii10036" unicode="&#x422;" horiz-adv-x="570" 
d="M15 700h540v-108h-201v-592h-140v592h-199v108z" />
    <glyph glyph-name="afii10037" unicode="&#x423;" 
d="M15 700h150l143 -421h22l135 421h150l-183 -493q-3 -8 -13 -36t-14 -38.5t-14 -33t-18 -34.5t-20 -26t-25 -24q-41 -31 -124 -31h-9v107h16q36 0 54.5 19t28.5 50l6 19h-28q-24 0 -41 10.5t-24 22t-16 32.5z" />
    <glyph glyph-name="afii10038" unicode="&#x424;" horiz-adv-x="966" 
d="M184 352q0 -114 52 -184q68 -89 181 -85v538q-113 0 -178 -80q-55 -67 -55 -189zM782 352q0 117 -55 187q-68 82 -178 82v-538q110 0 178 82q55 68 55 187zM40 350q0 179 125 281q44 36 106.5 55.5t107 23.5t104.5 4q100 0 177.5 -16t140.5 -67q125 -102 125 -281
t-125 -281q-63 -51 -140.5 -67t-177.5 -16q-99 0 -178.5 17t-145.5 72q-50 40 -84.5 109.5t-34.5 165.5z" />
    <glyph glyph-name="afii10039" unicode="&#x425;" horiz-adv-x="690" 
d="M28 700h150l159 -279h16l159 279h150l-198 -329l211 -371h-157l-165 314h-16l-165 -314h-157l211 371z" />
    <glyph glyph-name="afii10040" unicode="&#x426;" horiz-adv-x="730" 
d="M70 700h139v-588h302v588h139v-588h80l-40 -112h-620v700z" />
    <glyph glyph-name="afii10041" unicode="&#x427;" horiz-adv-x="680" 
d="M50 700h139v-195q0 -89 15 -122q32 -69 117 -68q80 0 121 60q29 43 29 130v195h139v-700h-139v274q-29 -35 -73 -54q-45 -19 -101 -21q-138 -4 -205 98q-27 42 -34.5 90.5t-7.5 117.5v195z" />
    <glyph glyph-name="afii10042" unicode="&#x428;" horiz-adv-x="1054" 
d="M70 700h139v-586h249v586h138v-586h249v586h139v-700h-914v700z" />
    <glyph glyph-name="afii10043" unicode="&#x429;" horiz-adv-x="1064" 
d="M70 700h140v-586h247v586h140v-586h247v586h140v-586h80l-40 -114h-954v700z" />
    <glyph glyph-name="afii10044" unicode="&#x42a;" horiz-adv-x="693" 
d="M15 700h237v-244h105q100 0 143 -12q33 -10 60 -28q41 -28 67 -77t26 -111t-26 -111t-67 -77q-30 -20 -71 -29.5t-61 -10t-71 -0.5h-244v594h-98v106zM252 350v-240h107h13h15.5t14.5 0.5t17.5 2t15.5 3.5t16 5.5t14 8.5q43 32 43 100t-43 100q-7 5 -14 8.5t-16 5.5
t-15.5 3.5t-17.5 2t-14.5 0.5h-15.5h-13h-107z" />
    <glyph glyph-name="afii10045" unicode="&#x42b;" horiz-adv-x="900" 
d="M690 700h140v-700h-140v700zM70 700h139v-244h105q45 0 69 -1t64 -10.5t69 -28.5q42 -28 68 -77t26 -111t-26 -111t-68 -77q-29 -19 -69 -28.5t-64 -10.5t-69 -1h-244v700zM209 350v-240h107h13h15.5t14.5 0.5t17.5 2t15.5 3.5t16 5.5t14 8.5q43 32 43 100t-43 100
q-7 5 -14 8.5t-16 5.5t-15.5 3.5t-17.5 2t-14.5 0.5h-15.5h-13h-107z" />
    <glyph glyph-name="afii10046" unicode="&#x42c;" horiz-adv-x="650" 
d="M70 700h139v-244h105q45 0 69 -1t64 -10.5t69 -28.5q42 -28 68 -77t26 -111t-26 -111t-68 -77q-29 -19 -69 -28.5t-64 -10.5t-69 -1h-244v700zM209 350v-240h107h13h15.5t14.5 0.5t17.5 2t15.5 3.5t16 5.5t14 8.5q43 32 43 100t-43 100q-7 5 -14 8.5t-16 5.5t-15.5 3.5
t-17.5 2t-14.5 0.5h-15.5h-13h-107z" />
    <glyph glyph-name="afii10047" unicode="&#x42d;" horiz-adv-x="728" 
d="M266 411h271q0 63 -30 114q-49 83 -151 83q-75 0 -122 -47q-44 -48 -43 -119h-146q9 119 90 195q85 81 221 81q155 0 249 -108q85 -100 83 -260q0 -161 -83 -260q-91 -108 -249 -108q-139 0 -224 81q-82 76 -92 199h145q4 -73 48 -120q47 -47 123 -46q102 1 152 83
q32 53 30 120h-272v112z" />
    <glyph glyph-name="afii10048" unicode="&#x42e;" horiz-adv-x="1030" 
d="M70 700h140v-289h123q12 120 84 201q94 106 243 106t243 -106q87 -99 87 -262t-87 -262q-94 -106 -243 -106t-243 106q-77 89 -85 213h-122v-301h-140v700zM475 351q0 -116 39 -176q56 -79 146 -79t146 79q39 60 39 176q0 113 -39 176q-53 81 -146 81t-146 -81
q-39 -63 -39 -176z" />
    <glyph glyph-name="afii10049" unicode="&#x42f;" horiz-adv-x="681" 
d="M611 700v-700h-139v283h-110q-45 0 -67 -14q-22 -16 -38 -57l-88 -212h-154l117 252q16 32 28 47t34 26q-38 10 -65 32q-61 50 -61 136q0 63 29.5 107.5t73.5 67.5q9 5 20 9.5t20 7.5t21.5 5.5t20.5 4t22.5 2.5t20.5 1.5t22 1t20 0.5h21h19h233zM472 596h-127
q-68 0 -98 -22q-37 -28 -37 -83t37 -83q29 -22 97 -22h128v210z" />
    <glyph glyph-name="afii10065" unicode="&#x430;" 
d="M570 500v-500h-131l-6 70q-48 -84 -156 -84q-104 -1 -173 75q-64 71 -64 189t64 189q69 76 173 75q104 0 156 -82l6 68h131zM437 253q0 68 -28 110q-34 52 -100 52q-65 0 -99 -52q-28 -42 -28 -110q0 -70 28 -112q34 -52 99 -52q66 0 100 52q28 42 28 112z" />
    <glyph glyph-name="afii10066" unicode="&#x431;" horiz-adv-x="616" 
d="M515 700v-98h-173q-84 0 -121 -39q-30 -32 -30 -102v-27q47 66 144 66q108 2 175 -71q66 -69 66 -186q0 -115 -66 -186q-71 -75 -200 -75q-131 0 -199 86q-61 77 -61 231v65q0 53 2 86t18.5 86.5t48.5 88.5q25 27 55 44t66.5 23t55.5 7t56 1h163zM434 244q0 68 -24 108
q-32 53 -98 53q-68 0 -100 -53q-25 -38 -25 -108t25 -108q35 -53 100 -53t98 53q24 40 24 108z" />
    <glyph glyph-name="afii10067" unicode="&#x432;" horiz-adv-x="600" 
d="M250 413h48q54 0 82 35q21 27 21 73q-1 46 -27 72q-27 28 -77 28q-66 0 -94 -48q-17 -30 -17 -136v-156q0 -42 0.5 -58.5t4.5 -42t13 -41.5q28 -56 102 -56q58 0 88 38q26 33 26 88q0 56 -25 83q-18 21 -40.5 26.5t-56.5 5.5h-48v89zM50 281v156q0 42 2 69t15.5 67.5
t38.5 69.5q65 75 190 75q101 0 164 -43q74 -54 74 -146q0 -62 -32 -104q-28 -37 -74 -51q59 -22 87 -52q45 -46 45 -124q0 -107 -80 -166q-69 -50 -177 -50q-131 0 -197 79q-34 41 -45 94.5t-11 125.5z" />
    <glyph glyph-name="afii10068" unicode="&#x433;" horiz-adv-x="550" 
d="M178 340h-136q0 51 24.5 89.5t62.5 60.5q57 30 150 30q94 0 147 -32q68 -40 68 -117q0 -65 -42 -101q-30 -25 -117 -51q-25 -8 -58.5 -17t-45.5 -13q-17 -6 -25 -10.5t-17 -17t-9 -30.5q1 -33 29 -48q22 -14 61 -14q46 0 73 23t27 59v13h140q0 -84 -68 -138
q-59 -46 -169 -46q-93 0 -152 29q-81 41 -81 126q0 77 69 118q41 22 135 46q71 18 88 29q26 18 26 46q0 30 -27 49q-20 12 -59 12q-38 0 -61 -16l-4 -3l-7 -7t-7.5 -9t-7.5 -12.5t-5 -15.5t-2 -19v-13z" />
    <glyph glyph-name="afii10069" unicode="&#x434;" 
d="M570 500v-500q0 -112 -56 -165q-36 -34 -76.5 -43.5t-96.5 -9.5h-29v102h17q59 0 85 34q19 25 19 82v70q-48 -84 -156 -84q-104 -1 -173 75q-64 71 -64 189t64 189q69 76 173 75q104 0 156 -82l6 68h131zM437 253q0 68 -28 110q-34 52 -100 52q-65 0 -99 -52
q-28 -42 -28 -110q0 -70 28 -112q34 -52 99 -52q66 0 100 52q28 42 28 112z" />
    <glyph glyph-name="afii10070" unicode="&#x435;" horiz-adv-x="608" 
d="M304 433q-65 0 -99 -43q-26 -32 -28 -83h255q2 49 -26 83q-34 43 -102 43zM424 166h140q-15 -71 -60 -114q-70 -70 -199 -70q-129 1 -197 76q-68 72 -68 192q0 119 72 195q72 73 192 73q125 0 200 -81q64 -73 64 -203v-8h-391q-2 -57 23 -98q33 -56 105 -57q56 -1 92 37
q22 24 27 58z" />
    <glyph glyph-name="afii10072" unicode="&#x436;" horiz-adv-x="790" 
d="M17 500h145l102 -200h68v200h126v-200h68l102 200h145l-131 -234l133 -266h-149l-100 222h-68v-222h-126v222h-68l-100 -222h-149l133 266z" />
    <glyph glyph-name="afii10073" unicode="&#x437;" horiz-adv-x="558" 
d="M247 296h32q46 0 66 13q27 18 27 55q0 38 -30 57q-22 14 -59 14q-41 0 -64 -18q-33 -26 -33 -77h-136q5 101 91 148q58 32 144 32q89 0 144 -28q79 -39 79 -118q0 -42 -26 -75q-19 -26 -57 -36q38 -13 61 -38q34 -37 32 -91q-2 -80 -79 -122q-57 -32 -156 -32
q-94 0 -149 31q-89 48 -94 153h140q0 -50 31 -75q24 -20 70 -20q40 0 62 12q33 17 35 59q0 35 -23 54q-22 18 -76 18h-32v84z" />
    <glyph glyph-name="afii10074" unicode="&#x438;" horiz-adv-x="588" 
d="M50 500h140v-289q0 -55 11 -76q21 -44 79 -44q55 0 89 45q23 32 23 107v257h136v-500h-130l-6 68q-22 -34 -52 -52q-46 -30 -113 -30q-89 0 -138 65q-39 55 -39 170v279z" />
    <glyph glyph-name="afii10075" unicode="&#x439;" horiz-adv-x="588" 
d="M50 500h140v-289q0 -55 11 -76q21 -44 79 -44q55 0 89 45q23 32 23 107v257h136v-500h-130l-6 68q-22 -34 -52 -52q-46 -30 -113 -30q-89 0 -138 65q-39 55 -39 170v279zM95 700h120q-3 -24 14 -51q23 -29 58 -29t58 29q17 27 14 51h120q-4 -72 -51 -119
q-52 -52 -141 -52t-141 52q-47 47 -51 119z" />
    <glyph glyph-name="afii10076" unicode="&#x43a;" horiz-adv-x="545" 
d="M60 500h136v-191h72l110 191h149l-151 -234l154 -266h-153l-109 216h-72v-216h-136v500z" />
    <glyph glyph-name="afii10077" unicode="&#x43b;" horiz-adv-x="560" 
d="M175 500h210l160 -500h-144l-114 408h-14l-114 -408h-144z" />
    <glyph glyph-name="afii10078" unicode="&#x43c;" horiz-adv-x="680" 
d="M60 500h144l136 -174l136 174h144v-500h-136v367l-144 -189l-144 189v-367h-136v500z" />
    <glyph glyph-name="afii10079" unicode="&#x43d;" horiz-adv-x="588" 
d="M60 500h136v-190h196v190h136v-500h-136v213h-196v-213h-136v500z" />
    <glyph glyph-name="afii10080" unicode="&#x43e;" horiz-adv-x="618" 
d="M40 250q0 119 75 194q74 74 194 74t194 -74q75 -75 75 -194t-75 -194q-74 -74 -194 -74t-194 74q-75 75 -75 194zM182 252q0 -62 21 -104q31 -65 106 -65q72 0 106 65q21 42 21 104t-21 104q-34 65 -106 65q-75 0 -106 -65q-21 -42 -21 -104z" />
    <glyph glyph-name="afii10081" unicode="&#x43f;" horiz-adv-x="588" 
d="M60 500h130l6 -68q22 34 52 52q48 30 109 30q96 0 145 -65q36 -49 36 -160v-289h-140v289q0 55 -9 74q-20 46 -81 46q-60 0 -89 -45q-23 -32 -23 -107v-257h-136v500z" />
    <glyph glyph-name="afii10082" unicode="&#x440;" 
d="M60 500h131l6 -68q52 82 156 82q104 1 173 -75q64 -71 64 -189t-64 -189q-68 -75 -173 -75t-156 84v-270h-137v700zM193 253q0 -70 28 -112q34 -52 100 -52q65 0 99 52q28 42 28 112q0 68 -28 110q-34 52 -99 52q-66 0 -100 -52q-28 -42 -28 -110z" />
    <glyph glyph-name="afii10083" unicode="&#x441;" horiz-adv-x="590" 
d="M408 201h142q-3 -101 -78 -164q-64 -55 -172 -55q-120 0 -192 76q-68 72 -68 193q0 116 67 190q69 77 193 77q105 0 170 -55q71 -63 74 -160h-138q0 38 -26 80q-30 38 -80 38q-62 0 -94 -56q-24 -43 -24 -114t23 -113q30 -54 95 -55q53 0 83 36q27 33 25 82z" />
    <glyph glyph-name="afii10084" unicode="&#x442;" horiz-adv-x="430" 
d="M15 500h400v-98h-132v-402h-136v402h-132v98z" />
    <glyph glyph-name="afii10085" unicode="&#x443;" horiz-adv-x="560" 
d="M15 500h144l122 -404h14l106 404h144l-170 -554q-33 -101 -81 -133q-51 -36 -131 -31v102q36 -2 59 16q13 9 21.5 23t11 21.5t7.5 26.5l8 29h-28q-35 0 -51.5 19t-27.5 52z" />
    <glyph glyph-name="afii10086" unicode="&#x444;" horiz-adv-x="798" 
d="M177 250q0 -88 43 -131q43 -44 114 -43v349q-72 0 -114 -44q-43 -43 -43 -131zM621 250q0 86 -43 131q-44 44 -114 44v-349q70 -1 114 43q43 45 43 131zM40 250q0 70 28.5 121t69.5 79q82 59 261 59q176 0 261 -59q41 -28 69.5 -79t28.5 -121q0 -124 -98 -200
q-81 -59 -196 -59v-191h-130v191q-111 -5 -196 59q-98 76 -98 200z" />
    <glyph glyph-name="afii10087" unicode="&#x445;" horiz-adv-x="560" 
d="M23 500h142l108 -190h14l108 190h142l-142 -234l150 -266h-146l-113 213h-13l-112 -213h-146l150 266z" />
    <glyph glyph-name="afii10088" unicode="&#x446;" horiz-adv-x="606" 
d="M50 500h139v-279q0 -60 12 -85q24 -45 78 -44q51 1 80 40q20 28 20 93v275h139v-355q0 -48 12 -66q27 -38 76 -34v-245h-135v200q-35 1 -58 24q-18 19 -23 46q-16 -33 -48 -54q-47 -32 -111 -32q-96 1 -143 66q-18 26 -27 62t-10 55.5t-1 60.5v272z" />
    <glyph glyph-name="afii10089" unicode="&#x447;" horiz-adv-x="536" 
d="M30 500h136v-141q0 -55 14 -78q22 -36 71 -36q50 0 73 34q16 24 16 80v141h136v-500h-136v190q-44 -52 -126 -52q-104 -1 -154 75q-30 45 -30 159v128z" />
    <glyph glyph-name="afii10090" unicode="&#x448;" horiz-adv-x="853" 
d="M50 500h140v-278q0 -66 13 -89q23 -38 70 -37q47 2 68 38q15 27 15 88v278h136v-278q0 -66 13 -89q22 -38 70 -37q40 2 63 39q19 32 19 107v258h136v-500h-130l-6 72q-13 -29 -46 -57q-39 -29 -92 -31q-45 -1 -84 21t-59 67q-58 -88 -156 -88q-55 0 -92 23.5t-53 55.5
q-12 21 -17.5 50t-6.5 50t-1 61v276z" />
    <glyph glyph-name="afii10091" unicode="&#x449;" horiz-adv-x="884" 
d="M50 500h139v-281q0 -65 12 -86q21 -37 68 -37q51 0 71 38q16 23 16 83v283h132v-281q0 -65 12 -86q20 -37 68 -37t72 40q15 25 15 81v283h139v-355q0 -44 21 -69q27 -32 69 -28v-248h-135v200q-31 5 -52 26t-25 44q-19 -34 -50 -55q-43 -29 -93 -29q-69 -1 -109 37
q-24 23 -37 52q-50 -91 -167 -89q-87 0 -131 63q-6 8 -10.5 17.5t-8 16.5t-6 18t-4.5 17t-3 19t-1.5 17t-1 18.5t-0.5 16.5v18v16v277z" />
    <glyph glyph-name="afii10092" unicode="&#x44a;" horiz-adv-x="584" 
d="M-20 598h112q54 0 75 -21q19 -19 19 -60v-157q48 62 140 62q88 0 151 -59q66 -60 67 -160q1 -90 -57 -150q-69 -72 -194 -71q-129 0 -194 86q-22 28 -32.5 62t-12.5 58.5t-2 67.5v244h-72v98zM400 204q0 54 -27 86q-31 36 -80 36t-80 -36q-27 -32 -27 -86t27 -86
q31 -36 80 -36t80 36q27 32 27 86z" />
    <glyph glyph-name="afii10093" unicode="&#x44b;" horiz-adv-x="830" 
d="M634 500h136v-500h-136v500zM50 552h136v-192q48 62 140 62q88 0 151 -59q66 -60 67 -160q1 -90 -57 -150q-69 -72 -194 -71q-129 0 -194 86q-24 30 -36 70t-12.5 57.5t-0.5 60.5v296zM400 204q0 54 -27 86q-31 36 -80 36t-80 -36q-27 -32 -27 -86t27 -86q31 -36 80 -36
t80 36q27 32 27 86z" />
    <glyph glyph-name="afii10094" unicode="&#x44c;" horiz-adv-x="584" 
d="M50 552h136v-192q48 62 140 62q88 0 151 -59q66 -60 67 -160q1 -90 -57 -150q-69 -72 -194 -71q-129 0 -194 86q-24 30 -36 70t-12.5 57.5t-0.5 60.5v296zM400 204q0 54 -27 86q-31 36 -80 36t-80 -36q-27 -32 -27 -86t27 -86q31 -36 80 -36t80 36q27 32 27 86z" />
    <glyph glyph-name="afii10095" unicode="&#x44d;" horiz-adv-x="598" 
d="M245 294h171q0 41 -18 71q-32 58 -104 56q-55 0 -85 -37q-28 -34 -28 -74h-136q7 89 78 150q68 58 170 58q126 2 199 -77q66 -70 66 -190q0 -123 -66 -193q-69 -76 -198 -76q-106 0 -174 54q-74 55 -80 158h140q1 -43 27 -75q30 -36 87 -36q73 0 105 56q17 33 17 70h-171
v85z" />
    <glyph glyph-name="afii10096" unicode="&#x44e;" horiz-adv-x="850" 
d="M60 500h136v-191h91q10 80 65 135q72 74 193 74q120 0 191 -74q74 -77 74 -194t-74 -194q-74 -74 -191 -74q-120 0 -194 74q-62 62 -67 160h-88v-216h-136v500zM420 251q0 -67 22 -105q33 -61 102 -63q69 -1 104 63q20 41 20 105t-20 105q-34 65 -104 65q-69 0 -103 -65
q-21 -36 -21 -105z" />
    <glyph glyph-name="afii10097" unicode="&#x44f;" horiz-adv-x="548" 
d="M488 500v-500h-133v190h-78l-107 -190h-150l126 204q-39 6 -68 36q-39 39 -37 104q4 89 69 129q21 13 51 19t51 7t61 1h215zM355 414h-73q-54 0 -73 -12q-30 -20 -30 -60t30 -60q19 -12 73 -12h73v144z" />
    <glyph glyph-name="afii10071" unicode="&#x451;" horiz-adv-x="608" 
d="M109 700h124v-125h-124v125zM376 700h124v-125h-124v125zM304 433q-65 0 -99 -43q-26 -32 -28 -83h255q2 49 -26 83q-34 43 -102 43zM424 166h140q-15 -71 -60 -114q-70 -70 -199 -70q-129 1 -197 76q-68 72 -68 192q0 119 72 195q72 73 192 73q125 0 200 -81
q64 -73 64 -203v-8h-391q-2 -57 23 -98q33 -56 105 -57q56 -1 92 37q22 24 27 58z" />
    <glyph glyph-name="afii10099" unicode="&#x452;" horiz-adv-x="650" 
d="M10 590h117v110h136v-110h207v-86h-207v-167q18 28 47 49q50 34 114 33q97 -2 145 -65q5 -7 9 -15t7 -15t5.5 -16.5t4 -16t2.5 -17.5t1.5 -16t1 -17t0.5 -15.5v-16.5v-15v-194q0 -112 -56 -165q-36 -34 -76.5 -43.5t-96.5 -9.5h-22v102h10q59 0 85 34q19 25 19 82v194
q0 58 -7 74q-20 46 -81 46q-60 0 -89 -45q-23 -32 -23 -107v-162h-136v504h-117v86z" />
    <glyph glyph-name="afii10100" unicode="&#x453;" horiz-adv-x="550" 
d="M305 700h110l-110 -140h-110zM178 340h-136q0 51 24.5 89.5t62.5 60.5q57 30 150 30q94 0 147 -32q68 -40 68 -117q0 -65 -42 -101q-30 -25 -117 -51q-25 -8 -58.5 -17t-45.5 -13q-17 -6 -25 -10.5t-17 -17t-9 -30.5q1 -33 29 -48q22 -14 61 -14q46 0 73 23t27 59v13h140
q0 -84 -68 -138q-59 -46 -169 -46q-93 0 -152 29q-81 41 -81 126q0 77 69 118q41 22 135 46q71 18 88 29q26 18 26 46q0 30 -27 49q-20 12 -59 12q-38 0 -61 -16l-4 -3l-7 -7t-7.5 -9t-7.5 -12.5t-5 -15.5t-2 -19v-13z" />
    <glyph glyph-name="afii10101" unicode="&#x454;" horiz-adv-x="598" 
d="M353 294v-85h-171q0 -37 17 -70q32 -56 105 -56q57 0 87 36q26 32 27 75h140q-6 -101 -80 -158q-68 -54 -174 -54q-129 0 -198 76q-66 70 -66 193q0 120 66 190q73 79 199 77q102 0 170 -58q63 -54 78 -150h-136q0 40 -28 74q-30 37 -85 37q-72 2 -104 -56
q-18 -30 -18 -71h171z" />
    <glyph glyph-name="afii10102" unicode="&#x455;" horiz-adv-x="550" 
d="M182 164v-13q0 -37 25 -59q26 -23 73 -23q39 0 61 14q27 17 27 48q1 24 -11 36.5t-38 21.5q-10 3 -38 11t-66 19q-87 26 -117 51q-42 36 -42 101q0 77 68 117q53 32 147 32q93 0 150 -30q38 -22 62.5 -60.5t24.5 -89.5h-138v13q0 43 -32 66q-22 16 -60 16q-40 0 -59 -13
q-25 -18 -25 -48q1 -29 24 -46q14 -10 88 -29q100 -25 135 -46q69 -41 69 -118q0 -84 -81 -126q-59 -29 -152 -29q-110 0 -169 46q-68 54 -68 138h142z" />
    <glyph glyph-name="afii10103" unicode="&#x456;" horiz-adv-x="284" 
d="M74 500h136v-500h-136v500zM70 700h144v-118h-144v118z" />
    <glyph glyph-name="afii10104" unicode="&#x457;" horiz-adv-x="468" 
d="M166 500h136v-500h-136v500zM50 700h144v-118h-144v118zM274 700h144v-118h-144v118z" />
    <glyph glyph-name="afii10105" unicode="&#x458;" horiz-adv-x="284" 
d="M70 700h144v-118h-144v118zM74 500h136v-700h-136v700z" />
    <glyph glyph-name="afii10106" unicode="&#x459;" horiz-adv-x="796" 
d="M176 500h198l60 -182h111q41 0 64.5 -1.5t55 -9.5t55.5 -23q66 -48 66 -125q0 -47 -21.5 -81.5t-50.5 -49.5q-22 -13 -54 -19.5t-55.5 -7.5t-70.5 -1h-138l-115 402h-12l-115 -402h-144zM463 232l48 -146h39q51 0 69 12q30 20 30 61t-30 61q-18 12 -69 12h-87z" />
    <glyph glyph-name="afii10107" unicode="&#x45a;" horiz-adv-x="864" 
d="M60 500h136v-190h196v190h136v-182h75q41 0 64.5 -1.5t55 -9.5t55.5 -23q66 -48 66 -125q0 -47 -21.5 -81.5t-50.5 -49.5q-22 -13 -54 -19.5t-55.5 -7.5t-70.5 -1h-200v210h-196v-210h-136v500zM528 86h80q51 0 69 12q30 20 30 61t-30 61q-18 12 -69 12h-80v-146z" />
    <glyph glyph-name="afii10108" unicode="&#x45b;" horiz-adv-x="650" 
d="M10 590h112v110h136v-110h212v-86h-212v-167q18 28 47 49q48 33 114 33q97 -1 145 -65q36 -49 36 -160v-194h-140v194q0 55 -9 74q-20 46 -81 46q-60 0 -89 -45q-23 -32 -23 -107v-162h-136v504h-112v86z" />
    <glyph glyph-name="afii10109" unicode="&#x45c;" horiz-adv-x="565" 
d="M60 500h136v-191h72l110 191h149l-151 -234l154 -266h-153l-109 216h-72v-216h-136v500zM323 700h110l-110 -140h-110z" />
    <glyph glyph-name="afii10110" unicode="&#x45e;" horiz-adv-x="560" 
d="M15 500h144l122 -404h14l106 404h144l-170 -554q-33 -101 -81 -133q-51 -36 -131 -31v102q36 -2 59 16q13 9 21.5 23t11 21.5t7.5 26.5l8 29h-28q-35 0 -51.5 19t-27.5 52zM90 700h120q-3 -24 14 -51q23 -29 58 -29t58 29q17 27 14 51h120q-4 -72 -51 -119
q-52 -52 -141 -52t-141 52q-47 47 -51 119z" />
    <glyph glyph-name="afii10193" unicode="&#x45f;" horiz-adv-x="598" 
d="M60 500h140v-411h198v411h140v-500h-174v-200h-130v200h-174v500z" />
    <glyph glyph-name="afii10050" unicode="&#x490;" horiz-adv-x="485" 
d="M65 700h332v140h118v-256h-311v-584h-139v700z" />
    <glyph glyph-name="afii10098" unicode="&#x491;" horiz-adv-x="418" 
d="M308 700h110v-293h-218v-407h-140v500h248v200z" />
    <glyph glyph-name="cyrAE" unicode="&#x4d4;" horiz-adv-x="1088" 
d="M263 700h554l38 -107h-351l60 -178h343l37 -107h-343l68 -196h360l39 -112h-508l-57 182h-278l-57 -182h-148zM355 595l-95 -303h208l-95 303h-18z" />
    <glyph glyph-name="cyrae" unicode="&#x4d5;" horiz-adv-x="1010" 
d="M568 500v-68q55 86 174 86q112 1 174 -83q54 -72 54 -201v-8h-391q-2 -60 23 -98q32 -54 104 -54q60 0 93 35q25 24 26 65h141q-9 -70 -62 -123q-70 -70 -167 -69q-41 0 -88.5 19t-80.5 69v-70h-137v70q-47 -82 -156 -84q-103 -2 -171 75q-64 74 -64 189t64 189
q68 77 171 75q104 0 156 -82v68h137zM435 253q0 69 -28 110q-35 52 -100 52t-99 -52q-28 -42 -28 -110q0 -70 28 -112q34 -52 99 -52t100 52q28 43 28 112zM706 430q-63 0 -98 -41q-29 -34 -29 -82h254q0 48 -29 82q-35 41 -98 41z" />
    <glyph glyph-name="endash" unicode="&#x2013;" horiz-adv-x="640" 
d="M60 316h520v-91h-520v91z" />
    <glyph glyph-name="emdash" unicode="&#x2014;" horiz-adv-x="900" 
d="M0 316h900v-98h-900v98z" />
    <glyph glyph-name="quoteleft" unicode="&#x2018;" horiz-adv-x="273" 
d="M126 700h87q-3 -4 -16 -24.5t-23 -37t-15 -28.5q-13 -32 -19 -85h66v-132h-146v118q0 55 19 106q13 37 47 83z" />
    <glyph glyph-name="quoteright" unicode="&#x2019;" horiz-adv-x="273" 
d="M67 700h146v-118q0 -55 -19 -106q-13 -37 -47 -83h-87q41 55 54 90q13 32 19 85h-66v132z" />
    <glyph glyph-name="quotesinglbase" unicode="&#x201a;" horiz-adv-x="273" 
d="M67 132h146v-118q0 -55 -19 -106q-13 -37 -47 -83h-87q41 55 54 90q13 32 19 85h-66v132z" />
    <glyph glyph-name="quotedblleft" unicode="&#x201c;" horiz-adv-x="519" 
d="M306 700h146v-132h-66q6 -53 19 -85q13 -35 54 -90h-87q-31 42 -47 83q-19 46 -19 106v118zM60 700h146v-132h-65q6 -59 18 -85q13 -35 54 -90h-87q-34 46 -47 83q-19 51 -19 106v118z" />
    <glyph glyph-name="quotedblright" unicode="&#x201d;" horiz-adv-x="519" 
d="M67 700h146v-118q0 -60 -19 -106q-16 -41 -47 -83h-87q41 55 54 90q13 32 19 85h-66v132zM313 700h146v-118q0 -55 -19 -106q-13 -37 -47 -83h-87q41 55 54 90q12 26 18 85h-65v132z" />
    <glyph glyph-name="quotedblbase" unicode="&#x201e;" horiz-adv-x="519" 
d="M67 132h146v-118q0 -60 -19 -106q-16 -41 -47 -83h-87q41 55 54 90q13 32 19 85h-66v132zM313 132h146v-118q0 -55 -19 -106q-13 -37 -47 -83h-87q41 55 54 90q12 26 18 85h-65v132z" />
    <glyph glyph-name="dagger" unicode="&#x2020;" horiz-adv-x="560" 
d="M220 750h120v-185h160v-112h-160v-653h-120v653h-160v112h160v185z" />
    <glyph glyph-name="daggerdbl" unicode="&#x2021;" horiz-adv-x="560" 
d="M220 750h120v-185h160v-112h-160v-306h160v-112h-160v-235h-120v235h-160v112h160v306h-160v112h160v185z" />
    <glyph glyph-name="bullet" unicode="&#x2022;" horiz-adv-x="360" 
d="M60 266q0 50 35 85t85 35t85 -35t35 -85t-35 -85t-85 -35t-85 35t-35 85z" />
    <glyph glyph-name="ellipsis" unicode="&#x2026;" horiz-adv-x="758" 
d="M60 132h146v-132h-146v132zM306 132h146v-132h-146v132zM552 132h146v-132h-146v132z" />
    <glyph glyph-name="perthousand" unicode="&#x2030;" horiz-adv-x="1544" 
d="M60 501q0 100 62 156q57 54 145 54q86 0 145 -55q62 -60 62 -155q0 -97 -62 -157q-58 -54 -145 -54t-145 54q-62 60 -62 157zM180 501q0 -55 18 -84q24 -38 69 -38t69 38q18 29 18 84t-18 84q-24 38 -69 38t-69 -38q-18 -29 -18 -84zM728 700h120l-494 -700h-120z
M608 200q0 100 62 156q57 54 145 54q86 0 145 -55q62 -60 62 -155q0 -97 -62 -157q-58 -54 -145 -54t-145 54q-62 60 -62 157zM728 200q0 -55 18 -84q24 -38 69 -38t69 38q18 29 18 84t-18 84q-24 38 -69 38t-69 -38q-18 -29 -18 -84zM1070 200q0 100 62 156q57 54 145 54
q86 0 145 -55q62 -60 62 -155q0 -97 -62 -157q-58 -54 -145 -54t-145 54q-62 60 -62 157zM1190 200q0 -55 18 -84q24 -38 69 -38t69 38q18 29 18 84t-18 84q-24 38 -69 38t-69 -38q-18 -29 -18 -84z" />
    <glyph glyph-name="guilsinglleft" unicode="&#x2039;" horiz-adv-x="307" 
d="M60 309l187 206v-156l-88 -96v-26l88 -96v-156l-187 206v118z" />
    <glyph glyph-name="guilsinglright" unicode="&#x203a;" horiz-adv-x="307" 
d="M60 515l187 -206v-118l-187 -206v156l88 96v26l-88 96v156z" />
    <glyph glyph-name="Euro" unicode="&#x20ac;" horiz-adv-x="636" 
d="M48 452h54q15 84 65 154q42 58 96 85t132 27q106 0 175 -58l-33 -91q-68 42 -131 42q-94 0 -140 -88q-14 -25 -23 -71h263l-18 -71h-255q-3 -47 3 -93h230l-18 -71h-194q20 -60 67 -92t107 -32q85 0 148 58v-121q-72 -47 -169 -48q-146 -2 -236 109q-47 58 -61 126h-80
l18 71h48q-5 51 -1 93h-65z" />
    <glyph glyph-name="afii61352" unicode="&#x2116;" horiz-adv-x="1088" 
d="M726 312h326v-79h-326v79zM60 0v379q0 61 2 92t19 79.5t52 85.5q74 80 208 80q134 -2 209 -80q34 -35 50.5 -83t19 -81t2.5 -94v-378h-138v390q0 110 -22 148q-37 65 -121 65q-81 0 -120 -65q-11 -20 -16.5 -48t-6 -45t-0.5 -55v-390h-138zM720 543q0 78 47 123
q48 46 122 46t122 -46q47 -45 47 -123q0 -76 -47 -122q-46 -46 -122 -46t-122 46q-47 46 -47 122zM810 544q0 -40 14 -66q22 -42 65 -42t65 42q14 26 14 66q0 41 -14 66q-21 43 -65 43t-65 -43q-14 -25 -14 -66z" />
    <glyph glyph-name="published" unicode="&#x2117;" horiz-adv-x="1005" 
d="M348 595h163q98 0 145 -32q63 -41 63 -128q0 -47 -18.5 -79.5t-44.5 -48.5q-46 -33 -145 -33h-66v-169h-97v490zM445 522v-174h70q50 0 74 17q34 23 32 70q0 47 -32 70q-24 17 -74 17h-70zM60 349q0 183 130 312.5t313 129.5q182 0 312 -130t130 -312
q0 -183 -129.5 -312.5t-312.5 -129.5t-313 129.5t-130 312.5zM138 349q0 -152 106.5 -258.5t258.5 -106.5t258.5 106.5t106.5 258.5t-106.5 258.5t-258.5 106.5t-258.5 -106.5t-106.5 -258.5z" />
    <glyph glyph-name="trademark" unicode="&#x2122;" horiz-adv-x="895" 
d="M20 700h290v-74h-96v-276h-99v276h-95v74zM345 350v191v12v13t0.5 12.5t1 14t2 13t3.5 14.5l4.5 13.5t6.5 14t9 13.5q35 47 107 47q80 0 111 -68q28 68 110 68q73 0 107 -47q28 -38 28 -120v-191h-102v208q0 38 -9 50q-12 19 -38 19t-38 -19q-9 -12 -9 -50v-208h-99v208
q0 38 -9 50q-12 19 -38 19t-38 -19q-9 -12 -9 -50v-208h-101z" />
    <glyph glyph-name="partialdiff" unicode="&#x2202;" horiz-adv-x="618" 
d="M194 216q0 -59 28 -95q34 -42 85 -42q53 0 85 42q27 36 27 88v7q-2 54 -25 86q-34 45 -87 45q-58 0 -88 -44q-25 -34 -25 -87zM154 594v114h19q159 0 267 -92q83 -71 114 -189q14 -50 14 -126q0 -45 -8 -95q-18 -106 -88 -166q-63 -54 -160 -58h-9q-97 0 -166 53
q-87 68 -87 181q0 104 69 170q66 63 162 63q91 0 151 -66q-1 3 -4 17t-6.5 29.5t-7.5 25.5q-29 74 -95 107q-66 32 -158 32h-7z" />
    <glyph glyph-name="product" unicode="&#x220f;" horiz-adv-x="720" 
d="M70 700h580v-700h-139v584h-302v-584h-139v700z" />
    <glyph glyph-name="summation" unicode="&#x2211;" horiz-adv-x="600" 
d="M40 700h512v-111h-352l184 -218l-184 -259h360v-112h-520v112l184 259l-184 218v111z" />
    <glyph glyph-name="minus" unicode="&#x2212;" horiz-adv-x="680" 
d="M60 353h560v-98h-560v98z" />
    <glyph glyph-name="division" unicode="&#x2215;" horiz-adv-x="494" 
d="M394 700h100l-394 -700h-100z" />
    <glyph glyph-name="uni2219" unicode="&#x2219;" horiz-adv-x="266" 
d="M60 332h146v-132h-146v132z" />
    <glyph glyph-name="radical" unicode="&#x221a;" horiz-adv-x="690" 
d="M40 480h168l173 -397h25v667h244v-83h-149v-667h-197l-174 397h-90v83z" />
    <glyph glyph-name="infinity" unicode="&#x221e;" horiz-adv-x="880" 
d="M440 225l-49 -51q-59 -61 -151 -59q-74 2 -127 51.5t-53 138.5q0 90 52.5 140t127.5 50q95 2 151 -59l49 -51l49 51q57 57 144 59q88 2 137.5 -55t49.5 -135q0 -80 -49 -136t-138 -54q-85 1 -144 60zM382 305l-39 38q-45 45 -94 45q-36 0 -57.5 -22.5t-21.5 -60.5
t21.5 -60.5t57.5 -22.5q49 0 94 45zM498 305l39 -38q1 -1 8 -7t10.5 -8.5t11 -8t14 -8.5t14.5 -6.5t17.5 -5t18.5 -1.5q36 0 57.5 22.5t21.5 60.5t-21.5 60.5t-57.5 22.5q-9 0 -18.5 -1.5t-17.5 -5t-14.5 -6.5t-14 -8.5t-11 -8t-10.5 -8.5t-8 -7z" />
    <glyph glyph-name="integral" unicode="&#x222b;" horiz-adv-x="334" 
d="M182 488l82 -476q10 -53 10 -100q0 -65 -31 -101q-37 -42 -97 -41q-45 2 -65.5 26.5t-20.5 51.5q0 32 19.5 54.5t48.5 20.5q23 -1 34 -17q0 50 -11 106l-80 476q-11 59 -11 103q0 57 23 89q35 50 101 50q48 0 69 -24.5t21 -53.5q1 -34 -19.5 -54.5t-48.5 -20.5
q-25 0 -38 20q0 -28 14 -109z" />
    <glyph glyph-name="approxequal" unicode="&#x2248;" horiz-adv-x="680" 
d="M60 343v98q72 65 141 65q55 0 139 -46q5 -3 23 -13t23.5 -12.5t20.5 -10t22 -10t19 -6.5t21.5 -5.5t19.5 -1.5q61 0 131 78v-98q-72 -65 -141 -65q-55 0 -139 46q-5 3 -23 13t-23.5 12.5t-20.5 10t-22 10t-19 6.5t-21.5 5.5t-19.5 1.5q-61 0 -131 -78zM60 113v98
q72 65 141 65q55 0 139 -46q5 -3 23 -13t23.5 -12.5t20.5 -10t22 -10t19 -6.5t21.5 -5.5t19.5 -1.5q61 0 131 78v-98q-72 -65 -141 -65q-55 0 -139 46q-5 3 -23 13t-23.5 12.5t-20.5 10t-22 10t-19 6.5t-21.5 5.5t-19.5 1.5q-61 0 -131 -78z" />
    <glyph glyph-name="notequal" unicode="&#x2260;" horiz-adv-x="680" 
d="M60 458h318l69 122h104l-69 -122h138v-95h-192l-71 -126h263v-95h-317l-69 -122h-104l69 122h-139v95h193l71 126h-264v95z" />
    <glyph glyph-name="lessequal" unicode="&#x2264;" horiz-adv-x="520" 
d="M60 504l400 176v-100l-322 -134v-24l322 -142v-100l-400 184v140zM60 254l400 -184v-100l-400 184v100z" />
    <glyph glyph-name="greaterequal" unicode="&#x2265;" horiz-adv-x="520" 
d="M60 680l400 -176v-140l-400 -184v100l322 142v24l-322 134v100zM60 70l400 184v-100l-400 -184v100z" />
    <glyph glyph-name="dotmath" unicode="&#x22c5;" horiz-adv-x="266" 
d="M60 332h146v-132h-146v132z" />
    <glyph glyph-name="diameter" unicode="&#x2300;" horiz-adv-x="742" 
d="M215 179l239 334q-44 17 -85 17q-59 0 -104 -28q-49 -28 -77 -76.5t-28 -105.5q0 -83 55 -141zM529 456l-236 -331q38 -15 78 -15q53 0 104 28q49 28 77 76.5t28 105.5q0 78 -51 136zM566 670h116l-93 -131q91 -94 91 -219q0 -82 -42.5 -155t-112.5 -113
q-69 -42 -154 -42q-66 0 -137 32l-52 -72h-116l90 126q-96 92 -96 224q0 82 42 154.5t113 113.5q77 42 153 42q77 0 144 -35z" />
    <glyph glyph-name="filledvertrect" unicode="&#x25ae;" horiz-adv-x="246" 
d="M80 700h86v-700h-86v700z" />
    <glyph glyph-name="lozenge" unicode="&#x25ca;" horiz-adv-x="616" 
d="M229 700h158l169 -350l-166 -350h-164l-166 350zM300 609l-118 -259l118 -256h16l118 256l-118 259h-16z" />
    <glyph glyph-name="openbullet" unicode="&#x25e6;" horiz-adv-x="458" 
d="M132 543q0 -41 28 -69t69 -28t69 28t28 69q0 36 -25.5 66t-71.5 30t-71.5 -30t-25.5 -66zM60 543q0 70 49 119.5t120 49.5t120 -49.5t49 -119.5q0 -71 -49 -120t-120 -49t-120 49t-49 120z" />
    <glyph glyph-name="star" unicode="&#x2606;" horiz-adv-x="632" 
d="M171 119h290v4q0 49 -33 87q-40 47 -112 47q-73 0 -112 -47q-33 -40 -33 -87v-4zM65 39v25q0 115 57 187q66 86 194 86q129 0 198 -88q53 -69 53 -187v-23h-502zM193 366l-133 -59q-17 102 55 155.5t201 53.5q16 0 33 -1.5t54 -6.5t66.5 -19t58 -35.5t41 -59.5t3.5 -87
l-133 59q5 37 -32 57q-34 18 -91 18t-91 -18q-37 -20 -32 -57z" />
    <glyph glyph-name="Acute" unicode="&#xf6c9;" horiz-adv-x="485" 
d="M298 850h124l-98 -120h-124z" />
    <glyph glyph-name="Dieresis" unicode="&#xf6cb;" 
d="M110 854h134v-105h-134v105zM382 855h134v-105h-134v105z" />
    <glyph glyph-name="cyrBreve" unicode="&#xf6d1;" horiz-adv-x="690" 
d="M136 850h120q6 -21 21 -34q23 -23 68 -23t68 23q15 13 21 34h120q-15 -55 -57 -92q-60 -50 -152 -50t-152 50q-42 37 -57 92z" />
    <glyph glyph-name="cyrbreve" unicode="&#xf6d4;" horiz-adv-x="574" 
d="M95 700h120q-3 -24 14 -51q23 -29 58 -29t58 29q17 27 14 51h120q-4 -72 -51 -119q-52 -52 -141 -52t-141 52q-47 47 -51 119z" />
    <glyph glyph-name="uniFEFF" unicode="&#xfeff;" horiz-adv-x="0" 
 />
    <glyph glyph-name="afii10098.ss01" horiz-adv-x="348" 
d="M238 700h110v-285h-61q-59 0 -81 -32q-5 -6 -8 -14.5t-4.5 -14t-2.5 -16.5t-1 -14.5v-16.5v-14v-293h-140v293q0 115 51 168q47 49 127 49h10v190z" />
    <glyph glyph-name="afii10026.ss01" horiz-adv-x="690" 
d="M60 700h142v-386q0 -38 0.5 -55t6 -45t16.5 -48q35 -65 120 -65q84 0 121 65q22 38 22 148v386h142v-378q0 -59 -2.5 -91.5t-20 -81.5t-52.5 -85q-75 -78 -210 -80q-133 -2 -210 80q-27 28 -43.5 59t-22.5 68.5t-7.5 61.5t-1.5 68v379z" />
    <glyph glyph-name="afii10027.ss01" horiz-adv-x="690" 
d="M136 850h120q6 -21 21 -34q23 -23 68 -23t68 23q15 13 21 34h120q-15 -55 -57 -92q-60 -50 -152 -50t-152 50q-42 37 -57 92zM60 700h142v-386q0 -38 0.5 -55t6 -45t16.5 -48q35 -65 120 -65q84 0 121 65q22 38 22 148v386h142v-378q0 -59 -2.5 -91.5t-20 -81.5
t-52.5 -85q-75 -78 -210 -80q-133 -2 -210 80q-27 28 -43.5 59t-22.5 68.5t-7.5 61.5t-1.5 68v379z" />
    <glyph glyph-name="r.ss01" horiz-adv-x="328" 
d="M50 0v279v19.5v22t0.5 21t2 23t4 20.5t6 22.5t8.5 19.5t12 20q50 69 150 69q48 0 95 -16v-105q-32 17 -70 17q-42 0 -59 -31q-9 -19 -9 -70v-311h-140z" />
    <glyph glyph-name="afii10038.ss01" horiz-adv-x="960" 
d="M356 694v-93q-70 -8 -117 -65q-54 -70 -54 -184t51 -183q63 -86 176 -86v530q0 49 26 74q28 27 93 27q169 0 272 -90q117 -104 117 -274q0 -98 -36 -170t-88 -111q-63 -50 -142 -66.5t-177 -16.5q-212 0 -317 87q-120 99 -120 277q0 179 123 276q82 64 193 68zM542 621
v-538q114 0 179 83q54 69 54 186t-54 186q-67 87 -179 83z" />
    <glyph glyph-name="afii10040.ss01" horiz-adv-x="692" 
d="M60 700h142v-386q0 -38 0.5 -55t6 -45t16.5 -48q35 -65 120 -65q84 0 121 65q22 38 22 148v386h142v-378q0 -81 -8 -123.5t-28 -75.5l73 -65l-64 -74l-71 63q-69 -63 -187 -63q-134 0 -210 80q-27 28 -43.5 59t-22.5 68.5t-7.5 61.5t-1.5 68v379z" />
    <glyph glyph-name="afii10042.ss01" horiz-adv-x="1030" 
d="M60 700h142v-415v-19v-20t0.5 -17.5t1.5 -18.5t3 -16t5.5 -17.5t7.5 -15.5q31 -56 104 -55q69 1 102 55q3 5 6 11t5 11t3.5 12.5t2.5 11.5t2 13t1.5 12.5t0.5 13v12.5v14v13v415h136v-415v-13v-14v-12.5t0.5 -13t1.5 -12.5t2 -13t2.5 -11.5t3.5 -12.5t5 -11t6 -11
q33 -54 102 -55q73 -1 104 55q4 8 7.5 15.5t5.5 17.5t3 16t1.5 18.5t0.5 17.5v20v19v415h142v-393q0 -102 -13 -148q-12 -44 -37 -79q-67 -90 -193 -94q-146 -3 -212 123q-66 -126 -212 -123q-63 2 -113.5 27.5t-81.5 66.5q-23 33 -34.5 80.5t-12.5 73t-1 73.5v393z" />
    <glyph glyph-name="afii10193.ss01" horiz-adv-x="578" 
d="M50 500h140v-266q0 -63 18 -94q25 -42 81 -42q57 0 82 42q17 30 17 94v266h140v-272q0 -116 -60 -179q-51 -53 -114 -61v-188h-130v189q-66 8 -113 60q-61 66 -61 179v272z" />
    <glyph glyph-name="afii10069.ss01" 
d="M570 500v-700h-137v270q-52 -84 -156 -84q-105 0 -173 75q-64 71 -64 189t64 189q69 76 173 75q104 0 156 -82l6 68h131zM437 253q0 68 -28 110q-34 52 -100 52q-65 0 -99 -52q-28 -42 -28 -110q0 -70 28 -112q34 -52 99 -52q66 0 100 52q28 42 28 112z" />
    <glyph glyph-name="afii10074.ss01" horiz-adv-x="578" 
d="M50 500h139v-279q0 -61 17 -89q25 -45 83 -45t83 45q17 28 17 89v279h139v-272q0 -35 -2 -57.5t-16 -58t-40 -63.5q-62 -67 -181 -67q-113 0 -180 67q-27 27 -41 64t-16 58.5t-2 56.5v272z" />
    <glyph glyph-name="afii10075.ss01" horiz-adv-x="574" 
d="M95 700h120q-3 -24 14 -51q23 -29 58 -29t58 29q17 27 14 51h120q-4 -72 -51 -119q-52 -52 -141 -52t-141 52q-47 47 -51 119zM48 500h139v-279q0 -61 17 -89q25 -45 83 -45t83 45q17 28 17 89v279h139v-272q0 -35 -2 -57.5t-16 -58t-40 -63.5q-62 -67 -181 -67
q-113 0 -180 67q-27 27 -41 64t-16 58.5t-2 56.5v272z" />
    <glyph glyph-name="afii10078.ss01" horiz-adv-x="808" 
d="M112 500h196l96 -400l96 400h196l97 -500h-136l-70 408h-14l-96 -408h-146l-96 402h-14l-70 -402h-136z" />
    <glyph glyph-name="afii10081.ss01" horiz-adv-x="578" 
d="M50 0v272q0 35 2 56.5t16 58t41 64.5q67 67 180 67q117 0 181 -67q26 -29 39.5 -64t16 -58t2.5 -57v-272h-139v283q0 61 -17 89q-25 45 -83 45t-83 -45q-17 -28 -17 -89v-283h-139z" />
    <glyph glyph-name="afii10086.ss01" horiz-adv-x="800" 
d="M334 -200v191q-120 0 -199 57q-95 74 -95 202q0 131 95 199q67 50 158 50v-85q-42 -5 -72 -37q-39 -41 -39 -127q0 -92 47 -136q40 -40 105 -38v312q0 71 40 100q30 21 90 21q120 0 201 -57q95 -74 95 -202t-95 -202q-80 -59 -201 -57v-191h-130zM464 423v-347
q64 -2 107 38q47 44 47 136q0 94 -47 136q-43 39 -107 37z" />
    <glyph glyph-name="afii10090.ss01" horiz-adv-x="846" 
d="M50 500h139v-278q0 -68 15 -93q21 -37 69 -37t69 37q15 25 15 93v278h132v-278q0 -68 15 -93q21 -37 69 -37t69 37q15 25 15 93v278h139v-276q0 -105 -35 -159q-54 -81 -167 -81q-123 0 -171 101q-53 -101 -171 -101q-113 0 -167 81q-16 24 -24.5 54t-9.5 49.5t-1 55.5
v276z" />
    <glyph glyph-name="afii10092.ss01" horiz-adv-x="607" 
d="M-30 700h137q50 0 69 -23q17 -19 17 -75v-166q45 64 142 66q100 1 168 -73q64 -70 64 -186q0 -119 -64 -186q-68 -74 -194 -75q-133 0 -198 86q-54 71 -54 211v323h-87v98zM425 244q0 70 -24 110q-31 51 -91 51q-59 0 -92 -51q-25 -38 -25 -110t25 -110q33 -51 92 -51
q60 0 91 51q24 40 24 110z" />
    <glyph glyph-name="afii10093.ss01" horiz-adv-x="820" 
d="M624 500h136v-500h-136v500zM50 645h136v-209q45 64 142 66q100 1 168 -73q64 -70 64 -186q0 -119 -64 -186q-69 -75 -194 -75q-134 0 -198 86q-54 71 -54 211v366zM418 244q0 70 -24 110q-31 51 -91 51q-59 0 -92 -51q-25 -38 -25 -110t25 -110q33 -51 92 -51
q60 0 91 51q24 40 24 110z" />
    <glyph glyph-name="afii10094.ss01" horiz-adv-x="600" 
d="M50 645h136v-209q45 64 142 66q100 1 168 -73q64 -70 64 -186q0 -119 -64 -186q-69 -75 -194 -75q-134 0 -198 86q-54 71 -54 211v366zM418 244q0 70 -24 110q-31 51 -91 51q-59 0 -92 -51q-25 -38 -25 -110t25 -110q33 -51 92 -51q60 0 91 51q24 40 24 110z" />
    <glyph glyph-name="n.ss01" horiz-adv-x="578" 
d="M50 0v272q0 35 2 56.5t16 58t41 64.5q67 67 180 67q117 0 181 -67q26 -29 39.5 -64t16 -58t2.5 -57v-272h-139v283q0 61 -17 89q-25 45 -83 45t-83 -45q-17 -28 -17 -89v-283h-139z" />
    <glyph glyph-name="m.ss01" horiz-adv-x="846" 
d="M50 0v276q0 36 1 55.5t9.5 49.5t24.5 54q56 81 167 81q118 0 171 -101q48 101 171 101q111 0 167 -81q35 -54 35 -159v-276h-139v282q0 68 -15 93q-21 37 -69 37t-69 -37q-15 -25 -15 -93v-282h-132v282q0 68 -15 93q-21 37 -69 37t-69 -37q-15 -25 -15 -93v-282h-139z
" />
    <glyph glyph-name="afii10033.ss01" horiz-adv-x="690" 
d="M60 0v379q0 44 1.5 68t7.5 61.5t22.5 68.5t43.5 59q77 82 210 80q135 -2 210 -80q35 -36 52.5 -85t20 -81.5t2.5 -91.5v-378h-142v390q0 110 -22 148q-37 65 -121 65q-81 0 -120 -65q-11 -20 -16.5 -48t-6 -45t-0.5 -55v-390h-142z" />
    <glyph glyph-name="afii10145.ss01" horiz-adv-x="690" 
d="M55 700h143v-386q0 -105 25 -148q38 -63 122 -63q86 0 123 63q24 41 24 148v386h143v-378q0 -47 -1.5 -70t-7.5 -60.5t-23 -68t-45 -59.5q-58 -60 -148 -75v-189h-130v189q-91 13 -148 75q-28 29 -45 59.5t-23 67.5t-7.5 60.5t-1.5 69.5v379z" />
    <glyph glyph-name="u.ss01" horiz-adv-x="578" 
d="M50 500h139v-279q0 -61 17 -89q25 -45 83 -45t83 45q17 28 17 89v279h139v-272q0 -35 -2 -57.5t-16 -58t-40 -63.5q-62 -67 -181 -67q-113 0 -180 67q-27 27 -41 64t-16 58.5t-2 56.5v272z" />
    <glyph glyph-name="afii10043.ss01" horiz-adv-x="1047" 
d="M60 700h142v-415v-19v-20t0.5 -17.5t1.5 -18.5t3 -16t5.5 -17.5t7.5 -15.5q31 -56 104 -55q69 1 102 55q3 5 6 11t5 11t3.5 12.5t2.5 11.5t2 13t1.5 12.5t0.5 13v12.5v14v13v415h136v-415v-13v-14v-12.5t0.5 -13t1.5 -12.5t2 -13t2.5 -11.5t3.5 -12.5t5 -11t6 -11
q33 -54 102 -55q73 -1 104 55q4 8 7.5 15.5t5.5 17.5t3 16t1.5 18.5t0.5 17.5v20v19v415h142v-393q0 -135 -24 -178l76 -59l-64 -84l-72 60q-66 -59 -159 -60q-146 -3 -212 123q-66 -126 -212 -123q-63 2 -113.5 27.5t-81.5 66.5q-23 33 -34.5 80.5t-12.5 73t-1 73.5v393z
" />
  </font>
</defs>
</svg>
