<?xml version="1.0" standalone="no"?>
<!DOCTYPE svg PUBLIC "-//W3C//DTD SVG 1.1//EN" "http://www.w3.org/Graphics/SVG/1.1/DTD/svg11.dtd" >
<svg xmlns="http://www.w3.org/2000/svg" xmlns:xlink="http://www.w3.org/1999/xlink" version="1.1">
<metadata>
Created by FontForge 20190801 at Fri May 24 01:21:43 2019
 By www-data
Copyright (c) ParaType, Inc., 2007. All rights reserved. |DCNT
</metadata>
<defs>
<font id="PARANGON420C" horiz-adv-x="580" >
  <font-face 
    font-family="PARANGON420C"
    font-weight="500"
    font-stretch="condensed"
    units-per-em="1000"
    panose-1="2 11 7 6 3 5 2 2 2 4"
    ascent="700"
    descent="-300"
    x-height="500"
    cap-height="700"
    bbox="-32 -308 1352 870"
    underline-thickness="50"
    underline-position="-200"
    unicode-range="U+000D-FEFF"
  />
<missing-glyph horiz-adv-x="500" 
d="M58 8h384v496h-384v-496zM50 0v512h400v-512h-400z" />
    <glyph glyph-name="fi" unicode="fi" horiz-adv-x="520" 
d="M277 500v-93h-99v-407h-123v507q0 90 43 139q30 34 66 44t87 10h204v-118h-123v25h-73q-48 0 -70 -33q-11 -17 -11 -60v-14h99zM332 500h123v-500h-123v500z" />
    <glyph glyph-name="fl" unicode="fl" horiz-adv-x="520" 
d="M277 500v-93h-99v-407h-123v503q0 95 43 143q30 34 66 44t87 10h204v-700h-123v607h-73q-48 0 -70 -33q-11 -17 -11 -64v-10h99z" />
    <glyph glyph-name=".notdef" horiz-adv-x="500" 
d="M58 8h384v496h-384v-496zM50 0v512h400v-512h-400z" />
    <glyph glyph-name=".null" horiz-adv-x="0" 
 />
    <glyph glyph-name=".null" horiz-adv-x="0" 
 />
    <glyph glyph-name="nonmarkingreturn" horiz-adv-x="333" 
 />
    <glyph glyph-name="CR" unicode="&#xd;" horiz-adv-x="233" 
 />
    <glyph glyph-name="space" unicode=" " horiz-adv-x="233" 
 />
    <glyph glyph-name="exclam" unicode="!" horiz-adv-x="262" 
d="M70 700h122l-12 -500h-98zM70 132h122v-132h-122v132z" />
    <glyph glyph-name="quotedbl" unicode="&#x22;" horiz-adv-x="444" 
d="M60 700h112v-125l-32 -135h-48l-32 135v125zM272 700h112v-125l-32 -135h-48l-32 135v125z" />
    <glyph glyph-name="numbersign" unicode="#" horiz-adv-x="710" 
d="M119 509h114l38 191h93l-38 -191h117l37 191h93l-37 -191h114l-18 -95h-114l-23 -113h114l-18 -95h-114l-41 -206h-93l41 206h-117l-41 -206h-93l41 206h-114l18 95h114l23 113h-114zM402 301l23 113h-117l-23 -113h117z" />
    <glyph glyph-name="dollar" unicode="$" horiz-adv-x="594" 
d="M253 794h84v-85q65 -5 115 -48q70 -62 70 -196h-123v13q0 79 -28 112q-27 31 -76 31q-43 0 -68 -24q-28 -25 -30 -68q-2 -47 28 -75q23 -21 101 -44q91 -26 131 -55q77 -56 77 -162q0 -104 -74 -159q-52 -39 -123 -44v-86h-84v87q-65 9 -110 45q-83 67 -83 200h126v-14
q0 -71 35 -106q32 -32 80 -32q47 0 78 28q33 33 32 80q0 51 -42 82q-23 17 -103 40q-94 27 -134 64q-58 53 -56 142q4 95 66 146q44 38 111 45v83z" />
    <glyph glyph-name="percent" unicode="%" horiz-adv-x="1002" 
d="M60 500q0 90 47 149q49 61 128 61t128 -61q47 -59 47 -149q0 -89 -47 -148q-49 -61 -128 -61t-128 61q-47 59 -47 148zM152 501q0 -61 17 -95q22 -45 66 -45q42 0 66 45q17 33 17 95q0 61 -17 94q-22 45 -66 45t-66 -45q-17 -34 -17 -94zM706 700h90l-500 -700h-90z
M592 200q0 89 47 148q49 61 128 61t128 -61q47 -59 47 -148q0 -90 -47 -149q-49 -61 -128 -61t-128 61q-47 59 -47 149zM684 199q0 -60 17 -94q22 -45 66 -45t66 45q17 33 17 94q0 62 -17 95q-24 45 -66 45q-44 0 -66 -45q-17 -34 -17 -95z" />
    <glyph glyph-name="ampersand" unicode="&#x26;" horiz-adv-x="594" 
d="M614 81l-77 -81l-259 313l-42 -47q-2 -3 -8.5 -10t-9 -10t-8.5 -10t-8.5 -11t-6.5 -10.5t-5.5 -11.5t-4 -11.5t-3 -13.5t-0.5 -14q0 -35 26 -61t70 -26q55 0 106 53l62 -73q-66 -75 -183 -75q-98 0 -150.5 51.5t-52.5 123.5q0 13 1.5 25t3.5 21.5t7 21t8 18.5t11 17.5
t11.5 15.5t13.5 16t13.5 15t15 16t14.5 15l45 47l-42 44q-59 64 -60 129q0 63 47 111.5t129 48.5q86 0 131 -49t45 -111q-1 -70 -60 -129l-44 -44zM278 457l32 35q31 33 32 67q1 29 -16 49.5t-48 20.5t-48 -20.5t-16 -49.5q1 -34 32 -67z" />
    <glyph glyph-name="quotesingle" unicode="'" horiz-adv-x="232" 
d="M60 700h112v-125l-32 -135h-48l-32 135v125z" />
    <glyph glyph-name="parenleft" unicode="(" horiz-adv-x="370" 
d="M310 809v-117q-42 -38 -77 -112q-54 -114 -54 -255t54 -255q35 -74 77 -112v-117q-83 63 -143 146q-107 148 -107 338t107 338q60 83 143 146z" />
    <glyph glyph-name="parenright" unicode=")" horiz-adv-x="370" 
d="M60 692v117q83 -63 143 -146q107 -148 107 -338t-107 -338q-60 -83 -143 -146v117q42 38 77 112q54 114 54 255t-54 255q-35 74 -77 112z" />
    <glyph glyph-name="asterisk" unicode="*" horiz-adv-x="454" 
d="M186 700h80v-108l104 36l24 -76l-101 -36l67 -89l-68 -49l-67 92l68 46l-27 76h-80l-25 -75l64 -47l-64 -92l-69 50l69 89l-101 34l26 77l100 -36v108z" />
    <glyph glyph-name="plus" unicode="+" 
d="M60 353h177v177h106v-177h177v-98h-177v-185h-106v185h-177v98z" />
    <glyph glyph-name="comma" unicode="," horiz-adv-x="247" 
d="M65 132h122v-118q0 -59 -16 -106q-15 -46 -39 -83h-72q35 60 44 90q14 39 15 85h-54v132z" />
    <glyph glyph-name="hyphen" unicode="-" horiz-adv-x="400" 
d="M60 311h280v-94h-280v94z" />
    <glyph glyph-name="period" unicode="." horiz-adv-x="242" 
d="M60 132h122v-132h-122v132z" />
    <glyph glyph-name="slash" unicode="/" horiz-adv-x="438" 
d="M320 750h118l-318 -900h-120z" />
    <glyph glyph-name="zero" unicode="0" 
d="M50 345q0 155 40 234q64 129 200 129t200 -129q40 -79 40 -234t-40 -234q-64 -129 -200 -129t-200 129q-40 79 -40 234zM401 347q0 138 -16 187q-14 41 -40.5 59.5t-54.5 18.5q-68 0 -95 -78q-16 -42 -16 -187t16 -187q27 -78 95 -78t95 78q16 44 16 187z" />
    <glyph glyph-name="one" unicode="1" horiz-adv-x="570" 
d="M71 563l318 147v-710h-121v550l-197 -93v106z" />
    <glyph glyph-name="two" unicode="2" 
d="M193 450h-123v22q0 107 66 175q61 61 156 61q88 0 152 -48q28 -21 48.5 -61t20.5 -96q1 -81 -50 -140q-12 -15 -29 -29.5t-27 -22t-36 -25.5t-34 -24q-92 -62 -116 -86q-30 -32 -30 -72h320v-104h-444v49q0 106 46 169q16 22 43 45t43 34t57 38q71 47 99 80q33 43 33 94
q0 46 -25 74q-27 29 -71 29q-47 0 -75 -39q-24 -35 -24 -99v-24z" />
    <glyph glyph-name="three" unicode="3" 
d="M251 403h41q51 0 78 30q23 25 23 76q0 55 -29 81q-23 22 -68 22q-47 0 -76 -29q-38 -38 -33 -119h-123q-2 58 19 112t68 88q60 43 142 44q90 2 148 -40q70 -49 75 -145q5 -72 -41 -118q-26 -26 -69 -38q51 -15 86 -59q37 -46 38 -116q0 -97 -64 -153q-64 -57 -172 -57
q-105 0 -170 60q-69 65 -74 188h129q-6 -76 37 -119q29 -29 76 -29q51 0 80 29q28 28 29 81q1 50 -28 81q-31 32 -81 32h-41v98z" />
    <glyph glyph-name="four" unicode="4" 
d="M320 690h126l-263 -414v-24h175v128h121v-380h-121v153h-287v143z" />
    <glyph glyph-name="five" unicode="5" 
d="M102 690h389v-100h-293l-11 -183q45 56 122 56q85 1 144 -60q64 -67 64 -177q0 -124 -71 -188q-60 -56 -158 -56q-108 0 -168 70q-53 61 -57 152h124q0 -45 17 -75q26 -47 84 -47q50 0 79 41q26 37 24 105q-2 64 -24 98q-28 42 -79 42q-35 0 -53.5 -14.5t-24.5 -29.5
h-127z" />
    <glyph glyph-name="six" unicode="6" 
d="M392 216q0 59 -21 93q-27 44 -79 44q-51 0 -79 -45q-21 -34 -21 -92q0 -60 24 -95q27 -39 76 -39q46 0 76 38q24 33 24 96zM429 708v-100q-86 4 -148 -41q-58 -39 -85 -112q-9 -26 -16 -72q45 66 135 66q89 0 147 -64q59 -65 59 -169q0 -115 -77 -181q-64 -54 -156 -53
q-94 4 -150 58q-65 61 -75 166q-14 113 9 221q26 115 101 189q98 92 238 92h18z" />
    <glyph glyph-name="seven" unicode="7" 
d="M79 690h412v-108q-161 -269 -174 -582h-128q22 322 187 590h-297v100z" />
    <glyph glyph-name="eight" unicode="8" 
d="M178 196q0 -52 32 -84q30 -30 80 -30t80 30q32 32 32 84t-34 86q-30 30 -78 30q-49 0 -80 -31q-32 -32 -32 -85zM55 190q0 15 3 32.5t13.5 47t38 55.5t68.5 41q-54 17 -80.5 63.5t-24.5 100.5q4 88 72 138q58 40 145 40t145 -40q68 -50 72 -138q2 -54 -25 -100.5
t-80 -63.5q41 -15 68.5 -41t38 -55.5t13.5 -47t3 -32.5q0 -100 -65 -155q-59 -53 -170 -53t-170 53q-23 18 -44 57t-21 98zM190 508q0 -49 27 -76q28 -28 73 -28t73 28q27 27 27 76q0 50 -29 78q-28 26 -71 26t-71 -26q-29 -28 -29 -78z" />
    <glyph glyph-name="nine" unicode="9" 
d="M188 478q0 -59 21 -93q28 -44 79 -44t79 45q21 34 21 92q0 60 -24 95q-27 39 -76 39q-46 0 -76 -38q-24 -33 -24 -96zM151 -18v100q83 -4 148 41q58 39 85 112q9 26 16 72q-45 -66 -135 -66q-89 0 -147 64q-59 65 -59 169q0 115 77 181q64 54 156 53q94 -4 150 -58
q64 -61 75 -166q14 -113 -9 -221q-26 -115 -101 -189q-98 -92 -238 -92h-18z" />
    <glyph glyph-name="colon" unicode=":" horiz-adv-x="242" 
d="M60 500h122v-132h-122v132zM60 132h122v-132h-122v132z" />
    <glyph glyph-name="semicolon" unicode=";" horiz-adv-x="247" 
d="M65 500h122v-132h-122v132zM65 132h122v-118q0 -59 -16 -106q-15 -46 -39 -83h-72q35 60 44 90q14 39 15 85h-54v132z" />
    <glyph glyph-name="semicolon" unicode="&#x37e;" horiz-adv-x="247" 
d="M65 500h122v-132h-122v132zM65 132h122v-118q0 -59 -16 -106q-15 -46 -39 -83h-72q35 60 44 90q14 39 15 85h-54v132z" />
    <glyph glyph-name="less" unicode="&#x3c;" horiz-adv-x="500" 
d="M60 368l380 212v-100l-300 -164v-24l300 -172v-100l-380 220v128z" />
    <glyph glyph-name="equal" unicode="=" 
d="M60 237h460v-95h-460v95zM60 458h460v-95h-460v95z" />
    <glyph glyph-name="greater" unicode="&#x3e;" horiz-adv-x="500" 
d="M60 580l380 -212v-128l-380 -220v100l300 172v24l-300 164v100z" />
    <glyph glyph-name="question" unicode="?" horiz-adv-x="470" 
d="M155 486h-115q-5 89 40 153q56 79 159 79q79 0 125 -42q62 -55 66 -146q4 -73 -43 -138q-12 -17 -41 -46q-28 -28 -40 -44q-27 -39 -27 -89v-13h-114v10q0 78 38 134q13 19 45 51q23 20 38 42q28 42 28 92q0 44 -23 67q-21 22 -53 22q-48 0 -68 -42q-17 -35 -15 -90z
M164 127h115v-127h-115v127z" />
    <glyph glyph-name="at" unicode="@" horiz-adv-x="991" 
d="M703 554v-249q0 -92 56 -92q35 0 63.5 50t28.5 133q0 79 -33.5 143t-86 102t-112 58t-117.5 20q-153 0 -261.5 -109t-108.5 -261t109 -261t261 -109q128 0 231 82l45 -57q-123 -97 -276 -97h-2q-117 0 -218 57.5t-161.5 159.5t-60.5 223v2q0 87 34 168t92.5 140.5t141 96
t174.5 37.5h5q124 0 227 -62t153 -158q45 -87 45 -188q0 -108 -52.5 -183t-151.5 -77h-4q-95 0 -129 81q-45 -73 -125 -77h-5q-79 0 -129 63q-51 63 -51 157q0 96 51 157q51 62 130 62h4q74 -4 119 -68v56h114zM593 349q0 55 -22 91q-27 44 -75 44q-49 0 -74 -44
q-21 -34 -21 -91q0 -59 21 -93q26 -43 74 -43t75 43q22 34 22 93z" />
    <glyph glyph-name="A" unicode="A" horiz-adv-x="602" 
d="M209 700h184l194 -700h-131l-46 186h-218l-46 -186h-131zM293 608l-76 -320h168l-76 320h-16z" />
    <glyph glyph-name="B" unicode="B" horiz-adv-x="572" 
d="M60 700h231q110 0 162 -37q65 -49 66 -138q1 -62 -28 -102.5t-81 -53.5q57 -15 90 -61t32 -112q0 -99 -69 -153q-35 -27 -74.5 -35t-97.5 -8h-231v700zM186 318v-217h97q56 0 83 19q36 28 36 89t-36 88q-28 21 -83 21h-97zM186 602v-186h97q53 0 76 14q36 23 36 79
t-36 79q-23 14 -76 14h-97z" />
    <glyph glyph-name="C" unicode="C" horiz-adv-x="614" 
d="M442 262h132q-2 -121 -71 -199q-70 -82 -189 -81q-138 2 -211 110q-63 90 -63 258t63 258q73 108 211 110q120 2 188 -81q65 -78 65 -195h-128q6 73 -29 124q-36 50 -98 46q-81 -3 -116 -83q-24 -56 -24 -177q0 -117 24 -172q35 -86 118 -88q73 0 106 59q22 44 22 111z
" />
    <glyph glyph-name="D" unicode="D" horiz-adv-x="590" 
d="M60 700h141q52 0 87.5 -4t85.5 -24.5t87 -59.5q89 -93 89 -262t-89 -262q-28 -29 -61.5 -48.5t-69 -27t-61 -10t-58.5 -2.5h-151v700zM186 601v-498h31q105 0 156 64q45 54 45 185t-45 185q-51 64 -156 64h-31z" />
    <glyph glyph-name="E" unicode="E" horiz-adv-x="520" 
d="M60 700h413v-104h-287v-184h279v-103h-279v-201h294v-108h-420v700z" />
    <glyph glyph-name="F" unicode="F" horiz-adv-x="493" 
d="M60 700h398v-106h-272v-193h253v-104h-253v-297h-126v700z" />
    <glyph glyph-name="G" unicode="G" horiz-adv-x="634" 
d="M289 389h305v-35q0 -55 -2 -88.5t-14 -82.5t-35 -86q-72 -115 -222 -115q-136 2 -212 110q-69 93 -69 260q0 169 69 262q76 104 210 104q118 0 189 -75q75 -81 74 -201h-127q5 64 -27 114q-37 57 -110 56q-83 -1 -120 -85q-26 -59 -26 -173q0 -112 26 -173
q40 -87 127 -89q73 -1 112 59q30 46 30 123v12h-178v103z" />
    <glyph glyph-name="H" unicode="H" horiz-adv-x="604" 
d="M60 700h126v-279h232v279h126v-700h-126v313h-232v-313h-126v700z" />
    <glyph glyph-name="I" unicode="I" horiz-adv-x="266" 
d="M70 700h126v-700h-126v700z" />
    <glyph glyph-name="J" unicode="J" horiz-adv-x="314" 
d="M136 700h128v-456v-13q0 -44 -1.5 -68t-13.5 -59.5t-37 -62.5q-24 -27 -58 -41t-55.5 -16t-56.5 -2h-32v109h24q48 0 79 37q6 7 10 14t6.5 16t4 15.5t2 16.5t0.5 15v16v13v466z" />
    <glyph glyph-name="K" unicode="K" horiz-adv-x="576" 
d="M60 700h126v-283h82l148 283h140l-182 -328l182 -372h-147l-141 319h-82v-319h-126v700z" />
    <glyph glyph-name="L" unicode="L" horiz-adv-x="416" 
d="M60 700h126v-588h230v-112h-356v700z" />
    <glyph glyph-name="M" unicode="M" horiz-adv-x="904" 
d="M50 0v393v27.5v33t1 32t3.5 37t7 32.5t11.5 35t16 30q55 90 177 94q129 3 186 -111q57 114 186 111q122 -4 177 -94q7 -12 12.5 -24t9.5 -26.5t7 -25t5 -28t3 -25.5t1.5 -27t0.5 -24v-25.5v-21.5v-393h-129v421q0 93 -13 124q-29 61 -95 60q-64 -1 -90 -60
q-13 -31 -13 -124v-421h-124v422q0 93 -13 124q-26 58 -90 59q-68 1 -95 -59q-13 -31 -13 -123v-423h-129z" />
    <glyph glyph-name="N" unicode="N" horiz-adv-x="584" 
d="M50 0v399q0 3 -0.5 34t0 41t3.5 38t8.5 44t16 38.5t25.5 40.5q66 81 189 81q128 0 190 -81q11 -13 19 -29.5t13.5 -29t9.5 -32.5t6 -29.5t3 -32.5t1 -28v-30v-25v-399h-129v425q0 99 -15 127q-29 56 -98 56q-70 0 -98 -57q-15 -29 -15 -126v-425h-129z" />
    <glyph glyph-name="O" unicode="O" horiz-adv-x="614" 
d="M40 350q0 171 63 261q71 107 204 107t204 -107q63 -90 63 -261t-63 -261q-71 -107 -204 -107t-204 107q-63 90 -63 261zM172 352q0 -124 24 -179q32 -81 111 -81q75 0 111 81q24 55 24 179t-24 179q-35 81 -111 81t-111 -81q-24 -55 -24 -179z" />
    <glyph glyph-name="P" unicode="P" horiz-adv-x="541" 
d="M60 700h197q109 0 169 -46q80 -62 80 -183q0 -120 -82 -182q-59 -43 -167 -43h-71v-246h-126v700zM186 600v-256h64q59 0 89 28q37 33 37 100t-37 100q-30 28 -89 28h-64z" />
    <glyph glyph-name="Q" unicode="Q" horiz-adv-x="623" 
d="M40 350q0 171 63 261q71 107 204 107t204 -107q63 -100 63 -261t-52 -243l71 -60l-53 -65l-69 60q-65 -60 -164 -60q-133 0 -204 107q-63 90 -63 261zM172 352q0 -124 24 -179q32 -81 111 -81q75 0 111 81q24 55 24 179t-24 179q-35 81 -111 81t-111 -81
q-24 -55 -24 -179z" />
    <glyph glyph-name="R" unicode="R" horiz-adv-x="571" 
d="M60 700h196h16.5h17.5t16.5 -0.5t18.5 -1t16.5 -1.5t18 -3t17 -4.5t18.5 -6t16.5 -8t18.5 -10.5q32 -20 59 -62t27 -109q0 -85 -51 -138q-27 -27 -60 -36q39 -14 60 -68l91 -252h-135l-72 212q-13 43 -27 57q-18 18 -54 18h-82v-287h-126v700zM186 600v-220h87
q52 0 83 27q30 28 30 83t-30 83q-31 27 -83 27h-87z" />
    <glyph glyph-name="S" unicode="S" horiz-adv-x="562" 
d="M40 234h130q-1 -83 38 -122q30 -30 78 -32q44 -2 73 25q33 32 33 83q0 56 -38 84q-25 20 -104 41q-98 29 -137 65q-61 58 -56 144q4 99 66 148q60 48 155 48q100 0 159 -53q44 -41 59.5 -97t12.5 -102h-124q5 86 -33 127q-28 31 -75 31q-43 0 -67 -24q-26 -23 -31 -69
q-4 -45 29 -76q23 -23 102 -45q6 -2 23.5 -7t25 -7.5t21.5 -7.5t23 -9.5l20 -10t20 -12.5q79 -58 79 -166q0 -105 -76 -162q-61 -46 -165 -46q-93 0 -153 48q-44 35 -66 90.5t-22 113.5z" />
    <glyph glyph-name="T" unicode="T" horiz-adv-x="476" 
d="M15 700h446v-104h-161v-596h-126v596h-159v104z" />
    <glyph glyph-name="U" unicode="U" horiz-adv-x="584" 
d="M50 700h129v-421q0 -97 15 -126q28 -57 98 -57q69 0 98 56q15 28 15 127v421h129v-399q0 -5 0.5 -29t0 -34t-2 -32.5t-5 -37t-9 -34.5t-15 -36.5t-22.5 -32.5q-65 -81 -189 -81q-122 0 -188 81q-15 19 -26 41.5t-16.5 38t-8.5 43.5t-3.5 37t0 41t0.5 35v399z" />
    <glyph glyph-name="V" unicode="V" horiz-adv-x="576" 
d="M15 700h132l132 -596h18l132 596h132l-171 -700h-204z" />
    <glyph glyph-name="W" unicode="W" horiz-adv-x="904" 
d="M50 700h129v-419q0 -92 13 -123q26 -59 95 -59q65 1 90 59q13 31 13 124v418h124v-417q0 -93 13 -124q26 -59 90 -60q66 -1 95 60q13 31 13 124v417h129v-393v-21.5v-25.5t-0.5 -24t-1.5 -27t-3 -25.5t-5 -28t-7 -25t-9.5 -26.5t-12.5 -24q-55 -90 -177 -94
q-129 -3 -186 111q-57 -114 -186 -111q-122 4 -177 94q-9 14 -16 30t-11.5 35t-7 32.5t-3.5 36.5t-1 31.5v33.5v28v393z" />
    <glyph glyph-name="X" unicode="X" horiz-adv-x="588" 
d="M33 700h129l128 -281h8l128 281h129l-160 -330l173 -370h-137l-133 316h-8l-133 -316h-137l173 370z" />
    <glyph glyph-name="Y" unicode="Y" horiz-adv-x="542" 
d="M15 700h130l126 -298l126 298h130l-193 -414v-286h-126v286z" />
    <glyph glyph-name="Z" unicode="Z" horiz-adv-x="514" 
d="M23 700h462v-122l-328 -467h337v-111h-474v127l328 466h-325v107z" />
    <glyph glyph-name="bracketleft" unicode="[" horiz-adv-x="330" 
d="M60 800h210v-96h-98v-754h98v-100h-210v950z" />
    <glyph glyph-name="backslash" unicode="\" horiz-adv-x="438" 
d="M0 750h118l320 -900h-120z" />
    <glyph glyph-name="bracketright" unicode="]" horiz-adv-x="330" 
d="M60 800h210v-950h-210v100h98v754h-98v96z" />
    <glyph glyph-name="asciicircum" unicode="^" horiz-adv-x="556" 
d="M200 700h156l150 -301h-122l-98 226h-16l-98 -226h-122z" />
    <glyph glyph-name="underscore" unicode="_" horiz-adv-x="620" 
d="M60 -220h500v-88h-500v88z" />
    <glyph glyph-name="grave" unicode="`" horiz-adv-x="284" 
d="M40 700h106l98 -170h-106z" />
    <glyph glyph-name="a" unicode="a" horiz-adv-x="536" 
d="M481 500v-500h-117l-6 65q-36 -79 -127 -79q-90 0 -145 77q-51 75 -51 187t51 187q55 77 145 77q89 0 127 -77l6 63h117zM362 252q0 72 -18 111q-26 59 -82 59q-57 0 -82 -61q-16 -41 -16 -109q0 -70 15 -107q26 -63 83 -63q55 0 82 59q18 39 18 111z" />
    <glyph glyph-name="b" unicode="b" horiz-adv-x="536" 
d="M55 700h123v-263q38 77 127 77q90 0 145 -77q51 -75 51 -187t-51 -187q-55 -77 -145 -77q-91 0 -127 79l-6 -65h-117v700zM174 252q0 -72 18 -111q27 -59 82 -59q56 0 82 61q16 39 16 109q0 71 -16 109q-25 61 -82 61q-56 0 -82 -59q-18 -39 -18 -111z" />
    <glyph glyph-name="c" unicode="c" horiz-adv-x="506" 
d="M342 200h129q0 -103 -67 -163q-62 -56 -151 -55q-104 2 -164 83q-54 74 -54 186q0 119 54 189q60 77 164 78q88 1 149 -55q64 -59 64 -159h-128q2 45 -17 80q-22 41 -66 41q-55 0 -77 -59q-14 -34 -14 -114t14 -114q23 -59 77 -59q46 0 69 40q20 35 18 81z" />
    <glyph glyph-name="d" unicode="d" horiz-adv-x="536" 
d="M358 700h123v-700h-117l-6 65q-36 -79 -127 -79q-90 0 -145 77q-51 75 -51 187t51 187q55 77 145 77q89 0 127 -77v263zM362 252q0 72 -18 111q-26 59 -82 59q-57 0 -82 -61q-16 -38 -16 -109q0 -70 16 -109q26 -61 82 -61q55 0 82 59q18 39 18 111z" />
    <glyph glyph-name="e" unicode="e" horiz-adv-x="510" 
d="M254 431q-50 0 -76 -41q-22 -33 -20 -83h194q2 50 -20 83q-26 41 -78 41zM352 174h123q-15 -78 -49 -119q-61 -73 -171 -73q-105 0 -164 76q-56 73 -56 192t56 192q62 76 164 76q107 0 167 -79q52 -69 52 -205v-8h-317q0 -65 12 -95q26 -58 90 -58q49 1 77 41
q18 24 16 60z" />
    <glyph glyph-name="f" unicode="f" horiz-adv-x="287" 
d="M277 500v-93h-99v-407h-123v509q0 33 1 51t11.5 49.5t30.5 54.5q30 34 66 44t87 10h26v-93h-18q-30 0 -48 -11.5t-22 -21.5q-5 -8 -8 -19.5t-3.5 -17t0 -22t0.5 -17.5v-16h99z" />
    <glyph glyph-name="g" unicode="g" horiz-adv-x="536" 
d="M481 500v-506q0 -34 -1 -52t-9.5 -48.5t-26.5 -51.5q-51 -60 -156 -60h-18v98h8q47 0 68 34q4 7 7 13.5t4 16.5t1 14v18.5v17.5v71q-36 -79 -127 -79q-90 0 -145 77q-51 75 -51 187t51 187q55 77 145 77q89 0 127 -77l6 63h117zM362 252q0 72 -18 111q-26 59 -82 59
q-58 0 -83 -61q-15 -34 -15 -109q0 -68 15 -109q25 -61 83 -61q55 0 82 59q18 39 18 111z" />
    <glyph glyph-name="h" unicode="h" horiz-adv-x="510" 
d="M55 700h123v-247q12 23 33 36q40 25 93 25q91 0 134 -65q8 -12 13 -26t8 -24t4.5 -29t1.5 -25v-28v-24v-293h-126v292q0 61 -9 82q-16 38 -64 38t-74 -40q-14 -23 -14 -100v-272h-123v700z" />
    <glyph glyph-name="i" unicode="i" horiz-adv-x="253" 
d="M65 500h123v-500h-123v500zM65 700h123v-118h-123v118z" />
    <glyph glyph-name="j" unicode="j" horiz-adv-x="253" 
d="M65 500h123v-700h-123v700zM65 700h123v-118h-123v118z" />
    <glyph glyph-name="k" unicode="k" horiz-adv-x="470" 
d="M55 700h123v-395h52l92 195h132l-119 -234l120 -266h-136l-89 220h-52v-220h-123v700z" />
    <glyph glyph-name="l" unicode="l" horiz-adv-x="253" 
d="M65 700h123v-700h-123v700z" />
    <glyph glyph-name="m" unicode="m" horiz-adv-x="729" 
d="M55 500h117l6 -51q13 20 39 39q36 24 77 24q83 0 113 -67q45 67 125 67q89 0 128 -67q5 -9 9 -19t6.5 -18t4 -20t2.5 -18t1.5 -19.5t0.5 -17v-17.5v-16v-300h-126v300q0 65 -5 79q-16 41 -56 41q-43 0 -61 -41q-8 -20 -8 -72v-307h-120v300q0 70 -6 85q-14 35 -52 35
q-21 0 -39.5 -13.5t-26.5 -34.5q-6 -16 -6 -72v-300h-123v500z" />
    <glyph glyph-name="n" unicode="n" horiz-adv-x="510" 
d="M55 500h117l6 -51q14 27 43 43q37 22 83 22q91 1 134 -65q8 -12 13 -26.5t8 -25t4.5 -29t1.5 -25v-28v-22.5v-293h-126v292q0 62 -7 80q-19 44 -66 44q-50 0 -74 -44q-14 -25 -14 -100v-272h-123v500z" />
    <glyph glyph-name="o" unicode="o" horiz-adv-x="522" 
d="M35 250q0 121 60 194q61 74 166 74t166 -74q60 -73 60 -194t-60 -194q-61 -74 -166 -74t-166 74q-60 73 -60 194zM164 252q0 -68 12 -104q9 -28 26.5 -44.5t31 -20.5t27.5 -4q61 0 85 69q12 36 12 104t-12 104q-24 69 -85 69q-14 0 -27.5 -4t-31 -20.5t-26.5 -44.5
q-12 -36 -12 -104z" />
    <glyph glyph-name="p" unicode="p" horiz-adv-x="536" 
d="M55 500h117l6 -63q38 77 127 77q90 0 145 -77q51 -75 51 -187t-51 -187q-55 -77 -145 -77q-91 0 -127 79v-265h-123v700zM174 252q0 -72 18 -111q27 -59 82 -59q56 0 82 61q16 39 16 109q0 71 -16 109q-25 61 -82 61q-56 0 -82 -59q-18 -39 -18 -111z" />
    <glyph glyph-name="q" unicode="q" horiz-adv-x="536" 
d="M481 500v-700h-123v265q-36 -79 -127 -79q-90 0 -145 77q-51 75 -51 187t51 187q55 77 145 77q89 0 127 -77l6 63h117zM362 252q0 72 -18 111q-26 59 -82 59q-57 0 -82 -61q-16 -38 -16 -109q0 -70 16 -109q26 -61 82 -61q55 0 82 59q18 39 18 111z" />
    <glyph glyph-name="r" unicode="r" horiz-adv-x="361" 
d="M55 500h117l6 -51q11 24 30 40q29 26 76 25q38 -2 67 -14v-110q-42 20 -75 21q-56 2 -82 -43q-16 -26 -16 -96v-272h-123v500z" />
    <glyph glyph-name="s" unicode="s" horiz-adv-x="472" 
d="M35 174h126v-11q0 -47 19 -70q20 -25 60 -25q35 0 52 17q19 18 19 46q1 37 -32 57q-17 10 -87 33q-3 1 -22.5 8t-27.5 10.5t-23 12t-26 18.5q-41 38 -41 99q0 79 60 121q42 30 125 30t129 -35q66 -47 66 -155h-123v17q0 48 -19 69q-18 20 -51 20q-31 0 -48 -17
q-18 -18 -16 -45q2 -30 23 -46q13 -11 72 -31q80 -26 108 -45q61 -41 59 -120q-2 -81 -67 -121q-50 -31 -132 -31q-93 0 -143 46q-60 53 -60 148z" />
    <glyph glyph-name="t" unicode="t" horiz-adv-x="326" 
d="M15 500h87v86l122 63v-149h87v-94h-87v-406h-122v406h-87v94z" />
    <glyph glyph-name="u" unicode="u" horiz-adv-x="510" 
d="M45 500h126v-288q0 -62 7 -80q19 -44 66 -44q50 0 74 44q14 25 14 100v268h123v-500h-117l-6 51q-14 -27 -43 -43q-37 -22 -83 -22q-91 -1 -134 65q-8 12 -13 26.5t-8 25t-4.5 29t-1.5 25v28v22.5v293z" />
    <glyph glyph-name="v" unicode="v" horiz-adv-x="462" 
d="M15 500h127l83 -407h12l83 407h127l-123 -500h-186z" />
    <glyph glyph-name="w" unicode="w" horiz-adv-x="722" 
d="M45 500h126v-296q0 -63 6 -79q15 -41 59 -41q42 0 58 41q7 18 7 79v296h120v-296q0 -61 7 -79q16 -41 58 -41q44 0 59 41q6 16 6 79v296h126v-300q0 -97 -32 -145q-49 -75 -144 -71q-53 2 -88 28.5t-52 62.5q-17 -36 -52 -63.5t-88 -27.5q-100 0 -144 71q-32 48 -32 145
v300z" />
    <glyph glyph-name="x" unicode="x" horiz-adv-x="460" 
d="M17 500h124l84 -196h10l84 196h124l-115 -234l117 -266h-128l-82 217h-10l-82 -217h-128l117 266z" />
    <glyph glyph-name="y" unicode="y" horiz-adv-x="476" 
d="M15 500h127l93 -404h8l91 404h127l-146 -554q-21 -82 -67 -121q-55 -48 -129 -43v94q36 1 63 25q20 21 33 73l6 26h-24q-44 0 -58 55z" />
    <glyph glyph-name="z" unicode="z" horiz-adv-x="408" 
d="M26 500h356v-98l-233 -308h239v-94h-368v100l227 308h-221v92z" />
    <glyph glyph-name="braceleft" unicode="{" horiz-adv-x="426" 
d="M60 398h21q33 0 55 27.5t22 71.5v134q0 169 194 169h14v-104h-20q-31 0 -53.5 -20t-22.5 -69v-142q0 -46 -15 -74.5t-62 -44.5q45 -14 61 -42t16 -77v-180q0 -45 18 -67t64 -22h14v-108h-14q-194 0 -194 174v172q0 50 -16.5 71.5t-67.5 21.5h-14v109z" />
    <glyph glyph-name="bar" unicode="|" horiz-adv-x="254" 
d="M70 750h114v-900h-114v900z" />
    <glyph glyph-name="braceright" unicode="}" horiz-adv-x="426" 
d="M60 800h14q194 0 194 -169v-134q0 -44 22 -71.5t55 -27.5h21v-109h-14q-51 0 -67.5 -21.5t-16.5 -71.5v-172q0 -174 -194 -174h-14v108h14q46 0 64 22t18 67v180q0 49 16 77t61 42q-47 16 -62 44.5t-15 74.5v142q0 49 -22.5 69t-53.5 20h-20v104z" />
    <glyph glyph-name="asciitilde" unicode="~" 
d="M60 236v98q63 45 123 45q44 0 107 -26q6 -3 26.5 -12t30 -13t26 -8t30.5 -4q56 0 117 56v-98q-64 -45 -125 -45q-44 0 -105 26q-9 4 -28 12.5t-29.5 12.5t-26.5 8t-30 4q-57 0 -116 -56z" />
    <glyph glyph-name="nbspace" unicode="&#xa0;" horiz-adv-x="233" 
 />
    <glyph glyph-name="exclamdown" unicode="&#xa1;" horiz-adv-x="262" 
d="M82 500h98l12 -500h-122zM70 700h122v-132h-122v132z" />
    <glyph glyph-name="cent" unicode="&#xa2;" horiz-adv-x="562" 
d="M243 650h78v-135q62 -8 110 -52q66 -64 66 -164h-129q2 49 -18 85q-22 41 -67 40q-53 -2 -77 -58q-16 -38 -16 -114q0 -71 16 -112q25 -60 79 -60q45 0 68 39q19 33 19 82h130q0 -100 -68 -164q-44 -43 -113 -52v-135h-78v135q-84 14 -130 80q-9 12 -19.5 31t-22 62.5
t-11.5 92.5q-1 114 57 189q50 64 126 75v135z" />
    <glyph glyph-name="sterling" unicode="&#xa3;" horiz-adv-x="550" 
d="M60 372h64v109q0 44 0.5 61t10 51.5t29.5 59.5q48 58 142 59q95 0 142 -58q23 -27 34 -69t8 -85h-120v16q0 43 -6 58q-15 40 -57 38q-41 -2 -57 -38q-6 -15 -6 -71v-131h136v-71h-136v-70v-18v-17.5t-0.5 -15t-2 -16t-4.5 -14.5t-7.5 -15t-11 -14t-14.5 -15h286v-106
h-430v104q64 27 64 95v102h-64v71z" />
    <glyph glyph-name="currency" unicode="&#xa4;" horiz-adv-x="634" 
d="M60 536l57 56l56 -56q65 48 144 48q78 0 146 -47l55 55l56 -56l-55 -55q46 -68 46 -146t-47 -146l55 -55l-55 -56l-56 55q-65 -46 -145 -46q-79 0 -144 48l-56 -56l-56 56l55 55q-48 66 -48 146q0 76 47 144zM317 176q67 0 113.5 46t46.5 114q0 66 -46.5 112.5
t-113.5 46.5q-68 0 -114 -46t-46 -113q0 -68 46.5 -114t113.5 -46z" />
    <glyph glyph-name="yen" unicode="&#xa5;" horiz-adv-x="633" 
d="M60 700h128l128 -288l128 288h129l-164 -328h163v-71h-193v-93h193v-71h-193v-137h-126v137h-193v71h193v93h-193v71h163z" />
    <glyph glyph-name="brokenbar" unicode="&#xa6;" horiz-adv-x="254" 
d="M70 750h114v-280h-114v280zM70 130h114v-280h-114v280z" />
    <glyph glyph-name="section" unicode="&#xa7;" horiz-adv-x="554" 
d="M237 253l73 -44q39 3 54 24t15 42q0 9 -1.5 16.5t-6 14.5t-7.5 11.5t-11 10.5t-10.5 8.5t-13 9t-12.5 7.5l-73 44q-39 -3 -54 -24t-15 -43q0 -9 2 -17t6.5 -15t8 -11.5t11 -10.5t11 -8.5t12.5 -8t11 -6.5zM452 550h-108q0 26 -7 44.5t-18.5 27t-21.5 11.5t-20 3
q-26 0 -44.5 -16.5t-19.5 -41.5q-3 -44 54 -73l106 -58q56 -31 88.5 -66.5t32.5 -92.5q0 -43 -25 -81.5t-81 -52.5q74 -43 70 -130q-2 -73 -57 -117.5t-124 -44.5q-81 0 -132.5 56t-47.5 136h112v-5q0 -16 1.5 -26t7 -26t20.5 -24.5t39 -8.5q29 0 47.5 16t19.5 40
q0 45 -54 74l-111 67q-119 68 -119 157q0 7 0.5 15t6 27.5t15.5 35t32 32t52 24.5q-65 46 -65 121q0 65 50 110t124 45q50 0 87.5 -19t55.5 -48t26 -54.5t8 -47.5v-9z" />
    <glyph glyph-name="dieresis" unicode="&#xa8;" horiz-adv-x="510" 
d="M83 700h113v-125h-113v125zM315 700h113v-125h-113v125z" />
    <glyph glyph-name="copyright" unicode="&#xa9;" horiz-adv-x="1004" 
d="M603 286h104q-13 -92 -58 -137q-55 -57 -145 -57q-100 0 -161 78q-53 71 -53 180q0 113 53 181q61 78 161 78q88 0 143 -57q49 -51 56 -137h-103q2 53 -26 84q-28 33 -72 33q-58 0 -87 -59q-21 -45 -21 -121q0 -77 21 -121q29 -59 87 -59q42 0 73 33q28 33 28 81zM60 349
q0 183 129.5 312.5t312.5 129.5q182 0 312 -130t130 -312q0 -183 -129.5 -312.5t-312.5 -129.5q-184 0 -313 129t-129 313zM137 349q0 -152 106.5 -258.5t258.5 -106.5t258.5 106.5t106.5 258.5t-106.5 258.5t-258.5 106.5t-258.5 -106.5t-106.5 -258.5z" />
    <glyph glyph-name="ordfeminine" unicode="&#xaa;" horiz-adv-x="417" 
d="M350 700v-188q0 -44 16 -58q11 -10 31 -11l-25 -67q-35 -3 -62.5 13.5t-40.5 46.5q-6 -11 -15 -22.5t-30.5 -23.5t-46.5 -12q-60 -2 -99 47q-38 47 -38 119q0 74 38 119q37 47 99 46q59 0 87 -51l8 42h78zM267 546q0 43 -14 68q-19 33 -56 33q-36 0 -55 -32
q-15 -27 -15 -70t15 -70q19 -32 55 -32q37 0 56 32q14 24 14 71z" />
    <glyph glyph-name="guillemotleft" unicode="&#xab;" horiz-adv-x="504" 
d="M60 311l172 189v-140l-94 -101v-18l94 -101v-140l-172 189v122zM272 311l172 189v-140l-94 -101v-18l94 -101v-140l-172 189v122z" />
    <glyph glyph-name="logicalnot" unicode="&#xac;" horiz-adv-x="620" 
d="M60 307h500v-214h-86v128h-414v86z" />
    <glyph glyph-name="uni00AD" unicode="&#xad;" horiz-adv-x="400" 
d="M60 311h280v-94h-280v94z" />
    <glyph glyph-name="registered" unicode="&#xae;" horiz-adv-x="1004" 
d="M336 595h123q104 0 145 -22q33 -18 52.5 -50t20.5 -69q1 -64 -43 -101q-25 -18 -49 -24q29 -7 47 -48l81 -176h-108l-60 148q-13 29 -28 40q-14 10 -47 10h-36v-198h-98v490zM434 522v-149h49q45 0 69 18q26 19 26 58q0 41 -27 58q-24 15 -69 15h-48zM60 349
q0 183 129.5 312.5t312.5 129.5q182 0 312 -130t130 -312q0 -183 -129.5 -312.5t-312.5 -129.5q-184 0 -313 129t-129 313zM137 349q0 -152 106.5 -258.5t258.5 -106.5t258.5 106.5t106.5 258.5t-106.5 258.5t-258.5 106.5t-258.5 -106.5t-106.5 -258.5z" />
    <glyph glyph-name="degree" unicode="&#xb0;" horiz-adv-x="457" 
d="M132 544q0 -45 29.5 -71t66.5 -26t66.5 26t29.5 71t-30 70.5t-66 25.5t-66 -25.5t-30 -70.5zM60 544q0 71 48.5 119.5t119.5 48.5q70 0 119.5 -48.5t49.5 -119.5q0 -69 -50 -119t-119 -50q-71 0 -119.5 49.5t-48.5 119.5z" />
    <glyph glyph-name="plusminus" unicode="&#xb1;" 
d="M60 118h460v-98h-460v98zM60 428h177v152h106v-152h177v-98h-177v-152h-106v152h-177v98z" />
    <glyph glyph-name="acute" unicode="&#xb4;" horiz-adv-x="473" 
d="M264 700h86l-78 -150h-86z" />
    <glyph glyph-name="mu" unicode="&#xb5;" horiz-adv-x="512" 
d="M55 500h122v-272q0 -78 14 -100q26 -40 75 -40t66 38q9 19 9 82v292h126v-293v-15.5v-18t-0.5 -17t-1 -18.5t-2 -17t-3.5 -19t-5 -17t-7.5 -18t-9.5 -16q-43 -65 -134 -65q-56 0 -93 25q-22 15 -34 36v-247h-122v700z" />
    <glyph glyph-name="paragraph" unicode="&#xb6;" horiz-adv-x="598" 
d="M538 700v-81h-62v-819h-103v819h-110v-359q-86 8 -143 65q-60 63 -60 155q0 101 67 163q27 26 62.5 39.5t58 15.5t55.5 2h235z" />
    <glyph glyph-name="periodcentered" unicode="&#xb7;" horiz-adv-x="244" 
d="M60 332h124v-132h-124v132z" />
    <glyph glyph-name="ordmasculine" unicode="&#xba;" horiz-adv-x="382" 
d="M40 543q0 77 42 123q43 46 109 46t109 -46q42 -46 42 -123q0 -76 -42 -122t-109 -46t-109 46t-42 122zM130 544q0 -48 11 -70q15 -31 50 -31t50 31q11 22 11 70q0 44 -12 71q-17 31 -49 31t-49 -31q-12 -27 -12 -71z" />
    <glyph glyph-name="guillemotright" unicode="&#xbb;" horiz-adv-x="504" 
d="M272 500l172 -189v-122l-172 -189v140l94 101v18l-94 101v140zM60 500l172 -189v-122l-172 -189v140l94 101v18l-94 101v140z" />
    <glyph glyph-name="questiondown" unicode="&#xbf;" horiz-adv-x="470" 
d="M191 500h114v-10q0 -78 -38 -134q-13 -19 -45 -51q-23 -20 -38 -42q-28 -42 -28 -92q0 -44 23 -67q21 -22 53 -22q48 0 68 42q17 35 15 90h115q5 -89 -40 -153q-56 -79 -159 -79q-79 0 -125 42q-62 55 -66 146q-4 73 43 138q12 17 41 46q28 28 40 44q27 39 27 89v13z
M191 700h115v-127h-115v127z" />
    <glyph glyph-name="AE" unicode="&#xc6;" horiz-adv-x="875" 
d="M209 700h482l29 -104h-297l51 -184h290l29 -103h-291l55 -201h274l29 -108h-404l-46 186h-218l-46 -186h-131zM293 609l-76 -321h168l-76 321h-16z" />
    <glyph glyph-name="multiply" unicode="&#xd7;" horiz-adv-x="538" 
d="M60 443l70 70l139 -140l139 140l70 -70l-140 -139l140 -139l-70 -70l-139 140l-139 -140l-70 70l140 139z" />
    <glyph glyph-name="ae" unicode="&#xe6;" horiz-adv-x="846" 
d="M360 252q0 72 -18 111q-26 59 -82 59q-57 0 -82 -61q-16 -41 -16 -109q0 -70 15 -107q26 -63 83 -63q55 0 82 59q18 39 18 111zM590 431q-49 0 -79 -41q-22 -34 -22 -83h201q2 50 -21 83q-26 41 -79 41zM690 174h121q-15 -78 -49 -119q-59 -73 -156 -69q-90 0 -127 79
l-3 -65h-117l-3 65q-36 -79 -127 -79q-89 0 -143 77q-51 75 -51 187t51 187q54 77 143 77q85 0 127 -77l3 63h117l3 -63q40 77 127 77q97 1 152 -75q52 -70 52 -205v-8h-321q-3 -57 17 -98q26 -55 87 -55q52 0 79 41q16 25 18 60z" />
    <glyph glyph-name="divide" unicode="&#xf7;" 
d="M230 570h120v-123h-120v123zM230 153h120v-123h-120v123zM60 353h460v-98h-460v98z" />
    <glyph glyph-name="OE" unicode="&#x152;" horiz-adv-x="916" 
d="M170 351q0 -124 25 -180q36 -86 117 -86q33 0 65.5 20t52.5 66q24 57 24 180q0 127 -25 182q-36 86 -117 86t-117 -86q-25 -55 -25 -182zM468 700h401v-104h-297v-184h289v-101h-289v-203h304v-108h-408v85q-48 -103 -176 -103q-120 0 -188 107q-64 97 -64 261t64 261
q68 107 188 107q128 0 176 -103v85z" />
    <glyph glyph-name="oe" unicode="&#x153;" horiz-adv-x="844" 
d="M162 251q0 -67 14 -105q24 -67 85 -67q60 0 85 67q14 46 14 105q1 68 -13 105q-24 69 -86 69t-86 -69q-13 -34 -13 -105zM588 431q-53 0 -79 -41q-23 -33 -21 -83h200q2 50 -21 83q-26 41 -79 41zM688 174h121q0 -1 -1.5 -8.5t-2.5 -13.5t-3.5 -16t-6 -19t-8.5 -19.5
t-12 -21.5t-15 -21q-24 -31 -68.5 -53t-102.5 -20q-61 2 -99 25t-63 69q-56 -93 -166 -94q-104 -1 -166 74q-60 73 -60 194t60 194q62 75 166 74q110 -1 166 -94q50 93 162 94q107 1 167 -79q52 -69 52 -205v-8h-320q-3 -60 16 -98q27 -55 87 -55q52 0 79 41q16 25 18 60z
" />
    <glyph glyph-name="florin" unicode="&#x192;" horiz-adv-x="396" 
d="M46 500h94v12q0 94 44 143q47 53 151 53h21v-96h-23q-49 0 -71 -36q-12 -19 -12 -63v-13h106v-96h-106v-340q0 -110 -50 -163q-48 -51 -145 -51h-15v102h16q50 0 70 31q14 20 14 81v340h-94v96z" />
    <glyph glyph-name="circumflex" unicode="&#x2c6;" horiz-adv-x="392" 
d="M132 700h128l92 -170h-100l-51 115h-10l-51 -115h-100z" />
    <glyph glyph-name="anoteleia" unicode="&#x387;" horiz-adv-x="244" 
d="M60 332h124v-132h-124v132z" />
    <glyph glyph-name="Delta" unicode="&#x394;" horiz-adv-x="574" 
d="M195 700h184l175 -588v-112h-534v112zM278 598l-129 -490h276l-129 490h-18z" />
    <glyph glyph-name="Delta" unicode="&#x2206;" horiz-adv-x="574" 
d="M195 700h184l175 -588v-112h-534v112zM278 598l-129 -490h276l-129 490h-18z" />
    <glyph glyph-name="Omega" unicode="&#x3a9;" horiz-adv-x="672" 
d="M57 102h165v68q-82 29 -126 96t-46 154q-2 66 22 125t63 96q40 37 94 57t107 20q113 0 196 -71q94 -83 90 -226q-2 -86 -45 -154t-127 -97v-68h165v-102h-257v237q134 25 134 193q2 92 -46 143q-44 46 -110 46q-75 0 -119 -56q-37 -47 -37 -133q0 -166 134 -193v-237
h-257v102z" />
    <glyph glyph-name="Omega" unicode="&#x2126;" horiz-adv-x="672" 
d="M57 102h165v68q-82 29 -126 96t-46 154q-2 66 22 125t63 96q40 37 94 57t107 20q113 0 196 -71q94 -83 90 -226q-2 -86 -45 -154t-127 -97v-68h165v-102h-257v237q134 25 134 193q2 92 -46 143q-44 46 -110 46q-75 0 -119 -56q-37 -47 -37 -133q0 -166 134 -193v-237
h-257v102z" />
    <glyph glyph-name="mu1" unicode="&#x3bc;" horiz-adv-x="512" 
d="M55 500h122v-272q0 -78 14 -100q26 -40 75 -40t66 38q9 19 9 82v292h126v-293v-15.5v-18t-0.5 -17t-1 -18.5t-2 -17t-3.5 -19t-5 -17t-7.5 -18t-9.5 -16q-43 -65 -134 -65q-56 0 -93 25q-22 15 -34 36v-247h-122v700z" />
    <glyph glyph-name="pi" unicode="&#x3c0;" horiz-adv-x="549" 
d="M10 500h529v-93h-62v-407h-122v409h-146v-409h-122v406h-77v94z" />
    <glyph glyph-name="afii10023" unicode="&#x401;" horiz-adv-x="540" 
d="M98 870h114v-105h-114v105zM326 870h114v-105h-114v105zM70 700h413v-104h-287v-184h279v-103h-279v-201h294v-108h-420v700z" />
    <glyph glyph-name="afii10051" unicode="&#x402;" horiz-adv-x="652" 
d="M20 700h427v-104h-158v-177h62q44 0 68 -1t58 -9.5t60 -25.5q80 -54 80 -167q0 -125 -80 -181q-24 -17 -58.5 -25.5t-52 -9t-56.5 -0.5h-11v102h16q51 0 73 15q39 27 39 91q0 76 -47 101q-8 5 -17 7.5t-20 3.5t-17.5 1.5t-19 0t-16.5 -0.5h-61v-321h-126v596h-143v104z
" />
    <glyph glyph-name="afii10052" unicode="&#x403;" horiz-adv-x="405" 
d="M60 700h375v-108h-250v-592h-125v700zM254 850h110l-98 -120h-110z" />
    <glyph glyph-name="afii10053" unicode="&#x404;" horiz-adv-x="624" 
d="M360 405v-106h-188q0 -69 19 -120q34 -94 124 -94q67 0 104 55q36 56 35 122h130q-4 -119 -75 -199q-72 -81 -190 -81q-140 0 -215 110q-64 97 -64 258t64 258q74 110 215 110q118 0 188 -81q71 -80 70 -199h-126q2 77 -34 128q-35 52 -100 53q-86 0 -123 -86
q-21 -47 -21 -128h187z" />
    <glyph glyph-name="afii10054" unicode="&#x405;" horiz-adv-x="562" 
d="M40 234h130q-1 -83 38 -122q30 -30 78 -32q44 -2 73 25q33 32 33 83q0 56 -38 84q-25 20 -104 41q-98 29 -137 65q-61 58 -56 144q4 99 66 148q60 48 155 48q100 0 159 -53q44 -41 59.5 -97t12.5 -102h-124q5 86 -33 127q-28 31 -75 31q-43 0 -67 -24q-26 -23 -31 -69
q-4 -45 29 -76q23 -23 102 -45q6 -2 23.5 -7t25 -7.5t21.5 -7.5t23 -9.5l20 -10t20 -12.5q79 -58 79 -166q0 -105 -76 -162q-61 -46 -165 -46q-93 0 -153 48q-44 35 -66 90.5t-22 113.5z" />
    <glyph glyph-name="afii10055" unicode="&#x406;" horiz-adv-x="266" 
d="M70 700h126v-700h-126v700z" />
    <glyph glyph-name="afii10056" unicode="&#x407;" horiz-adv-x="266" 
d="M70 700h126v-700h-126v700zM-32 850h124v-118h-124v118zM175 850h123v-118h-123v118z" />
    <glyph glyph-name="afii10057" unicode="&#x408;" horiz-adv-x="314" 
d="M136 700h128v-456v-13q0 -44 -1.5 -68t-13.5 -59.5t-37 -62.5q-24 -27 -58 -41t-55.5 -16t-56.5 -2h-32v109h24q48 0 79 37q6 7 10 14t6.5 16t4 15.5t2 16.5t0.5 15v16v13v466z" />
    <glyph glyph-name="afii10058" unicode="&#x409;" horiz-adv-x="886" 
d="M192 700h192l62 -244h143q114 0 174 -43q85 -66 88 -185q4 -119 -81 -185q-57 -43 -173 -43h-168l-133 601h-16l-133 -601h-132zM535 102h53q73 0 101 28q36 34 32 100q-4 68 -40 100q-32 28 -98 28h-113z" />
    <glyph glyph-name="afii10059" unicode="&#x40a;" horiz-adv-x="909" 
d="M60 700h126v-279h232v279h126v-244h72q118 0 177 -43q81 -63 81 -185q0 -127 -81 -185q-58 -43 -173 -43h-202v313h-232v-313h-126v700zM544 358v-256h67q73 0 101 28q32 31 32 100t-32 100q-30 28 -106 28h-62z" />
    <glyph glyph-name="afii10060" unicode="&#x40b;" horiz-adv-x="670" 
d="M20 700h446v-104h-174v-206q21 27 53 45q40 22 96 22q116 -1 167 -94q7 -12 12 -25t8.5 -23t5.5 -26.5t3.5 -24.5t2 -28t0.5 -25.5v-28.5v-27v-155h-128v163q0 89 -6 112q-18 66 -91 70q-75 2 -106 -62q-6 -11 -10 -23t-5.5 -28t-2 -22t0.5 -26v-21v-163h-126v596h-146
v104z" />
    <glyph glyph-name="afii10061" unicode="&#x40c;" horiz-adv-x="576" 
d="M60 700h126v-283h82l148 283h140l-182 -328l182 -372h-147l-141 319h-82v-319h-126v700zM339 850h110l-98 -120h-110z" />
    <glyph glyph-name="afii10062" unicode="&#x40e;" horiz-adv-x="542" 
d="M15 700h130l131 -415h12l113 415h130l-152 -501q-2 -8 -10 -34.5t-11 -37t-11.5 -32t-15.5 -33.5t-19 -26t-25 -24q-38 -28 -114 -28h-8v95q23 -1 39 6t26 23t14.5 26.5t10.5 30.5l10 34h-26q-48 0 -68 56zM106 850h99q14 -54 72 -54q28 0 47 14.5t25 39.5h99
q-12 -54 -52 -88q-51 -44 -119 -44t-118 45q-41 37 -53 87z" />
    <glyph glyph-name="afii10145" unicode="&#x40f;" horiz-adv-x="604" 
d="M60 700h126v-592h232v592h126v-700h-174v-200h-126v200h-184v700z" />
    <glyph glyph-name="afii10017" unicode="&#x410;" horiz-adv-x="602" 
d="M209 700h184l194 -700h-131l-46 186h-218l-46 -186h-131zM293 608l-76 -320h168l-76 320h-16z" />
    <glyph glyph-name="afii10018" unicode="&#x411;" horiz-adv-x="559" 
d="M60 700h419v-104h-293v-170h87q37 0 59.5 -1.5t55 -11t58.5 -27.5q78 -61 78 -173q0 -117 -78 -173q-25 -19 -56 -28.5t-50 -10.5t-53 -1h-9h-218v700zM186 322v-214h87q57 0 82 17q39 28 39 90t-39 90q-25 17 -82 17h-87z" />
    <glyph glyph-name="afii10019" unicode="&#x412;" horiz-adv-x="572" 
d="M60 700h231q110 0 162 -37q65 -49 66 -138q1 -62 -28 -102.5t-81 -53.5q57 -15 90 -61t32 -112q0 -99 -69 -153q-35 -27 -74.5 -35t-97.5 -8h-231v700zM186 318v-217h97q56 0 83 19q36 28 36 89t-36 88q-28 21 -83 21h-97zM186 602v-186h97q53 0 76 14q36 23 36 79
t-36 79q-23 14 -76 14h-97z" />
    <glyph glyph-name="afii10020" unicode="&#x413;" horiz-adv-x="405" 
d="M60 700h375v-108h-250v-592h-125v700z" />
    <glyph glyph-name="afii10021" unicode="&#x414;" horiz-adv-x="624" 
d="M218 700h188l168 -592h30v-108h-584v108h30zM304 604l-125 -496h266l-125 496h-16z" />
    <glyph glyph-name="afii10022" unicode="&#x415;" horiz-adv-x="520" 
d="M60 700h413v-104h-287v-184h279v-103h-279v-201h294v-108h-420v700z" />
    <glyph glyph-name="afii10024" unicode="&#x416;" horiz-adv-x="836" 
d="M358 700h120v-286h82l126 286h134l-158 -329l159 -371h-138l-123 322h-82v-322h-120v322h-82l-123 -322h-138l159 371l-158 329h134l126 -286h82v286z" />
    <glyph glyph-name="afii10025" unicode="&#x417;" horiz-adv-x="576" 
d="M246 410h44q51 0 80 27q29 28 27 80q-2 54 -31 80q-27 27 -71 27q-51 0 -81 -32q-39 -39 -39 -136h-126q-2 62 19 117.5t65 91.5q61 52 157 53q103 1 164 -50q69 -56 69 -151q0 -116 -102 -152q115 -38 115 -172q-1 -103 -75 -162q-66 -50 -171 -49q-96 0 -161 52
q-40 32 -65.5 88t-23.5 122h130q-6 -82 45 -131q31 -29 78 -29t74 21q39 31 39 93q0 61 -38 90q-30 21 -78 21h-44v101z" />
    <glyph glyph-name="afii10026" unicode="&#x418;" horiz-adv-x="604" 
d="M60 700h126v-368l232 190v178h126v-700h-126v389l-232 -190v-199h-126v700z" />
    <glyph glyph-name="afii10027" unicode="&#x419;" horiz-adv-x="604" 
d="M60 700h126v-368l232 190v178h126v-700h-126v389l-232 -190v-199h-126v700zM131 850h99q14 -54 72 -54t72 54h99q-12 -54 -52 -88q-51 -44 -119 -44t-118 45q-41 37 -53 87z" />
    <glyph glyph-name="afii10028" unicode="&#x41a;" horiz-adv-x="576" 
d="M60 700h126v-283h82l148 283h140l-182 -328l182 -372h-147l-141 319h-82v-319h-126v700z" />
    <glyph glyph-name="afii10029" unicode="&#x41b;" horiz-adv-x="576" 
d="M188 700h200l173 -700h-132l-133 604h-16l-133 -604h-132z" />
    <glyph glyph-name="afii10030" unicode="&#x41c;" horiz-adv-x="684" 
d="M60 700h134l148 -196l148 196h134v-700h-126v551l-156 -210l-156 210v-551h-126v700z" />
    <glyph glyph-name="afii10031" unicode="&#x41d;" horiz-adv-x="604" 
d="M60 700h126v-279h232v279h126v-700h-126v313h-232v-313h-126v700z" />
    <glyph glyph-name="afii10032" unicode="&#x41e;" horiz-adv-x="614" 
d="M40 350q0 171 63 261q71 107 204 107t204 -107q63 -90 63 -261t-63 -261q-71 -107 -204 -107t-204 107q-63 90 -63 261zM172 352q0 -124 24 -179q32 -81 111 -81q75 0 111 81q24 55 24 179t-24 179q-35 81 -111 81t-111 -81q-24 -55 -24 -179z" />
    <glyph glyph-name="afii10033" unicode="&#x41f;" horiz-adv-x="604" 
d="M60 700h484v-700h-126v594h-232v-594h-126v700z" />
    <glyph glyph-name="afii10034" unicode="&#x420;" horiz-adv-x="541" 
d="M60 700h197q109 0 169 -46q80 -62 80 -183q0 -120 -82 -182q-59 -43 -167 -43h-71v-246h-126v700zM186 600v-256h64q59 0 89 28q37 33 37 100t-37 100q-30 28 -89 28h-64z" />
    <glyph glyph-name="afii10035" unicode="&#x421;" horiz-adv-x="614" 
d="M442 262h132q-2 -121 -71 -199q-70 -82 -189 -81q-138 2 -211 110q-63 90 -63 258t63 258q73 108 211 110q120 2 188 -81q65 -78 65 -195h-128q6 73 -29 124q-36 50 -98 46q-81 -3 -116 -83q-24 -56 -24 -177q0 -117 24 -172q35 -86 118 -88q73 0 106 59q22 44 22 111z
" />
    <glyph glyph-name="afii10036" unicode="&#x422;" horiz-adv-x="476" 
d="M15 700h446v-104h-161v-596h-126v596h-159v104z" />
    <glyph glyph-name="afii10037" unicode="&#x423;" horiz-adv-x="546" 
d="M15 700h130l131 -415h12l113 415h130l-152 -501q-2 -8 -10 -34.5t-11 -37t-11.5 -32t-15.5 -33.5t-19 -26t-25 -24q-38 -28 -114 -28h-8v95q23 -1 39 6t26 23t14.5 26.5t10.5 30.5l10 34h-26q-48 0 -68 56z" />
    <glyph glyph-name="afii10038" unicode="&#x424;" horiz-adv-x="815" 
d="M348 83v538q-98 -4 -142 -82q-38 -59 -38 -187q0 -125 39 -187q49 -82 141 -82zM40 350q0 185 106 281q56 50 117.5 66.5t144.5 16.5q81 0 143.5 -17t117.5 -66q106 -96 106 -281t-106 -281q-55 -49 -117.5 -66t-143.5 -17q-83 0 -144.5 16.5t-117.5 66.5
q-106 96 -106 281zM467 621v-538q89 0 141 82q39 60 39 187q0 124 -39 187q-52 82 -141 82z" />
    <glyph glyph-name="afii10039" unicode="&#x425;" horiz-adv-x="588" 
d="M33 700h129l128 -281h8l128 281h129l-160 -330l173 -370h-137l-133 316h-8l-133 -316h-137l173 370z" />
    <glyph glyph-name="afii10040" unicode="&#x426;" horiz-adv-x="614" 
d="M60 700h126v-594h232v594h126v-594h70l-30 -106h-524v700z" />
    <glyph glyph-name="afii10041" unicode="&#x427;" horiz-adv-x="574" 
d="M40 700h128v-193q0 -92 6 -112q20 -70 97 -70q68 0 100 62q6 12 10 24t5.5 28t2 22t0 25.5t-0.5 20.5v193h126v-700h-126v280q-23 -30 -54 -45q-43 -22 -95 -22q-116 1 -167 94q-7 12 -12 25t-8.5 23t-5.5 26.5t-3.5 24.5t-2 28t-0.5 25.5v28.5v27v185z" />
    <glyph glyph-name="afii10042" unicode="&#x428;" horiz-adv-x="924" 
d="M60 700h126v-594h214v594h124v-594h214v594h126v-700h-804v700z" />
    <glyph glyph-name="afii10043" unicode="&#x429;" horiz-adv-x="934" 
d="M60 700h126v-594h214v594h124v-594h214v594h126v-594h70l-30 -106h-844v700z" />
    <glyph glyph-name="afii10044" unicode="&#x42a;" horiz-adv-x="581" 
d="M10 700h208v-244h70q40 0 62 -1.5t55.5 -11.5t60.5 -30q80 -69 80 -185q0 -129 -80 -185q-57 -43 -174 -43h-200v602h-82v98zM218 358v-256h65q71 0 101 30q32 32 32 98t-32 98q-30 30 -101 30h-65z" />
    <glyph glyph-name="afii10045" unicode="&#x42b;" horiz-adv-x="780" 
d="M595 700h125v-700h-125v700zM60 700h126v-244h70q40 0 62 -1.5t55.5 -11.5t60.5 -30q80 -69 80 -185q0 -129 -80 -185q-57 -43 -174 -43h-200v700zM186 358v-256h65q71 0 101 30q32 32 32 98t-32 98q-30 30 -101 30h-65z" />
    <glyph glyph-name="afii10046" unicode="&#x42c;" horiz-adv-x="549" 
d="M60 700h126v-244h70q40 0 62 -1.5t55.5 -11.5t60.5 -30q80 -69 80 -185q0 -129 -80 -185q-57 -43 -174 -43h-200v700zM186 358v-256h65q71 0 101 30q32 32 32 98t-32 98q-30 30 -101 30h-65z" />
    <glyph glyph-name="afii10047" unicode="&#x42d;" horiz-adv-x="626" 
d="M256 403h197q4 85 -18 130q-35 80 -126 80q-65 0 -102 -52q-32 -45 -32 -104v-15h-128q0 114 69 193q72 83 195 83q79 0 133.5 -32t83.5 -76q58 -84 58 -260q0 -171 -59 -258q-72 -110 -218 -110q-123 0 -195 81q-73 81 -74 199h130v-9q0 -72 33 -114q37 -48 107 -48
q92 0 127 88q17 44 17 122h-198v102z" />
    <glyph glyph-name="afii10048" unicode="&#x42e;" horiz-adv-x="860" 
d="M60 700h125v-281h104q7 112 60 192q71 107 204 107t204 -107q63 -90 63 -261t-63 -261q-71 -107 -204 -107t-204 107q-60 90 -62 224h-102v-313h-125v700zM418 352q0 -124 24 -179q32 -81 111 -81q75 0 111 81q24 55 24 179t-24 179q-35 81 -111 81t-111 -81
q-24 -55 -24 -179z" />
    <glyph glyph-name="afii10049" unicode="&#x42f;" horiz-adv-x="571" 
d="M511 700v-700h-126v287h-82q-36 0 -54 -18q-14 -14 -27 -57l-72 -212h-135l91 252q20 56 60 68q-33 9 -60 36q-51 53 -51 138q0 67 27 109t59 62q27 18 62.5 26t51.5 8.5t60 0.5h196zM385 600h-87q-52 0 -83 -27q-30 -28 -30 -83t30 -83q31 -27 83 -27h87v220z" />
    <glyph glyph-name="afii10065" unicode="&#x430;" horiz-adv-x="536" 
d="M481 500v-500h-117l-6 65q-36 -79 -127 -79q-90 0 -145 77q-51 75 -51 187t51 187q55 77 145 77q89 0 127 -77l6 63h117zM362 252q0 72 -18 111q-26 59 -82 59q-57 0 -82 -61q-16 -41 -16 -109q0 -70 15 -107q26 -63 83 -63q55 0 82 59q18 39 18 111z" />
    <glyph glyph-name="afii10066" unicode="&#x431;" horiz-adv-x="525" 
d="M446 600h-156q-67 0 -93 -37q-23 -31 -23 -96v-34q42 59 117 59q91 0 145 -67q54 -66 54 -186q0 -112 -54 -182q-60 -75 -169 -75t-168 75q-48 59 -54 185q0 13 0.5 97.5t0.5 101.5q6 137 67 197q62 62 187 62h146v-100zM361 239q0 75 -15 106q-25 54 -81 54t-80 -54
q-15 -31 -15 -106t15 -106q24 -54 80 -54t81 54q15 31 15 106z" />
    <glyph glyph-name="afii10067" unicode="&#x432;" horiz-adv-x="522" 
d="M171 442v-165q0 -110 12 -138q24 -59 85 -59q47 0 72 36q20 28 20 84q2 61 -20 92q-25 36 -70 36h-39v92h39q38 0 61 30q20 24 20 69q0 46 -21 74q-23 31 -66 31q-54 0 -81 -51q-12 -28 -12 -131zM45 277v165q0 42 1.5 65.5t12.5 65t33 70.5q56 75 166 75q96 0 152 -44
q65 -48 65 -142q0 -65 -31 -104q-29 -36 -80 -51q52 -15 84 -55q39 -49 39 -126q0 -108 -67 -164q-57 -50 -156 -50q-118 0 -175 84q-44 65 -44 211z" />
    <glyph glyph-name="afii10068" unicode="&#x433;" horiz-adv-x="472" 
d="M163 330h-123q0 108 66 155q50 35 125 35q83 0 129 -30q59 -37 60 -117q1 -64 -41 -103q-31 -27 -99 -49q-74 -24 -87 -33q-33 -20 -32 -57q0 -28 19 -46q17 -17 52 -17q40 0 60 25q19 23 19 70v11h126q0 -95 -60 -148q-50 -46 -143 -46q-82 0 -132 31q-65 40 -67 121
q-1 76 59 120q31 20 109 45q55 18 71 31q21 16 23 46q2 27 -16 45q-17 17 -50 17q-32 0 -49 -20q-19 -21 -19 -69v-17z" />
    <glyph glyph-name="afii10069" unicode="&#x434;" horiz-adv-x="536" 
d="M481 500v-506q0 -34 -1 -52t-9.5 -48.5t-26.5 -51.5q-51 -60 -156 -60h-18v98h8q47 0 68 34q4 7 7 13.5t4 16.5t1 14v18.5v17.5v71q-36 -79 -127 -79q-90 0 -145 77q-51 75 -51 187t51 187q55 77 145 77q89 0 127 -77l6 63h117zM362 252q0 72 -18 111q-26 59 -82 59
q-58 0 -83 -61q-15 -34 -15 -109q0 -68 15 -109q25 -61 83 -61q55 0 82 59q18 39 18 111z" />
    <glyph glyph-name="afii10070" unicode="&#x435;" horiz-adv-x="510" 
d="M254 431q-50 0 -76 -41q-22 -33 -20 -83h194q2 50 -20 83q-26 41 -78 41zM352 174h123q-15 -78 -49 -119q-61 -73 -171 -73q-105 0 -164 76q-56 73 -56 192t56 192q62 76 164 76q107 0 167 -79q52 -69 52 -205v-8h-317q0 -65 12 -95q26 -58 90 -58q49 1 77 41
q18 24 16 60z" />
    <glyph glyph-name="afii10072" unicode="&#x436;" horiz-adv-x="680" 
d="M284 500h112v-201h53l93 201h122l-120 -234l121 -266h-125l-91 223h-53v-223h-112v223h-53l-91 -223h-125l121 266l-120 234h122l93 -201h53v201z" />
    <glyph glyph-name="afii10073" unicode="&#x437;" horiz-adv-x="476" 
d="M162 322h-122q-2 47 17 91.5t59 73.5q48 33 125 33q81 0 125 -28q65 -37 65 -117q0 -50 -28 -80q-23 -25 -55 -31q38 -13 62 -39q31 -33 31 -91q-1 -78 -64 -121q-50 -33 -132 -33q-74 0 -124 32q-86 55 -86 170h126q-6 -65 26 -94q20 -20 53 -20q33 -1 54 18t21 51
q1 35 -20 56q-18 18 -63 18h-27v85h27q36 0 56 18t20 50q0 36 -22 55q-19 17 -52 16q-30 -1 -48 -19q-27 -27 -24 -94z" />
    <glyph glyph-name="afii10074" unicode="&#x438;" horiz-adv-x="510" 
d="M45 500h126v-288q0 -62 7 -80q19 -44 66 -44q50 0 74 44q14 25 14 100v268h123v-500h-117l-6 51q-14 -27 -43 -43q-37 -22 -83 -22q-91 -1 -134 65q-8 12 -13 26.5t-8 25t-4.5 29t-1.5 25v28v22.5v293z" />
    <glyph glyph-name="afii10075" unicode="&#x439;" horiz-adv-x="510" 
d="M45 500h126v-288q0 -62 7 -80q19 -44 66 -44q50 0 74 44q14 25 14 100v268h123v-500h-117l-6 51q-14 -27 -43 -43q-37 -22 -83 -22q-91 -1 -134 65q-8 12 -13 26.5t-8 25t-4.5 29t-1.5 25v28v22.5v293zM86 700h96q0 -35 15 -53q20 -24 49 -24t49 24q15 18 15 53h96
q-5 -70 -47 -114q-43 -47 -113 -47t-113 47q-42 44 -47 114z" />
    <glyph glyph-name="afii10076" unicode="&#x43a;" horiz-adv-x="475" 
d="M55 500h123v-195h52l92 195h132l-119 -234l120 -266h-136l-89 220h-52v-220h-123v500z" />
    <glyph glyph-name="afii10077" unicode="&#x43b;" horiz-adv-x="472" 
d="M140 500h192l125 -500h-127l-87 411h-14l-87 -411h-127z" />
    <glyph glyph-name="afii10078" unicode="&#x43c;" horiz-adv-x="560" 
d="M55 500h131l94 -118l94 118h131v-500h-123v372l-102 -135l-102 135v-372h-123v500z" />
    <glyph glyph-name="afii10079" unicode="&#x43d;" horiz-adv-x="502" 
d="M55 500h123v-193h146v193h123v-500h-123v214h-146v-214h-123v500z" />
    <glyph glyph-name="afii10080" unicode="&#x43e;" horiz-adv-x="522" 
d="M35 250q0 121 60 194q61 74 166 74t166 -74q60 -73 60 -194t-60 -194q-61 -74 -166 -74t-166 74q-60 73 -60 194zM164 252q0 -68 12 -104q9 -28 26.5 -44.5t31 -20.5t27.5 -4q61 0 85 69q12 36 12 104t-12 104q-24 69 -85 69q-14 0 -27.5 -4t-31 -20.5t-26.5 -44.5
q-12 -36 -12 -104z" />
    <glyph glyph-name="afii10081" unicode="&#x43f;" horiz-adv-x="510" 
d="M55 500h117l6 -51q14 27 43 43q37 22 83 22q91 1 134 -65q8 -12 13 -26.5t8 -25t4.5 -29t1.5 -25v-28v-22.5v-293h-126v292q0 62 -7 80q-19 44 -66 44q-50 0 -74 -44q-14 -25 -14 -100v-272h-123v500z" />
    <glyph glyph-name="afii10082" unicode="&#x440;" horiz-adv-x="536" 
d="M55 500h117l6 -63q38 77 127 77q90 0 145 -77q51 -75 51 -187t-51 -187q-55 -77 -145 -77q-91 0 -127 79v-265h-123v700zM174 252q0 -72 18 -111q27 -59 82 -59q56 0 82 61q16 39 16 109q0 71 -16 109q-25 61 -82 61q-56 0 -82 -59q-18 -39 -18 -111z" />
    <glyph glyph-name="afii10083" unicode="&#x441;" horiz-adv-x="506" 
d="M342 200h129q0 -103 -67 -163q-62 -56 -151 -55q-104 2 -164 83q-54 74 -54 186q0 119 54 189q60 77 164 78q88 1 149 -55q64 -59 64 -159h-128q2 45 -17 80q-22 41 -66 41q-55 0 -77 -59q-14 -34 -14 -114t14 -114q23 -59 77 -59q46 0 69 40q20 35 18 81z" />
    <glyph glyph-name="afii10084" unicode="&#x442;" horiz-adv-x="366" 
d="M122 0v406h-107v94h336v-94h-107v-406h-122z" />
    <glyph glyph-name="afii10085" unicode="&#x443;" horiz-adv-x="476" 
d="M15 500h127l93 -404h8l91 404h127l-146 -554q-21 -82 -67 -121q-55 -48 -129 -43v94q36 1 63 25q20 21 33 73l6 26h-24q-44 0 -58 55z" />
    <glyph glyph-name="afii10086" unicode="&#x444;" horiz-adv-x="684" 
d="M284 -200v194q-93 0 -163 59q-86 77 -86 200q0 61 24 113.5t62 84.5q73 61 221 61q149 0 221 -61q86 -72 86 -199q0 -124 -86 -199q-77 -59 -163 -59v-194h-116zM284 80v347q-53 -4 -89 -45q-36 -43 -36 -129t36 -129q32 -40 89 -44zM400 427v-347q57 4 89 44
q36 43 36 129t-36 129q-36 41 -89 45z" />
    <glyph glyph-name="afii10087" unicode="&#x445;" horiz-adv-x="460" 
d="M17 500h124l84 -196h10l84 196h124l-115 -234l117 -266h-128l-82 217h-10l-82 -217h-128l117 266z" />
    <glyph glyph-name="afii10088" unicode="&#x446;" horiz-adv-x="519" 
d="M45 500h126v-279q0 -74 5 -88q15 -44 65 -44q45 1 66 41q13 22 13 95v275h125v-355q0 -49 8 -66q19 -35 66 -31v-248h-121v200q-25 4 -45 23q-8 8 -23 34q-16 -29 -37 -45q-35 -28 -86 -28q-90 0 -132 66q-14 22 -21 54.5t-8 52.5t-1 63v280z" />
    <glyph glyph-name="afii10089" unicode="&#x447;" horiz-adv-x="465" 
d="M30 500h123v-141q0 -62 5 -76q15 -42 59 -42q47 0 62 38q8 18 8 80v141h123v-500h-123v186q-40 -48 -108 -48q-89 0 -129 75q-20 41 -20 159v128z" />
    <glyph glyph-name="afii10090" unicode="&#x448;" horiz-adv-x="729" 
d="M45 500h126v-296q0 -65 5 -79q16 -41 56 -41q43 0 61 41q8 20 8 72v303h120v-296q0 -70 6 -85q14 -35 52 -35q21 0 39.5 13.5t26.5 34.5q6 16 6 72v296h123v-500h-117l-6 51q-13 -20 -39 -39q-36 -24 -77 -24q-83 0 -113 67q-44 -67 -125 -67q-89 0 -128 67q-7 11 -12 25
t-7.5 24t-3.5 26.5t-1 24v25v20.5v300z" />
    <glyph glyph-name="afii10091" unicode="&#x449;" horiz-adv-x="751" 
d="M45 500h126v-296q0 -56 8 -73q16 -37 56 -37t58 38q4 8 6 18.5t2.5 15t0 21t-0.5 19.5v294h120v-294q0 -54 7 -72q17 -40 57 -40t58 38q4 8 6 18.5t2.5 15t0 21t-0.5 19.5v294h126v-355q0 -45 16 -67q22 -26 58 -30v-248h-121v200q-26 8 -39 26q-12 15 -18 42
q-12 -30 -39 -52q-37 -31 -86 -30q-55 1 -92 37q-21 19 -32 45q-37 -82 -123 -82q-84 0 -125 63q-14 21 -21.5 52t-8.5 52.5t-1 59.5v287z" />
    <glyph glyph-name="afii10092" unicode="&#x44a;" horiz-adv-x="509" 
d="M-20 598h100q54 0 75 -21q19 -19 19 -66v-145q7 9 17.5 19.5t38.5 23.5t60 13q76 2 132 -59q54 -59 52 -160q-2 -92 -50 -150q-62 -71 -164 -71q-121 0 -173 86q-16 26 -24.5 60.5t-9.5 58.5t-1 69v244h-72v98zM345 203q0 56 -21 87q-25 36 -66 36t-66 -36
q-21 -31 -21 -87q0 -57 21 -88q25 -36 66 -36t66 36q21 31 21 88z" />
    <glyph glyph-name="afii10093" unicode="&#x44b;" horiz-adv-x="730" 
d="M552 500h123v-500h-123v500zM45 256v294h122v-184q7 9 17.5 19.5t38.5 23.5t60 13q76 2 132 -59q54 -59 52 -160q-2 -92 -50 -150q-62 -71 -164 -71q-121 0 -173 86q-16 26 -24.5 60.5t-9.5 58.5t-1 69zM338 203q0 56 -21 87q-25 36 -66 36t-66 -36q-21 -31 -21 -87
q0 -57 21 -88q25 -36 66 -36t66 36q21 31 21 88z" />
    <glyph glyph-name="afii10094" unicode="&#x44c;" horiz-adv-x="502" 
d="M45 256v294h122v-184q7 9 17.5 19.5t38.5 23.5t60 13q76 2 132 -59q54 -59 52 -160q-2 -92 -50 -150q-62 -71 -164 -71q-121 0 -173 86q-16 26 -24.5 60.5t-9.5 58.5t-1 69zM338 203q0 56 -21 87q-25 36 -66 36t-66 -36q-21 -31 -21 -87q0 -57 21 -88q25 -36 66 -36
t66 36q21 31 21 88z" />
    <glyph glyph-name="afii10095" unicode="&#x44d;" horiz-adv-x="506" 
d="M35 201h127q0 -51 18 -82q22 -40 70 -40q58 0 81 60q12 31 12 75h-103v74h103q0 44 -11 77q-22 60 -82 60q-46 0 -70 -41q-20 -38 -18 -85h-126q-3 96 63 162q59 57 150 57q113 0 172 -81q50 -67 50 -186q0 -118 -49 -186q-60 -83 -173 -83q-95 0 -154 61q-61 63 -60 158
z" />
    <glyph glyph-name="afii10096" unicode="&#x44e;" horiz-adv-x="736" 
d="M55 500h123v-195h76q7 81 55 139q61 74 166 74t166 -74q60 -73 60 -194t-60 -194q-61 -74 -166 -74t-166 74q-55 67 -57 164h-74v-220h-123v500zM376 251q0 -67 14 -105q24 -67 85 -67q60 0 85 67q14 46 14 105q1 68 -13 105q-24 69 -86 69t-86 -69q-13 -34 -13 -105z
" />
    <glyph glyph-name="afii10097" unicode="&#x44f;" horiz-adv-x="482" 
d="M427 500v-500h-123v183h-60l-90 -183h-139l119 206q-33 11 -55 36q-35 39 -35 99q0 88 67 130q45 29 151 29h165zM304 414h-49q-41 0 -60 -16q-24 -19 -24 -57t22 -57q18 -17 62 -17h49v147z" />
    <glyph glyph-name="afii10071" unicode="&#x451;" horiz-adv-x="510" 
d="M83 700h113v-125h-113v125zM315 700h113v-125h-113v125zM254 431q-50 0 -76 -41q-22 -33 -20 -83h194q2 50 -20 83q-26 41 -78 41zM352 174h123q-15 -78 -49 -119q-61 -73 -171 -73q-105 0 -164 76q-56 73 -56 192t56 192q62 76 164 76q107 0 167 -79q52 -69 52 -205v-8
h-317q0 -65 12 -95q26 -58 90 -58q49 1 77 41q18 24 16 60z" />
    <glyph glyph-name="afii10099" unicode="&#x452;" horiz-adv-x="547" 
d="M15 624h67v76h123v-76h187v-90h-187v-159q13 22 34 36q38 25 92 25q91 0 134 -65q8 -12 13 -26t8 -24t4.5 -29t1.5 -25v-28v-24v-211v-15v-17t-0.5 -17t-1.5 -19.5t-2.5 -18.5t-4.5 -20t-7 -18.5t-9 -19.5t-12 -17q-51 -60 -158 -60h-18v98h8q47 0 68 34q4 7 7 14.5t4 19
t1 16.5v21.5v18.5v210v19v19t-0.5 15t-2.5 15.5t-5 13.5q-18 38 -66 38t-74 -40q-14 -23 -14 -100v-194h-123v534h-67v90z" />
    <glyph glyph-name="afii10100" unicode="&#x453;" horiz-adv-x="473" 
d="M264 700h86l-78 -150h-86zM164 330h-124q-2 46 15.5 87.5t51.5 67.5q46 35 125 35q83 0 129 -30q59 -37 60 -117q1 -64 -41 -103q-31 -27 -99 -49q-74 -24 -87 -33q-33 -20 -32 -57q0 -28 19 -46q17 -17 52 -17q40 0 60 25q19 23 19 70v11h126q0 -95 -60 -148
q-50 -46 -143 -46q-80 0 -132 31q-66 40 -68 121q-2 77 60 120q31 20 109 45q55 18 71 31q21 16 23 46q2 27 -16 45q-17 17 -50 17q-32 0 -49 -20q-19 -21 -19 -69v-17z" />
    <glyph glyph-name="afii10101" unicode="&#x454;" horiz-adv-x="506" 
d="M344 201h127q1 -95 -60 -158q-59 -61 -154 -61q-113 0 -173 83q-49 68 -49 186q0 119 50 186q59 81 172 81q91 0 150 -57q66 -66 63 -162h-126q2 47 -18 85q-24 41 -70 41q-60 0 -82 -60q-11 -29 -11 -77h103v-74h-103q0 -44 12 -75q23 -60 81 -60q48 0 70 40
q18 31 18 82z" />
    <glyph glyph-name="afii10102" unicode="&#x455;" horiz-adv-x="472" 
d="M35 174h126v-11q0 -47 19 -70q20 -25 60 -25q35 0 52 17q19 18 19 46q1 37 -32 57q-17 10 -87 33q-3 1 -22.5 8t-27.5 10.5t-23 12t-26 18.5q-42 39 -41 103q1 78 60 117q47 30 125 30q83 0 129 -35q66 -47 66 -155h-123v17q0 48 -19 69q-18 20 -51 20q-31 0 -48 -17
q-18 -18 -16 -45q2 -30 23 -46q13 -11 72 -31q80 -26 108 -45q61 -41 59 -120q-2 -81 -67 -121q-50 -31 -132 -31q-93 0 -143 46q-60 53 -60 148z" />
    <glyph glyph-name="afii10103" unicode="&#x456;" horiz-adv-x="253" 
d="M65 500h123v-500h-123v500zM65 700h123v-118h-123v118z" />
    <glyph glyph-name="afii10104" unicode="&#x457;" horiz-adv-x="359" 
d="M118 500h123v-500h-123v500zM15 700h123v-118h-123v118zM221 700h123v-118h-123v118z" />
    <glyph glyph-name="afii10105" unicode="&#x458;" horiz-adv-x="253" 
d="M65 500h123v-700h-123v700zM65 700h123v-118h-123v118z" />
    <glyph glyph-name="afii10106" unicode="&#x459;" horiz-adv-x="684" 
d="M144 500h184l47 -181h94q118 0 165 -58q35 -42 35 -102q0 -86 -67 -130q-46 -29 -138 -29h-134l-87 411h-14l-87 -411h-127zM397 233l38 -147h12q51 0 71 16q24 20 24 57q0 38 -22 57q-18 17 -62 17h-61z" />
    <glyph glyph-name="afii10107" unicode="&#x45a;" horiz-adv-x="735" 
d="M55 500h123v-193h146v193h123v-181h58q118 0 165 -58q35 -42 35 -102q0 -86 -67 -130q-46 -29 -138 -29h-176v214h-146v-214h-123v500zM447 86h36q51 0 71 16q24 20 24 57q0 38 -22 57q-18 17 -62 17h-47v-147z" />
    <glyph glyph-name="afii10108" unicode="&#x45b;" horiz-adv-x="537" 
d="M15 624h67v76h123v-76h187v-90h-187v-159q13 22 34 36q38 25 92 25q91 0 134 -65q8 -12 13 -26t8 -24t4.5 -29t1.5 -25v-28v-24v-215h-125v214v19v19t-0.5 15t-2.5 15.5t-5 13.5q-18 38 -66 38t-74 -40q-14 -23 -14 -100v-194h-123v534h-67v90z" />
    <glyph glyph-name="afii10109" unicode="&#x45c;" horiz-adv-x="475" 
d="M55 500h123v-195h52l92 195h132l-119 -234l120 -266h-136l-89 220h-52v-220h-123v500zM270 700h86l-78 -150h-86z" />
    <glyph glyph-name="afii10110" unicode="&#x45e;" horiz-adv-x="476" 
d="M15 500h127l93 -404h8l91 404h127l-146 -554q-21 -82 -67 -121q-55 -48 -129 -43v94q36 1 63 25q20 21 33 73l6 26h-24q-44 0 -58 55zM79 700h96q0 -35 15 -53q20 -24 49 -24t49 24q15 18 15 53h96q-5 -70 -47 -114q-43 -47 -113 -47t-113 47q-42 44 -47 114z" />
    <glyph glyph-name="afii10193" unicode="&#x45f;" horiz-adv-x="510" 
d="M55 500h123v-400h154v400h123v-500h-145v-200h-110v200h-145v500z" />
    <glyph glyph-name="afii10050" unicode="&#x490;" horiz-adv-x="405" 
d="M60 700h265v150h110v-258h-250v-592h-125v700z" />
    <glyph glyph-name="afii10098" unicode="&#x491;" horiz-adv-x="345" 
d="M55 500h194v200h86v-298h-157v-402h-123v500z" />
    <glyph glyph-name="cyrAE" unicode="&#x4d4;" horiz-adv-x="875" 
d="M209 700h482l29 -104h-297l51 -184h290l29 -103h-291l55 -201h274l29 -108h-404l-46 186h-218l-46 -186h-131zM293 609l-76 -321h168l-76 321h-16z" />
    <glyph glyph-name="cyrae" unicode="&#x4d5;" horiz-adv-x="846" 
d="M360 252q0 72 -18 111q-26 59 -82 59q-57 0 -82 -61q-16 -41 -16 -109q0 -70 15 -107q26 -63 83 -63q55 0 82 59q18 39 18 111zM590 431q-49 0 -79 -41q-22 -34 -22 -83h201q2 50 -21 83q-26 41 -79 41zM690 174h121q-15 -78 -49 -119q-59 -73 -156 -69q-90 0 -127 79
l-3 -65h-117l-3 65q-36 -79 -127 -79q-89 0 -143 77q-51 75 -51 187t51 187q54 77 143 77q85 0 127 -77l3 63h117l3 -63q40 77 127 77q97 1 152 -75q52 -70 52 -205v-8h-321q-3 -57 17 -98q26 -55 87 -55q52 0 79 41q16 25 18 60z" />
    <glyph glyph-name="endash" unicode="&#x2013;" horiz-adv-x="620" 
d="M60 307h500v-86h-500v86z" />
    <glyph glyph-name="emdash" unicode="&#x2014;" horiz-adv-x="850" 
d="M0 307h850v-88h-850v88z" />
    <glyph glyph-name="quoteleft" unicode="&#x2018;" horiz-adv-x="258" 
d="M60 700h122v-132h-57q6 -53 19 -85q13 -35 54 -90h-72q-31 42 -47 83q-19 46 -19 106v118z" />
    <glyph glyph-name="quoteright" unicode="&#x2019;" horiz-adv-x="258" 
d="M76 700h122v-118q0 -55 -19 -106q-13 -37 -47 -83h-72q41 55 54 90q12 26 18 85h-56v132z" />
    <glyph glyph-name="quotesinglbase" unicode="&#x201a;" horiz-adv-x="247" 
d="M65 132h122v-118q0 -59 -16 -106q-15 -46 -39 -83h-72q35 60 44 90q14 39 15 85h-54v132z" />
    <glyph glyph-name="quotedblleft" unicode="&#x201c;" horiz-adv-x="480" 
d="M282 700h122v-132h-57q6 -53 19 -85q13 -35 54 -90h-72q-31 42 -47 83q-19 46 -19 106v118zM60 700h122v-132h-56q6 -59 18 -85q13 -35 54 -90h-72q-34 46 -47 83q-19 51 -19 106v118z" />
    <glyph glyph-name="quotedblright" unicode="&#x201d;" horiz-adv-x="480" 
d="M76 700h122v-118q0 -60 -19 -106q-16 -41 -47 -83h-72q41 55 54 90q13 32 19 85h-57v132zM298 700h122v-118q0 -55 -19 -106q-13 -37 -47 -83h-72q41 55 54 90q12 26 18 85h-56v132z" />
    <glyph glyph-name="quotedblbase" unicode="&#x201e;" horiz-adv-x="480" 
d="M76 132h122v-118q0 -60 -19 -106q-16 -41 -47 -83h-72q41 55 54 90q13 32 19 85h-57v132zM298 132h122v-118q0 -55 -19 -106q-13 -37 -47 -83h-72q41 55 54 90q12 26 18 85h-56v132z" />
    <glyph glyph-name="dagger" unicode="&#x2020;" horiz-adv-x="477" 
d="M180 750h117v-185h120v-107h-120v-608h-117v608h-120v107h120v185z" />
    <glyph glyph-name="daggerdbl" unicode="&#x2021;" horiz-adv-x="497" 
d="M190 750h117v-185h130v-107h-130v-290h130v-107h-130v-211h-117v211h-130v107h130v290h-130v107h130v185z" />
    <glyph glyph-name="bullet" unicode="&#x2022;" horiz-adv-x="360" 
d="M60 266q0 50 35 85t85 35t85 -35t35 -85t-35 -85t-85 -35t-85 35t-35 85z" />
    <glyph glyph-name="ellipsis" unicode="&#x2026;" horiz-adv-x="686" 
d="M60 132h122v-132h-122v132zM282 132h122v-132h-122v132zM504 132h122v-132h-122v132z" />
    <glyph glyph-name="perthousand" unicode="&#x2030;" horiz-adv-x="1412" 
d="M60 500q0 90 47 149q49 61 128 61t128 -61q47 -59 47 -149q0 -89 -47 -148q-49 -61 -128 -61t-128 61q-47 59 -47 148zM152 501q0 -61 17 -95q22 -45 66 -45q42 0 66 45q17 33 17 95q0 61 -17 94q-22 45 -66 45t-66 -45q-17 -34 -17 -94zM706 700h90l-500 -700h-90z
M592 200q0 89 47 148q49 61 128 61t128 -61q47 -59 47 -148q0 -90 -47 -149q-49 -61 -128 -61t-128 61q-47 59 -47 149zM684 199q0 -60 17 -94q22 -45 66 -45t66 45q17 33 17 94q0 62 -17 95q-24 45 -66 45q-44 0 -66 -45q-17 -34 -17 -95zM1002 200q0 89 47 148
q49 61 128 61t128 -61q47 -59 47 -148q0 -90 -47 -149q-49 -61 -128 -61t-128 61q-47 59 -47 149zM1094 199q0 -60 17 -94q22 -45 66 -45t66 45q17 33 17 94q0 62 -17 95q-24 45 -66 45q-44 0 -66 -45q-17 -34 -17 -95z" />
    <glyph glyph-name="guilsinglleft" unicode="&#x2039;" horiz-adv-x="292" 
d="M60 311l172 189v-140l-94 -101v-18l94 -101v-140l-172 189v122z" />
    <glyph glyph-name="guilsinglright" unicode="&#x203a;" horiz-adv-x="292" 
d="M60 500l172 -189v-122l-172 -189v140l94 101v18l-94 101v140z" />
    <glyph glyph-name="Euro" unicode="&#x20ac;" horiz-adv-x="546" 
d="M48 443h39q12 103 64 174q73 99 193 101q85 1 152 -52l-38 -94q-46 46 -102 46q-75 1 -117 -78q-22 -43 -27 -97h201l-27 -74h-177q-5 -33 0 -63h154l-27 -74h-120q3 -44 32 -85q46 -61 115 -61q70 0 133 63v-115q-63 -52 -143 -52q-133 0 -209 111q-38 55 -54 139h-60
l18 74h35q-1 28 0 63h-53z" />
    <glyph glyph-name="afii61352" unicode="&#x2116;" horiz-adv-x="1013" 
d="M643 302h330v-75h-330v75zM60 0v399v23v26t0.5 24.5t2.5 28t4.5 26t7 28.5t10 26t14 28t18.5 26q69 81 189 81q122 0 190 -81q27 -34 40.5 -83.5t14.5 -75t1 -77.5v-399h-128v429v18v21t-1 18.5t-2.5 21.5t-4.5 19t-8 20q-30 63 -102 63q-73 0 -103 -62q-15 -32 -15 -119
v-429h-128zM657 543q0 77 42 123q43 46 109 46t109 -46q42 -45 42 -123q0 -76 -42 -122t-109 -46t-109 46t-42 122zM747 544q0 -48 11 -70q15 -31 50 -31t50 31q11 22 11 70q0 44 -12 71q-17 31 -49 31t-49 -31q-12 -27 -12 -71z" />
    <glyph glyph-name="published" unicode="&#x2117;" horiz-adv-x="1005" 
d="M369 595h123q98 0 145 -32q63 -41 63 -128q0 -47 -18.5 -79.5t-44.5 -48.5q-46 -33 -145 -33h-26v-169h-97v490zM466 522v-174h30q50 0 74 17q34 23 32 70q0 47 -32 70q-24 17 -74 17h-30zM60 349q0 183 130 312.5t313 129.5q182 0 312 -130t130 -312
q0 -183 -129.5 -312.5t-312.5 -129.5t-313 129.5t-130 312.5zM138 349q0 -152 106.5 -258.5t258.5 -106.5t258.5 106.5t106.5 258.5t-106.5 258.5t-258.5 106.5t-258.5 -106.5t-106.5 -258.5z" />
    <glyph glyph-name="trademark" unicode="&#x2122;" horiz-adv-x="797" 
d="M20 700h236v-74h-76v-276h-85v276h-75v74zM315 350v191v18v20.5t1 19.5t3 21.5t6.5 19.5t10.5 21q34 48 94 47q64 -2 96 -60q31 62 102 60q57 -1 87 -47q5 -7 8.5 -15t5.5 -15t4 -16.5t2.5 -15t1 -16t0.5 -14.5v-15v-13v-191h-88v208q0 41 -4 50q-10 25 -37 25
q-26 0 -36 -25q-4 -9 -4 -50v-208h-85v208q0 41 -4 50q-11 25 -36 25t-37 -25q-4 -10 -4 -50v-208h-87z" />
    <glyph glyph-name="partialdiff" unicode="&#x2202;" horiz-adv-x="546" 
d="M178 216q0 -64 22 -96q26 -38 71 -38q44 0 71 39q22 31 22 95q0 61 -19 92q-28 45 -74 45q-48 0 -73 -44q-20 -35 -20 -93zM144 708h16q130 0 222 -92q68 -71 94 -189q22 -100 8 -221q-14 -108 -70 -166q-57 -57 -139 -58q-85 -1 -145 53q-72 66 -72 181q0 104 55 169
q53 64 137 64q77 0 125 -66q-5 41 -15 72q-26 74 -79 112q-62 45 -137 41v100z" />
    <glyph glyph-name="product" unicode="&#x220f;" horiz-adv-x="612" 
d="M60 700h492v-700h-125v592h-242v-592h-125v700z" />
    <glyph glyph-name="summation" unicode="&#x2211;" horiz-adv-x="540" 
d="M40 700h453v-103h-307l184 -226l-184 -267h314v-104h-460v104l184 267l-184 226v103z" />
    <glyph glyph-name="minus" unicode="&#x2212;" 
d="M60 353h460v-98h-460v98z" />
    <glyph glyph-name="division" unicode="&#x2215;" horiz-adv-x="486" 
d="M394 700h92l-394 -700h-92z" />
    <glyph glyph-name="uni2219" unicode="&#x2219;" horiz-adv-x="244" 
d="M60 332h124v-132h-124v132z" />
    <glyph glyph-name="radical" unicode="&#x221a;" 
d="M60 480h168l123 -397h25v667h194v-83h-99v-667h-197l-124 397h-90v83z" />
    <glyph glyph-name="infinity" unicode="&#x221e;" horiz-adv-x="766" 
d="M383 235l-40 -45q-56 -64 -128 -64q-60 0 -107.5 43t-47.5 121q0 72 44 117.5t111 45.5q73 -1 128 -64l40 -45l40 45q29 30 57 46.5t71 17.5q67 0 111 -45t44 -118q0 -75 -44 -120.5t-111 -43.5q-43 1 -72 17t-56 47zM434 290l33 -37q41 -47 83 -46q32 1 52.5 24t20.5 59
t-20.5 59.5t-52.5 23.5q-40 0 -83 -47zM332 290l-32 36q-41 47 -84 47q-32 -1 -52.5 -24t-20.5 -59t20.5 -59t52.5 -24q43 -1 84 46z" />
    <glyph glyph-name="integral" unicode="&#x222b;" horiz-adv-x="334" 
d="M176 474l87 -432q11 -50 11 -100q0 -65 -31 -101q-37 -42 -97 -41q-45 2 -65.5 26.5t-20.5 51.5q-2 34 18 53t48 16q32 -3 39 -39q8 13 8 44q0 8 -7 48t-7 42l-86 431q-13 65 -13 104q0 57 24 90q34 49 100 49q48 0 69 -24.5t21 -53.5q1 -32 -16 -49.5t-44 -17.5
q-40 0 -49 40q-2 -5 -3 -9.5t-1.5 -8.5t-0.5 -9.5t-0.5 -9.5t0.5 -11.5t2 -12t2.5 -15.5t3 -17t4 -20.5t4.5 -23.5z" />
    <glyph glyph-name="approxequal" unicode="&#x2248;" 
d="M60 343v98q63 45 123 45q44 0 107 -26q7 -3 26 -12t29 -13t26.5 -8t31.5 -4q56 0 117 56v-98q-63 -45 -123 -45q-44 0 -107 26q-7 3 -26 12t-29 13t-26.5 8t-31.5 4q-56 0 -117 -56zM60 113v98q63 45 123 45q44 0 107 -26q7 -3 26 -12t29 -13t26.5 -8t31.5 -4
q56 0 117 56v-98q-63 -45 -123 -45q-44 0 -107 26q-7 3 -26 12t-29 13t-26.5 8t-31.5 4q-56 0 -117 -56z" />
    <glyph glyph-name="notequal" unicode="&#x2260;" 
d="M60 458h270l69 122h100l-69 -122h90v-95h-144l-71 -126h215v-95h-269l-69 -122h-100l69 122h-91v95h145l71 126h-216v95z" />
    <glyph glyph-name="lessequal" unicode="&#x2264;" horiz-adv-x="500" 
d="M60 498l380 182v-100l-300 -134v-24l300 -142v-100l-380 190v128zM60 262l380 -212v-100l-380 212v100z" />
    <glyph glyph-name="greaterequal" unicode="&#x2265;" horiz-adv-x="500" 
d="M60 680l380 -182v-128l-380 -190v100l300 142v24l-300 134v100zM60 50l380 212v-100l-380 -212v100z" />
    <glyph glyph-name="dotmath" unicode="&#x22c5;" horiz-adv-x="244" 
d="M60 332h124v-132h-124v132z" />
    <glyph glyph-name="diameter" unicode="&#x2300;" horiz-adv-x="720" 
d="M206 163l252 354q-49 23 -99 23q-58 0 -109 -29t-80.5 -80t-29.5 -111q0 -95 66 -157zM519 472l-252 -352q47 -20 94 -20q58 0 109 29t80.5 80t29.5 111q0 89 -61 152zM568 670h92l-94 -132q94 -88 94 -218q0 -81 -40 -150.5t-110 -109.5t-148 -40q-75 0 -142 35l-60 -85
h-92l91 127q-99 90 -99 223q0 81 40 150.5t110 109.5q69 40 148 40q75 0 147 -38z" />
    <glyph glyph-name="filledvertrect" unicode="&#x25ae;" horiz-adv-x="226" 
d="M70 700h86v-700h-86v700z" />
    <glyph glyph-name="lozenge" unicode="&#x25ca;" horiz-adv-x="556" 
d="M193 700h170l133 -350l-130 -350h-176l-130 350zM374 350l-88 259h-16l-88 -259l88 -256h16z" />
    <glyph glyph-name="openbullet" unicode="&#x25e6;" horiz-adv-x="457" 
d="M132 544q0 -45 29.5 -71t66.5 -26t66.5 26t29.5 71t-30 70.5t-66 25.5t-66 -25.5t-30 -70.5zM60 544q0 71 48.5 119.5t119.5 48.5q70 0 119.5 -48.5t49.5 -119.5q0 -69 -50 -119t-119 -50q-71 0 -119.5 49.5t-48.5 119.5z" />
    <glyph glyph-name="star" unicode="&#x2606;" horiz-adv-x="632" 
d="M171 119h290v4q0 49 -33 87q-40 47 -112 47q-73 0 -112 -47q-33 -40 -33 -87v-4zM65 39v25q0 115 57 187q66 86 194 86q129 0 198 -88q53 -69 53 -187v-23h-502zM193 366l-133 -59q-17 102 55 155.5t201 53.5q16 0 33 -1.5t54 -6.5t66.5 -19t58 -35.5t41 -59.5t3.5 -87
l-133 59q5 37 -32 57q-34 18 -91 18t-91 -18q-37 -20 -32 -57z" />
    <glyph glyph-name="Acute" unicode="&#xf6c9;" horiz-adv-x="405" 
d="M254 850h110l-98 -120h-110z" />
    <glyph glyph-name="Dieresis" unicode="&#xf6cb;" horiz-adv-x="540" 
d="M98 870h114v-105h-114v105zM326 870h114v-105h-114v105z" />
    <glyph glyph-name="cyrBreve" unicode="&#xf6d1;" horiz-adv-x="584" 
d="M121 850h99q14 -54 72 -54t72 54h99q-12 -54 -52 -88q-51 -44 -119 -44t-118 45q-41 37 -53 87z" />
    <glyph glyph-name="cyrbreve" unicode="&#xf6d4;" horiz-adv-x="492" 
d="M86 700h96q0 -35 15 -53q20 -24 49 -24t49 24q15 18 15 53h96q-5 -70 -47 -114q-43 -47 -113 -47t-113 47q-42 44 -47 114z" />
    <glyph glyph-name="uniFEFF" unicode="&#xfeff;" horiz-adv-x="0" 
 />
    <glyph glyph-name="afii10040.ss01" horiz-adv-x="588" 
d="M50 700h129v-421q0 -97 15 -126q28 -57 98 -57q69 0 98 56q15 28 15 127v421h129v-399q0 -109 -10 -148q-5 -22 -15 -42l69 -55l-54 -72l-70 56q-64 -56 -162 -56q-122 0 -188 81q-15 19 -26 41.5t-16.5 38t-8.5 43.5t-3.5 37t0 41t0.5 35v399z" />
    <glyph glyph-name="afii10042.ss01" horiz-adv-x="904" 
d="M50 700h129v-419q0 -92 13 -123q26 -59 95 -59q65 1 90 59q13 31 13 124v418h124v-417q0 -93 13 -124q26 -59 90 -60q66 -1 95 60q13 31 13 124v417h129v-393v-21v-25t-0.5 -24t-1.5 -27.5t-3 -26t-5 -28t-7 -25t-9.5 -27t-12.5 -23.5q-55 -90 -177 -94q-43 -1 -78 11.5
t-56.5 33t-33 36t-18.5 30.5q-7 -15 -18.5 -30.5t-33 -36t-56.5 -33t-78 -11.5q-122 4 -177 94q-9 14 -16 30t-11.5 35t-7 32.5t-3.5 37t-1 32v33v27.5v393z" />
    <glyph glyph-name="afii10043.ss01" horiz-adv-x="915" 
d="M50 700h129v-419q0 -92 13 -123q26 -59 95 -59q65 1 90 59q13 31 13 124v418h124v-417q0 -93 13 -124q26 -59 90 -60q66 -1 95 60q13 31 13 124v417h129v-393q0 -83 -5.5 -126t-20.5 -78l57 -48l-54 -69l-57 48q-55 -47 -136 -48q-43 -1 -78 11.5t-56.5 33t-33 36
t-18.5 30.5q-7 -15 -18.5 -30.5t-33 -36t-56.5 -33t-78 -11.5q-122 4 -177 94q-9 14 -16 30t-11.5 35t-7 32.5t-3.5 37t-1 32v33v27.5v393z" />
    <glyph glyph-name="afii10069.ss01" horiz-adv-x="536" 
d="M481 500v-700h-123v265q-36 -79 -127 -79q-90 0 -145 77q-51 75 -51 187t51 187q55 77 145 77q89 0 127 -77l6 63h117zM362 252q0 72 -18 111q-26 59 -82 59q-57 0 -82 -61q-16 -38 -16 -109q0 -70 16 -109q26 -61 82 -61q55 0 82 59q18 39 18 111z" />
    <glyph glyph-name="afii10074.ss01" horiz-adv-x="492" 
d="M45 500h126v-280q0 -70 7 -89q17 -48 68 -48t68 48q7 19 7 89v280h126v-272q0 -85 -11 -120q-10 -29 -29 -54q-56 -72 -161 -72t-161 72q-10 12 -17 24.5t-11 27.5t-7 24.5t-4 27t-1 23.5v25.5v21.5v272z" />
    <glyph glyph-name="afii10075.ss01" horiz-adv-x="492" 
d="M86 700h96q0 -35 15 -53q20 -24 49 -24t49 24q15 18 15 53h96q-5 -70 -47 -114q-43 -47 -113 -47t-113 47q-42 44 -47 114zM45 500h126v-280q0 -70 7 -89q17 -48 68 -48t68 48q7 19 7 89v280h126v-272q0 -85 -11 -120q-10 -29 -29 -54q-56 -72 -161 -72t-161 72
q-10 12 -17 24.5t-11 27.5t-7 24.5t-4 27t-1 23.5v25.5v21.5v272z" />
    <glyph glyph-name="afii10078.ss01" horiz-adv-x="724" 
d="M95 500h178l89 -400l89 400h178l80 -500h-127l-52 411h-14l-90 -411h-128l-90 411h-14l-52 -411h-127z" />
    <glyph glyph-name="afii10038.ss01" horiz-adv-x="810" 
d="M297 702v-98q-57 -17 -88 -66q-41 -65 -41 -186q0 -118 36 -183q47 -82 139 -86v503q0 69 23 96q25 30 83 32q135 4 224 -90q97 -101 97 -274q0 -184 -104 -281q-53 -50 -117.5 -66.5t-145.5 -16.5q-172 0 -264 89q-99 99 -99 275q0 178 104 278q67 65 153 74zM462 621
v-538q89 0 141 82q39 60 39 187q0 124 -39 187q-52 82 -141 82z" />
    <glyph glyph-name="afii10086.ss01" horiz-adv-x="682" 
d="M282 -200v194q-93 0 -163 59q-84 72 -84 200q0 127 84 198q58 49 132 51v-83q-37 -15 -59 -42q-33 -42 -33 -124q0 -89 36 -131q31 -37 87 -42v311q0 71 32 98q25 20 81 23q101 2 168 -59q84 -76 84 -200q0 -57 -21.5 -111t-61.5 -89q-68 -59 -166 -59v-194h-116z
M398 427v-347q58 4 89 42q36 41 36 131t-36 131q-32 39 -89 43z" />
    <glyph glyph-name="afii10090.ss01" horiz-adv-x="722" 
d="M45 500h126v-296q0 -63 6 -79q15 -41 59 -41q42 0 58 41q7 18 7 79v296h120v-296q0 -61 7 -79q16 -41 58 -41q44 0 59 41q6 16 6 79v296h126v-300q0 -97 -32 -145q-49 -75 -144 -71q-53 2 -88 28.5t-52 62.5q-17 -36 -52 -63.5t-88 -27.5q-100 0 -144 71q-32 48 -32 145
v300z" />
    <glyph glyph-name="afii10092.ss01" horiz-adv-x="521" 
d="M-20 700h102q42 0 63 -21q23 -23 23 -70v-161q43 54 117 54q91 0 147 -73q54 -70 54 -186q0 -117 -54 -186q-60 -75 -168 -75q-116 0 -174 86q-20 30 -30.5 67.5t-12 64.5t-1.5 74v332h-66v94zM357 244q0 72 -18 110q-25 51 -77 51q-54 0 -79 -51q-19 -35 -19 -110
t19 -110q25 -51 79 -51q52 0 77 51q18 38 18 110z" />
    <glyph glyph-name="afii10093.ss01" horiz-adv-x="738" 
d="M45 645h122v-201q33 56 117 58q90 2 147 -73q54 -70 54 -186q0 -117 -54 -186q-60 -75 -168 -75q-118 0 -176 86q-20 30 -30 68.5t-11 63t-1 74.5v371zM356 244q0 72 -18 110q-24 51 -76 51q-55 0 -80 -51q-19 -35 -19 -110t19 -110q25 -51 80 -51q52 0 76 51
q18 38 18 110zM560 500h123v-500h-123v500z" />
    <glyph glyph-name="afii10094.ss01" horiz-adv-x="520" 
d="M45 645h122v-199q40 56 117 56q91 0 147 -73q54 -70 54 -186q0 -117 -54 -186q-59 -75 -171 -75q-116 1 -174 86q-20 28 -29.5 68t-10.5 63t-1 75v371zM356 244q0 72 -18 110q-26 51 -78 51t-78 -51q-19 -35 -19 -110t19 -110q26 -51 78 -51t78 51q18 38 18 110z" />
    <glyph glyph-name="afii10026.ss01" horiz-adv-x="584" 
d="M50 700h129v-421q0 -97 15 -126q28 -57 98 -57q69 0 98 56q15 28 15 127v421h129v-399q0 -5 0.5 -29t0 -34t-2 -32.5t-5 -37t-9 -34.5t-15 -36.5t-22.5 -32.5q-65 -81 -189 -81q-122 0 -188 81q-15 19 -26 41.5t-16.5 38t-8.5 43.5t-3.5 37t0 41t0.5 35v399z" />
    <glyph glyph-name="afii10145.ss01" horiz-adv-x="584" 
d="M50 700h129v-421q0 -97 15 -126q28 -57 98 -57q69 0 98 56q15 28 15 127v421h129v-399q0 -5 0.5 -29t0 -34t-2 -32.5t-5 -37t-9 -34.5t-15 -36.5t-22.5 -32.5q-44 -57 -124 -74v-191h-126v190q-77 14 -127 75q-15 19 -26 41.5t-16.5 38t-8.5 43.5t-3.5 37t0 41t0.5 35
v399z" />
    <glyph glyph-name="afii10098.ss01" horiz-adv-x="326" 
d="M220 670h86v-270h-71h-6h-6.5h-6t-6.5 -0.5l-6 -1.5t-6 -2t-5.5 -2.5t-6 -3.5t-5 -5t-4.5 -6q-3 -4 -5 -9.5t-2.5 -14t-0.5 -15.5t0.5 -21.5t0.5 -25.5v-293h-125v293v19.5v24t1 23.5t3.5 26.5t6 24t10 25t15.5 21.5q38 43 118 43h21v170z" />
    <glyph glyph-name="afii10193.ss01" horiz-adv-x="480" 
d="M45 500h125v-284q0 -67 6 -85q4 -15 21 -31.5t48 -16.5q49 0 69 48q6 18 6 85v284h125v-272q0 -38 -1.5 -59.5t-10.5 -55t-28 -59.5q-40 -54 -105 -64v-190h-110v190q-67 10 -105 64q-19 26 -28 59.5t-10.5 55t-1.5 59.5v272z" />
    <glyph glyph-name="u.ss01" horiz-adv-x="492" 
d="M45 500h126v-280q0 -70 7 -89q17 -48 68 -48t68 48q7 19 7 89v280h126v-272q0 -85 -11 -120q-10 -29 -29 -54q-56 -72 -161 -72t-161 72q-10 12 -17 24.5t-11 27.5t-7 24.5t-4 27t-1 23.5v25.5v21.5v272z" />
    <glyph glyph-name="r.ss01" horiz-adv-x="307" 
d="M45 0v293v18.5v21t0.5 19.5t1.5 21.5t3 20t5.5 21t8 19t10.5 19.5q41 61 131 61q50 0 92 -14v-100q-33 14 -62 14q-44 0 -58 -35q-6 -14 -6 -86v-293h-126z" />
    <glyph glyph-name="m.ss01" horiz-adv-x="722" 
d="M45 0v300q0 97 32 145q44 71 144 71q53 0 88 -27.5t52 -63.5q17 36 52 62.5t88 28.5q95 4 144 -71q32 -48 32 -145v-300h-126v300q0 63 -6 79q-15 41 -59 41q-42 0 -58 -41q-7 -18 -7 -79v-300h-120v300q0 61 -7 79q-16 41 -58 41q-44 0 -59 -41q-6 -16 -6 -79v-300h-126
z" />
    <glyph glyph-name="n.ss01" horiz-adv-x="492" 
d="M45 0v272v21.5v25.5t1 23.5t4 27t7 24.5t11 27.5t17 24.5q56 72 161 72t161 -72q20 -26 29.5 -60.5t10 -51.5t0.5 -62v-272h-126v284q0 70 -7 89q-17 48 -68 48t-68 -48q-7 -19 -7 -89v-284h-126z" />
    <glyph glyph-name="afii10033.ss01" horiz-adv-x="584" 
d="M50 0v399q0 3 -0.5 34t0 41t3.5 38t8.5 44t16 38.5t25.5 40.5q66 81 189 81q128 0 190 -81q11 -13 19 -29.5t13.5 -29t9.5 -32.5t6 -29.5t3 -32.5t1 -28v-30v-25v-399h-129v425q0 99 -15 127q-29 56 -98 56q-70 0 -98 -57q-15 -29 -15 -126v-425h-129z" />
    <glyph glyph-name="afii10027.ss01" horiz-adv-x="584" 
d="M121 850h99q14 -54 72 -54t72 54h99q-12 -54 -52 -88q-51 -44 -119 -44t-118 45q-41 37 -53 87zM50 700h129v-421q0 -97 15 -126q28 -57 98 -57q69 0 98 56q15 28 15 127v421h129v-399q0 -5 0.5 -29t0 -34t-2 -32.5t-5 -37t-9 -34.5t-15 -36.5t-22.5 -32.5
q-65 -81 -189 -81q-122 0 -188 81q-15 19 -26 41.5t-16.5 38t-8.5 43.5t-3.5 37t0 41t0.5 35v399z" />
    <glyph glyph-name="afii10081.ss01" horiz-adv-x="492" 
d="M45 0v272v21.5v25.5t1 23.5t4 27t7 24.5t11 27.5t17 24.5q56 72 161 72t161 -72q20 -26 29.5 -60.5t10 -51.5t0.5 -62v-272h-126v284q0 70 -7 89q-17 48 -68 48t-68 -48q-7 -19 -7 -89v-284h-126z" />
  </font>
</defs>
</svg>
