<?xml version="1.0" standalone="no"?>
<!DOCTYPE svg PUBLIC "-//W3C//DTD SVG 1.1//EN" "http://www.w3.org/Graphics/SVG/1.1/DTD/svg11.dtd" >
<svg xmlns="http://www.w3.org/2000/svg" xmlns:xlink="http://www.w3.org/1999/xlink" version="1.1">
<metadata>
Created by FontForge 20190801 at Fri May 24 01:23:00 2019
 By www-data
Copyright (c) ParaType, Inc., 2007. All rights reserved. |DCNT
</metadata>
<defs>
<font id="PARANGON510C" horiz-adv-x="438" >
  <font-face 
    font-family="PARANGON510C"
    font-weight="700"
    font-stretch="extra-condensed"
    units-per-em="1000"
    panose-1="2 11 8 8 3 5 2 2 2 4"
    ascent="700"
    descent="-300"
    x-height="500"
    cap-height="700"
    bbox="-10 -300 1222 875"
    underline-thickness="50"
    underline-position="-200"
    unicode-range="U+000D-FEFF"
  />
<missing-glyph horiz-adv-x="500" 
d="M58 8h384v496h-384v-496zM50 0v512h400v-512h-400z" />
    <glyph glyph-name="fi" unicode="fi" horiz-adv-x="514" 
d="M261 500v-124h-74v-376h-152v503q0 36 0.5 53t6.5 44t19 45q24 36 56.5 45.5t88.5 9.5h268v-145h-152v35h-88q-31 0 -42 -24q-5 -9 -5 -55v-11h74zM322 500h152v-500h-152v500z" />
    <glyph glyph-name="fl" unicode="fl" horiz-adv-x="513" 
d="M473 700v-700h-152v590h-87q-31 0 -42 -24q-5 -9 -5 -55v-11h74v-110h-74v-390h-152v503q0 40 0.5 55.5t7.5 42.5t21 46q39 53 133 53h276z" />
    <glyph glyph-name=".notdef" horiz-adv-x="500" 
d="M58 8h384v496h-384v-496zM50 0v512h400v-512h-400z" />
    <glyph glyph-name=".null" horiz-adv-x="0" 
 />
    <glyph glyph-name=".null" horiz-adv-x="0" 
 />
    <glyph glyph-name="nonmarkingreturn" horiz-adv-x="333" 
 />
    <glyph glyph-name="CR" unicode="&#xd;" horiz-adv-x="233" 
 />
    <glyph glyph-name="space" unicode=" " horiz-adv-x="233" 
 />
    <glyph glyph-name="exclam" unicode="!" horiz-adv-x="264" 
d="M50 700h164l-24 -490h-116zM58 154h148v-154h-148v154z" />
    <glyph glyph-name="quotedbl" unicode="&#x22;" horiz-adv-x="464" 
d="M50 700h132v-172l-36 -200h-60l-36 200v172zM282 700h132v-172l-36 -200h-60l-36 200v172z" />
    <glyph glyph-name="numbersign" unicode="#" horiz-adv-x="587" 
d="M207 700h100l-22 -170h62l22 170h100l-22 -170h90l-13 -100h-90l-19 -150h90l-13 -100h-90l-23 -180h-100l23 180h-62l-23 -180h-100l23 180h-90l13 100h90l19 150h-90l13 100h90zM253 280h62l19 150h-62z" />
    <glyph glyph-name="dollar" unicode="$" horiz-adv-x="505" 
d="M218 803h73v-97q64 -5 105 -50q54 -58 54 -187v-10h-147v11q0 81 -8 98q-14 27 -40 27t-38 -23q-10 -17 -10 -53q0 -41 13 -60q14 -20 69 -42q81 -34 119 -66q62 -56 62 -155q-1 -107 -68 -163q-48 -40 -111 -41v-114h-73v117q-59 7 -101 49q-67 67 -67 190v12h151v-6
q0 -80 14 -105q14 -26 45 -26q27 0 43 22q15 20 15 62q0 44 -20 64q-14 15 -71 39q-7 3 -11 5q-77 34 -108 66q-48 50 -49 143q0 100 60 154q42 38 99 43v96z" />
    <glyph glyph-name="percent" unicode="%" horiz-adv-x="888" 
d="M364 500q0 -98 -43 -156q-42 -56 -114 -56t-114 56q-43 58 -43 156t43 156q42 56 114 56t114 -56q43 -58 43 -156zM256 498q0 58 -6 84q-9 40 -43 40t-43 -40q-6 -26 -6 -84t6 -80q9 -40 43 -40t43 40q6 22 6 80zM606 700h118l-442 -700h-118zM524 200q0 98 43 156
q42 56 114 56t114 -56q43 -58 43 -156t-43 -156q-42 -56 -114 -56t-114 56q-43 58 -43 156zM632 202q0 -58 6 -84q9 -40 43 -40t43 40q6 26 6 84t-6 80q-9 40 -43 40t-43 -40q-6 -22 -6 -80z" />
    <glyph glyph-name="ampersand" unicode="&#x26;" horiz-adv-x="520" 
d="M248 97q32 0 60 17l60 -97q-59 -37 -132 -37q-99 0 -144 49t-42 116q1 29 8 54t23.5 53t22 36t27.5 37l45 59l-33 50q-51 73 -51 133q0 63 42.5 108t115.5 45t115.5 -45t42.5 -108q0 -64 -51 -133l-35 -50l218 -332l-102 -72l-189 297l-27 -41q-35 -52 -35 -80
q0 -59 61 -59zM249 621q-15 0 -27 -12.5t-10 -35.5q2 -30 19 -60l18 -33l18 33q17 30 19 60q1 23 -10.5 35.5t-26.5 12.5z" />
    <glyph glyph-name="quotesingle" unicode="'" horiz-adv-x="232" 
d="M50 700h132v-172l-36 -200h-60l-36 200v172z" />
    <glyph glyph-name="parenleft" unicode="(" horiz-adv-x="370" 
d="M50 325q0 192 97 333q62 91 173 154v-122q-62 -66 -90 -133q-43 -98 -43 -232q0 -129 43 -232q31 -75 90 -128v-127q-111 63 -173 154q-97 141 -97 333z" />
    <glyph glyph-name="parenright" unicode=")" horiz-adv-x="370" 
d="M50 690v122q104 -58 173 -154q97 -141 97 -333t-97 -333q-69 -96 -173 -154v127q59 53 90 128q43 103 43 232q0 134 -43 232q-28 67 -90 133z" />
    <glyph glyph-name="asterisk" unicode="*" horiz-adv-x="470" 
d="M178 700h100v-105l101 34l31 -95l-100 -34l66 -86l-85 -62l-63 90l82 58l-32 95h-100l-32 -95l82 -58l-63 -89l-85 62l66 85l-96 32l31 95l97 -32v105z" />
    <glyph glyph-name="plus" unicode="+" horiz-adv-x="520" 
d="M207 464h106v-161h157v-96h-157v-161h-106v161h-157v96h157v161z" />
    <glyph glyph-name="comma" unicode="," horiz-adv-x="252" 
d="M50 172h152v-162q0 -56 -20 -116q-21 -59 -39 -94h-84q24 46 45 100q16 48 18 100h-72v172z" />
    <glyph glyph-name="hyphen" unicode="-" horiz-adv-x="300" 
d="M50 326h200v-123h-200v123z" />
    <glyph glyph-name="period" unicode="." horiz-adv-x="252" 
d="M50 172h152v-172h-152v172z" />
    <glyph glyph-name="slash" unicode="/" horiz-adv-x="420" 
d="M290 750h130l-290 -900h-130z" />
    <glyph glyph-name="zero" unicode="0" horiz-adv-x="480" 
d="M40 345q0 182 28 245q27 65 74.5 92.5t97.5 27.5t97.5 -27.5t74.5 -92.5q28 -63 28 -245q0 -180 -28 -245q-27 -65 -74.5 -92.5t-97.5 -27.5t-97.5 27.5t-74.5 92.5q-28 65 -28 245zM197 348q0 -159 1 -171q0 -61 42 -61t42 61q1 12 1 171q0 158 -1 170q0 61 -42 61
t-42 -61q-1 -12 -1 -170z" />
    <glyph glyph-name="one" unicode="1" horiz-adv-x="456" 
d="M50 567l296 145v-712h-149v500l-147 -69v136z" />
    <glyph glyph-name="two" unicode="2" horiz-adv-x="480" 
d="M204 444h-150v33q0 58 9 98t40 77q51 59 141 58q84 0 136 -52q49 -51 49 -149q0 -84 -36 -144q-25 -40 -105 -120q-50 -50 -67 -71q-18 -22 -18 -35v-9h216v-130h-368v62v12.5v13v11.5t0.5 12.5t1.5 12t2 13t2.5 12t3.5 13t5 12t6 13.5q22 44 111 133q68 68 82 102
q11 28 11 100q0 31 -5 44q-8 23 -31 23q-22 0 -31 -23q-5 -12 -5 -80v-42z" />
    <glyph glyph-name="three" unicode="3" horiz-adv-x="480" 
d="M50 454v28q0 26 1 41.5t6.5 43.5t20 53t37.5 45q52 45 126 45q81 0 131 -41q57 -51 57 -150q0 -75 -35 -116q-24 -26 -56 -37q46 -19 68 -49q33 -44 33 -124q0 -100 -45 -152q-53 -61 -151 -61q-94 0 -148 56t-54 171v33h152v-23q0 -69 9 -88q11 -24 41 -24q25 0 36 23
q8 15 8 65q0 64 -6 76q-16 29 -59 29h-13v114h14q37 0 50 31q5 11 5 65q0 41 -3 52q-7 30 -36 30q-31 0 -37 -34q-2 -10 -2 -69v-33h-150z" />
    <glyph glyph-name="four" unicode="4" horiz-adv-x="480" 
d="M233 690h152l-192 -389v-39h78v98h149v-360h-149v141h-221v189z" />
    <glyph glyph-name="five" unicode="5" horiz-adv-x="480" 
d="M69 690h332v-124h-219l-6 -145q37 37 88 37q75 0 120 -52q47 -55 47 -174q0 -39 -1.5 -63t-13.5 -63.5t-35 -66.5q-50 -59 -142 -59q-102 0 -153 73q-37 53 -37 137v21h147v-21q0 -49 2 -59q8 -34 37 -37q14 -1 22.5 6.5t11 14.5t4.5 19q2 14 2 100q0 79 -2 92
q-7 37 -36 38q-19 1 -31.5 -13.5t-9.5 -39.5h-141z" />
    <glyph glyph-name="six" unicode="6" horiz-adv-x="492" 
d="M384 710v-118q-26 2 -61 -1.5t-53 -12.5q-53 -25 -71 -102q-8 -38 -10 -78q26 52 87 56q69 5 118 -54q48 -60 48 -178q0 -128 -60 -190q-51 -52 -130 -52q-84 0 -135 56q-48 53 -62 168q-12 116 2 225q15 117 75 187q78 94 218 94h34zM288 218q0 68 -3 82q-9 35 -37 35
q-30 0 -39 -35q-3 -14 -3 -82q0 -73 3 -87q9 -35 39 -35q28 0 37 35q3 14 3 87z" />
    <glyph glyph-name="seven" unicode="7" horiz-adv-x="480" 
d="M75 690h330v-129q-106 -253 -106 -541v-20h-158v20q0 272 137 546h-203v124z" />
    <glyph glyph-name="eight" unicode="8" horiz-adv-x="480" 
d="M193 207q0 -59 6 -73q10 -27 41 -28q31 -2 42 28q5 12 5 73q0 59 -5 70q-11 30 -42 30t-42 -30q-5 -12 -5 -70zM41 189q-1 88 48 140q22 23 51 37q-29 14 -52 42q-37 47 -37 116q0 92 59 142q50 44 130 44q76 0 124 -37q65 -53 65 -149q2 -67 -37 -116q-23 -28 -52 -42
q30 -14 49 -33q50 -48 50 -144q0 -100 -53 -153q-53 -56 -146 -56t-146 56q-53 53 -53 153zM199 505q0 -45 4 -57q9 -27 37 -27q27 0 37 25q4 12 4 59q0 42 -4 55q-9 29 -37 29q-27 0 -38 -29q-3 -10 -3 -55z" />
    <glyph glyph-name="nine" unicode="9" horiz-adv-x="480" 
d="M122 -20v130q66 0 92 13q54 24 73 89q10 32 10 66q-31 -40 -90 -40q-70 0 -113 52q-48 57 -48 184q0 119 59 184q48 52 132 52q85 0 136 -56q31 -35 42 -74.5t15 -93.5q9 -128 -3 -225q-15 -122 -71 -189q-46 -57 -100 -74.5t-120 -17.5h-14zM199 468q0 -63 3 -76
q8 -36 39 -36t39 36q3 13 3 76q0 74 -3 86q-8 37 -39 37t-39 -37q-3 -12 -3 -86z" />
    <glyph glyph-name="colon" unicode=":" horiz-adv-x="252" 
d="M50 500h152v-172h-152v172zM50 172h152v-172h-152v172z" />
    <glyph glyph-name="semicolon" unicode=";" horiz-adv-x="255" 
d="M50 500h152v-172h-152v172zM53 172h152v-162q0 -56 -20 -116q-21 -59 -39 -94h-84q24 46 45 100q16 48 18 100h-72v172z" />
    <glyph glyph-name="semicolon" unicode="&#x37e;" horiz-adv-x="255" 
d="M50 500h152v-172h-152v172zM53 172h152v-162q0 -56 -20 -116q-21 -59 -39 -94h-84q24 46 45 100q16 48 18 100h-72v172z" />
    <glyph glyph-name="less" unicode="&#x3c;" horiz-adv-x="370" 
d="M50 350l270 166v-110l-190 -108v-16l190 -108v-110l-270 166v120z" />
    <glyph glyph-name="equal" unicode="=" horiz-adv-x="520" 
d="M50 211h420v-96h-420v96zM50 388h420v-96h-420v96z" />
    <glyph glyph-name="greater" unicode="&#x3e;" horiz-adv-x="370" 
d="M50 516l270 -166v-120l-270 -166v110l190 108v16l-190 108v110z" />
    <glyph glyph-name="question" unicode="?" horiz-adv-x="454" 
d="M35 470v44q0 104 57 158q52 48 138 48q91 0 137 -44q54 -52 52 -146q0 -83 -52 -147q-48 -58 -60 -79q-19 -33 -19 -79v-15h-141v15q0 73 39 130q14 20 33.5 44.5t29.5 41.5q20 34 20 85q0 45 -3 56q-9 30 -37 30q-30 0 -40 -30q-4 -12 -4 -67v-45h-150zM144 154h148
v-154h-148v154z" />
    <glyph glyph-name="at" unicode="@" horiz-adv-x="1014" 
d="M696 596v-336q0 -19 2 -30t14.5 -22.5t36.5 -11.5h2q30 1 57 31.5t41 85.5q11 46 11 94q0 76 -25 127q-35 78 -122.5 131.5t-194.5 53.5h-3q-153 0 -261.5 -108t-108.5 -262q0 -99 50 -185t135 -135q90 -50 185 -50q93 0 186 49l47 -82q-117 -62 -234 -62q-119 0 -233 63
q-106 60 -168.5 168t-62.5 234q0 127 61.5 234t168.5 169t235 62q135 0 243 -65t161 -165q45 -88 45 -188q0 -71 -23 -139q-65 -185 -242 -185q-96 0 -137 73q-36 -65 -110 -65h-2q-77 1 -116 74q-36 63 -36 192q0 131 36 192q42 74 113 74q58 0 97 -57v41h152zM549 349v25
q0 38 -4 62q0 1 -1.5 7t-2.5 9.5t-3 10t-5 11t-7.5 9t-10.5 7t-13 2.5q-36 0 -44 -56q-3 -19 -3 -55v-32v-28q0 -45 4 -65q9 -51 43 -51q35 0 43 53q4 20 4 56v35z" />
    <glyph glyph-name="A" unicode="A" horiz-adv-x="518" 
d="M131 700h256l121 -700h-159l-21 156h-138l-21 -156h-159zM249 584l-41 -300h102l-41 300h-20z" />
    <glyph glyph-name="B" unicode="B" horiz-adv-x="502" 
d="M45 700h133h30h36.5t33.5 -1.5t38.5 -5t32 -10t32.5 -15.5q73 -51 76 -146q2 -59 -26.5 -99t-80.5 -53q56 -18 86.5 -64.5t30.5 -107.5q0 -109 -80 -162q-26 -17 -60 -25.5t-55 -9.5t-62 -1h-165v700zM201 302v-175h22q40 0 58 14q25 21 25 70q0 50 -24 72q-20 19 -56 19
h-25zM201 578v-158h25q38 0 55 15q22 19 24 62q2 47 -23 67q-17 14 -57 14h-24z" />
    <glyph glyph-name="C" unicode="C" horiz-adv-x="493" 
d="M299 280h159q2 -124 -21 -178q-21 -50 -68.5 -87t-122.5 -35q-125 3 -180 119q-31 76 -31 251t31 251q49 119 182 119t183 -122q23 -63 22 -174h-154v70q0 44 -11 68.5t-40 23.5q-50 -3 -50 -92q0 -12 -0.5 -35.5t-0.5 -35.5v-73q0 -26 0.5 -69.5t0.5 -76.5q0 -82 50 -85
q18 -1 29 7t15.5 24t5.5 27t1 26v77z" />
    <glyph glyph-name="D" unicode="D" horiz-adv-x="512" 
d="M45 700h167q125 0 197 -91q68 -92 68 -259q0 -175 -67 -259q-26 -36 -74.5 -63.5t-113.5 -27.5h-177v700zM201 571v-437h14q54 0 80 51q21 44 21 168q0 123 -21 167q-26 51 -80 51h-14z" />
    <glyph glyph-name="E" unicode="E" horiz-adv-x="384" 
d="M45 700h306v-128h-150v-145h137v-128h-137v-166h158v-133h-314v700z" />
    <glyph glyph-name="F" unicode="F" horiz-adv-x="362" 
d="M45 700h297v-128h-140v-154h130v-128h-130v-290h-157v700z" />
    <glyph glyph-name="G" unicode="G" horiz-adv-x="522" 
d="M257 400h230v-40q0 -181 -38 -260q-58 -122 -188 -120q-115 1 -176 102q-50 81 -50 268q-1 183 48 268q59 102 179 102t176 -95q40 -72 40 -175h-160q0 64 -4 82q-7 29 -22.5 41.5t-30.5 12.5q-47 0 -59 -75q-6 -30 -6 -160q0 -134 4 -157q8 -74 60 -77q8 0 15.5 2t19 8
t20 22t11.5 40q2 13 2 69v21h-71v121z" />
    <glyph glyph-name="H" unicode="H" horiz-adv-x="522" 
d="M45 700h156v-263h120v263h156v-700h-156v298h-120v-298h-156v700z" />
    <glyph glyph-name="I" unicode="I" horiz-adv-x="259" 
d="M50 700h159v-700h-159v700z" />
    <glyph glyph-name="J" unicode="J" horiz-adv-x="270" 
d="M74 700h156v-466q0 -47 -1.5 -72t-12.5 -63t-33 -63q-48 -56 -150 -56h-33v142h16q36 0 52 37q6 14 6 78v463z" />
    <glyph glyph-name="K" unicode="K" horiz-adv-x="496" 
d="M45 700h156v-279h46l72 279h161l-102 -330l103 -370h-168l-66 308h-46v-308h-156v700z" />
    <glyph glyph-name="L" unicode="L" horiz-adv-x="337" 
d="M45 700h156v-564h146v-136h-302v700z" />
    <glyph glyph-name="M" unicode="M" horiz-adv-x="740" 
d="M40 0v471q0 106 26 155q19 39 61 64.5t98 25.5q101 0 145 -86q44 86 145 86q56 0 98 -25.5t61 -64.5q13 -25 19 -59.5t6.5 -52.5t0.5 -64v-450h-156v466q0 58 -3 72q-9 44 -47 44q-39 0 -48 -44q-2 -11 -2 -73v-465h-148v470q0 58 -2 68q-9 44 -48 44q-38 0 -47 -44
q-3 -14 -3 -69v-469h-156z" />
    <glyph glyph-name="N" unicode="N" horiz-adv-x="502" 
d="M40 0v432v21v24t0.5 23t2 25t3.5 23.5t5.5 25.5t8.5 23t11 24q59 98 185 98q122 0 175 -97q6 -12 11 -24.5t8.5 -22.5t5.5 -25.5t3.5 -23.5t2 -25t0.5 -22.5v-24.5v-22v-432h-156v488q0 56 -9 73q-14 26 -46 24q-31 -2 -45 -25q-10 -17 -10 -73v-487h-156z" />
    <glyph glyph-name="O" unicode="O" horiz-adv-x="522" 
d="M35 350q0 170 36 248q23 52 70.5 87t119.5 35q128 0 190 -122q36 -78 36 -248t-36 -248q-59 -122 -190 -122q-72 0 -120 35t-70 87q-36 78 -36 248zM196 353q0 -108 1 -139q0 -19 4 -38t19.5 -38t40.5 -19t40.5 19t19.5 38t4 38q1 31 1 139q0 107 -1 138q0 19 -4 38
t-19.5 38t-40.5 19t-40.5 -19t-19.5 -38t-4 -38q-1 -31 -1 -138z" />
    <glyph glyph-name="P" unicode="P" horiz-adv-x="482" 
d="M45 700h164q43 0 64.5 -1.5t55 -13.5t59.5 -37q69 -65 69 -187q0 -130 -78 -190q-58 -46 -160 -46h-18v-225h-156v700zM201 574v-223h21q40 0 58 28q16 25 16 81q0 59 -14 84q-17 30 -57 30h-24z" />
    <glyph glyph-name="Q" unicode="Q" horiz-adv-x="527" 
d="M38 350q0 173 37 248q57 122 189 122t189 -122q37 -77 37 -248q0 -164 -36 -239l58 -49l-69 -88l-58 48q-39 -45 -121 -42q-134 5 -189 122q-37 79 -37 248zM199 353q0 -50 0.5 -91.5t0.5 -47.5q0 -13 2.5 -26.5t8.5 -29.5t20 -26t33 -10q36 0 50 30t14 62q0 6 0.5 47.5
t0.5 91.5q0 51 -0.5 91t-0.5 47q0 13 -2.5 26.5t-8.5 29.5t-20 26t-33 10q-36 0 -50 -30t-14 -62q0 -7 -0.5 -47t-0.5 -91z" />
    <glyph glyph-name="R" unicode="R" horiz-adv-x="487" 
d="M45 700h190q89 0 140 -36q72 -51 72 -158q0 -85 -45 -134q-25 -25 -57 -34q50 -19 61 -74l71 -264h-165l-44 200q-4 17 -6.5 28.5t-4.5 17.5l-2 5q-10 26 -41 26h-13v-277h-156v700zM201 574v-175h21q35 0 53 23q15 20 15 65q0 49 -16 68t-55 19h-18z" />
    <glyph glyph-name="S" unicode="S" horiz-adv-x="502" 
d="M35 244h156v-7q0 -88 13 -108q17 -26 49 -26q28 0 44 22q14 20 14 64t-21 66q-13 14 -84 45q-78 34 -110 68q-51 53 -51 147q0 103 61 158q53 47 140 47q88 -1 141 -54q21 -21 34.5 -47t18.5 -55.5t6 -47t1 -43.5v-13h-152v14q0 82 -9 101q-15 27 -40 27q-27 0 -40 -23
q-9 -16 -9 -55q0 -44 13 -61q18 -23 71 -41q80 -28 122 -67q64 -62 64 -163q0 -106 -70 -167q-56 -45 -143 -45q-89 2 -146 54q-41 38 -57 94t-16 103v13z" />
    <glyph glyph-name="T" unicode="T" horiz-adv-x="360" 
d="M10 700h340v-130h-90v-570h-160v570h-90v130z" />
    <glyph glyph-name="U" unicode="U" horiz-adv-x="502" 
d="M40 700h156v-487q0 -49 10 -67q13 -25 45 -25t45 25q10 18 10 67v487h156v-432q0 -43 -0.5 -63t-8.5 -59t-24 -67q-26 -44 -72 -70.5t-106 -26.5q-58 0 -104.5 26.5t-73.5 70.5q-16 28 -24 67.5t-8.5 59t-0.5 62.5v432z" />
    <glyph glyph-name="V" unicode="V" horiz-adv-x="476" 
d="M10 700h165l53 -578h20l53 578h165l-102 -700h-253z" />
    <glyph glyph-name="W" unicode="W" horiz-adv-x="740" 
d="M40 700h156v-450q0 -70 3 -84q10 -43 47 -43q38 0 47 43q3 14 3 84v450h148v-450q0 -70 3 -84q9 -43 47 -43q37 0 47 43q3 14 3 84v450h156v-451q0 -122 -28 -175q-50 -90 -157 -90q-102 2 -145 86q-43 -84 -145 -86q-107 0 -157 90q-28 53 -28 176v450z" />
    <glyph glyph-name="X" unicode="X" horiz-adv-x="508" 
d="M25 700h156l63 -277h20l63 277h156l-91 -330l96 -370h-163l-61 309h-20l-61 -309h-163l96 370z" />
    <glyph glyph-name="Y" unicode="Y" horiz-adv-x="482" 
d="M10 700h165l66 -294l66 294h165l-151 -446v-254h-160v254z" />
    <glyph glyph-name="Z" unicode="Z" horiz-adv-x="426" 
d="M30 700h372v-155l-225 -404h229v-141h-386v166l222 395h-212v139z" />
    <glyph glyph-name="bracketleft" unicode="[" horiz-adv-x="332" 
d="M50 800h232v-104h-98v-737h98v-109h-232v950z" />
    <glyph glyph-name="backslash" unicode="\" horiz-adv-x="420" 
d="M0 750h130l290 -900h-130z" />
    <glyph glyph-name="bracketright" unicode="]" horiz-adv-x="332" 
d="M50 800h232v-950h-232v109h98v737h-98v104z" />
    <glyph glyph-name="asciicircum" unicode="^" horiz-adv-x="486" 
d="M170 700h146l120 -301h-111l-77 233h-10l-77 -233h-111z" />
    <glyph glyph-name="underscore" unicode="_" horiz-adv-x="452" 
d="M50 -220h352v-80h-352v80z" />
    <glyph glyph-name="grave" unicode="`" horiz-adv-x="230" 
d="M10 700h112l98 -170h-112z" />
    <glyph glyph-name="a" unicode="a" horiz-adv-x="470" 
d="M430 500v-500h-144l-8 43q-29 -59 -97 -59q-71 0 -113 74q-38 61 -38 192q0 128 38 192q42 74 113 74q58 0 97 -57l8 41h144zM283 253q0 67 -3 87q-8 56 -44 56t-44 -56q-4 -33 -4 -87q0 -70 5 -93q9 -51 43 -51q14 0 26.5 11.5t17.5 41.5q3 20 3 91z" />
    <glyph glyph-name="b" unicode="b" horiz-adv-x="470" 
d="M40 700h152v-241q38 55 97 57q76 2 117 -74q34 -61 34 -192t-34 -192q-39 -74 -117 -74q-68 0 -97 59l-8 -43h-144v700zM187 253q0 -78 2 -91q8 -53 45 -53q35 0 43 51q4 31 4 93q0 69 -3 87q-8 56 -44 56q-37 0 -45 -56q-2 -14 -2 -87z" />
    <glyph glyph-name="c" unicode="c" horiz-adv-x="444" 
d="M261 209h153q5 -89 -36 -152q-53 -77 -154 -77q-99 1 -150 77q-44 67 -44 193t44 193q53 77 150 77t150 -77q42 -61 36 -150h-152q0 47 -1 66q0 16 -7.5 30t-25.5 14t-26.5 -15t-8.5 -29q-2 -18 -2 -107q0 -88 2 -106q0 -1 1 -3q12 -38 34 -41q19 0 27.5 15t8.5 29
q1 8 1 63z" />
    <glyph glyph-name="d" unicode="d" horiz-adv-x="470" 
d="M430 700v-700h-144l-8 48q-11 -33 -38.5 -48.5t-58.5 -15.5q-73 0 -115 74q-36 61 -36 192t36 192q42 74 115 74q70 -2 97 -62v246h152zM283 253q0 67 -3 87q-8 56 -44 56q-39 0 -45 -56q-2 -15 -2 -87q0 -75 3 -93q9 -51 44 -51q14 0 26.5 11.5t17.5 41.5q3 20 3 91z
" />
    <glyph glyph-name="e" unicode="e" horiz-adv-x="449" 
d="M275 180h143q0 -80 -36 -130q-53 -70 -153 -70q-88 1 -141 67q-58 73 -58 203t58 203q55 67 141 67q97 0 148 -76q27 -40 34.5 -87t7.5 -114v-17h-236q0 -74 2 -83q8 -49 44 -49q34 0 42 37q4 16 4 49zM229 411q-30 0 -40 -33q-6 -18 -6 -57h93q0 39 -6 57q-11 33 -41 33
z" />
    <glyph glyph-name="f" unicode="f" horiz-adv-x="266" 
d="M266 500v-130h-74v-370h-152v503q0 36 1.5 58.5t12 54.5t29.5 54q20 23 47 35t46 13.5t54 1.5h36v-130h-27q-31 0 -42 -24q-5 -9 -5 -55v-11h74z" />
    <glyph glyph-name="g" unicode="g" horiz-adv-x="470" 
d="M203 -101h27q6 0 11.5 1.5t9.5 4t7 5t5.5 6t4 5.5t2.5 5l2 3q6 15 6 64v55q-9 -30 -36.5 -47t-60.5 -17q-74 0 -116 74q-35 62 -35 192q0 128 35 192q41 76 116 74q70 0 97 -62l8 46h144v-506q0 -113 -43 -161q-48 -53 -146 -53h-38v119zM283 253q0 74 -2 87
q-9 56 -45 56t-44 -56q-3 -24 -3 -87q0 -68 4 -93q9 -51 43 -51q13 0 26.5 11.5t18.5 41.5q2 13 2 91z" />
    <glyph glyph-name="h" unicode="h" horiz-adv-x="443" 
d="M40 700h152v-232q11 21 29 32q25 16 59 16q77 0 112 -68q16 -35 16 -145v-303h-153v306q0 36 -1 48q-1 14 -7.5 24t-23.5 9q-31 -3 -31 -42v-46v-299h-152v700z" />
    <glyph glyph-name="i" unicode="i" horiz-adv-x="232" 
d="M40 700h152v-145h-152v145zM40 500h152v-500h-152v500z" />
    <glyph glyph-name="j" unicode="j" horiz-adv-x="232" 
d="M40 700h152v-145h-152v145zM40 500h152v-700h-152v700z" />
    <glyph glyph-name="k" unicode="k" 
d="M40 700h152v-390h25l59 190h151l-83 -234l84 -266h-159l-52 214h-25v-214h-152v700z" />
    <glyph glyph-name="l" unicode="l" horiz-adv-x="232" 
d="M40 700h152v-700h-152v700z" />
    <glyph glyph-name="m" unicode="m" horiz-adv-x="633" 
d="M40 0v500h145l8 -46q26 58 91 58t89 -58l3 4q3 5 5 7t6 7t7.5 8t9 7.5t11 7.5t13 6.5t15 5.5t17 3.5t19.5 1.5q73 0 104 -63q8 -17 11 -42.5t3.5 -42.5t0.5 -64v-300h-153v355q0 40 -27 40q-29 0 -29 -40v-355h-140v355q0 40 -29 40q-27 0 -27 -40v-355h-153z" />
    <glyph glyph-name="n" unicode="n" horiz-adv-x="443" 
d="M40 500h144l8 -46q7 16 29 38q25 22 66 22q74 0 108 -68q5 -11 8 -23t4 -29t1.5 -26.5t0 -33t-0.5 -31.5v-303h-153v306q0 36 -1 48q-1 14 -7.5 24t-23.5 9q-31 -3 -31 -42v-46v-299h-152v500z" />
    <glyph glyph-name="o" unicode="o" horiz-adv-x="458" 
d="M30 250q0 136 53 203q55 67 146 67t146 -67q53 -67 53 -203q0 -141 -53 -205q-51 -65 -146 -65t-146 65q-53 64 -53 205zM187 251v-40q0 -7 0.5 -22t0.5 -23q0 -64 41 -64t41 64q0 8 0.5 23t0.5 22v40v38q0 7 -0.5 22.5t-0.5 23.5q0 14 -1 23t-4.5 21t-12.5 18t-23 6
t-23 -6t-12.5 -18t-4.5 -21t-1 -23q0 -8 -0.5 -23.5t-0.5 -22.5v-38z" />
    <glyph glyph-name="p" unicode="p" horiz-adv-x="470" 
d="M40 500h144l8 -46q27 60 97 62q73 0 115 -74q36 -61 36 -192t-36 -192q-42 -74 -115 -74q-33 0 -60.5 17t-36.5 47v-248h-152v700zM187 253q0 -71 3 -91q9 -53 44 -53t44 51q3 18 3 93q0 72 -2 87q-6 56 -45 56q-36 0 -44 -56q-3 -20 -3 -87z" />
    <glyph glyph-name="q" unicode="q" horiz-adv-x="470" 
d="M430 500v-700h-152v248q-9 -30 -36.5 -47t-60.5 -17q-73 0 -115 74q-36 61 -36 192t36 192q40 74 115 74q70 -2 97 -62l8 46h144zM283 253q0 67 -3 87q-8 56 -44 56q-39 0 -45 -56q-2 -15 -2 -87q0 -75 3 -93q9 -51 44 -51q14 0 26.5 11.5t17.5 41.5q3 20 3 91z" />
    <glyph glyph-name="r" unicode="r" horiz-adv-x="338" 
d="M40 500h144l8 -42q15 24 29 34q25 24 64 22q26 -2 53 -14v-141q-33 20 -70 20q-52 0 -69 -43q-7 -18 -7 -72v-264h-152v500z" />
    <glyph glyph-name="s" unicode="s" horiz-adv-x="428" 
d="M30 172h149v-35q0 -19 6 -31q7 -16 28 -16q18 0 27 15q5 11 5 32q0 29 -15 43q-14 12 -64 32q-59 24 -84 48q-43 42 -43 109q0 80 59 122q43 31 117 31q73 0 117 -35q59 -47 59 -137v-18h-144v38q0 19 -3 26q-7 19 -28 19t-27 -19q-2 -5 -2 -26q0 -25 6 -34
q4 -7 11.5 -13t13.5 -8.5t17 -7t13 -5.5q59 -21 92 -43q58 -44 58 -122q0 -82 -56 -123q-48 -38 -128 -36q-82 0 -130 46q-54 54 -54 137v11z" />
    <glyph glyph-name="t" unicode="t" horiz-adv-x="284" 
d="M66 0v389h-56v111h56v65l152 79v-144h56v-108h-56v-392h-152z" />
    <glyph glyph-name="u" unicode="u" horiz-adv-x="443" 
d="M403 0h-144l-8 46q-7 -16 -29 -38q-27 -22 -69 -22q-78 0 -105 66q-13 31 -13 138v310h153v-306q0 -36 1 -48q1 -14 7.5 -24t23.5 -9q31 3 31 42v46v299h152v-500z" />
    <glyph glyph-name="v" unicode="v" horiz-adv-x="392" 
d="M10 500h146l32 -395h16l32 395h146l-67 -500h-238z" />
    <glyph glyph-name="w" unicode="w" horiz-adv-x="628" 
d="M35 500h153v-350q0 -40 28 -40t28 40v350h140v-350q0 -40 28 -40t28 40v350h153v-300q0 -105 -28 -150q-41 -68 -125 -68q-39 0 -73 18.5t-53 55.5q-37 -72 -126 -74q-82 -1 -125 68q-28 45 -28 150v300z" />
    <glyph glyph-name="x" unicode="x" horiz-adv-x="418" 
d="M15 500h148l41 -189h10l41 189h148l-67 -234l72 -266h-153l-41 220h-10l-41 -220h-153l72 266z" />
    <glyph glyph-name="y" unicode="y" horiz-adv-x="414" 
d="M10 500h155l38 -392h10l36 392h155l-95 -546q-15 -91 -69 -133q-58 -46 -135 -41v122q33 0 55 16q30 22 34 70l1 12h-38q-23 0 -43 21t-25 49z" />
    <glyph glyph-name="z" unicode="z" horiz-adv-x="350" 
d="M25 500h300v-128l-156 -254h161v-118h-310v130l152 254h-147v116z" />
    <glyph glyph-name="braceleft" unicode="{" horiz-adv-x="403" 
d="M50 400h20q26 0 45.5 22.5t19.5 76.5v109q0 93 53.5 142.5t141.5 49.5h23v-104h-25q-21 0 -34 -8.5t-18 -25t-6 -27t-1 -26.5v-125q0 -53 -20 -86.5t-69 -53.5q51 -19 70 -53t19 -91v-154q0 -87 59 -87h25v-109h-26q-95 0 -143.5 54t-48.5 142v143q0 19 -1.5 31.5
t-7 30.5t-20 27.5t-36.5 9.5h-20v112z" />
    <glyph glyph-name="bar" unicode="|" horiz-adv-x="220" 
d="M50 750h120v-900h-120v900z" />
    <glyph glyph-name="braceright" unicode="}" horiz-adv-x="403" 
d="M50 800h23q88 0 141.5 -49.5t53.5 -142.5v-109q0 -54 19.5 -76.5t45.5 -22.5h20v-112h-20q-22 0 -36.5 -9.5t-20 -27.5t-7 -30.5t-1.5 -31.5v-143q0 -88 -48.5 -142t-143.5 -54h-26v109h25q59 0 59 87v154q0 57 19 91t70 53q-49 20 -69 53.5t-20 86.5v125q0 16 -1 26.5
t-6 27t-18 25t-34 8.5h-25v104z" />
    <glyph glyph-name="asciitilde" unicode="~" horiz-adv-x="496" 
d="M50 200v98q49 31 94 31q40 0 104 -31q6 -3 20 -9.5t21 -9.5t18.5 -7.5t21.5 -6t20 -1.5q47 0 97 40v-98q-49 -31 -94 -31q-40 0 -104 31q-6 3 -20 9.5t-21 9.5t-18.5 7.5t-21.5 6t-20 1.5q-47 0 -97 -40z" />
    <glyph glyph-name="nbspace" unicode="&#xa0;" horiz-adv-x="233" 
 />
    <glyph glyph-name="exclamdown" unicode="&#xa1;" horiz-adv-x="274" 
d="M79 490h116l29 -490h-174zM63 700h148v-172h-148v172z" />
    <glyph glyph-name="cent" unicode="&#xa2;" horiz-adv-x="488" 
d="M281 209h157q2 -92 -40 -152q-42 -64 -114 -74v-133h-80v134q-66 8 -110 73q-44 67 -44 193t44 193q39 58 110 73v134h80v-134q20 -5 33 -9t36.5 -21t40.5 -43q42 -60 40 -150h-156q0 47 -1 66q0 16 -7.5 30t-25.5 14t-26.5 -15t-8.5 -29q-2 -18 -2 -107q0 -88 2 -106
q0 -1 1 -3q12 -38 34 -41q19 0 27.5 15t8.5 29q1 8 1 63z" />
    <glyph glyph-name="sterling" unicode="&#xa3;" horiz-adv-x="514" 
d="M50 381h49v108q0 24 1 40.5t5.5 47t16.5 51.5t30.5 42.5t51 33t75.5 11.5q47 0 81 -14t52 -33.5t28 -49.5t12.5 -52.5t2.5 -52.5v-21h-124v10q0 72 -10 90q-12 19 -39 19q-15 0 -24.5 -6t-15 -12.5t-8 -23t-2.5 -26v-31.5v-12v-119h146v-86h-146v-92q0 -57 -22 -94h254
v-109h-413v109q31 16 40 38t9 55v93h-50v86z" />
    <glyph glyph-name="currency" unicode="&#xa4;" horiz-adv-x="676" 
d="M50 464l76 76l61 -61q62 44 147 44q92 0 156 -44l61 61l75 -75l-62 -63q45 -70 45 -151q0 -80 -44 -151l61 -60l-76 -76l-61 61q-73 -48 -157 -48q-80 0 -144 49l-62 -61l-75 75l59 60q-45 68 -45 151q0 82 46 152zM338 93q67 0 113.5 46t46.5 114q0 66 -46.5 112.5
t-113.5 46.5q-68 0 -114 -46t-46 -113q0 -68 46.5 -114t113.5 -46z" />
    <glyph glyph-name="yen" unicode="&#xa5;" horiz-adv-x="542" 
d="M75 381h114l-139 319h136l85 -235l85 235h136l-139 -319h114v-86h-133v-78h133v-86h-133v-131h-126v131h-133v86h133v78h-133v86z" />
    <glyph glyph-name="brokenbar" unicode="&#xa6;" horiz-adv-x="220" 
d="M50 130h120v-280h-120v280zM50 750h120v-280h-120v280z" />
    <glyph glyph-name="section" unicode="&#xa7;" horiz-adv-x="512" 
d="M239 252l45 -39q38 13 38 48q0 6 -1 12.5t-2.5 11t-5.5 10.5t-5.5 8.5t-8.5 9t-8 7.5t-9 8t-9 8l-45 39q-36 -15 -38 -48q-3 -36 49 -75zM50 309q0 37 21 74t71 61q-51 49 -51 119q0 73 46.5 115t118.5 42q88 0 134 -57q31 -41 31 -121v-12h-132v18q0 36 -3 44
q-8 22 -30 22q-33 0 -33 -45q0 -23 6.5 -35.5t32.5 -31.5l80 -58q3 -2 15.5 -11t16.5 -12t15.5 -12t16 -14t14 -14.5t14 -16.5t11 -17.5t9 -20.5l5.5 -22t3 -25q0 -95 -86 -145q60 -45 60 -116q0 -72 -47 -118t-133 -46q-84 0 -132 50t-48 126v14h141v-9v-9.5v-10t0.5 -9
t1 -9.5t2 -8.5t3.5 -8t5 -6t6.5 -5t9 -3t11.5 -1.5q15 0 27 10t12 33q0 15 -3.5 25.5t-14 21t-13 12.5t-16.5 13l-84 61q-52 36 -83 75t-31 93z" />
    <glyph glyph-name="dieresis" unicode="&#xa8;" horiz-adv-x="449" 
d="M64 700h123v-135h-123v135zM261 700h123v-135h-123v135z" />
    <glyph glyph-name="copyright" unicode="&#xa9;" horiz-adv-x="1030" 
d="M50 349q0 193 136 329t329 136t329 -136t136 -329t-136 -329t-329 -136t-329 136t-136 329zM150 349q0 -152 106.5 -258.5t258.5 -106.5t258.5 106.5t106.5 258.5t-106.5 258.5t-258.5 106.5t-258.5 -106.5t-106.5 -258.5zM569 285h131q1 -89 -25 -137q-48 -99 -159 -99
q-106 0 -154 97q-32 67 -32 203t31 202q46 97 153 98q111 2 157 -98q26 -55 24 -136h-129q0 17 -2 51q0 78 -51 78q-50 0 -50 -78q-2 -37 -2 -117q0 -84 3 -119l1 -8q1 -8 2 -11.5t3 -11.5t4 -12.5t6 -10.5t9 -9.5t12 -6t15 -2.5t17 2.5t22 20.5t14 49v55z" />
    <glyph glyph-name="ordfeminine" unicode="&#xaa;" horiz-adv-x="312" 
d="M282 699v-264h-96v23q-20 -31 -61 -31q-47 0 -72 39q-23 36 -23 101q0 69 23 102q29 41 72 39q36 -1 61 -31v22h96zM188 569q0 43 -1 46q-6 27 -27 29q-25 2 -29 -29q-1 -11 -1 -46q0 -45 1 -49q5 -27 29 -27q22 0 27 28q1 3 1 48z" />
    <glyph glyph-name="guillemotleft" unicode="&#xab;" horiz-adv-x="445" 
d="M50 285l155 215v-160l-56 -76v-28l56 -76v-160l-155 214v71zM240 285l155 215v-160l-56 -76v-28l56 -76v-160l-155 214v71z" />
    <glyph glyph-name="logicalnot" unicode="&#xac;" horiz-adv-x="490" 
d="M50 321h390v-226h-113v113h-277v113z" />
    <glyph glyph-name="uni00AD" unicode="&#xad;" horiz-adv-x="300" 
d="M50 326h200v-123h-200v123z" />
    <glyph glyph-name="registered" unicode="&#xae;" horiz-adv-x="1030" 
d="M50 349q0 193 136 329t329 136t329 -136t136 -329t-136 -329t-329 -136t-329 136t-136 329zM150 349q0 -152 106.5 -258.5t258.5 -106.5t258.5 106.5t106.5 258.5t-106.5 258.5t-258.5 106.5t-258.5 -106.5t-106.5 -258.5zM365 620h150q71 0 110 -28q56 -42 56 -124
q0 -66 -37 -107q-18 -19 -37 -25q29 -13 42 -59l56 -207h-131l-33 157q0 11 -11 40q-8 21 -32 21h-10v-218h-123v550zM488 521v-137h10q33 0 48 20q12 16 12 49q0 37 -13 53q-13 15 -51 15h-6z" />
    <glyph glyph-name="degree" unicode="&#xb0;" horiz-adv-x="380" 
d="M50 568q0 58 41 99t99 41t99 -41t41 -99t-41 -99t-99 -41t-99 41t-41 99zM130 568q0 -25 17.5 -42.5t42.5 -17.5t42.5 17.5t17.5 42.5t-17.5 42.5t-42.5 17.5t-42.5 -17.5t-17.5 -42.5z" />
    <glyph glyph-name="plusminus" unicode="&#xb1;" horiz-adv-x="520" 
d="M212 503h96v-110h162v-96h-162v-110h-96v110h-162v96h162v110zM50 140h420v-96h-420v96z" />
    <glyph glyph-name="acute" unicode="&#xb4;" horiz-adv-x="428" 
d="M235 700h104l-80 -144h-104z" />
    <glyph glyph-name="mu" unicode="&#xb5;" horiz-adv-x="443" 
d="M40 500h152v-299v-46q0 -39 31 -42q17 -1 23.5 9t7.5 24q1 12 1 48v306h153v-303q0 -112 -16 -145q-12 -27 -40.5 -47.5t-75.5 -20.5q-31 0 -55 14q-23 15 -29 26v-224h-152v700z" />
    <glyph glyph-name="paragraph" unicode="&#xb6;" horiz-adv-x="508" 
d="M458 700v-85h-70v-765h-109v765h-81v-260q-41 3 -70.5 22t-41.5 36q-40 51 -36 121q1 71 49 119q22 21 51 32t50.5 13t55.5 2h202z" />
    <glyph glyph-name="periodcentered" unicode="&#xb7;" horiz-adv-x="252" 
d="M50 343h152v-172h-152v172z" />
    <glyph glyph-name="ordmasculine" unicode="&#xba;" horiz-adv-x="314" 
d="M30 568q0 71 36 106q36 34 91 34t91 -34q36 -35 36 -106t-36 -107q-33 -33 -91 -33t-91 33q-36 36 -36 107zM126 568q0 -32 1 -44q0 -33 30 -33q11 0 17.5 6t8.5 11.5t4 15.5q1 11 1 44t-1 44q-7 35 -30 35t-30 -35q-1 -11 -1 -44z" />
    <glyph glyph-name="guillemotright" unicode="&#xbb;" horiz-adv-x="445" 
d="M240 500l155 -215v-71l-155 -214v160l56 76v28l-56 76v160zM50 500l155 -215v-71l-155 -214v160l56 76v28l-56 76v160z" />
    <glyph glyph-name="questiondown" unicode="&#xbf;" horiz-adv-x="454" 
d="M166 490h141v-15q0 -69 -38 -130q-18 -28 -36.5 -49.5t-27.5 -36.5q-20 -33 -20 -85q0 -45 3 -56q9 -30 37 -30q30 0 40 30q4 12 4 67v45h150v-44q0 -104 -57 -158q-52 -48 -138 -48q-91 0 -137 44q-54 52 -52 146q0 47 12 79t40 68q11 14 25 30t22 26.5t15 22.5
q17 29 17 79v15zM162 700h148v-154h-148v154z" />
    <glyph glyph-name="AE" unicode="&#xc6;" horiz-adv-x="634" 
d="M131 700h388l20 -115h-132l30 -162h115l23 -124h-117l29 -170h114l23 -129h-275l-21 156h-138l-21 -156h-159zM249 587l-41 -303h102l-41 303h-20z" />
    <glyph glyph-name="multiply" unicode="&#xd7;" horiz-adv-x="474" 
d="M424 132l-66 -66l-121 121l-121 -121l-66 66l121 121l-121 121l66 66l121 -121l121 121l66 -66l-121 -121z" />
    <glyph glyph-name="ae" unicode="&#xe6;" horiz-adv-x="661" 
d="M276 500h120v-41q29 56 93 57q73 1 111 -72q31 -63 31 -201v-17h-238q0 -74 2 -83q8 -49 46 -49q34 0 42 37q4 16 4 49h143q0 -74 -30 -130q-37 -66 -103 -66q-71 0 -101 58v-42h-120v43q-29 -59 -97 -59q-71 0 -113 74q-36 61 -36 192t36 192q42 74 113 74q58 0 97 -57
v41zM281 253q0 62 -3 87q-2 15 -4.5 24t-13 20.5t-26.5 11.5t-26.5 -11.5t-13 -20.5t-4.5 -24q-3 -25 -3 -87q0 -67 4 -93q0 -1 1 -5.5t1.5 -6.5t2 -7t3 -8t4 -7t5.5 -6.5t7 -5.5t8.5 -4t10.5 -1q13 0 21.5 5t13 16t6 16t3.5 16q3 22 3 91zM393 321h95v10q0 35 -4 47
q-11 33 -43 33q-30 0 -43 -33q-5 -11 -5 -47v-10z" />
    <glyph glyph-name="divide" unicode="&#xf7;" horiz-adv-x="520" 
d="M205 463h110v-110h-110v110zM50 302h420v-96h-420v96zM205 155h110v-110h-110v110z" />
    <glyph glyph-name="OE" unicode="&#x152;" horiz-adv-x="641" 
d="M327 700h286v-128h-130v-145h117v-128h-117v-166h138v-133h-294v53q-35 -73 -112 -73q-106 0 -152 120q-28 73 -28 250q0 173 28 250q43 116 143 120q87 6 121 -70v50zM327 195v314q0 90 -63 90q-56 0 -64 -90q-4 -35 -4 -157q0 -104 4 -157q0 -15 3.5 -33t19.5 -38
t41 -20q10 0 19.5 3.5t20 12t17 28t6.5 47.5z" />
    <glyph glyph-name="oe" unicode="&#x153;" horiz-adv-x="716" 
d="M542 180h143q0 -80 -36 -130q-51 -70 -153 -70q-95 1 -136 77q-41 -77 -131 -77q-88 0 -143 65q-56 64 -56 205q0 138 55 205q52 65 144 65q47 0 77.5 -17.5t53.5 -59.5q22 40 54 58.5t82 18.5q98 0 148 -76q27 -40 34.5 -87t7.5 -114v-17h-236q0 -74 2 -83q6 -48 44 -49
q35 0 43 37q5 23 3 49zM187 251v-85q0 -72 46 -72q47 0 47 72v85v84q0 76 -47 76q-16 0 -26.5 -7.5t-14 -22.5t-4.5 -23t-1 -23v-84zM450 321h93q0 39 -6 57q-11 33 -41 33q-29 0 -41 -33q-7 -22 -5 -57z" />
    <glyph glyph-name="florin" unicode="&#x192;" horiz-adv-x="395" 
d="M50 500h76v16q0 102 40 151q45 53 144 53h35v-110h-42q-19 0 -31 -9.5t-16 -29.5t-5 -30t-1 -30v-11h95v-110h-95v-345q0 -114 -49 -166q-47 -49 -131 -49h-19v115h15q32 0 48 25q12 18 12 61v359h-76v110z" />
    <glyph glyph-name="circumflex" unicode="&#x2c6;" horiz-adv-x="360" 
d="M108 700h144l98 -170h-112l-52 105h-12l-52 -105h-112z" />
    <glyph glyph-name="anoteleia" unicode="&#x387;" horiz-adv-x="252" 
d="M50 343h152v-172h-152v172z" />
    <glyph glyph-name="Delta" unicode="&#x394;" horiz-adv-x="480" 
d="M114 700h252l99 -570v-130h-450v130zM230 590l-61 -460h142l-61 460h-20z" />
    <glyph glyph-name="Delta" unicode="&#x2206;" horiz-adv-x="480" 
d="M114 700h252l99 -570v-130h-450v130zM230 590l-61 -460h142l-61 460h-20z" />
    <glyph glyph-name="Omega" unicode="&#x3a9;" horiz-adv-x="550" 
d="M62 115h115v55q-135 61 -132 269q0 138 66 210q64 71 164 71t164 -71q66 -72 66 -210q3 -208 -132 -269v-55h115v-115h-191v253q40 14 55 51t15 123q0 90 -17 130q-25 52 -75 52t-75 -52q-17 -40 -17 -130q0 -86 15.5 -123t54.5 -51v-253h-191v115z" />
    <glyph glyph-name="Omega" unicode="&#x2126;" horiz-adv-x="550" 
d="M62 115h115v55q-135 61 -132 269q0 138 66 210q64 71 164 71t164 -71q66 -72 66 -210q3 -208 -132 -269v-55h115v-115h-191v253q40 14 55 51t15 123q0 90 -17 130q-25 52 -75 52t-75 -52q-17 -40 -17 -130q0 -86 15.5 -123t54.5 -51v-253h-191v115z" />
    <glyph glyph-name="mu1" unicode="&#x3bc;" horiz-adv-x="443" 
d="M40 500h152v-299v-46q0 -39 31 -42q17 -1 23.5 9t7.5 24q1 12 1 48v306h153v-303q0 -112 -16 -145q-12 -27 -40.5 -47.5t-75.5 -20.5q-31 0 -55 14q-23 15 -29 26v-224h-152v700z" />
    <glyph glyph-name="pi" unicode="&#x3c0;" horiz-adv-x="480" 
d="M30 500h420v-102h-31v-398h-152v394h-54v-394h-152v398h-31v102z" />
    <glyph glyph-name="afii10023" unicode="&#x401;" horiz-adv-x="384" 
d="M58 840h113v-90h-113v90zM216 840h112v-90h-112v90zM45 700h306v-128h-150v-145h137v-128h-137v-166h158v-133h-314v700z" />
    <glyph glyph-name="afii10051" unicode="&#x402;" horiz-adv-x="562" 
d="M10 700h365v-129h-114v-164q11 27 38 44q32 20 68 20q96 0 137 -95q18 -44 18 -106v-63q0 -121 -63 -172q-20 -17 -46 -25t-41 -9t-45 -1h-15v129h11q18 0 29 11q21 18 21 66v75q0 37 -18.5 51t-37.5 14q-21 0 -38.5 -15t-17.5 -50v-281h-156v571h-95v129z" />
    <glyph glyph-name="afii10052" unicode="&#x403;" horiz-adv-x="331" 
d="M208 850h114l-91 -120h-115zM45 700h286v-130h-130v-570h-156v700z" />
    <glyph glyph-name="afii10053" unicode="&#x404;" horiz-adv-x="519" 
d="M286 411v-118h-92q0 -71 2 -89q8 -63 34 -80q13 -9 31 -9q59 0 65 88q1 13 1 67h157q1 -103 -30 -168q-59 -122 -193 -122q-136 -1 -191 119q-35 70 -35 251q0 170 33 248q23 52 70 87t121 35q135 1 191 -122q30 -66 28 -162h-156q0 39 -1 58q0 96 -64 96q-62 0 -62 -96
q-1 -21 -1 -83h92z" />
    <glyph glyph-name="afii10054" unicode="&#x405;" horiz-adv-x="502" 
d="M35 244h156v-7q0 -78 17 -108q15 -26 43 -26t44 22t16 64q0 44 -21 66q-5 5 -11 10t-15.5 9.5t-15.5 7.5t-20.5 9t-21.5 9q-82 34 -112 68q-48 53 -49 147q-1 100 61 158q53 47 140 47q86 0 141 -55q38 -38 49 -83.5t11 -115.5v-10h-152v11q0 88 -10 108q-13 27 -39 27
q-24 0 -39 -23q-10 -18 -10 -55q0 -42 13 -61q6 -9 16.5 -16.5t16.5 -10.5t21.5 -8t16.5 -5q75 -24 122 -68q64 -60 64 -163q0 -106 -70 -167q-58 -47 -146 -45q-85 1 -143 56q-73 73 -73 195v13z" />
    <glyph glyph-name="afii10055" unicode="&#x406;" horiz-adv-x="259" 
d="M50 700h159v-700h-159v700z" />
    <glyph glyph-name="afii10056" unicode="&#x407;" horiz-adv-x="304" 
d="M0 875h126v-145h-126v145zM178 875h126v-145h-126v145zM73 700h159v-700h-159v700z" />
    <glyph glyph-name="afii10057" unicode="&#x408;" horiz-adv-x="290" 
d="M94 700h156v-466q0 -47 -1.5 -72.5t-13.5 -62.5t-35 -63q-9 -10 -18.5 -18t-21 -14t-20 -10t-21.5 -6.5t-19.5 -4.5t-21 -2.5t-19 -0.5h-19.5h-17h-23v142h22q18 0 37 11t27 26q3 5 5 11.5t2.5 15t0.5 14v18.5v19v463z" />
    <glyph glyph-name="afii10058" unicode="&#x409;" horiz-adv-x="726" 
d="M114 700h261l40 -262h52q100 0 154 -35q75 -50 85 -167q11 -134 -65 -194q-53 -42 -153 -42h-170l-64 581h-18l-64 -581h-162zM457 132h21q46 0 64 29q14 21 8 71q-5 39 -26 60q-17 17 -59 17h-33z" />
    <glyph glyph-name="afii10059" unicode="&#x40a;" horiz-adv-x="748" 
d="M45 700h156v-262h110v262h156v-262h17q35 0 56 -1.5t56 -14t61 -36.5q66 -62 66 -163q0 -49 -18.5 -97t-52.5 -78q-10 -9 -20.5 -16t-23 -11.5t-21 -8.5t-24.5 -6t-22.5 -3.5t-25 -2t-23.5 -0.5h-25.5h-23.5h-132v311h-110v-311h-156v700zM467 311v-186h17q49 0 68 34
q11 17 11 60q0 46 -13 63q-20 29 -66 29h-17z" />
    <glyph glyph-name="afii10060" unicode="&#x40b;" horiz-adv-x="562" 
d="M10 700h365v-129h-114v-164q11 27 38 44q32 20 68 20q96 0 137 -95q4 -11 7.5 -22t5.5 -26t3 -24t1.5 -30.5t0.5 -30v-37v-38.5v-168h-149v281q0 37 -18.5 51t-37.5 14q-21 0 -38.5 -15t-17.5 -50v-281h-156v571h-95v129z" />
    <glyph glyph-name="afii10061" unicode="&#x40c;" horiz-adv-x="491" 
d="M45 700h156v-279h46l72 279h161l-102 -330l103 -370h-168l-66 308h-46v-308h-156v700zM263 850h114l-91 -120h-115z" />
    <glyph glyph-name="afii10062" unicode="&#x40e;" horiz-adv-x="442" 
d="M10 700h160l45 -382h14l43 382h160l-99 -546q-18 -96 -62 -135q-24 -20 -63 -30.5t-79 -8.5v116q34 -1 56 23q16 16 24 69l2 12h-40q-27 0 -47 18.5t-27 51.5zM63 870h106q-2 -23 5 -39q13 -33 44 -33t44 32q7 16 5 40h106q-6 -69 -45 -113q-41 -45 -110 -45
q-68 0 -110 46q-39 42 -45 112z" />
    <glyph glyph-name="afii10145" unicode="&#x40f;" horiz-adv-x="512" 
d="M45 700h156v-586h110v586h156v-700h-153v-200h-116v200h-153v700z" />
    <glyph glyph-name="afii10017" unicode="&#x410;" horiz-adv-x="518" 
d="M131 700h256l121 -700h-159l-21 156h-138l-21 -156h-159zM249 584l-41 -300h102l-41 300h-20z" />
    <glyph glyph-name="afii10018" unicode="&#x411;" horiz-adv-x="497" 
d="M45 700h377v-126h-220v-138h24q113 0 170 -43q71 -57 71 -174t-71 -174q-27 -22 -64 -32.5t-58.5 -11.5t-67.5 -1h-161v700zM202 313v-186h24q40 0 61 26q19 24 19 68q0 39 -18 63q-22 29 -62 29h-24z" />
    <glyph glyph-name="afii10019" unicode="&#x412;" horiz-adv-x="502" 
d="M45 700h133h12q41 0 65 -1t62 -9t64 -24q73 -49 76 -144q2 -59 -26.5 -99t-80.5 -53q56 -20 86.5 -67t30.5 -105q0 -103 -80 -160q-27 -19 -61 -27.5t-53 -9.5t-63 -1h-165v700zM201 302v-175h22q40 0 58 14q25 21 25 70q0 50 -24 72q-20 19 -56 19h-25zM201 578v-158h25
q38 0 55 15q22 19 24 62q2 47 -23 67q-17 14 -57 14h-24z" />
    <glyph glyph-name="afii10020" unicode="&#x413;" horiz-adv-x="321" 
d="M45 700h286v-130h-130v-570h-156v700z" />
    <glyph glyph-name="afii10021" unicode="&#x414;" horiz-adv-x="500" 
d="M124 700h252l94 -569h20v-131h-480v131h20zM184 131h132l-56 449h-20z" />
    <glyph glyph-name="afii10022" unicode="&#x415;" horiz-adv-x="384" 
d="M45 700h306v-128h-150v-145h137v-128h-137v-166h158v-133h-314v700z" />
    <glyph glyph-name="afii10024" unicode="&#x416;" horiz-adv-x="698" 
d="M277 700h144v-282h49l65 282h152l-90 -330l91 -370h-158l-60 311h-49v-311h-144v311h-49l-60 -311h-158l91 370l-90 330h152l65 -282h49v282z" />
    <glyph glyph-name="afii10025" unicode="&#x417;" horiz-adv-x="508" 
d="M226 417h29q33 0 49 38q7 17 7 56q0 43 -8 61q-15 30 -52 30q-33 0 -49 -30q-10 -21 -10 -60v-72h-152q0 43 2 73q8 97 61 150q57 57 148 57q93 1 155 -54q53 -53 57 -143q1 -61 -23.5 -100.5t-61.5 -56.5q41 -17 69 -58.5t26 -115.5q0 -101 -61 -158q-64 -58 -161 -54
t-149 56q-54 54 -64 158q-3 27 -3 70h152v-64q0 -43 15 -66q16 -29 50 -31q36 -1 53 30q11 19 11 66q0 48 -9 65q-17 31 -52 31h-29v122z" />
    <glyph glyph-name="afii10026" unicode="&#x418;" horiz-adv-x="522" 
d="M45 700h156v-315l120 135v180h156v-700h-156v335l-120 -135v-200h-156v700z" />
    <glyph glyph-name="afii10027" unicode="&#x419;" horiz-adv-x="522" 
d="M45 700h156v-315l120 135v180h156v-700h-156v335l-120 -135v-200h-156v700zM103 870h106q-2 -23 5 -39q13 -33 44 -33t44 32q7 16 5 40h106q-6 -69 -45 -113q-41 -45 -110 -45q-68 0 -110 46q-39 42 -45 112z" />
    <glyph glyph-name="afii10028" unicode="&#x41a;" horiz-adv-x="491" 
d="M45 700h156v-279h46l72 279h161l-102 -330l103 -370h-168l-66 308h-46v-308h-156v700z" />
    <glyph glyph-name="afii10029" unicode="&#x41b;" horiz-adv-x="488" 
d="M114 700h260l104 -700h-161l-63 580h-20l-63 -580h-161z" />
    <glyph glyph-name="afii10030" unicode="&#x41c;" horiz-adv-x="724" 
d="M45 700h164l153 -151l153 151h164v-700h-154v549l-90 -92v-457h-146v457l-90 92v-549h-154v700z" />
    <glyph glyph-name="afii10031" unicode="&#x41d;" horiz-adv-x="522" 
d="M45 700h156v-263h120v263h156v-700h-156v298h-120v-298h-156v700z" />
    <glyph glyph-name="afii10032" unicode="&#x41e;" horiz-adv-x="522" 
d="M35 350q0 170 36 248q23 52 70.5 87t119.5 35q128 0 190 -122q36 -78 36 -248t-36 -248q-59 -122 -190 -122q-72 0 -120 35t-70 87q-36 78 -36 248zM196 353q0 -108 1 -139q0 -19 4 -38t19.5 -38t40.5 -19t40.5 19t19.5 38t4 38q1 31 1 139q0 107 -1 138q0 19 -4 38
t-19.5 38t-40.5 19t-40.5 -19t-19.5 -38t-4 -38q-1 -31 -1 -138z" />
    <glyph glyph-name="afii10033" unicode="&#x41f;" horiz-adv-x="512" 
d="M45 700h422v-700h-156v579h-110v-579h-156v700z" />
    <glyph glyph-name="afii10034" unicode="&#x420;" horiz-adv-x="482" 
d="M45 700h164q57 0 99 -11t80 -44q69 -65 69 -184q0 -125 -78 -186q-63 -50 -160 -50h-18v-225h-156v700zM201 574v-223h16q42 0 63 33q16 25 16 76q0 53 -15 79q-21 35 -64 35h-16z" />
    <glyph glyph-name="afii10035" unicode="&#x421;" horiz-adv-x="493" 
d="M299 280h159q2 -124 -21 -178q-21 -50 -68.5 -87t-122.5 -35q-125 3 -180 119q-31 76 -31 251t31 251q49 119 182 119t183 -122q23 -63 22 -174h-154v70q0 44 -11 68.5t-40 23.5q-50 -3 -50 -92q0 -12 -0.5 -35.5t-0.5 -35.5v-73q0 -26 0.5 -69.5t0.5 -76.5q0 -82 50 -85
q18 -1 29 7t15.5 24t5.5 27t1 26v77z" />
    <glyph glyph-name="afii10036" unicode="&#x422;" horiz-adv-x="360" 
d="M10 700h340v-130h-90v-570h-160v570h-90v130z" />
    <glyph glyph-name="afii10037" unicode="&#x423;" horiz-adv-x="442" 
d="M10 700h160l45 -382h14l43 382h160l-99 -546q-18 -96 -62 -135q-24 -20 -63 -30.5t-79 -8.5v116q34 -1 56 23q16 16 24 69l2 12h-40q-27 0 -47 18.5t-27 51.5z" />
    <glyph glyph-name="afii10038" unicode="&#x424;" horiz-adv-x="712" 
d="M35 350q0 179 80 271q85 95 241 95t241 -95q35 -40 54 -93.5t22.5 -90.5t3.5 -87q0 -186 -80 -275q-82 -91 -241 -91q-157 0 -239 91q-82 87 -82 275zM190 350q0 -130 13 -169q21 -64 82 -78v494q-61 -14 -82 -78q-13 -39 -13 -169zM522 350q0 130 -13 169q-21 64 -82 78
v-494q61 14 82 78q13 39 13 169z" />
    <glyph glyph-name="afii10039" unicode="&#x425;" horiz-adv-x="488" 
d="M15 700h156l63 -277h20l63 277h156l-91 -330l96 -370h-163l-61 309h-20l-61 -309h-163l96 370z" />
    <glyph glyph-name="afii10040" unicode="&#x426;" horiz-adv-x="547" 
d="M45 0v700h156v-579h110v579h156v-579h80l-60 -121h-442z" />
    <glyph glyph-name="afii10041" unicode="&#x427;" horiz-adv-x="492" 
d="M25 700h157v-246q0 -52 1 -67q4 -53 49 -53q17 0 33 12.5t22 39.5q4 16 4 68v246h156v-700h-156v232q-35 -31 -86 -32q-112 -4 -159 95q-8 16 -12.5 32.5t-6.5 36t-2.5 29.5t0 33t0.5 28v246z" />
    <glyph glyph-name="afii10042" unicode="&#x428;" horiz-adv-x="752" 
d="M45 700h156v-568h101v568h148v-568h101v568h156v-700h-662v700z" />
    <glyph glyph-name="afii10043" unicode="&#x429;" horiz-adv-x="787" 
d="M45 700h156v-568h101v568h148v-568h101v568h156v-568h80l-60 -132h-682v700z" />
    <glyph glyph-name="afii10044" unicode="&#x42a;" horiz-adv-x="502" 
d="M65 0v580h-75v120h231v-234h17q35 0 56.5 -2t56 -14t60.5 -36q66 -59 66 -176q0 -123 -71 -190q-10 -9 -20.5 -16t-23 -11.5t-21 -8.5t-24.5 -6t-22.5 -3.5t-25 -2t-23.5 -0.5h-25.5h-23.5h-132zM221 339v-210h17q50 0 68 32q11 19 11 75q0 50 -13 72q-19 31 -66 31h-17z
" />
    <glyph glyph-name="afii10045" unicode="&#x42b;" horiz-adv-x="698" 
d="M45 700h156v-234h17q35 0 56.5 -2t56 -14t60.5 -36q66 -59 66 -176q0 -130 -71 -190q-28 -24 -70 -35.5t-63 -12t-76 -0.5h-132v700zM201 339v-210h17q16 0 24.5 1t21.5 8.5t22 22.5q11 19 11 75q0 50 -13 72q-19 31 -66 31h-17zM497 700h156v-700h-156v700z" />
    <glyph glyph-name="afii10046" unicode="&#x42c;" horiz-adv-x="482" 
d="M45 700h156v-234h17q35 0 56.5 -2t56 -14t60.5 -36q66 -59 66 -176q0 -123 -71 -190q-10 -9 -20.5 -16t-23 -11.5t-21 -8.5t-24.5 -6t-22.5 -3.5t-25 -2t-23.5 -0.5h-25.5h-23.5h-132v700zM201 339v-210h17q16 0 24.5 1t21.5 8.5t22 22.5q11 19 11 75q0 50 -13 72
q-19 31 -66 31h-17z" />
    <glyph glyph-name="afii10047" unicode="&#x42d;" horiz-adv-x="519" 
d="M35 270h157q0 -54 1 -67q6 -88 65 -88q14 0 24.5 4t17 14.5t11 16.5t7.5 21t3 17.5t2 15.5q2 18 2 89h-92v118h92q0 62 -1 83q0 96 -62 96q-64 0 -64 -96q-1 -17 -1 -60h-156q-4 101 26 164q55 122 192 122q138 0 192 -122q33 -78 33 -248q0 -181 -35 -251
q-55 -120 -191 -119q-134 0 -193 122q-33 64 -30 168z" />
    <glyph glyph-name="afii10048" unicode="&#x42e;" horiz-adv-x="750" 
d="M45 700h156v-282h65q0 108 31 180q56 122 192 122q135 0 191 -122q35 -78 35 -248t-35 -248q-56 -122 -191 -122q-136 0 -192 122q-31 69 -31 190h-65v-292h-156v700zM424 353q0 -49 1 -85.5t2 -53t1 -18.5q5 -43 23 -60t38 -17q52 0 61 77q0 2 1 18.5t2 53t1 85.5
t-1 85.5t-2 53t-1 18.5q-10 76 -61 76q-50 0 -61 -76q-4 -29 -4 -157z" />
    <glyph glyph-name="afii10049" unicode="&#x42f;" horiz-adv-x="492" 
d="M447 700v-700h-156v277h-13q-31 0 -41 -26q-2 -6 -7 -26.5t-6 -24.5l-42 -200h-167l71 264q11 55 61 74q-32 9 -57 34q-45 49 -45 134q0 107 72 158q51 36 140 36h190zM291 574h-18q-39 0 -55 -19t-16 -68q0 -45 15 -65q18 -23 53 -23h21v175z" />
    <glyph glyph-name="afii10065" unicode="&#x430;" horiz-adv-x="470" 
d="M430 500v-500h-144l-8 48q-9 -30 -36.5 -47t-60.5 -17q-73 0 -115 74q-36 61 -36 192t36 192q42 74 115 74q70 -2 97 -62l8 46h144zM283 253q0 64 -4 87q-8 56 -43 56q-36 0 -44 -56q-3 -24 -3 -87q0 -68 4 -93q9 -51 43 -51q35 0 43 53q4 21 4 91z" />
    <glyph glyph-name="afii10066" unicode="&#x431;" horiz-adv-x="463" 
d="M276 245q0 75 -2 90l-1 5q-1 5 -1.5 7t-2 7t-3 8t-4 7t-6 6.5t-7.5 5.5t-9 4t-11 1t-11 -1t-9 -4t-7.5 -5.5t-6 -6.5t-4 -7t-3 -8t-2 -7t-1.5 -7l-1 -5q-2 -14 -2 -90q0 -79 2 -92q8 -50 45 -50q23 0 33.5 18t10.5 32q3 20 3 92zM398 577h-138q-49 0 -67 -28
q-11 -18 -11 -47v-30q27 31 77 32q83 4 129 -64q45 -68 45 -195q0 -133 -50 -197q-54 -72 -154 -68q-100 3 -155 79q-18 27 -27 61.5t-10.5 58t-1.5 66.5v221q0 122 63 182q55 52 165 52h135v-123z" />
    <glyph glyph-name="afii10067" unicode="&#x432;" horiz-adv-x="478" 
d="M187 478v-243q0 -73 2 -86q9 -46 50 -46q29 0 45 29q7 15 7 76q0 59 -6 73q-11 35 -43 35h-20v113h20q27 0 39 30q4 12 4 58q0 45 -5 56q-10 30 -44 30q-41 -1 -47 -50q-2 -13 -2 -75zM35 235v243q0 114 48 175q55 67 153 67q84 1 136 -42q61 -52 60 -150q0 -62 -29 -104
q-27 -36 -66 -49q48 -19 74 -57q32 -47 32 -129q0 -109 -63 -163q-55 -47 -141 -46q-108 1 -163 76q-41 57 -41 179z" />
    <glyph glyph-name="afii10068" unicode="&#x433;" horiz-adv-x="428" 
d="M37 332v18q0 90 59 137q44 35 117 35q74 0 117 -31q59 -42 59 -122q0 -67 -43 -109q-25 -24 -84 -48q-50 -20 -64 -32q-15 -14 -15 -43q0 -21 5 -32q9 -15 27 -15q21 0 28 16q6 12 6 31v35h149v-11q0 -83 -54 -137q-48 -46 -130 -46q-80 -2 -128 36q-56 41 -56 123
q0 78 58 122q33 22 92 43q2 1 13 5.5t17 7t13.5 8.5t11.5 13q6 9 6 34q0 21 -2 26q-6 19 -27 19t-28 -19q-3 -7 -3 -26v-38h-144z" />
    <glyph glyph-name="afii10069" unicode="&#x434;" horiz-adv-x="470" 
d="M203 -101h27q6 0 11.5 1.5t9.5 4t7 5t5.5 6t4 5.5t2.5 5l2 3q6 15 6 64v55q-9 -30 -36.5 -47t-60.5 -17q-74 0 -116 74q-35 62 -35 192q0 128 35 192q41 76 116 74q70 0 97 -62l8 46h144v-506q0 -113 -43 -161q-48 -53 -146 -53h-38v119zM283 253q0 74 -2 87
q-9 56 -45 56t-44 -56q-3 -24 -3 -87q0 -68 4 -93q9 -51 43 -51q13 0 26.5 11.5t18.5 41.5q2 13 2 91z" />
    <glyph glyph-name="afii10070" unicode="&#x435;" horiz-adv-x="449" 
d="M275 180h143q0 -80 -36 -130q-53 -70 -153 -70q-88 1 -141 67q-58 73 -58 203t58 203q55 67 141 67q97 0 148 -76q27 -40 34.5 -87t7.5 -114v-17h-236q0 -74 2 -83q8 -49 44 -49q34 0 42 37q4 16 4 49zM229 411q-30 0 -40 -33q-6 -18 -6 -57h93q0 39 -6 57q-11 33 -41 33
z" />
    <glyph glyph-name="afii10072" unicode="&#x436;" horiz-adv-x="610" 
d="M11 500h147l50 -195h29v195h136v-195h29l50 195h147l-73 -234l74 -266h-152l-46 217h-29v-217h-136v217h-29l-46 -217h-152l74 266z" />
    <glyph glyph-name="afii10073" unicode="&#x437;" horiz-adv-x="418" 
d="M179 299h20q23 0 32 19q5 5 5 41q0 33 -5 48q-8 18 -28 18q-21 0 -29 -20q-5 -8 -5 -56v-35h-134v28q0 102 61 147q44 33 109 33q70 0 109 -25q66 -40 66 -125q0 -42 -23 -73q-19 -26 -49 -34q35 -15 54 -41q26 -36 26 -90q0 -84 -59 -125q-43 -31 -123 -31
q-70 0 -110 30q-34 24 -50 66t-16 86v30h139v-28q0 -49 5 -61q7 -20 29 -21q19 -1 29 14q7 11 7 44q0 37 -4 46q-11 25 -36 25h-20v90z" />
    <glyph glyph-name="afii10074" unicode="&#x438;" horiz-adv-x="443" 
d="M403 0h-144l-8 46q-7 -16 -29 -38q-27 -22 -69 -22q-78 0 -105 66q-13 31 -13 138v310h153v-306q0 -36 1 -48q1 -14 7.5 -24t23.5 -9q31 3 31 42v46v299h152v-500z" />
    <glyph glyph-name="afii10075" unicode="&#x439;" horiz-adv-x="443" 
d="M403 0h-144l-8 46q-7 -16 -29 -38q-27 -22 -69 -22q-78 0 -105 66q-13 31 -13 138v310h153v-306q0 -36 1 -48q1 -14 7.5 -24t23.5 -9q31 3 31 42v46v299h152v-500zM62 700h114q-2 -31 8 -50q12 -23 35 -23t35 23q10 19 8 50h114q0 -70 -42 -118q-43 -47 -115 -47
q-76 0 -117 49q-38 44 -40 116z" />
    <glyph glyph-name="afii10076" unicode="&#x43a;" 
d="M40 500h152v-190h25l59 190h151l-83 -234l84 -266h-159l-52 214h-25v-214h-152v500z" />
    <glyph glyph-name="afii10077" unicode="&#x43b;" horiz-adv-x="402" 
d="M82 500h238l72 -500h-148l-35 400h-16l-35 -400h-148z" />
    <glyph glyph-name="afii10078" unicode="&#x43c;" horiz-adv-x="622" 
d="M40 500h156l115 -103l115 103h156v-500h-146v364l-57 -53v-311h-136v311l-57 53v-364h-146v500z" />
    <glyph glyph-name="afii10079" unicode="&#x43d;" 
d="M40 500h152v-181h54v181h152v-500h-152v202h-54v-202h-152v500z" />
    <glyph glyph-name="afii10080" unicode="&#x43e;" horiz-adv-x="458" 
d="M30 250q0 136 58 205q54 65 141 65t141 -65q58 -69 58 -205q0 -134 -58 -205q-54 -65 -141 -65t-141 65q-58 71 -58 205zM187 251v-40q0 -7 0.5 -22t0.5 -23q0 -64 41 -64t41 64q0 8 0.5 23t0.5 22v40v38q0 7 -0.5 22.5t-0.5 23.5q0 68 -41 68t-41 -68q0 -8 -0.5 -23.5
t-0.5 -22.5v-38z" />
    <glyph glyph-name="afii10081" unicode="&#x43f;" horiz-adv-x="443" 
d="M40 500h144l8 -46q7 16 29 38q25 22 66 22q74 0 108 -68q5 -11 8 -23t4 -29t1.5 -26.5t0 -33t-0.5 -31.5v-303h-153v306q0 36 -1 48q-1 14 -7.5 24t-23.5 9q-31 -3 -31 -42v-46v-299h-152v500z" />
    <glyph glyph-name="afii10082" unicode="&#x440;" horiz-adv-x="470" 
d="M40 500h144l8 -46q27 60 97 62q75 0 115 -74q36 -61 36 -192t-36 -192q-42 -74 -115 -74q-33 0 -60.5 17t-36.5 47v-248h-152v700zM187 253q0 -78 2 -91q5 -30 18.5 -41.5t26.5 -11.5q35 0 44 51q3 18 3 93q0 72 -2 87q-6 56 -45 56q-3 0 -6 -0.5t-9.5 -3.5t-11.5 -8.5
t-10.5 -17t-7.5 -26.5q-2 -13 -2 -87z" />
    <glyph glyph-name="afii10083" unicode="&#x441;" horiz-adv-x="444" 
d="M261 209h153q5 -89 -36 -152q-53 -77 -154 -77q-99 1 -150 77q-44 67 -44 193t44 193q53 77 150 77t150 -77q42 -61 36 -150h-152q0 47 -1 66q0 16 -7.5 30t-25.5 14t-26.5 -15t-8.5 -29q-2 -18 -2 -107q0 -88 2 -106q0 -1 1 -3q12 -38 34 -41q19 0 27.5 15t8.5 29
q1 8 1 63z" />
    <glyph glyph-name="afii10084" unicode="&#x442;" horiz-adv-x="312" 
d="M80 0v388h-70v112h292v-112h-70v-388h-152z" />
    <glyph glyph-name="afii10085" unicode="&#x443;" horiz-adv-x="414" 
d="M10 500h155l38 -392h10l36 392h155l-95 -546q-15 -91 -69 -133q-58 -46 -135 -41v122q33 0 55 16q30 22 34 70l1 12h-38q-23 0 -43 21t-25 49z" />
    <glyph glyph-name="afii10086" unicode="&#x444;" horiz-adv-x="621" 
d="M239 -200v192q-89 -1 -144 60q-65 68 -65 201q0 141 75 205q64 56 205 56q43 0 69.5 -2t66.5 -16.5t70 -42.5q75 -69 75 -200q-1 -136 -65 -201q-54 -60 -145 -60v-192h-142zM175 253v-15t0.5 -14.5t0.5 -13.5t0.5 -13.5t1 -11.5t1.5 -12t2.5 -11t3.5 -11.5t4 -9.5t5 -10
q18 -33 45 -31v306q-34 -2 -50 -33q-16 -30 -14 -120zM445 253q0 53 -2.5 76t-12.5 42q-19 35 -48 35l-1 -306q29 -3 48 30q11 19 13.5 43.5t2.5 79.5z" />
    <glyph glyph-name="afii10087" unicode="&#x445;" horiz-adv-x="418" 
d="M15 500h148l41 -189h10l41 189h148l-67 -234l72 -266h-153l-41 220h-10l-41 -220h-153l72 266z" />
    <glyph glyph-name="afii10088" unicode="&#x446;" horiz-adv-x="455" 
d="M35 500h153v-339q0 -32 4 -42q7 -19 27 -19q21 0 28 21q3 8 3 41v338h153v-338q0 -62 7 -73q15 -31 55 -30v-259h-146v200q-21 -2 -36 11q-12 10 -20 24q-14 -23 -38 -37q-28 -16 -66 -16q-58 0 -93 39q-14 17 -21.5 41t-8.5 40t-1 45v353z" />
    <glyph glyph-name="afii10089" unicode="&#x447;" horiz-adv-x="428" 
d="M388 0h-152v182q-14 -16 -29 -23q-22 -12 -55 -12q-47 0 -75.5 20.5t-40.5 47.5q-4 8 -7 15.5t-4.5 18l-2.5 17.5t-1.5 21t-0.5 21v25.5v26.5v140h152v-143q0 -52 1 -57q2 -10 4 -15.5t9.5 -11.5t18.5 -6q29 1 31 42v13v18v24v136h152v-500z" />
    <glyph glyph-name="afii10090" unicode="&#x448;" horiz-adv-x="633" 
d="M593 500v-500h-149l-4 46q-26 -58 -91 -58t-89 58q-36 -58 -106 -58q-72 0 -104 63q-8 17 -11 42.5t-3.5 42.5t-0.5 64v300h153v-355q0 -40 27 -40q29 0 29 40v355h140v-355q0 -40 29 -40q27 0 27 40v355h153z" />
    <glyph glyph-name="afii10091" unicode="&#x449;" horiz-adv-x="642" 
d="M35 500h153v-335q0 -26 1 -37q3 -25 26 -26q24 0 28 24q1 3 1 40v334h140v-332q0 -32 1 -41q4 -25 28 -25q9 0 14.5 3.5t7.5 8t4 13.5q1 9 1 40v333h153v-348q0 -52 9 -68q16 -25 50 -24v-260h-139v200q-17 2 -28 13q-13 13 -18 30q-11 -23 -33 -38q-32 -21 -71 -21
q-38 0 -66 20q-19 14 -30 36q-36 -59 -111 -56q-77 4 -106 65q-15 31 -15 114v337z" />
    <glyph glyph-name="afii10092" unicode="&#x44a;" horiz-adv-x="463" 
d="M276 204q0 49 -2 59q-9 43 -43 43t-42 -43q-2 -10 -2 -59t2 -59q4 -20 15.5 -31t26.5 -11q12 0 24.5 9.5t17.5 32.5q3 14 3 59zM-10 620h93q50 0 75 -25q29 -29 29 -82v-116q31 27 75 27q73 0 122 -58q49 -57 49 -162q0 -102 -50 -162q-53 -62 -149 -62q-104 0 -157 79
q-36 55 -36 144v297h-51v120z" />
    <glyph glyph-name="afii10093" unicode="&#x44b;" horiz-adv-x="673" 
d="M481 500h152v-500h-152v500zM270 204q0 49 -2 59q-9 43 -43 43t-42 -43q-2 -10 -2 -59t2 -59q4 -20 15.5 -31t26.5 -11q12 0 24.5 9.5t17.5 32.5q3 14 3 59zM35 540h146v-143q31 27 75 27q73 0 122 -58q49 -57 49 -162q0 -102 -50 -162q-53 -62 -149 -62q-104 0 -157 79
q-36 55 -36 144v337z" />
    <glyph glyph-name="afii10094" unicode="&#x44c;" horiz-adv-x="457" 
d="M270 204q0 49 -2 59q-9 43 -43 43t-42 -43q-2 -10 -2 -59t2 -59q4 -20 15.5 -31t26.5 -11q12 0 24.5 9.5t17.5 32.5q3 14 3 59zM35 540h146v-143q31 27 75 27q73 0 122 -58q49 -57 49 -162q0 -102 -50 -162q-56 -63 -152 -62q-104 1 -156 79q-34 52 -34 148v333z" />
    <glyph glyph-name="afii10095" unicode="&#x44d;" 
d="M30 193h147q0 -47 1 -56q2 -45 36 -45q37 0 37 56v64h-50v82h50v65q0 54 -35 54t-35 -46q-1 -11 -1 -56h-146q-2 89 39 143q17 25 53 45.5t92 20.5q96 0 146 -75q44 -67 44 -194q0 -131 -43 -196q-50 -75 -147 -75q-91 -1 -140 59q-50 61 -48 154z" />
    <glyph glyph-name="afii10096" unicode="&#x44e;" horiz-adv-x="656" 
d="M40 500h152v-184h46q5 85 50 139q54 65 139 65q86 0 141 -65q58 -71 58 -205q0 -138 -58 -205q-55 -65 -141 -65q-85 0 -139 65q-53 69 -51 163h-45v-208h-152v500zM385 289v-38q0 -14 0.5 -38t0.5 -47q0 -64 41 -64t41 64q0 26 0.5 49.5t0.5 35.5t-0.5 33.5t-0.5 50.5
q0 68 -41 68t-41 -68q0 -8 -0.5 -23.5t-0.5 -22.5z" />
    <glyph glyph-name="afii10097" unicode="&#x44f;" horiz-adv-x="446" 
d="M406 500v-500h-152v189h-27l-68 -189h-149l91 212q-27 16 -44 43q-22 35 -22 86q0 88 67 133q21 13 49 19t42.5 6.5t53.5 0.5h159zM254 403h-18q-23 0 -37 -15q-13 -15 -15 -45q0 -32 11 -47q12 -17 36 -17h23v124z" />
    <glyph glyph-name="afii10071" unicode="&#x451;" horiz-adv-x="449" 
d="M64 700h123v-135h-123v135zM261 700h123v-135h-123v135zM275 180h143q0 -80 -36 -130q-53 -70 -153 -70q-88 1 -141 67q-58 73 -58 203t58 203q55 67 141 67q97 0 148 -76q27 -40 34.5 -87t7.5 -114v-17h-237q-1 -67 3 -83q8 -49 44 -49q34 0 42 37q4 16 4 49zM229 411
q-30 0 -40 -33q-6 -18 -6 -57h93q0 39 -6 57q-11 33 -41 33z" />
    <glyph glyph-name="afii10099" unicode="&#x452;" horiz-adv-x="472" 
d="M69 700h152v-99h99v-108h-99v-113q10 16 29 27q22 14 55 14q47 0 75.5 -20.5t40.5 -47.5q16 -33 16 -145v-208q0 -102 -41 -150q-44 -50 -138 -50h-25v109h8q24 0 36 23q7 15 7 68v211q0 36 -1 48q-1 14 -7.5 24t-23.5 9q-31 -3 -31 -42v-46v-204h-152v493h-59v108h59v99
z" />
    <glyph glyph-name="afii10100" unicode="&#x453;" horiz-adv-x="428" 
d="M235 700h104l-80 -144h-104zM37 332v18q0 90 59 137q44 35 117 35q74 0 117 -31q59 -42 59 -122q0 -67 -43 -109q-25 -24 -84 -48q-50 -20 -64 -32q-15 -14 -15 -43q0 -21 5 -32q9 -15 27 -15q21 0 28 16q6 12 6 31v35h149v-11q0 -83 -54 -137q-48 -46 -130 -46
q-80 -2 -128 36q-56 41 -56 123q0 78 58 122q33 22 92 43q2 1 13 5.5t17 7t13.5 8.5t11.5 13q6 9 6 34q0 21 -2 26q-6 19 -27 19t-28 -19q-3 -7 -3 -26v-38h-144z" />
    <glyph glyph-name="afii10101" unicode="&#x454;" 
d="M261 193h147q2 -93 -48 -154q-49 -60 -140 -59q-97 0 -147 75q-43 65 -43 196q0 128 44 194q50 75 146 75q56 0 92 -20.5t53 -45.5q41 -54 39 -143h-146q0 45 -1 56q0 46 -35 46t-35 -54v-65h50v-82h-50v-64q0 -56 37 -56q34 0 36 45q1 9 1 56z" />
    <glyph glyph-name="afii10102" unicode="&#x455;" horiz-adv-x="428" 
d="M30 172h149q0 -61 4 -72q8 -25 30 -25q19 0 27 15q5 12 5 35q0 40 -15 55q-12 12 -64 32q-59 24 -84 49q-43 42 -43 107q0 82 57 123q44 31 116 31q82 0 124 -36q56 -46 51 -152h-142q0 61 -3 73q-6 25 -29 23q-19 -1 -26 -19q-3 -12 -2 -40q0 -25 9 -37q4 -6 12 -11.5
t13 -8t17.5 -7.5t13.5 -5q63 -23 90 -43q58 -43 58 -121q0 -89 -65 -131q-44 -29 -120 -29q-84 0 -129 45q-52 51 -54 149z" />
    <glyph glyph-name="afii10103" unicode="&#x456;" horiz-adv-x="232" 
d="M40 700h152v-145h-152v145zM40 500h152v-500h-152v500z" />
    <glyph glyph-name="afii10104" unicode="&#x457;" horiz-adv-x="324" 
d="M10 700h126v-145h-126v145zM188 700h126v-145h-126v145zM86 500h152v-500h-152v500z" />
    <glyph glyph-name="afii10105" unicode="&#x458;" horiz-adv-x="232" 
d="M40 700h152v-145h-152v145zM40 500h152v-700h-152v700z" />
    <glyph glyph-name="afii10106" unicode="&#x459;" horiz-adv-x="598" 
d="M359 224l15 -112h14q26 0 37 10q14 13 12 46t-21 46q-14 10 -43 10h-14zM82 500h237l24 -168h42q98 0 143 -34q56 -42 60 -133q4 -97 -60 -139q-41 -26 -143 -26h-141l-35 401h-17l-35 -401h-147z" />
    <glyph glyph-name="afii10107" unicode="&#x45a;" horiz-adv-x="618" 
d="M40 500h152v-183h54v183h150v-183h29q75 0 116 -31q52 -43 57 -121q2 -39 -12.5 -77.5t-42.5 -59.5q-18 -14 -43 -20.5t-38 -7t-48 -0.5h-168v212h-54v-212h-152v500zM396 102h12q19 0 29 10q14 14 14 45t-14 45q-10 10 -29 10h-12v-110z" />
    <glyph glyph-name="afii10108" unicode="&#x45b;" horiz-adv-x="472" 
d="M69 700h152v-99h99v-108h-99v-113q10 16 29 27q22 14 55 14q47 0 75.5 -20.5t40.5 -47.5q16 -33 16 -145v-208h-153v211q0 36 -1 48q-1 14 -7.5 24t-23.5 9q-31 -3 -31 -42v-46v-204h-152v493h-59v108h59v99z" />
    <glyph glyph-name="afii10109" unicode="&#x45c;" 
d="M40 500h152v-190h25l59 190h151l-83 -234l84 -266h-159l-52 214h-25v-214h-152v500zM254 700h104l-80 -144h-104z" />
    <glyph glyph-name="afii10110" unicode="&#x45e;" horiz-adv-x="414" 
d="M10 500h155l38 -392h10l36 392h155l-95 -546q-15 -91 -69 -133q-58 -46 -135 -41v122q33 0 55 16q30 22 34 70l1 12h-38q-23 0 -43 21t-25 49zM49 700h114q-2 -31 8 -50q12 -23 35 -23t35 23q10 19 8 50h114q0 -70 -42 -118q-43 -47 -115 -47q-76 0 -117 49
q-38 44 -40 116z" />
    <glyph glyph-name="afii10193" unicode="&#x45f;" horiz-adv-x="448" 
d="M40 500h153v-391h62v391h153v-500h-126v-200h-116v200h-126v500z" />
    <glyph glyph-name="afii10050" unicode="&#x490;" horiz-adv-x="331" 
d="M45 700h193v150h93v-280h-130v-570h-156v700z" />
    <glyph glyph-name="afii10098" unicode="&#x491;" horiz-adv-x="299" 
d="M40 500h165v200h94v-313h-107v-387h-152v500z" />
    <glyph glyph-name="cyrAE" unicode="&#x4d4;" horiz-adv-x="634" 
d="M131 700h388l20 -115h-132l30 -162h115l23 -124h-117l29 -170h114l23 -129h-275l-21 156h-138l-21 -156h-159zM249 587l-41 -303h102l-41 303h-20z" />
    <glyph glyph-name="cyrae" unicode="&#x4d5;" horiz-adv-x="661" 
d="M276 500h120v-41q29 56 93 57q73 1 111 -72q31 -63 31 -201v-17h-238q0 -74 2 -83q8 -49 46 -49q34 0 42 37q4 16 4 49h143q0 -74 -30 -130q-37 -66 -103 -66q-71 0 -101 58v-42h-120v43q-29 -59 -97 -59q-71 0 -113 74q-36 61 -36 192t36 192q42 74 113 74q58 0 97 -57
v41zM281 253q0 62 -3 87q-2 15 -4.5 24t-13 20.5t-26.5 11.5t-26.5 -11.5t-13 -20.5t-4.5 -24q-3 -25 -3 -87q0 -67 4 -93q0 -1 1 -5.5t1.5 -6.5t2 -7t3 -8t4 -7t5.5 -6.5t7 -5.5t8.5 -4t10.5 -1q13 0 21.5 5t13 16t6 16t3.5 16q3 22 3 91zM393 321h95v10q0 35 -4 47
q-11 33 -43 33q-30 0 -43 -33q-5 -11 -5 -47v-10z" />
    <glyph glyph-name="endash" unicode="&#x2013;" horiz-adv-x="490" 
d="M50 321h390v-113h-390v113z" />
    <glyph glyph-name="emdash" unicode="&#x2014;" horiz-adv-x="600" 
d="M0 241v80h600v-80h-600z" />
    <glyph glyph-name="quoteleft" unicode="&#x2018;" horiz-adv-x="252" 
d="M109 700h84q-24 -46 -45 -100q-16 -48 -18 -100h72v-172h-152v162q0 56 20 116q21 59 39 94z" />
    <glyph glyph-name="quoteright" unicode="&#x2019;" horiz-adv-x="252" 
d="M50 700h152v-162q0 -56 -20 -116q-21 -59 -39 -94h-84q24 46 45 100q16 48 18 100h-72v172z" />
    <glyph glyph-name="quotesinglbase" unicode="&#x201a;" horiz-adv-x="252" 
d="M50 172h152v-162q0 -56 -20 -116q-21 -59 -39 -94h-84q24 46 45 100q16 48 18 100h-72v172z" />
    <glyph glyph-name="quotedblleft" unicode="&#x201c;" horiz-adv-x="544" 
d="M109 700h84q-24 -46 -45 -100q-16 -48 -18 -100h72v-172h-152v162q0 56 20 116q21 59 39 94zM401 700h84q-24 -46 -45 -100q-16 -48 -18 -100h72v-172h-152v162q0 56 20 116q21 59 39 94z" />
    <glyph glyph-name="quotedblright" unicode="&#x201d;" horiz-adv-x="544" 
d="M50 700h152v-162q0 -56 -20 -116q-21 -59 -39 -94h-84q24 46 45 100q16 48 18 100h-72v172zM342 700h152v-162q0 -56 -20 -116q-21 -59 -39 -94h-84q24 46 45 100q16 48 18 100h-72v172z" />
    <glyph glyph-name="quotedblbase" unicode="&#x201e;" horiz-adv-x="544" 
d="M50 172h152v-162q0 -56 -20 -116q-21 -59 -39 -94h-84q24 46 45 100q16 48 18 100h-72v172zM342 172h152v-162q0 -56 -20 -116q-21 -59 -39 -94h-84q24 46 45 100q16 48 18 100h-72v172z" />
    <glyph glyph-name="dagger" unicode="&#x2020;" horiz-adv-x="480" 
d="M173 750h134v-183h123v-124h-123v-643h-134v643h-123v124h123v183z" />
    <glyph glyph-name="daggerdbl" unicode="&#x2021;" horiz-adv-x="480" 
d="M173 750h134v-183h123v-124h-123v-296h123v-124h-123v-223h-134v223h-123v124h123v296h-123v124h123v183z" />
    <glyph glyph-name="bullet" unicode="&#x2022;" horiz-adv-x="320" 
d="M50 256q0 45 32.5 77.5t77.5 32.5q44 0 77 -33t33 -77q0 -45 -32.5 -77.5t-77.5 -32.5q-46 0 -78 32t-32 78z" />
    <glyph glyph-name="ellipsis" unicode="&#x2026;" horiz-adv-x="566" 
d="M50 154h123v-154h-123v154zM221 154h124v-154h-124v154zM393 154h123v-154h-123v154z" />
    <glyph glyph-name="perthousand" unicode="&#x2030;" horiz-adv-x="1272" 
d="M364 500q0 -98 -43 -156q-42 -56 -114 -56t-114 56q-43 58 -43 156t43 156q42 56 114 56t114 -56q43 -58 43 -156zM256 498q0 58 -6 84q-9 40 -43 40t-43 -40q-6 -26 -6 -84t6 -80q9 -40 43 -40t43 40q6 22 6 80zM606 700h118l-442 -700h-118zM524 200q0 98 43 156
q42 56 114 56t114 -56q43 -58 43 -156t-43 -156q-42 -56 -114 -56t-114 56q-43 58 -43 156zM632 202q0 -58 6 -84q9 -40 43 -40t43 40q6 26 6 84t-6 80q-9 40 -43 40t-43 -40q-6 -22 -6 -80zM908 200q0 98 43 156q42 56 114 56t114 -56q43 -58 43 -156t-43 -156
q-42 -56 -114 -56t-114 56q-43 58 -43 156zM1016 202q0 -58 6 -84q9 -40 43 -40t43 40q6 26 6 84t-6 80q-9 40 -43 40t-43 -40q-6 -22 -6 -80z" />
    <glyph glyph-name="guilsinglleft" unicode="&#x2039;" horiz-adv-x="255" 
d="M50 285l155 215v-160l-56 -76v-28l56 -76v-160l-155 214v71z" />
    <glyph glyph-name="guilsinglright" unicode="&#x203a;" horiz-adv-x="255" 
d="M50 500l155 -215v-71l-155 -214v160l56 76v28l-56 76v160z" />
    <glyph glyph-name="Euro" unicode="&#x20ac;" horiz-adv-x="502" 
d="M38 443h44q7 101 50 172q68 110 192 105q76 -4 121 -49l-22 -97q-37 37 -82 35q-60 -2 -85 -64q-15 -36 -15 -102h158l-18 -74h-142q0 -43 1 -63h128l-17 -74h-106q2 -52 19 -85q28 -51 83 -53q58 -5 105 47v-117q-55 -44 -133 -44q-126 0 -191 111q-38 64 -42 141h-66
l18 74h39q-1 28 0 63h-57z" />
    <glyph glyph-name="afii61352" unicode="&#x2116;" horiz-adv-x="814" 
d="M50 0v432v25v28.5t0.5 26.5t2.5 29.5t4.5 26t7 28.5t10.5 25q52 98 176 98q119 0 166 -97q6 -13 10.5 -26.5t7 -29.5t4.5 -26.5t2.5 -29.5t0.5 -26v-27.5v-24.5v-432h-146v488q0 66 -7 81q-16 28 -43 27q-30 -1 -42 -28q-8 -15 -8 -81v-487h-146zM530 350h254v-82h-254
v82zM530 568q0 71 36 106q36 34 91 34t91 -34q36 -35 36 -106t-36 -107q-33 -33 -91 -33t-91 33q-36 36 -36 107zM626 568q0 -32 1 -44q0 -33 30 -33q11 0 17.5 6t8.5 11.5t4 15.5q1 11 1 44t-1 44q-7 35 -30 35t-30 -35q-1 -11 -1 -44z" />
    <glyph glyph-name="published" unicode="&#x2117;" horiz-adv-x="1031" 
d="M50 349q0 127 62 234t169.5 169t234.5 62q194 0 329.5 -136t135.5 -329t-135.5 -329t-329.5 -136q-127 0 -234.5 62t-169.5 169t-62 234zM151 349q0 -152 106.5 -258.5t258.5 -106.5t258.5 106.5t106.5 258.5t-106.5 258.5t-258.5 106.5t-258.5 -106.5t-106.5 -258.5z
M381 620h129q96 0 141 -43q54 -52 54 -145q0 -97 -61 -146q-48 -39 -126 -39h-14v-177h-123v550zM504 521v-175h12q34 0 50 26q12 17 12 59q0 44 -11 63q-16 27 -51 27h-12z" />
    <glyph glyph-name="trademark" unicode="&#x2122;" horiz-adv-x="629" 
d="M20 700h194v-71h-50v-279h-94v279h-50v71zM227 350v215v15.5v17t0.5 15.5t2 17t4.5 15t7 16q22 47 87 47q60 0 80 -50q19 50 80 50t87 -47q4 -7 7 -16t4.5 -15t2 -17t0.5 -15.5v-17v-15.5v-215h-94v215q0 41 -1 44q-4 20 -21 20t-21 -20q-1 -3 -1 -44v-215h-86v215
q0 41 -1 44q-4 20 -21 20t-21 -20q-1 -3 -1 -44v-215h-94z" />
    <glyph glyph-name="partialdiff" unicode="&#x2202;" horiz-adv-x="492" 
d="M108 710h34q140 0 218 -94q60 -70 75 -187q14 -109 2 -225q-14 -115 -62 -168q-51 -56 -135 -56q-79 0 -130 52q-60 60 -60 190q0 121 48 178q49 59 118 54q54 -3 87 -56q-2 40 -10 78q-18 77 -71 102q-18 9 -53 12.5t-61 1.5v118zM204 218q0 -73 3 -87q9 -35 37 -35
q30 0 39 35q3 14 3 87q0 68 -3 82q-9 35 -39 35q-28 0 -37 -35q-3 -14 -3 -82z" />
    <glyph glyph-name="product" unicode="&#x220f;" horiz-adv-x="500" 
d="M45 700h410v-700h-156v572h-98v-572h-156v700z" />
    <glyph glyph-name="summation" unicode="&#x2211;" horiz-adv-x="432" 
d="M30 700h367v-128h-209l120 -201l-120 -242h214v-129h-372v129l120 242l-120 201v128z" />
    <glyph glyph-name="minus" unicode="&#x2212;" horiz-adv-x="520" 
d="M50 302h420v-96h-420v96z" />
    <glyph glyph-name="division" unicode="&#x2215;" horiz-adv-x="400" 
d="M284 700h116l-282 -700h-118z" />
    <glyph glyph-name="uni2219" unicode="&#x2219;" horiz-adv-x="252" 
d="M50 343h152v-172h-152v172z" />
    <glyph glyph-name="radical" unicode="&#x221a;" horiz-adv-x="620" 
d="M50 500h172l98 -395h27v645h223v-105h-105v-645h-238l-99 395h-78v105z" />
    <glyph glyph-name="infinity" unicode="&#x221e;" horiz-adv-x="716" 
d="M358 242l-38 -42q-27 -30 -53.5 -45t-65.5 -15q-64 0 -107.5 47t-43.5 117q0 68 43.5 116t107.5 48q67 0 119 -60l38 -42l38 42q53 60 119 60q65 0 108 -46t43 -118t-43 -118t-108 -46q-42 0 -67.5 15.5t-51.5 44.5zM306 304l-34 36q-36 36 -67 36q-25 -1 -43 -20.5
t-17 -51.5q1 -34 19 -53t41 -19q34 0 67 35zM410 304l34 -35q34 -38 67 -37q24 1 41.5 20t18.5 52q1 32 -17 51.5t-43 20.5q-33 1 -71 -40z" />
    <glyph glyph-name="integral" unicode="&#x222b;" horiz-adv-x="332" 
d="M167 57l-103 419q-28 113 0 173q13 29 43 51t79 20q53 -2 74.5 -29t21.5 -57q-1 -28 -19.5 -47t-51.5 -19t-52 36q-4 -9 -5.5 -17.5t0 -18.5t2.5 -16t4.5 -20t5.5 -20l104 -418q31 -124 -7 -185q-16 -27 -48.5 -44t-70.5 -15q-43 2 -67 26t-27 54q-2 33 18 52.5t47 19.5
q36 0 53 -36q15 26 -1 91z" />
    <glyph glyph-name="approxequal" unicode="&#x2248;" horiz-adv-x="496" 
d="M50 111v98q49 31 94 31q40 0 104 -31q6 -3 20 -9.5t21 -9.5t18.5 -7.5t21.5 -6t20 -1.5q47 0 97 40v-98q-49 -31 -94 -31q-40 0 -104 31q-6 3 -20 9.5t-21 9.5t-18.5 7.5t-21.5 6t-20 1.5q-47 0 -97 -40zM50 288v98q49 31 94 31q40 0 104 -31q6 -3 20 -9.5t21 -9.5
t18.5 -7.5t21.5 -6t20 -1.5q47 0 97 40v-98q-49 -31 -94 -31q-40 0 -104 31q-6 3 -20 9.5t-21 9.5t-18.5 7.5t-21.5 6t-20 1.5q-47 0 -97 -40z" />
    <glyph glyph-name="notequal" unicode="&#x2260;" horiz-adv-x="520" 
d="M357 508h100l-72 -125h85v-86h-134l-50 -86h184v-86h-233l-72 -125h-102l72 125h-85v86h135l50 86h-185v86h235z" />
    <glyph glyph-name="lessequal" unicode="&#x2264;" horiz-adv-x="374" 
d="M50 452l274 138v-110l-196 -88v-20l196 -88v-110l-274 138v140zM50 236l274 -138v-108l-274 138v108z" />
    <glyph glyph-name="greaterequal" unicode="&#x2265;" horiz-adv-x="374" 
d="M50 590l274 -138v-140l-274 -138v110l196 88v20l-196 88v110zM50 98l274 138v-108l-274 -138v108z" />
    <glyph glyph-name="dotmath" unicode="&#x22c5;" horiz-adv-x="252" 
d="M50 343h152v-172h-152v172z" />
    <glyph glyph-name="diameter" unicode="&#x2300;" horiz-adv-x="800" 
d="M617 730h118l-93 -128q108 -102 108 -252q0 -84 -43.5 -164.5t-124 -134t-176.5 -53.5q-86 0 -171 44l-52 -72h-118l93 128q-108 102 -108 252q0 84 43.5 164.5t124 134t176.5 53.5q86 0 171 -44zM217 179l289 398q-57 23 -107 23q-102 0 -175.5 -71t-73.5 -179
q0 -99 67 -171zM583 521l-289 -398q57 -23 107 -23q102 0 175.5 71t73.5 179q0 99 -67 171z" />
    <glyph glyph-name="filledvertrect" unicode="&#x25ae;" horiz-adv-x="200" 
d="M50 700h100v-700h-100v700z" />
    <glyph glyph-name="lozenge" unicode="&#x25ca;" horiz-adv-x="520" 
d="M158 700h200l112 -350l-108 -350h-208l-104 350zM251 616l-70 -266l70 -261h16l72 261l-72 266h-16z" />
    <glyph glyph-name="openbullet" unicode="&#x25e6;" horiz-adv-x="380" 
d="M50 568q0 58 41 99t99 41t99 -41t41 -99t-41 -99t-99 -41t-99 41t-41 99zM130 568q0 -25 17.5 -42.5t42.5 -17.5t42.5 17.5t17.5 42.5t-17.5 42.5t-42.5 17.5t-42.5 -17.5t-17.5 -42.5z" />
    <glyph glyph-name="star" unicode="&#x2606;" horiz-adv-x="590" 
d="M177 98h236v13q0 14 -4 28t-8 21.5t-9 15.5l-5 7q-35 37 -92 37t-92 -37l-5 -7q-5 -8 -9 -15.5t-8 -21.5t-4 -28v-13zM55 0v21q0 65 9.5 114.5t41.5 92.5q68 90 189 90t189 -90q32 -43 41.5 -92.5t9.5 -114.5v-21h-480zM195 343l-137 -81q-17 58 1 111.5t66 87.5
q62 46 170 46t170 -46q48 -34 66 -87.5t1 -111.5l-137 81q7 33 -25 54q-23 17 -75 17t-75 -17q-32 -21 -25 -54z" />
    <glyph glyph-name="Acute" unicode="&#xf6c9;" horiz-adv-x="331" 
d="M208 850h114l-91 -120h-115z" />
    <glyph glyph-name="Dieresis" unicode="&#xf6cb;" horiz-adv-x="384" 
d="M58 840h113v-90h-113v90zM216 840h112v-90h-112v90z" />
    <glyph glyph-name="cyrBreve" unicode="&#xf6d1;" horiz-adv-x="502" 
d="M96 870h106q-2 -23 5 -39q13 -33 44 -33t44 32q7 16 5 40h106q-6 -69 -45 -113q-41 -45 -110 -45q-68 0 -110 46q-39 42 -45 112z" />
    <glyph glyph-name="cyrbreve" unicode="&#xf6d4;" 
d="M62 700h114q-2 -31 8 -50q12 -23 35 -23t35 23q10 19 8 50h114q0 -70 -42 -118q-43 -47 -115 -47q-76 0 -117 49q-38 44 -40 116z" />
    <glyph glyph-name="uniFEFF" unicode="&#xfeff;" horiz-adv-x="0" 
 />
    <glyph glyph-name="afii10040.ss01" horiz-adv-x="519" 
d="M40 700h156v-487q0 -49 10 -66q16 -26 45 -26t45 25q10 17 10 67v487h156v-432q0 -79 -4.5 -110.5t-16.5 -52.5l68 -54l-60 -80l-67 57q-43 -46 -131 -46q-63 0 -108 28.5t-69 68.5q-7 11 -12.5 23.5t-9 22.5t-6 26t-4 23.5t-2 26t-0.5 22.5v24v21v432z" />
    <glyph glyph-name="afii10042.ss01" horiz-adv-x="740" 
d="M40 700h156v-450q0 -70 3 -84q10 -43 47 -43q38 0 47 43q3 14 3 84v450h148v-450q0 -70 3 -84q9 -43 47 -43q37 0 47 43q3 14 3 84v450h156v-451q0 -122 -28 -175q-50 -90 -157 -90q-102 2 -145 86q-43 -84 -145 -86q-107 0 -157 90q-28 53 -28 176v450z" />
    <glyph glyph-name="afii10043.ss01" horiz-adv-x="768" 
d="M45 700h156v-450q0 -70 3 -84q10 -43 46 -43q39 0 49 43q3 14 3 84v450h148v-450q0 -70 3 -84q10 -43 49 -43q38 1 46 43q3 14 3 84v450h156v-451v-19v-19.5t-0.5 -17.5t-1.5 -19.5t-3 -19t-5 -22.5t-7 -23l68 -54l-63 -84l-62 50q-45 -38 -111 -37q-43 0 -77 18t-48 35
t-21 33q-44 -86 -146 -86q-110 0 -157 90q-28 53 -28 176v450z" />
    <glyph glyph-name="afii10069.ss01" horiz-adv-x="470" 
d="M430 500v-700h-152v243q-29 -59 -97 -59q-73 0 -115 74q-36 61 -36 192t36 192q42 74 115 74q58 0 97 -57l8 41h144zM283 253q0 67 -3 87q-8 56 -44 56t-44 -56q-3 -24 -3 -87q0 -68 4 -93q9 -51 43 -51q14 0 26.5 11.5t17.5 41.5q3 20 3 91z" />
    <glyph glyph-name="afii10074.ss01" 
d="M35 500h153v-323v-41q3 -32 31 -32q27 0 31 33v40v323h153v-268v-24v-27.5t-1 -25.5t-3.5 -28t-6.5 -25t-10.5 -28t-15.5 -25q-50 -69 -147 -69q-96 0 -147 68q-7 9 -12 19t-9 21.5t-7 20.5t-4.5 22.5t-2.5 21t-1.5 22.5t-0.5 19.5v20v17.5v268z" />
    <glyph glyph-name="afii10075.ss01" 
d="M62 700h114q-2 -31 8 -50q12 -23 35 -23t35 23q10 19 8 50h114q0 -70 -42 -118q-43 -47 -115 -47q-76 0 -117 49q-38 44 -40 116zM35 500h153v-323v-41q3 -32 31 -32q27 0 31 33v40v323h153v-268v-24v-27.5t-1 -25.5t-3.5 -28t-6.5 -25t-10.5 -28t-15.5 -25
q-50 -69 -147 -69q-96 0 -147 68q-7 9 -12 19t-9 21.5t-7 20.5t-4.5 22.5t-2.5 21t-1.5 22.5t-0.5 19.5v20v17.5v268z" />
    <glyph glyph-name="afii10038.ss01" horiz-adv-x="712" 
d="M259 706v-119q-35 -16 -53 -63q-15 -40 -15 -174q0 -126 17 -174q10 -32 26.5 -48t48.5 -21v448q0 31 0.5 45.5t7 37.5t20.5 40q31 40 96 42q120 3 198 -93q72 -102 72 -277q0 -184 -79 -275q-83 -95 -242 -95q-157 0 -240 95q-81 92 -81 275q0 185 79 275q57 67 145 81z
M429 596v-489q29 6 47.5 22t30.5 52q7 19 10 47.5t3.5 47.5t0.5 74q0 121 -13 168q-11 39 -28.5 56.5t-50.5 21.5z" />
    <glyph glyph-name="afii10086.ss01" horiz-adv-x="621" 
d="M223 506v-108q-23 -6 -36 -33q-11 -24 -11 -112q0 -96 15 -123q18 -30 48 -30v268q0 27 2 45t14.5 42t36.5 39q32 20 82 20q93 0 151 -61q66 -69 66 -200q0 -132 -65 -201q-55 -59 -144 -60v-192h-143v192q-89 1 -144 60q-65 69 -65 201q0 129 68 199q50 50 125 54z
M381 406v-306q30 -1 49 30q15 27 15 123t-15 123q-19 31 -49 30z" />
    <glyph glyph-name="afii10090.ss01" horiz-adv-x="628" 
d="M35 500h153v-350q0 -40 28 -40t28 40v350h140v-350q0 -40 28 -40t28 40v350h153v-300q0 -105 -28 -150q-41 -68 -125 -68q-39 0 -73 18.5t-53 55.5q-37 -72 -126 -74q-82 -1 -125 68q-28 45 -28 150v300z" />
    <glyph glyph-name="afii10092.ss01" horiz-adv-x="473" 
d="M286 244q0 74 -2 91q0 1 -1 7t-2 9t-3.5 9t-5.5 10t-7 8t-10 6t-14 2q-23 0 -32.5 -17.5t-9.5 -33.5q-2 -18 -2 -91q0 -77 2 -91q6 -50 42 -50t42 50q3 24 3 91zM-10 700h103q50 0 75 -25q29 -29 29 -82v-116q30 27 75 27q77 1 124 -64q47 -62 47 -196q0 -131 -50 -196
q-51 -68 -149 -68q-106 0 -157 79q-39 59 -39 184v334h-58v123z" />
    <glyph glyph-name="afii10093.ss01" horiz-adv-x="682" 
d="M35 650h149v-173q32 27 75 27q76 0 123 -64q48 -65 48 -196t-50 -196q-51 -68 -149 -68q-109 0 -157 79q-39 61 -39 184v407zM273 244q0 76 -2 91q0 1 -1 7t-2 9t-3.5 9t-5.5 10t-7 8t-10 6t-14 2q-23 0 -32.5 -17.5t-9.5 -33.5q-2 -18 -2 -91q0 -77 2 -91q6 -50 42 -50
q7 0 14 2t17 14t12 34q2 14 2 91zM490 500h152v-500h-152v500z" />
    <glyph glyph-name="afii10094.ss01" horiz-adv-x="460" 
d="M35 650h149v-173q31 27 75 27q77 0 124 -64q47 -68 47 -196q0 -130 -50 -196q-51 -68 -149 -68q-109 0 -157 79q-39 61 -39 184v407zM273 244q0 74 -2 91q0 1 -1 7t-2 9t-3.5 9t-5.5 10t-7 8t-10 6t-14 2q-23 0 -32.5 -17.5t-9.5 -33.5q-2 -18 -2 -91q0 -77 2 -91
q6 -50 42 -50t42 50q3 24 3 91z" />
    <glyph glyph-name="afii10026.ss01" horiz-adv-x="502" 
d="M40 700h156v-487q0 -49 10 -66q16 -26 45 -26t45 25q10 17 10 67v487h156v-432q0 -41 -1 -63t-9 -60t-24 -66q-23 -41 -68 -69t-109 -28q-63 0 -108.5 28.5t-68.5 68.5q-7 11 -12.5 23.5t-9 22.5t-6 26t-4 23.5t-2 26t-0.5 22.5v24v21v432z" />
    <glyph glyph-name="afii10098.ss01" horiz-adv-x="308" 
d="M204 700h94v-200v-126h-47q-41 0 -53 -25q-5 -11 -5 -61v-288h-153v268v19.5v23t1 22.5t2.5 25t4.5 24t8 25.5t12 22.5t16 22q49 52 120 48v200z" />
    <glyph glyph-name="afii10193.ss01" 
d="M35 500h153v-323q0 -30 1 -41q3 -32 30 -32t30 33q1 12 1 40v323h153v-268v-23.5v-26.5t-1 -25t-3.5 -29t-6.5 -26.5t-10.5 -29t-15.5 -25.5q-34 -47 -89 -58v-189h-116v189q-56 10 -89 57q-7 9 -12 19t-9 22l-7 21t-4.5 22.5t-2.5 21t-1.5 22.5t-0.5 20v20.5v17.5v268z
" />
    <glyph glyph-name="afii10145.ss01" horiz-adv-x="502" 
d="M40 700h156v-487q0 -49 10 -66q16 -26 45 -26t45 25q10 17 10 67v487h156v-432q0 -129 -34 -190q-38 -69 -119 -89v-189h-116v190q-75 19 -119 88q-17 28 -25 68.5t-8.5 58t-0.5 63.5v432z" />
    <glyph glyph-name="u.ss01" 
d="M35 500h153v-323v-41q3 -32 31 -32q27 0 31 33v40v323h153v-268v-24v-27.5t-1 -25.5t-3.5 -28t-6.5 -25t-10.5 -28t-15.5 -25q-50 -69 -147 -69q-96 0 -147 68q-7 9 -12 19t-9 21.5t-7 20.5t-4.5 22.5t-2.5 21t-1.5 22.5t-0.5 19.5v20v17.5v268z" />
    <glyph glyph-name="r.ss01" horiz-adv-x="308" 
d="M40 0v312q0 32 1 49t8 46t22 50q42 62 138 61q52 0 99 -18v-129q-36 20 -63 20q-37 0 -47 -28q-4 -10 -4 -45v-318h-154z" />
    <glyph glyph-name="m.ss01" horiz-adv-x="628" 
d="M35 0v300q0 4 -0.5 21t0 25.5t1.5 24.5t4 27.5t8 25.5t13 26q41 68 127 68q85 0 126 -74q40 74 126 74q84 1 127 -68q13 -20 19 -48.5t6.5 -46t0.5 -55.5v-300h-153v355q0 40 -28 40t-28 -40v-355h-140v355q0 40 -28 40t-28 -40v-355h-153z" />
    <glyph glyph-name="n.ss01" 
d="M35 0v268v24v27.5t1 24.5t3.5 28.5t6 25t10 28t14.5 24.5q48 70 149 70t149 -70q8 -12 14.5 -24.5t10 -28t6 -25t3.5 -28.5t1 -24.5v-27.5v-24v-268h-153v318v23.5v16v8.5q-4 33 -31 33q-28 0 -31 -32v-49v-318h-153z" />
    <glyph glyph-name="afii10033.ss01" horiz-adv-x="492" 
d="M40 0v432v29.5v33.5t1.5 29.5t5 33.5t9.5 30t15 34q54 97 175 97q122 0 175 -96q9 -15 15.5 -32.5t9.5 -31t4.5 -34t2 -30.5t0 -33t-0.5 -30v-432h-156v488q0 55 -8 72q-13 25 -42 25t-42 -25q-8 -14 -8 -73v-487h-156z" />
    <glyph glyph-name="afii10027.ss01" horiz-adv-x="502" 
d="M96 870h106q-2 -23 5 -39q13 -33 44 -33t44 32q7 16 5 40h106q-6 -69 -45 -113q-41 -45 -110 -45q-68 0 -110 46q-39 42 -45 112zM40 700h156v-487q0 -49 10 -66q16 -26 45 -26t45 25q10 17 10 67v487h156v-432q0 -41 -1 -63t-9 -60t-24 -66q-23 -41 -68 -69t-109 -28
q-63 0 -108.5 28.5t-68.5 68.5q-7 11 -12.5 23.5t-9 22.5t-6 26t-4 23.5t-2 26t-0.5 22.5v24v21v432z" />
    <glyph glyph-name="afii10081.ss01" 
d="M35 0v268v24v27.5t1 24.5t3.5 28.5t6 25t10 28t14.5 24.5q50 70 149 70t149 -70q8 -12 14.5 -24.5t10 -28t6 -25t3.5 -28.5t1 -24.5v-27.5v-24v-268h-153v318v25.5v16v8.5q-4 33 -31 33q-28 0 -31 -32v-51v-318h-153z" />
  </font>
</defs>
</svg>
