<svg width="32" height="21" viewBox="0 0 32 21" fill="none" xmlns="http://www.w3.org/2000/svg">
<path d="M17.4254 20.7121C6.52642 20.7121 0.309807 13.092 0.0507812 0.412109H5.51024C5.68957 9.71882 9.71443 13.661 12.9024 14.4738V0.412109H18.0431V8.43864C21.1913 8.09319 24.4988 4.43553 25.6146 0.412109H30.7553C30.3348 2.49877 29.4967 4.47451 28.2933 6.21574C27.0899 7.95697 25.5472 9.42623 23.7616 10.5316C25.7547 11.5417 27.5152 12.9713 28.9268 14.7261C30.3384 16.481 31.3691 18.5212 31.9508 20.7121H26.2921C25.7699 18.8091 24.7086 17.1057 23.2412 15.8152C21.7738 14.5247 19.9656 13.7047 18.0431 13.4578V20.7121H17.4254V20.7121Z" fill="url(#paint0_linear_381_173)"/>
<defs>
<linearGradient id="paint0_linear_381_173" x1="0.0508205" y1="10.5568" x2="31.9083" y2="10.5568" gradientUnits="userSpaceOnUse">
<stop stop-color="#EDE0D3"/>
<stop offset="0.18" stop-color="#D5BC9C"/>
<stop offset="0.67" stop-color="#E7DBC6"/>
<stop offset="1" stop-color="#D6B690"/>
</linearGradient>
</defs>
</svg>
