<svg width="31" height="31" viewBox="0 0 31 31" fill="none" xmlns="http://www.w3.org/2000/svg">
<path d="M26.0159 4.91258C24.6405 3.52775 23.0034 2.43003 21.1998 1.68324C19.3961 0.936452 17.4617 0.555528 15.5094 0.562597C12.8994 0.565147 10.3358 1.25297 8.07544 2.55718C5.81508 3.86138 3.9373 5.73621 2.63009 7.99387C1.32289 10.2515 0.632195 12.8129 0.627129 15.4212C0.622083 18.0297 1.30287 20.5935 2.60131 22.8563L0.5 30.5625L8.37992 28.5C10.5558 29.7098 13.0008 30.3546 15.4906 30.375C19.4488 30.3752 23.2467 28.8128 26.0576 26.028C28.8687 23.2435 30.4653 19.4618 30.5 15.5063C30.4869 13.5325 30.0839 11.5807 29.3144 9.76283C28.545 7.94493 27.424 6.2967 26.0159 4.91258ZM15.5094 27.8063C13.2912 27.8078 11.1135 27.2119 9.20544 26.0813L8.75516 25.8L4.08349 27.0375L5.32176 22.4813L5.02158 22.0125C3.42542 19.4376 2.82972 16.3669 3.34732 13.3823C3.86492 10.3978 5.45987 7.70662 7.83002 5.81863C10.2002 3.93063 13.1809 2.97695 16.2075 3.13826C19.2341 3.29954 22.0966 4.56462 24.2523 6.69382C26.6088 8.99667 27.9578 12.1379 28.0047 15.4313C27.975 18.7236 26.6454 21.871 24.3053 24.1887C21.9653 26.5061 18.8039 27.8065 15.5094 27.8063ZM22.2824 18.5438C21.9071 18.3563 20.0872 17.4563 19.7495 17.3438C19.4118 17.2313 19.1492 17.1563 18.9053 17.5313C18.5383 18.034 18.1435 18.5159 17.7233 18.975C17.5169 19.2375 17.2917 19.2563 16.9165 18.975C14.7771 18.1302 12.9947 16.5739 11.8696 14.5688C11.4756 13.9126 12.2448 13.9501 12.9578 12.5438C13.0105 12.4424 13.0379 12.3299 13.0379 12.2157C13.0379 12.1015 13.0105 11.989 12.9578 11.8876C12.9578 11.7001 12.1135 9.86256 11.8133 9.13131C11.5131 8.40007 11.2129 8.51257 10.969 8.49382H10.2373C10.0477 8.49672 9.86098 8.54005 9.68949 8.62088C9.51801 8.70172 9.36578 8.81821 9.24296 8.96256C8.82199 9.37165 8.49364 9.86616 8.28004 10.4128C8.06644 10.9594 7.97255 11.5454 8.00469 12.1313C8.12233 13.534 8.6509 14.8709 9.52439 15.9751C11.1233 18.3672 13.3144 20.305 15.8846 21.6C17.2326 22.3864 18.7992 22.7153 20.3499 22.5375C20.8662 22.4352 21.3553 22.2253 21.7852 21.9216C22.2152 21.618 22.5764 21.2273 22.8452 20.775C23.0944 20.223 23.1728 19.6094 23.0704 19.0125C22.9015 18.825 22.6576 18.7313 22.2824 18.5438Z" fill="url(#paint0_linear_174_1454)"/>
<defs>
<linearGradient id="paint0_linear_174_1454" x1="0.500037" y1="15.5546" x2="30.4601" y2="15.5546" gradientUnits="userSpaceOnUse">
<stop stop-color="#EDE0D3"/>
<stop offset="0.18" stop-color="#D5BC9C"/>
<stop offset="0.67" stop-color="#E7DBC6"/>
<stop offset="1" stop-color="#D6B690"/>
</linearGradient>
</defs>
</svg>
