<svg width="33" height="23" viewBox="0 0 33 23" fill="none" xmlns="http://www.w3.org/2000/svg">
<path fill-rule="evenodd" clip-rule="evenodd" d="M3.61256 21.7949C3.03397 21.6266 2.50606 21.3272 2.07335 20.922C1.64065 20.5169 1.31586 20.0177 1.12639 19.4668C0.0436992 16.6192 -0.277098 4.72855 1.80808 2.38121C2.50207 1.6176 3.48188 1.14747 4.53485 1.07285C10.1287 0.495635 27.4117 0.572598 29.3966 1.26526C29.9549 1.43907 30.4649 1.73187 30.8886 2.12173C31.3122 2.51158 31.6384 2.98838 31.8427 3.5164C33.0256 6.4602 33.0657 17.1579 31.6823 19.9863C31.3153 20.7225 30.7009 21.3189 29.9379 21.6794C27.8528 22.6799 6.37943 22.6607 3.61256 21.7949V21.7949ZM12.4946 16.2151L22.5195 11.2126L12.4946 6.17159V16.2151Z" fill="url(#paint0_linear_381_29)"/>
<defs>
<linearGradient id="paint0_linear_381_29" x1="0.275431" y1="11.5568" x2="32.6822" y2="11.5568" gradientUnits="userSpaceOnUse">
<stop stop-color="#EDE0D3"/>
<stop offset="0.18" stop-color="#D5BC9C"/>
<stop offset="0.67" stop-color="#E7DBC6"/>
<stop offset="1" stop-color="#D6B690"/>
</linearGradient>
</defs>
</svg>
