<?xml version="1.0" standalone="no"?>
<!DOCTYPE svg PUBLIC "-//W3C//DTD SVG 20010904//EN"
 "http://www.w3.org/TR/2001/REC-SVG-20010904/DTD/svg10.dtd">
<svg version="1.0" xmlns="http://www.w3.org/2000/svg"
 width="128.000000pt" height="128.000000pt" viewBox="0 0 128.000000 128.000000"
 preserveAspectRatio="xMidYMid meet">
<metadata>
Created by potrace 1.14, written by Peter Selinger 2001-2017
</metadata>
<g transform="translate(0.000000,128.000000) scale(0.100000,-0.100000)"
fill="#000000" stroke="none">
<path d="M487 1264 c-209 -50 -379 -204 -455 -416 -24 -66 -26 -86 -26 -208 1
-119 4 -144 27 -208 77 -218 261 -380 477 -421 94 -17 254 -7 338 22 278 96
437 334 428 637 -6 166 -60 297 -171 412 -63 66 -82 80 -148 117 -97 54 -171
73 -297 76 -71 2 -137 -2 -173 -11z"/>
</g>
</svg>
